<svg width="91" height="90" viewBox="0 0 91 90" fill="none" xmlns="http://www.w3.org/2000/svg">
<path fill-rule="evenodd" clip-rule="evenodd" d="M42.8735 1.23876C26.8332 8.53218 13.5406 18.223 1.92306 31.0938C0.219314 32.9814 0.194517 33.0226 0.283924 33.8145C0.333747 34.2567 0.507102 35.8008 0.669309 37.2454C2.44699 53.0963 7.97957 69.661 16.3836 84.2961C17.7147 86.6138 17.2611 86.359 21.6339 87.2451C37.1746 90.394 53.9899 90.3933 69.5429 87.2433C74.0319 86.334 73.528 86.6222 74.9456 84.1534C83.8005 68.7319 89.2992 51.4596 90.7297 34.5732L90.8608 33.0269L90.0131 32.0402C79.1059 19.3455 63.4632 7.85901 47.8191 1.05699C45.3847 -0.00156796 45.6203 -0.0104405 42.8735 1.23876ZM50.9352 6.17346C64.2248 12.7826 74.0799 20.0828 84.7749 31.2415L87.4724 34.0559L87.3591 35.4554C86.2073 49.6856 80.5029 67.6644 72.8931 81.0494C71.3645 83.738 71.8331 83.4127 68.5649 84.0547C53.3228 87.0493 38.3601 87.0436 22.7432 84.0376L19.6869 83.4495L18.85 82.0185C11.4571 69.3811 6.02557 53.0353 4.11093 37.6622C3.59792 33.5435 3.18637 34.3673 8.34971 29.1776C18.5654 18.9091 29.4228 11.1876 42.029 5.22479C45.8585 3.41343 45.2557 3.34905 50.9352 6.17346ZM43.7178 19.7959C43.7178 20.4075 43.7585 20.4527 44.3084 20.4527H44.8987L44.7966 22.6574C44.6687 25.414 43.9093 28.0112 43.2018 28.1117C42.7948 28.1695 42.7796 28.2419 42.7796 30.1285V32.0857H43.8115H44.8434V30.8604V29.6353L47.2358 29.6879L49.628 29.7404L49.567 30.913L49.5061 32.0857H50.5521H51.5981V30.2218V28.3581L51.0822 28.2988L50.5662 28.2394L50.5089 25.331C50.427 21.17 50.5339 20.4527 51.2364 20.4527C51.7392 20.4527 51.7858 20.397 51.7858 19.7959V19.1394H47.7518H43.7178V19.7959ZM32.0409 21.0015L31.428 21.55L31.4835 23.4239C31.5356 25.1872 31.514 25.3153 31.1159 25.5942C30.5938 25.9598 30.5057 25.8702 30.1317 24.5935C29.7465 23.2783 29.7545 23.1438 30.2263 23.0205C30.5858 22.9266 30.622 21.9654 30.2798 21.5934C30.1133 21.4126 26.456 22.5749 26.456 22.8087C26.456 23.5062 26.8086 23.9699 27.272 23.8814C27.8264 23.7754 28.7546 26.1871 28.2789 26.4976C27.7311 26.8553 27.2916 26.534 26.6434 25.303C25.6224 23.3631 24.8296 22.7962 23.6577 23.1682C23.031 23.367 23.0872 24.7682 23.7219 24.7682C24.2806 24.7682 24.7322 25.1984 25.0928 26.074C25.4429 26.9251 26.0515 27.5826 26.4885 27.5826C26.6771 27.5826 26.8311 27.667 26.8311 27.7703C26.8311 27.8733 26.757 27.958 26.6662 27.958C26.2753 27.958 26.0303 29.1228 26.1502 30.4125C26.2665 31.6635 26.2492 31.7461 25.7769 32.1838L25.2814 32.6431L25.7764 33.2921C26.3297 34.0176 26.9826 33.979 27.7043 33.1782C28.0571 32.7864 28.1386 30.8506 27.8658 29.3366C27.7477 28.6819 28.1197 28.1454 28.6918 28.1454C29.4679 28.1454 29.9966 31.3165 29.2235 31.3322C29.0272 31.3363 29.0527 32.1228 29.2595 32.4499C29.6069 32.9989 33.2357 31.7879 33.0887 31.1721C32.9163 30.4491 32.8633 30.397 32.3005 30.397C31.8286 30.397 31.7624 30.3012 31.4667 29.191C31.2899 28.5278 31.0956 27.8558 31.0351 27.6979C30.8838 27.3039 31.7968 27.078 32.1972 27.4104C32.3596 27.5453 32.8207 28.3081 33.2218 29.1059C34.0499 30.753 34.4922 31.1475 35.5098 31.1475C36.2671 31.1475 36.3104 31.095 36.4644 29.9857C36.5565 29.3227 36.5356 29.2907 35.9725 29.2351C35.465 29.1853 35.29 29.0099 34.6992 27.958C34.2433 27.146 33.7917 26.6116 33.3488 26.3595C32.7288 26.0067 32.7022 25.9553 32.9632 25.609C33.1734 25.3296 33.2223 24.8906 33.159 23.8438C33.0812 22.5516 33.1085 22.4195 33.5346 22.0245C33.9894 21.603 33.9906 21.5925 33.6557 21.0256C33.2321 20.3083 32.8217 20.3021 32.0409 21.0015ZM48.3656 24.3459L48.3146 28.0517L47.7627 28.1145C47.4592 28.1491 46.8566 28.1243 46.4237 28.0592L45.6365 27.9411L45.9928 27.0031C46.3554 26.0488 46.7108 23.4093 46.7167 21.6255L46.7199 20.6404H47.5682H48.4163L48.3656 24.3459ZM61.5993 21.1955C61.3433 21.3047 61.1158 21.6423 60.9998 22.0848C60.4929 24.0174 60.4611 23.9035 61.5679 24.1109C62.2379 24.2367 62.2504 24.2276 62.5045 23.4243C63.0498 21.7008 65.4053 23.1213 65.3753 25.1556C65.3562 26.4437 65.2987 26.4571 62.7352 25.7794C62.4028 25.6916 62.2947 25.7892 62.1121 26.3427C61.8229 27.2188 61.8937 27.2987 63.2006 27.5762C64.8166 27.9191 64.8543 27.9593 64.4792 28.9417C63.6818 31.0292 60.2657 31.7843 60.7132 29.7741C60.9413 28.7487 60.9074 28.6532 60.2532 28.4789C59.3359 28.2348 59.1885 28.3609 58.9214 29.6201C58.6115 31.0795 58.6943 31.2526 59.9922 31.8594C61.4471 32.5393 63.4859 32.571 64.6949 31.9319C67.2997 30.5553 68.3012 24.4674 66.2626 22.4033C65.2936 21.4223 62.6637 20.7412 61.5993 21.1955ZM38.4743 28.1352C37.9484 28.6614 37.9609 29.7004 38.4996 30.202C39.7427 31.3602 41.7731 29.7149 40.7682 28.3636C40.2684 27.6913 39.0406 27.5692 38.4743 28.1352ZM54.1016 28.4393C53.7132 28.8277 53.6425 29.0363 53.7355 29.5182C54.0781 31.2924 56.6641 31.1637 56.6641 29.3723C56.6641 28.0371 55.0805 27.4604 54.1016 28.4393ZM10.1322 36.1766C10.2869 36.2726 18.329 39.7893 28.0034 43.9915L45.5933 51.6316L63.4124 43.8855C73.2129 39.6251 81.2127 36.1202 81.1895 36.097C81.1663 36.0738 79.9467 36.2578 78.4791 36.5058C71.3508 37.7109 62.2702 38.8775 55.6322 39.4415C53.9742 39.5823 49.8493 39.6806 45.594 39.6806C38.1072 39.6806 35.97 39.5618 28.5199 38.7324C23.2148 38.1415 13.0146 36.6678 10.3503 36.1072C9.99635 36.0328 9.93265 36.0531 10.1322 36.1766ZM32.8665 67.285C25.9234 75.8108 20.2687 82.8114 20.3003 82.8414C20.3321 82.8717 25.9728 79.0674 32.8353 74.3877C39.6978 69.7078 45.4215 65.8742 45.5546 65.8688C45.7525 65.8608 51.5852 69.7868 70.1264 82.4083C70.565 82.707 70.924 82.9101 70.924 82.8598C70.924 82.7199 45.7889 51.8873 45.6297 51.832C45.553 51.8052 39.8095 58.7592 32.8665 67.285Z" fill="#E6342A"/>
</svg>
