<svg width="1033" height="254" viewBox="0 0 1033 254" fill="none" xmlns="http://www.w3.org/2000/svg">
<path d="M0 40.1182C0 18.0268 17.9086 0.118164 40 0.118164H827.5C843.24 0.118164 856 12.878 856 28.6182C856 44.3583 868.76 57.1182 884.5 57.1182H993C1015.09 57.1182 1033 75.0268 1033 97.1182V140.618C1033 161.329 1016.21 178.118 995.5 178.118C974.789 178.118 958 194.907 958 215.618C958 236.329 941.211 253.118 920.5 253.118H40C17.9086 253.118 0 235.21 0 213.118V40.1182Z" fill="url(#paint0_linear_2007_42449)"/>
<defs>
<linearGradient id="paint0_linear_2007_42449" x1="864.085" y1="195.251" x2="846.527" y2="-66.2595" gradientUnits="userSpaceOnUse">
<stop stop-color="#7D68FB"/>
<stop offset="1" stop-color="#AFA2FB"/>
</linearGradient>
</defs>
</svg>
