<svg width="690" height="422" viewBox="0 0 690 422" fill="none" xmlns="http://www.w3.org/2000/svg">
<path fill-rule="evenodd" clip-rule="evenodd" d="M690 30C690 13.4315 676.569 0 660 0H30C13.4315 0 0 13.4315 0 30V392C0 408.569 13.4315 422 30 422H590C606.569 422 620 408.569 620 392V382C620 365.431 633.431 352 650 352H660C676.569 352 690 338.569 690 322V30Z" fill="url(#paint0_linear_785_56657)"/>
<mask id="mask0_785_56657" style="mask-type:alpha" maskUnits="userSpaceOnUse" x="0" y="0" width="690" height="422">
<path fill-rule="evenodd" clip-rule="evenodd" d="M30 0C13.4315 0 0 13.4315 0 30V392C0 408.569 13.4315 422 30 422H590C606.569 422 620 408.569 620 392V382C620 365.431 633.431 352 650 352H660C676.569 352 690 338.569 690 322V30C690 13.4315 676.569 0 660 0H30Z" fill="#272320"/>
</mask>
<g mask="url(#mask0_785_56657)">
<path opacity="0.3" d="M211 102.615V103.615H212H237.629C243.144 103.615 247.846 101.922 251.671 98.5069C255.517 95.0725 257.441 90.652 257.441 85.3269C257.441 79.3675 255.006 74.7476 250.195 71.5663C253.524 68.4821 255.198 64.53 255.198 59.7775C255.198 54.6192 253.299 50.3407 249.513 47.0225C245.803 43.664 241.215 42 235.817 42H212H211V43V102.615ZM239.688 64.5163L239.68 64.5244L239.672 64.5328C238.664 65.5746 237.405 66.1016 235.817 66.1016H224.909V54.9863H235.817C237.472 54.9863 238.757 55.5199 239.758 56.5551C240.771 57.6023 241.289 58.9075 241.289 60.544C241.289 62.1661 240.752 63.466 239.688 64.5163ZM241.917 80.3175L241.924 80.3252L241.932 80.3326C243.05 81.4367 243.619 82.8203 243.619 84.5604C243.619 86.3621 243.047 87.8064 241.924 88.966C240.806 90.0661 239.4 90.6291 237.629 90.6291H224.909V78.5769H237.629C239.391 78.5769 240.794 79.1614 241.917 80.3175Z" stroke="white" stroke-width="2"/>
<path opacity="0.3" d="M211 195.615V196.615H212H237.629C243.144 196.615 247.846 194.922 251.671 191.507C255.517 188.072 257.441 183.652 257.441 178.327C257.441 172.368 255.006 167.748 250.195 164.566C253.524 161.482 255.198 157.53 255.198 152.777C255.198 147.619 253.299 143.341 249.513 140.022C245.803 136.664 241.215 135 235.817 135H212H211V136V195.615ZM239.688 157.516L239.68 157.524L239.672 157.533C238.664 158.575 237.405 159.102 235.817 159.102H224.909V147.986H235.817C237.472 147.986 238.757 148.52 239.758 149.555C240.771 150.602 241.289 151.907 241.289 153.544C241.289 155.166 240.752 156.466 239.688 157.516ZM241.917 173.318L241.924 173.325L241.932 173.333C243.05 174.437 243.619 175.82 243.619 177.56C243.619 179.362 243.047 180.806 241.924 181.966C240.806 183.066 239.4 183.629 237.629 183.629H224.909V171.577H237.629C239.391 171.577 240.794 172.161 241.917 173.318Z" stroke="white" stroke-width="2"/>
<path opacity="0.3" d="M211 288.615V289.615H212H237.629C243.144 289.615 247.846 287.922 251.671 284.507C255.517 281.072 257.441 276.652 257.441 271.327C257.441 265.368 255.006 260.748 250.195 257.566C253.524 254.482 255.198 250.53 255.198 245.777C255.198 240.619 253.299 236.341 249.513 233.022C245.803 229.664 241.215 228 235.817 228H212H211V229V288.615ZM239.688 250.516L239.68 250.524L239.672 250.533C238.664 251.575 237.405 252.102 235.817 252.102H224.909V240.986H235.817C237.472 240.986 238.757 241.52 239.758 242.555C240.771 243.602 241.289 244.907 241.289 246.544C241.289 248.166 240.752 249.466 239.688 250.516ZM241.917 266.318L241.924 266.325L241.932 266.333C243.05 267.437 243.619 268.82 243.619 270.56C243.619 272.362 243.047 273.806 241.924 274.966C240.806 276.066 239.4 276.629 237.629 276.629H224.909V264.577H237.629C239.391 264.577 240.794 265.161 241.917 266.318Z" stroke="white" stroke-width="2"/>
<path opacity="0.3" d="M211 381.615V382.615H212H237.629C243.144 382.615 247.846 380.922 251.671 377.507C255.517 374.072 257.441 369.652 257.441 364.327C257.441 358.368 255.006 353.748 250.195 350.566C253.524 347.482 255.198 343.53 255.198 338.777C255.198 333.619 253.299 329.341 249.513 326.022C245.803 322.664 241.215 321 235.817 321H212H211V322V381.615ZM239.688 343.516L239.68 343.524L239.672 343.533C238.664 344.575 237.405 345.102 235.817 345.102H224.909V333.986H235.817C237.472 333.986 238.757 334.52 239.758 335.555C240.771 336.602 241.289 337.907 241.289 339.544C241.289 341.166 240.752 342.466 239.688 343.516ZM241.917 359.318L241.924 359.325L241.932 359.333C243.05 360.437 243.619 361.82 243.619 363.56C243.619 365.362 243.047 366.806 241.924 367.966C240.806 369.066 239.4 369.629 237.629 369.629H224.909V357.577H237.629C239.391 357.577 240.794 358.161 241.917 359.318Z" stroke="white" stroke-width="2"/>
<g filter="url(#filter0_f_785_56657)">
<ellipse cx="533" cy="204" rx="214" ry="202" fill="#F99CDA"/>
</g>
</g>
<defs>
<filter id="filter0_f_785_56657" x="175" y="-142" width="716" height="692" filterUnits="userSpaceOnUse" color-interpolation-filters="sRGB">
<feFlood flood-opacity="0" result="BackgroundImageFix"/>
<feBlend mode="normal" in="SourceGraphic" in2="BackgroundImageFix" result="shape"/>
<feGaussianBlur stdDeviation="72" result="effect1_foregroundBlur_785_56657"/>
</filter>
<linearGradient id="paint0_linear_785_56657" x1="125" y1="134" x2="256.628" y2="604.644" gradientUnits="userSpaceOnUse">
<stop stop-color="#AFA2FB"/>
<stop offset="1" stop-color="#7D68FB"/>
</linearGradient>
</defs>
</svg>
