<svg width="356" height="295" viewBox="0 0 356 295" fill="none" xmlns="http://www.w3.org/2000/svg">
<path fill-rule="evenodd" clip-rule="evenodd" d="M355 20C355 8.9543 346.046 0 335 0H20C8.9543 0 0 8.9543 0 20V275C0 286.046 8.9543 295 20 295H287C298.046 295 307 286.046 307 275V267C307 255.954 315.954 247 327 247H335C346.046 247 355 238.046 355 227V20Z" fill="url(#paint0_linear_1125_47251)"/>
<mask id="mask0_1125_47251" style="mask-type:alpha" maskUnits="userSpaceOnUse" x="0" y="0" width="355" height="295">
<path fill-rule="evenodd" clip-rule="evenodd" d="M20 0C8.9543 0 0 8.9543 0 20V275C0 286.046 8.9543 295 20 295H287C298.046 295 307 286.046 307 275V267C307 255.954 315.954 247 327 247H335C346.046 247 355 238.046 355 227V20C355 8.95431 346.046 0 335 0H20Z" fill="#272320"/>
</mask>
<g mask="url(#mask0_1125_47251)">
<g filter="url(#filter0_f_1125_47251)">
<path d="M344.748 -52C320.749 -52 296.985 -47.5382 274.813 -38.8692C252.641 -30.2003 232.495 -17.494 215.526 -1.47592C198.556 14.5422 185.095 33.5584 175.911 54.4871C166.727 75.4158 162 97.847 162 120.5C162 143.153 166.727 165.584 175.911 186.513C185.095 207.442 198.556 226.458 215.526 242.476C232.495 258.494 252.641 271.2 274.813 279.869C296.985 288.538 320.749 293 344.748 293L344.748 120.5V-52Z" fill="#F99CDA"/>
</g>
</g>
<path opacity="0.3" d="M106.384 59.2745V59.8908H107H122.795C126.191 59.8908 129.088 58.8612 131.445 56.783C133.816 54.6925 135.004 51.9999 135.004 48.7549C135.004 46.8135 134.575 45.0869 133.696 43.5965C132.95 42.3322 131.894 41.262 130.547 40.3805C132.592 38.5045 133.622 36.1004 133.622 33.2087C133.622 30.065 132.449 27.4588 130.115 25.4391C127.828 23.3954 125.002 22.3837 121.678 22.3837H107H106.384V23V59.2745ZM124.066 36.0838L124.061 36.0888L124.056 36.094C123.436 36.7272 122.659 37.049 121.678 37.049H114.955V30.3011H121.678C122.7 30.3011 123.493 30.6269 124.109 31.2562C124.732 31.8923 125.05 32.6835 125.05 33.6751C125.05 34.6576 124.721 35.4457 124.066 36.0838ZM125.44 45.715L125.44 45.7151L125.449 45.7243C126.137 46.3951 126.486 47.2341 126.486 48.2885C126.486 49.3805 126.135 50.2564 125.444 50.961C124.756 51.6298 123.888 51.9734 122.795 51.9734H114.955V44.6555H122.795C123.883 44.6555 124.748 45.0122 125.44 45.715ZM162.843 52.4342V51.8179H162.226H147.154V44.9146H160.631H161.247V44.2983V37.5616V36.9453H160.631H147.154V30.4566H161.96H162.577V29.8403V23V22.3837H161.96H139.199H138.583V23V59.2745V59.8908H139.199H162.226H162.843V59.2745V52.4342ZM188.937 22.3837H188.321V23V43.219L173.483 22.6396L173.299 22.3837H172.983H167.399H166.783V23V59.2745V59.8908H167.399H174.738H175.354V59.2745V39.0073L190.192 59.6344L190.376 59.8908H190.692H196.276H196.893V59.2745V23V22.3837H196.276H188.937ZM200.765 52.5694L200.246 52.8583L200.515 53.3875C201.735 55.7823 203.425 57.6003 205.589 58.8144C207.749 60.026 210.344 60.6163 213.349 60.6163C217.297 60.6163 220.586 59.5269 223.164 57.3059C225.771 55.0603 227.048 51.9221 227.048 47.9776V23V22.3837H226.432H219.146H218.53V23V47.9776C218.53 49.396 218.099 50.4472 217.288 51.2075C216.49 51.9564 215.217 52.3879 213.349 52.3879C212.033 52.3879 210.947 52.1204 210.066 51.6147C209.189 51.1109 208.479 50.3499 207.941 49.3027L207.65 48.7354L207.093 49.0456L200.765 52.5694ZM255.353 59.474L255.496 59.8908H255.936H263.914H264.791L264.493 59.0654L251.411 22.7909L251.264 22.3837H250.831H241.737H241.304L241.157 22.7917L228.128 59.0662L227.832 59.8908H228.708H236.632H237.072L237.215 59.474L239.306 53.3614H253.262L255.353 59.474ZM304.573 23V22.3837H303.957H296.405H296.062L295.881 22.6752L285.768 38.9853L275.603 22.6741L275.422 22.3837H275.08H267.528H266.912V23V59.2745V59.8908H267.528H274.867H275.483V59.2745V37.9515L284.821 52.9159L285.002 53.2059H285.344H286.194H286.537L286.718 52.9152L296.055 37.9053V59.2745V59.8908H296.671H303.957H304.573V59.2745V23ZM310.893 22.3837H310.277V23V59.2745V59.8908H310.893H318.232H318.848V59.2745V23V22.3837H318.232H310.893ZM346.661 22.3837H346.045V23V43.219L331.207 22.6396L331.022 22.3837H330.707H325.123H324.507V23V59.2745V59.8908H325.123H332.462H333.078V59.2745V39.0073L347.916 59.6344L348.1 59.8908H348.416H354H354.616V59.2745V23V22.3837H354H346.661ZM242.07 45.444L246.311 33.1317L250.552 45.444H242.07Z" stroke="white" stroke-width="1.23255"/>
<path opacity="0.3" d="M106.384 116.275V116.891H107H122.795C126.191 116.891 129.088 115.861 131.445 113.783C133.816 111.693 135.004 109 135.004 105.755C135.004 103.813 134.575 102.087 133.696 100.596C132.95 99.3322 131.894 98.262 130.547 97.3805C132.592 95.5045 133.622 93.1004 133.622 90.2087C133.622 87.065 132.449 84.4588 130.115 82.4391C127.828 80.3954 125.002 79.3837 121.678 79.3837H107H106.384V80V116.275ZM124.066 93.0838L124.061 93.0888L124.056 93.094C123.436 93.7272 122.659 94.049 121.678 94.049H114.955V87.3011H121.678C122.7 87.3011 123.493 87.6269 124.109 88.2562C124.732 88.8923 125.05 89.6835 125.05 90.6751C125.05 91.6576 124.721 92.4457 124.066 93.0838ZM125.44 102.715L125.44 102.715L125.449 102.724C126.137 103.395 126.486 104.234 126.486 105.289C126.486 106.381 126.135 107.256 125.444 107.961C124.756 108.63 123.888 108.973 122.795 108.973H114.955V101.655H122.795C123.883 101.655 124.748 102.012 125.44 102.715ZM162.843 109.434V108.818H162.226H147.154V101.915H160.631H161.247V101.298V94.5616V93.9453H160.631H147.154V87.4566H161.96H162.577V86.8403V80V79.3837H161.96H139.199H138.583V80V116.275V116.891H139.199H162.226H162.843V116.275V109.434ZM188.937 79.3837H188.321V80V100.219L173.483 79.6396L173.299 79.3837H172.983H167.399H166.783V80V116.275V116.891H167.399H174.738H175.354V116.275V96.0073L190.192 116.634L190.376 116.891H190.692H196.276H196.893V116.275V80V79.3837H196.276H188.937ZM200.765 109.569L200.246 109.858L200.515 110.388C201.735 112.782 203.425 114.6 205.589 115.814C207.749 117.026 210.344 117.616 213.349 117.616C217.297 117.616 220.586 116.527 223.164 114.306C225.771 112.06 227.048 108.922 227.048 104.978V80V79.3837H226.432H219.146H218.53V80V104.978C218.53 106.396 218.099 107.447 217.288 108.207C216.49 108.956 215.217 109.388 213.349 109.388C212.033 109.388 210.947 109.12 210.066 108.615C209.189 108.111 208.479 107.35 207.941 106.303L207.65 105.735L207.093 106.046L200.765 109.569ZM255.353 116.474L255.496 116.891H255.936H263.914H264.791L264.493 116.065L251.411 79.7909L251.264 79.3837H250.831H241.737H241.304L241.157 79.7917L228.128 116.066L227.832 116.891H228.708H236.632H237.072L237.215 116.474L239.306 110.361H253.262L255.353 116.474ZM304.573 80V79.3837H303.957H296.405H296.062L295.881 79.6752L285.768 95.9853L275.603 79.6741L275.422 79.3837H275.08H267.528H266.912V80V116.275V116.891H267.528H274.867H275.483V116.275V94.9515L284.821 109.916L285.002 110.206H285.344H286.194H286.537L286.718 109.915L296.055 94.9053V116.275V116.891H296.671H303.957H304.573V116.275V80ZM310.893 79.3837H310.277V80V116.275V116.891H310.893H318.232H318.848V116.275V80V79.3837H318.232H310.893ZM346.661 79.3837H346.045V80V100.219L331.207 79.6396L331.022 79.3837H330.707H325.123H324.507V80V116.275V116.891H325.123H332.462H333.078V116.275V96.0073L347.916 116.634L348.1 116.891H348.416H354H354.616V116.275V80V79.3837H354H346.661ZM242.07 102.444L246.311 90.1317L250.552 102.444H242.07Z" stroke="white" stroke-width="1.23255"/>
<path opacity="0.3" d="M106.384 173.275V173.891H107H122.795C126.191 173.891 129.088 172.861 131.445 170.783C133.816 168.693 135.004 166 135.004 162.755C135.004 160.813 134.575 159.087 133.696 157.596C132.95 156.332 131.894 155.262 130.547 154.38C132.592 152.504 133.622 150.1 133.622 147.209C133.622 144.065 132.449 141.459 130.115 139.439C127.828 137.395 125.002 136.384 121.678 136.384H107H106.384V137V173.275ZM124.066 150.084L124.061 150.089L124.056 150.094C123.436 150.727 122.659 151.049 121.678 151.049H114.955V144.301H121.678C122.7 144.301 123.493 144.627 124.109 145.256C124.732 145.892 125.05 146.684 125.05 147.675C125.05 148.658 124.721 149.446 124.066 150.084ZM125.44 159.715L125.44 159.715L125.449 159.724C126.137 160.395 126.486 161.234 126.486 162.289C126.486 163.381 126.135 164.256 125.444 164.961C124.756 165.63 123.888 165.973 122.795 165.973H114.955V158.655H122.795C123.883 158.655 124.748 159.012 125.44 159.715ZM162.843 166.434V165.818H162.226H147.154V158.915H160.631H161.247V158.298V151.562V150.945H160.631H147.154V144.457H161.96H162.577V143.84V137V136.384H161.96H139.199H138.583V137V173.275V173.891H139.199H162.226H162.843V173.275V166.434ZM188.937 136.384H188.321V137V157.219L173.483 136.64L173.299 136.384H172.983H167.399H166.783V137V173.275V173.891H167.399H174.738H175.354V173.275V153.007L190.192 173.634L190.376 173.891H190.692H196.276H196.893V173.275V137V136.384H196.276H188.937ZM200.765 166.569L200.246 166.858L200.515 167.388C201.735 169.782 203.425 171.6 205.589 172.814C207.749 174.026 210.344 174.616 213.349 174.616C217.297 174.616 220.586 173.527 223.164 171.306C225.771 169.06 227.048 165.922 227.048 161.978V137V136.384H226.432H219.146H218.53V137V161.978C218.53 163.396 218.099 164.447 217.288 165.207C216.49 165.956 215.217 166.388 213.349 166.388C212.033 166.388 210.947 166.12 210.066 165.615C209.189 165.111 208.479 164.35 207.941 163.303L207.65 162.735L207.093 163.046L200.765 166.569ZM255.353 173.474L255.496 173.891H255.936H263.914H264.791L264.493 173.065L251.411 136.791L251.264 136.384H250.831H241.737H241.304L241.157 136.792L228.128 173.066L227.832 173.891H228.708H236.632H237.072L237.215 173.474L239.306 167.361H253.262L255.353 173.474ZM304.573 137V136.384H303.957H296.405H296.062L295.881 136.675L285.768 152.985L275.603 136.674L275.422 136.384H275.08H267.528H266.912V137V173.275V173.891H267.528H274.867H275.483V173.275V151.952L284.821 166.916L285.002 167.206H285.344H286.194H286.537L286.718 166.915L296.055 151.905V173.275V173.891H296.671H303.957H304.573V173.275V137ZM310.893 136.384H310.277V137V173.275V173.891H310.893H318.232H318.848V173.275V137V136.384H318.232H310.893ZM346.661 136.384H346.045V137V157.219L331.207 136.64L331.022 136.384H330.707H325.123H324.507V137V173.275V173.891H325.123H332.462H333.078V173.275V153.007L347.916 173.634L348.1 173.891H348.416H354H354.616V173.275V137V136.384H354H346.661ZM242.07 159.444L246.311 147.132L250.552 159.444H242.07Z" stroke="white" stroke-width="1.23255"/>
<path opacity="0.3" d="M106.384 230.275V230.891H107H122.795C126.191 230.891 129.088 229.861 131.445 227.783C133.816 225.693 135.004 223 135.004 219.755C135.004 217.813 134.575 216.087 133.696 214.596C132.95 213.332 131.894 212.262 130.547 211.38C132.592 209.504 133.622 207.1 133.622 204.209C133.622 201.065 132.449 198.459 130.115 196.439C127.828 194.395 125.002 193.384 121.678 193.384H107H106.384V194V230.275ZM124.066 207.084L124.061 207.089L124.056 207.094C123.436 207.727 122.659 208.049 121.678 208.049H114.955V201.301H121.678C122.7 201.301 123.493 201.627 124.109 202.256C124.732 202.892 125.05 203.684 125.05 204.675C125.05 205.658 124.721 206.446 124.066 207.084ZM125.44 216.715L125.44 216.715L125.449 216.724C126.137 217.395 126.486 218.234 126.486 219.289C126.486 220.381 126.135 221.256 125.444 221.961C124.756 222.63 123.888 222.973 122.795 222.973H114.955V215.655H122.795C123.883 215.655 124.748 216.012 125.44 216.715ZM162.843 223.434V222.818H162.226H147.154V215.915H160.631H161.247V215.298V208.562V207.945H160.631H147.154V201.457H161.96H162.577V200.84V194V193.384H161.96H139.199H138.583V194V230.275V230.891H139.199H162.226H162.843V230.275V223.434ZM188.937 193.384H188.321V194V214.219L173.483 193.64L173.299 193.384H172.983H167.399H166.783V194V230.275V230.891H167.399H174.738H175.354V230.275V210.007L190.192 230.634L190.376 230.891H190.692H196.276H196.893V230.275V194V193.384H196.276H188.937ZM200.765 223.569L200.246 223.858L200.515 224.388C201.735 226.782 203.425 228.6 205.589 229.814C207.749 231.026 210.344 231.616 213.349 231.616C217.297 231.616 220.586 230.527 223.164 228.306C225.771 226.06 227.048 222.922 227.048 218.978V194V193.384H226.432H219.146H218.53V194V218.978C218.53 220.396 218.099 221.447 217.288 222.207C216.49 222.956 215.217 223.388 213.349 223.388C212.033 223.388 210.947 223.12 210.066 222.615C209.189 222.111 208.479 221.35 207.941 220.303L207.65 219.735L207.093 220.046L200.765 223.569ZM255.353 230.474L255.496 230.891H255.936H263.914H264.791L264.493 230.065L251.411 193.791L251.264 193.384H250.831H241.737H241.304L241.157 193.792L228.128 230.066L227.832 230.891H228.708H236.632H237.072L237.215 230.474L239.306 224.361H253.262L255.353 230.474ZM304.573 194V193.384H303.957H296.405H296.062L295.881 193.675L285.768 209.985L275.603 193.674L275.422 193.384H275.08H267.528H266.912V194V230.275V230.891H267.528H274.867H275.483V230.275V208.952L284.821 223.916L285.002 224.206H285.344H286.194H286.537L286.718 223.915L296.055 208.905V230.275V230.891H296.671H303.957H304.573V230.275V194ZM310.893 193.384H310.277V194V230.275V230.891H310.893H318.232H318.848V230.275V194V193.384H318.232H310.893ZM346.661 193.384H346.045V194V214.219L331.207 193.64L331.022 193.384H330.707H325.123H324.507V194V230.275V230.891H325.123H332.462H333.078V230.275V210.007L347.916 230.634L348.1 230.891H348.416H354H354.616V230.275V194V193.384H354H346.661ZM242.07 216.444L246.311 204.132L250.552 216.444H242.07Z" stroke="white" stroke-width="1.23255"/>
<defs>
<filter id="filter0_f_1125_47251" x="39.0297" y="-174.97" width="428.689" height="590.941" filterUnits="userSpaceOnUse" color-interpolation-filters="sRGB">
<feFlood flood-opacity="0" result="BackgroundImageFix"/>
<feBlend mode="normal" in="SourceGraphic" in2="BackgroundImageFix" result="shape"/>
<feGaussianBlur stdDeviation="61.4852" result="effect1_foregroundBlur_1125_47251"/>
</filter>
<linearGradient id="paint0_linear_1125_47251" x1="135" y1="37" x2="266.628" y2="507.644" gradientUnits="userSpaceOnUse">
<stop stop-color="#AFA2FB"/>
<stop offset="1" stop-color="#7D68FB"/>
</linearGradient>
</defs>
</svg>
