<svg width="24" height="24" viewBox="0 0 24 24" fill="none" xmlns="http://www.w3.org/2000/svg">
<path d="M19.5385 2H14.2637C14.044 2 13.8242 2.08791 13.6484 2.26374L5.12088 10.7912L2.65934 13.2527C1.78022 14.1319 1.78022 15.5385 2.65934 16.4176L7.58242 21.3407C8.02198 21.7802 8.59341 22 9.16483 22C9.73626 22 10.3077 21.7802 10.7473 21.3407L21.7363 10.3516C21.9121 10.1758 22 9.95604 22 9.73626V4.46154C22 3.0989 20.9011 2 19.5385 2ZM9.51648 20.1099C9.34066 20.2857 9.03297 20.2857 8.85714 20.1099L3.89011 15.1868C3.71429 15.011 3.71429 14.7033 3.89011 14.5275L5.73626 12.6813L11.3187 18.2637L9.51648 20.1099ZM18.3956 7.89011C17.7802 8.50549 16.7253 8.50549 16.1099 7.89011C15.4945 7.27472 15.4945 6.21978 16.1099 5.6044C16.7253 4.98901 17.7802 4.98901 18.3956 5.6044C19.011 6.21978 19.011 7.27472 18.3956 7.89011Z" fill="#FF9935"/>
</svg>
