<svg width="28" height="28" viewBox="0 0 28 28" fill="none" xmlns="http://www.w3.org/2000/svg">
<path d="M3.5 5.59097C3.5 5.0788 3.91205 4.66675 4.42422 4.66675H6.17638C7.02358 4.66675 7.77451 5.15966 8.12495 5.89904H23.9522C24.965 5.89904 25.7044 6.86177 25.4386 7.8399L23.8598 13.7048C23.5324 14.914 22.4349 15.7574 21.1834 15.7574H10.0735L10.2815 16.8549C10.3662 17.29 10.7474 17.6058 11.1903 17.6058H22.2925C22.8046 17.6058 23.2167 18.0179 23.2167 18.53C23.2167 19.0422 22.8046 19.4542 22.2925 19.4542H11.1903C9.85786 19.4542 8.71414 18.5069 8.46768 17.2015L6.48061 6.76549C6.45365 6.61916 6.32657 6.51519 6.17638 6.51519H4.42422C3.91205 6.51519 3.5 6.10314 3.5 5.59097ZM8.42917 22.535C8.42917 22.2922 8.47698 22.0519 8.56987 21.8276C8.66276 21.6033 8.79892 21.3996 8.97056 21.2279C9.14221 21.0563 9.34598 20.9201 9.57024 20.8272C9.7945 20.7344 10.0349 20.6865 10.2776 20.6865C10.5203 20.6865 10.7607 20.7344 10.985 20.8272C11.2092 20.9201 11.413 21.0563 11.5846 21.2279C11.7563 21.3996 11.8924 21.6033 11.9853 21.8276C12.0782 22.0519 12.126 22.2922 12.126 22.535C12.126 22.7777 12.0782 23.0181 11.9853 23.2423C11.8924 23.4666 11.7563 23.6704 11.5846 23.842C11.413 24.0137 11.2092 24.1498 10.985 24.2427C10.7607 24.3356 10.5203 24.3834 10.2776 24.3834C10.0349 24.3834 9.7945 24.3356 9.57024 24.2427C9.34598 24.1498 9.14221 24.0137 8.97056 23.842C8.79892 23.6704 8.66276 23.4666 8.56987 23.2423C8.47698 23.0181 8.42917 22.7777 8.42917 22.535ZM21.3682 20.6865C21.8585 20.6865 22.3286 20.8813 22.6753 21.2279C23.0219 21.5746 23.2167 22.0447 23.2167 22.535C23.2167 23.0252 23.0219 23.4954 22.6753 23.842C22.3286 24.1887 21.8585 24.3834 21.3682 24.3834C20.878 24.3834 20.4078 24.1887 20.0612 23.842C19.7145 23.4954 19.5198 23.0252 19.5198 22.535C19.5198 22.0447 19.7145 21.5746 20.0612 21.2279C20.4078 20.8813 20.878 20.6865 21.3682 20.6865Z" fill="white"/>
</svg>
