<svg width="25" height="25" viewBox="0 0 25 25" fill="none" xmlns="http://www.w3.org/2000/svg">
<path d="M3.5 5.29219C3.5 4.85318 3.85318 4.5 4.29219 4.5H5.79404C6.52022 4.5 7.16387 4.9225 7.46424 5.55625H21.0305C21.8986 5.55625 22.5323 6.38145 22.3046 7.21984L20.9512 12.2469C20.6707 13.2834 19.7299 14.0062 18.6572 14.0062H9.13443L9.31268 14.947C9.38529 15.32 9.71207 15.5906 10.0917 15.5906H19.6078C20.0468 15.5906 20.4 15.9438 20.4 16.3828C20.4 16.8218 20.0468 17.175 19.6078 17.175H10.0917C8.94959 17.175 7.96926 16.363 7.75801 15.244L6.05481 6.29893C6.0317 6.1735 5.92277 6.08437 5.79404 6.08437H4.29219C3.85318 6.08437 3.5 5.73119 3.5 5.29219ZM7.725 19.8156C7.725 19.6076 7.76598 19.4015 7.8456 19.2093C7.92523 19.0171 8.04193 18.8424 8.18905 18.6953C8.33618 18.5482 8.51084 18.4315 8.70306 18.3519C8.89529 18.2722 9.10131 18.2312 9.30938 18.2312C9.51744 18.2312 9.72346 18.2722 9.91569 18.3519C10.1079 18.4315 10.2826 18.5482 10.4297 18.6953C10.5768 18.8424 10.6935 19.0171 10.7731 19.2093C10.8528 19.4015 10.8938 19.6076 10.8938 19.8156C10.8938 20.0237 10.8528 20.2297 10.7731 20.4219C10.6935 20.6142 10.5768 20.7888 10.4297 20.9359C10.2826 21.0831 10.1079 21.1998 9.91569 21.2794C9.72346 21.359 9.51744 21.4 9.30938 21.4C9.10131 21.4 8.89529 21.359 8.70306 21.2794C8.51084 21.1998 8.33618 21.0831 8.18905 20.9359C8.04193 20.7888 7.92523 20.6142 7.8456 20.4219C7.76598 20.2297 7.725 20.0237 7.725 19.8156ZM18.8156 18.2312C19.2358 18.2312 19.6388 18.3982 19.936 18.6953C20.2331 18.9924 20.4 19.3954 20.4 19.8156C20.4 20.2358 20.2331 20.6388 19.936 20.9359C19.6388 21.2331 19.2358 21.4 18.8156 21.4C18.3954 21.4 17.9924 21.2331 17.6953 20.9359C17.3982 20.6388 17.2313 20.2358 17.2313 19.8156C17.2313 19.3954 17.3982 18.9924 17.6953 18.6953C17.9924 18.3982 18.3954 18.2312 18.8156 18.2312Z" fill="#3B3C40"/>
</svg>
