<svg width="24" height="24" viewBox="0 0 24 24" fill="none" xmlns="http://www.w3.org/2000/svg">
<path d="M3.42862 4.74603C3.42862 3.78172 4.21034 3 5.17465 3H18.8254C19.7898 3 20.5715 3.78172 20.5715 4.74603H3.42862Z" fill="#E50E78"/>
<path d="M2.47661 7.44525C2.47661 6.48094 3.25833 5.69922 4.22264 5.69922H19.7782C20.7425 5.69922 21.5242 6.48094 21.5242 7.44525H2.47661Z" fill="#E50E78"/>
<path d="M3.00005 10.3975C3.00005 9.84518 3.44776 9.39746 4.00005 9.39746H20C20.5523 9.39746 21 9.84518 21 10.3975V18.6197C21 19.172 20.5523 19.6197 20 19.6197H4.00005C3.44776 19.6197 3.00005 19.172 3.00005 18.6197V10.3975Z" stroke="#E50E78" stroke-width="2"/>
</svg>
