<svg width="24" height="24" viewBox="0 0 24 24" fill="none" xmlns="http://www.w3.org/2000/svg">
<path d="M15.4698 3.71003L13.9098 7.45003C13.3112 7.19975 12.6687 7.07086 12.0198 7.07086C11.371 7.07086 10.7285 7.19975 10.1298 7.45003L8.58984 3.67003C9.68204 3.22035 10.8527 2.99231 12.0339 2.99917C13.215 3.00604 14.383 3.24768 15.4698 3.71003Z" fill="#F43434"/>
<path d="M20.2897 15.4701L16.5497 13.9101C16.8 13.3114 16.9289 12.669 16.9289 12.0201C16.9289 11.3712 16.8 10.7288 16.5497 10.1301L20.3097 8.59009C20.7625 9.68096 20.994 10.851 20.9905 12.0321C20.9871 13.2132 20.7489 14.3819 20.2897 15.4701Z" fill="#DAE234"/>
<path d="M20.3202 8.5902L16.5702 10.1302C16.3272 9.52791 15.9669 8.97994 15.5102 8.51814C15.0536 8.05633 14.5097 7.68992 13.9102 7.4402L15.4802 3.7002C16.5708 4.15378 17.5603 4.81968 18.3912 5.65918C19.2221 6.49867 19.8778 7.49499 20.3202 8.5902Z" fill="#E08B36"/>
<path d="M15.4103 20.3199L13.8703 16.5699C14.4726 16.3269 15.0206 15.9666 15.4824 15.51C15.9442 15.0533 16.3106 14.5094 16.5603 13.9099L20.3103 15.4799C19.8556 16.5714 19.1881 17.5615 18.3469 18.3925C17.5056 19.2235 16.5074 19.8787 15.4103 20.3199Z" fill="#52EF7A"/>
<path d="M8.53033 20.2901L10.0903 16.55C10.689 16.8003 11.3314 16.9292 11.9803 16.9292C12.6292 16.9292 13.2717 16.8003 13.8703 16.55L15.4103 20.31C14.3195 20.7629 13.1494 20.9943 11.9683 20.9909C10.7872 20.9875 9.61855 20.7492 8.53033 20.2901Z" fill="#54DBED"/>
<path d="M3.67969 15.4101L7.42969 13.8701C7.67267 14.4724 8.03296 15.0204 8.48962 15.4822C8.94627 15.944 9.49016 16.3104 10.0897 16.5601L8.51969 20.3001C7.42909 19.8465 6.43955 19.1806 5.60865 18.3411C4.77774 17.5016 4.12204 16.5053 3.67969 15.4101Z" fill="#5286EF"/>
<path d="M3.71003 8.53027L7.45003 10.0903C7.19975 10.689 7.07086 11.3314 7.07086 11.9803C7.07086 12.6292 7.19975 13.2716 7.45003 13.8703L3.67003 15.4103C3.22035 14.3181 2.99231 13.1474 2.99917 11.9663C3.00604 10.7851 3.24768 9.61716 3.71003 8.53027Z" fill="#5058F2"/>
<path d="M8.5902 3.67969L10.1302 7.42969C9.52791 7.67267 8.97994 8.03296 8.51814 8.48962C8.05633 8.94627 7.68992 9.49016 7.4402 10.0897L3.7002 8.51969C4.15378 7.42909 4.81968 6.43955 5.65918 5.60865C6.49867 4.77774 7.49499 4.12204 8.5902 3.67969Z" fill="#EA5653"/>
</svg>
