<svg width="24" height="24" viewBox="0 0 24 24" fill="none" xmlns="http://www.w3.org/2000/svg">
<path d="M3.85938 14.0268L10.918 20.5768C11.2109 20.8486 11.5977 21 12 21C12.4023 21 12.7891 20.8486 13.082 20.5768L20.1406 14.0268C21.3281 12.928 22 11.3866 22 9.77536V9.55017C22 6.83622 20.0273 4.52218 17.3359 4.07568C15.5547 3.7806 13.7422 4.35911 12.4688 5.62484L12 6.09075L11.5312 5.62484C10.2578 4.35911 8.44531 3.7806 6.66406 4.07568C3.97266 4.52218 2 6.83622 2 9.55017V9.77536C2 11.3866 2.67187 12.928 3.85938 14.0268Z" fill="#E50E78"/>
</svg>
