<svg width="25" height="25" viewBox="0 0 25 25" fill="none" xmlns="http://www.w3.org/2000/svg">
<path d="M4.35938 14.5268L11.418 21.0768C11.7109 21.3486 12.0977 21.5 12.5 21.5C12.9023 21.5 13.2891 21.3486 13.582 21.0768L20.6406 14.5268C21.8281 13.428 22.5 11.8866 22.5 10.2754V10.0502C22.5 7.33622 20.5273 5.02218 17.8359 4.57568C16.0547 4.2806 14.2422 4.85911 12.9688 6.12484L12.5 6.59075L12.0312 6.12484C10.7578 4.85911 8.94531 4.2806 7.16406 4.57568C4.47266 5.02218 2.5 7.33622 2.5 10.0502V10.2754C2.5 11.8866 3.17187 13.428 4.35938 14.5268Z" fill="#3B3C40"/>
</svg>
