<svg width="24" height="24" viewBox="0 0 24 24" fill="none" xmlns="http://www.w3.org/2000/svg">
<path d="M12 1.92847C14.2164 1.92847 16.3421 2.80895 17.9094 4.37622C19.4767 5.94349 20.3571 8.06916 20.3571 10.2856C20.3571 13.817 17.8757 17.6656 12.9771 21.8725C12.7048 22.1065 12.3575 22.235 11.9984 22.2347C11.6393 22.2343 11.2923 22.1052 11.0203 21.8708L10.6963 21.5896C6.01457 17.4925 3.64285 13.7382 3.64285 10.2856C3.64285 8.06916 4.52334 5.94349 6.0906 4.37622C7.65787 2.80895 9.78354 1.92847 12 1.92847ZM12 7.07132C11.1475 7.07132 10.3299 7.40997 9.72715 8.01277C9.12436 8.61556 8.78571 9.43313 8.78571 10.2856C8.78571 11.1381 9.12436 11.9557 9.72715 12.5585C10.3299 13.1613 11.1475 13.4999 12 13.4999C12.8525 13.4999 13.67 13.1613 14.2728 12.5585C14.8756 11.9557 15.2143 11.1381 15.2143 10.2856C15.2143 9.43313 14.8756 8.61556 14.2728 8.01277C13.67 7.40997 12.8525 7.07132 12 7.07132Z" fill="#3B3C40"/>
</svg>
