<svg width="91" height="86" viewBox="0 0 91 86" fill="none" xmlns="http://www.w3.org/2000/svg">
<g clip-path="url(#clip0_23_3348)">
<path fill-rule="evenodd" clip-rule="evenodd" d="M26.577 81.9405C26.577 82.7342 26.2713 83.3817 25.6599 83.8828C24.8035 84.5824 23.4067 84.9322 21.4686 84.9322C20.6685 84.9322 19.9983 84.8947 19.4578 84.819C18.9191 84.7433 18.3229 84.6263 17.6684 84.4667C17.6621 84.4654 17.6583 84.4603 17.6583 84.4539V81.903C17.6583 81.8985 17.6601 81.8947 17.664 81.8922C17.6678 81.8897 17.6722 81.889 17.6766 81.8909C18.1703 82.0862 18.7147 82.2446 19.3096 82.366C19.9115 82.4888 20.4806 82.5498 21.0167 82.5498C21.6002 82.5498 22.0281 82.4411 22.3009 82.2242C22.499 82.0633 22.5977 81.8693 22.5977 81.6423C22.5977 81.3777 22.5078 81.1653 22.3294 81.0044C22.0844 80.7869 21.685 80.6781 21.13 80.6781H19.3084C19.3014 80.6781 19.2951 80.6724 19.2951 80.6648V78.7346C19.2951 78.7276 19.3014 78.7218 19.3084 78.7218H21.0876C21.4546 78.7218 21.7458 78.6837 21.9623 78.608C22.3388 78.4757 22.5268 78.2347 22.5268 77.8849C22.5268 77.5542 22.3249 77.3227 21.9199 77.1904C21.6376 77.0956 21.2755 77.0486 20.8338 77.0486C20.3533 77.0486 19.8761 77.0887 19.4014 77.1688C18.9311 77.2483 18.4412 77.3761 17.9298 77.5529C17.9254 77.5542 17.9216 77.5536 17.9178 77.5511C17.914 77.5486 17.9121 77.5447 17.9121 77.5403V75.0599C17.9121 75.0536 17.9165 75.0478 17.9229 75.0466C19.0394 74.7928 20.2824 74.6663 21.6521 74.6663C23.4396 74.6663 24.7143 75.0109 25.4764 75.701C26.0029 76.1837 26.2663 76.8026 26.2663 77.5587C26.2663 78.0694 26.1068 78.5228 25.7865 78.9203C25.4314 79.3522 24.9554 79.6116 24.3586 79.6981C24.3522 79.6994 24.3472 79.7051 24.3472 79.7115V79.7446C24.3472 79.7516 24.3522 79.7573 24.3592 79.7579C24.975 79.8164 25.4896 80.0276 25.8998 80.3945C26.3523 80.8003 26.577 81.3166 26.577 81.9405ZM39.039 86H35.2831C35.2761 86 35.2698 85.9943 35.2698 85.9867V84.7757C35.2698 84.7681 35.2641 84.7624 35.2565 84.7624H30.8943C30.8873 84.7624 30.881 84.7681 30.881 84.7757V85.9867C30.881 85.9943 30.8753 86 30.8677 86H27.1125C27.1049 86 27.0992 85.9943 27.0992 85.9867V82.1237C27.0992 82.1167 27.1049 82.1103 27.1125 82.1103H27.8556C27.8594 82.1103 27.8625 82.1091 27.8651 82.1065C28.4461 81.5214 28.8354 80.8231 29.0322 80.0116C29.1543 79.5111 29.2157 78.8446 29.2157 78.0127V74.8493C29.2157 74.8423 29.2221 74.836 29.229 74.836H37.9946C38.0016 74.836 38.0079 74.8423 38.0079 74.8493V82.097C38.0079 82.1046 38.0136 82.1103 38.0212 82.1103H39.039C39.0459 82.1103 39.0523 82.1167 39.0523 82.1237V85.9867C39.0523 85.9943 39.0459 86 39.039 86ZM34.2254 82.097V77.4021C34.2254 77.3945 34.2197 77.3888 34.2122 77.3888H32.5596C32.5526 77.3888 32.5463 77.3945 32.5463 77.4021V78.594C32.5463 79.3597 32.4899 79.9741 32.3773 80.4371C32.238 81.0247 31.9754 81.5754 31.5886 82.0893C31.5855 82.0932 31.5855 82.0982 31.5874 82.1033C31.5899 82.1078 31.5944 82.1103 31.5994 82.1103H34.2122C34.2198 82.1103 34.2254 82.1046 34.2254 82.097ZM48.7476 84.7624H40.0529C40.046 84.7624 40.0396 84.756 40.0396 84.749V74.8493C40.0396 74.8423 40.046 74.836 40.0529 74.836H48.6489C48.6564 74.836 48.6622 74.8423 48.6622 74.8493V77.1624C48.6622 77.17 48.6564 77.1758 48.6489 77.1758H43.8354C43.8278 77.1758 43.8221 77.1821 43.8221 77.1891V78.5947C43.8221 78.6023 43.8278 78.608 43.8354 78.608H48.4375C48.4444 78.608 48.4508 78.6143 48.4508 78.6213V80.8638C48.4508 80.8708 48.4444 80.8765 48.4375 80.8765H43.8354C43.8278 80.8765 43.8221 80.8829 43.8221 80.8899V82.4092C43.8221 82.4162 43.8278 82.4226 43.8354 82.4226H48.7476C48.7552 82.4226 48.7609 82.4283 48.7609 82.436V84.749C48.7609 84.756 48.7552 84.7624 48.7476 84.7624ZM58.1499 84.5379C57.6455 84.6784 57.1594 84.7789 56.6923 84.84C56.2213 84.9017 55.7891 84.9322 55.3934 84.9322C53.5212 84.9322 52.0585 84.4501 51.0047 83.486C49.9983 82.5689 49.4951 81.3402 49.4951 79.7992C49.4951 78.3625 49.9419 77.1904 50.8357 76.2828C51.8984 75.2048 53.451 74.6662 55.4922 74.6662C55.9909 74.6662 56.4758 74.6992 56.9461 74.7654C57.0872 74.7844 57.4068 74.841 57.9056 74.9358L58.1208 74.9759C58.1271 74.9771 58.1315 74.9829 58.1315 74.9892V77.5815C58.1315 77.586 58.1291 77.5904 58.1259 77.5929C58.122 77.5954 58.1176 77.5954 58.1132 77.5942C57.836 77.4842 57.529 77.3938 57.1929 77.3245C56.8499 77.254 56.4992 77.2183 56.1416 77.2183C55.351 77.2183 54.7093 77.4524 54.2156 77.9205C53.7212 78.3885 53.4744 78.9864 53.4744 79.7139C53.4744 80.3664 53.6345 80.9102 53.9542 81.3446C54.415 81.9685 55.1682 82.2808 56.2118 82.2808C56.4758 82.2808 56.7391 82.2572 57.0024 82.2095C57.2632 82.1631 57.6429 82.0607 58.1423 81.903C58.1467 81.9017 58.1505 81.9024 58.1543 81.9048C58.1575 81.908 58.1594 81.9112 58.1594 81.9156V84.5251C58.1594 84.5308 58.1556 84.5366 58.1499 84.5379ZM69.1105 81.2314C69.1105 82.2426 68.7909 83.065 68.151 83.6984C67.4263 84.4075 66.3965 84.7624 65.0603 84.7624H59.1607C59.1531 84.7624 59.1474 84.756 59.1474 84.749V74.8493C59.1474 74.8423 59.1531 74.836 59.1607 74.836H62.9159C62.9235 74.836 62.9292 74.8423 62.9292 74.8493V77.6871C62.9292 77.6947 62.9356 77.7004 62.9425 77.7004H65.0603C66.3965 77.7004 67.4218 78.0502 68.137 78.7498C68.7858 79.3832 69.1105 80.2106 69.1105 81.2314ZM75.2146 71.9359H71.4916C71.4815 71.9359 71.4739 71.9283 71.4739 71.9181V66.4302C71.4739 66.4206 71.4657 66.4124 71.4562 66.4124H71.429C71.422 66.4124 71.4163 66.4168 71.4131 66.4232L68.9403 71.9257C68.9378 71.9321 68.9314 71.9359 68.9244 71.9359H64.5641C64.5546 71.9359 64.547 71.9283 64.547 71.9181V62.0909C64.547 62.0807 64.5546 62.0731 64.5641 62.0731H68.2871C68.2972 62.0731 68.3048 62.0807 68.3048 62.0909V67.6914C68.3048 67.7009 68.3124 67.7091 68.3225 67.7091H68.3497C68.3567 67.7091 68.3624 67.7053 68.3655 67.6983L70.8384 62.0833C70.8409 62.0769 70.8473 62.0731 70.8542 62.0731H75.2146C75.2241 62.0731 75.2316 62.0807 75.2316 62.0909V71.9181C75.2316 71.9283 75.2241 71.9359 75.2146 71.9359ZM63.6438 71.9359H59.1999C59.1936 71.9359 59.1886 71.9327 59.1854 71.927L56.7834 67.76C56.7802 67.7543 56.7745 67.7511 56.7682 67.7511H56.7397C56.7302 67.7511 56.722 67.7594 56.722 67.7689V71.9181C56.722 71.9283 56.7144 71.9359 56.7049 71.9359H52.982C52.9718 71.9359 52.9642 71.9283 52.9642 71.9181V62.0909C52.9642 62.0807 52.9718 62.0731 52.982 62.0731H56.7049C56.7144 62.0731 56.722 62.0807 56.722 62.0909V65.9303C56.722 65.9398 56.7302 65.9475 56.7397 65.9475H56.7682C56.7745 65.9475 56.7802 65.945 56.7834 65.9392L59.0867 62.0813C59.0898 62.0763 59.0955 62.0731 59.1019 62.0731H63.335C63.3413 62.0731 63.347 62.0763 63.3501 62.0826C63.3533 62.0883 63.3526 62.0953 63.3489 62.1011L60.0671 66.6846C60.0627 66.6903 60.0621 66.6985 60.0665 66.7049L63.6584 71.9085C63.6622 71.9136 63.6628 71.9206 63.6597 71.9264C63.6565 71.9327 63.6508 71.9359 63.6438 71.9359ZM51.9699 71.7139C51.4692 71.8532 50.9876 71.9531 50.5243 72.0135C50.0572 72.0745 49.6267 72.105 49.2343 72.105C47.3741 72.105 45.9203 71.6262 44.8734 70.6677C43.8727 69.757 43.3727 68.5359 43.3727 67.0044C43.3727 65.5767 43.817 64.4122 44.7051 63.5104C45.7614 62.4394 47.3039 61.9039 49.3325 61.9039C49.8281 61.9039 50.3091 61.937 50.7768 62.0025C50.9167 62.0216 51.2344 62.0775 51.73 62.1717L51.9401 62.2111C51.9484 62.2129 51.9547 62.22 51.9547 62.2282V64.7944C51.9547 64.8008 51.9516 64.8059 51.9471 64.8091C51.9421 64.8129 51.9363 64.8135 51.9306 64.811C51.6566 64.7029 51.3534 64.6144 51.0217 64.5458C50.6806 64.4752 50.3325 64.4402 49.9774 64.4402C49.1919 64.4402 48.5539 64.673 48.0634 65.1379C47.5722 65.6028 47.3273 66.1968 47.3273 66.9199C47.3273 67.5679 47.4861 68.1079 47.8039 68.5404C48.2622 69.1605 49.0096 69.4702 50.0477 69.4702C50.3091 69.4702 50.5711 69.4466 50.8325 69.3996C51.0908 69.3538 51.4661 69.2527 51.9598 69.0969C51.9655 69.095 51.9705 69.0962 51.9756 69.0993C51.98 69.1031 51.9826 69.1082 51.9826 69.114V71.6974C51.9826 71.705 51.9775 71.712 51.9699 71.7139ZM38.9972 67.4745L37.9851 64.4243C37.9826 64.4167 37.9763 64.4122 37.9687 64.4122H37.9376C37.93 64.4122 37.9237 64.4167 37.9212 64.4243L36.9231 67.4745C36.9212 67.4802 36.9218 67.4859 36.9255 67.4903C36.9287 67.4948 36.9338 67.4974 36.9395 67.4974H38.9807C38.9864 67.4974 38.9915 67.4949 38.9946 67.4903C38.9978 67.4853 38.9991 67.4802 38.9972 67.4745ZM44.0278 71.9359H40.1111C40.1036 71.9359 40.0972 71.9314 40.0947 71.9238L39.4295 69.8206C39.427 69.813 39.4206 69.8085 39.4124 69.8085H36.4933C36.4857 69.8085 36.4794 69.813 36.4768 69.8206L35.8255 71.9238C35.823 71.9308 35.8167 71.9359 35.8084 71.9359H32.088C32.0823 71.9359 32.0773 71.9334 32.0741 71.9283C32.0703 71.9238 32.0697 71.9181 32.0716 71.9123L35.4952 62.0852C35.4977 62.0775 35.504 62.0731 35.5116 62.0731H40.5492C40.5568 62.0731 40.5631 62.0775 40.5656 62.0845L44.0443 71.9123C44.0467 71.9181 44.0455 71.9238 44.0424 71.9283C44.0392 71.9333 44.0341 71.9359 44.0278 71.9359ZM29.3316 65.5811C29.3316 65.2244 29.224 64.9471 29.0088 64.7499C28.7189 64.4872 28.2467 64.3556 27.5929 64.3556H26.7967C26.7872 64.3556 26.7796 64.3633 26.7796 64.3734V66.7895C26.7796 66.799 26.7872 66.8073 26.7967 66.8073H27.6068C28.0366 66.8073 28.3778 66.7558 28.6303 66.6521C29.098 66.455 29.3316 66.0982 29.3316 65.5811ZM33.1172 65.6098C33.1172 66.5205 32.8045 67.2957 32.1779 67.9343C31.4209 68.7045 30.3411 69.0899 28.9385 69.0899H26.8948C26.8852 69.0899 26.8777 69.0975 26.8777 69.1077V71.9181C26.8777 71.9283 26.8694 71.9359 26.8599 71.9359H23.137C23.1275 71.9359 23.1193 71.9283 23.1193 71.9181V62.0909C23.1193 62.0807 23.1275 62.0731 23.137 62.0731H28.8689C30.2614 62.0731 31.3367 62.435 32.0937 63.158C32.776 63.8061 33.1172 64.6233 33.1172 65.6098ZM22.2167 71.9359H17.7728C17.7665 71.9359 17.7608 71.9327 17.7577 71.927L15.3563 67.76C15.3531 67.7543 15.3474 67.7511 15.3411 67.7511H15.3126C15.3025 67.7511 15.2949 67.7594 15.2949 67.7689V71.9181C15.2949 71.9283 15.2873 71.9359 15.2772 71.9359H11.5542C11.5447 71.9359 11.5372 71.9283 11.5372 71.9181V62.0909C11.5372 62.0807 11.5447 62.0731 11.5542 62.0731H15.2772C15.2873 62.0731 15.2949 62.0807 15.2949 62.0909V65.9303C15.2949 65.9398 15.3025 65.9475 15.3126 65.9475H15.3411C15.3474 65.9475 15.3531 65.945 15.3563 65.9392L17.6595 62.0813C17.6627 62.0763 17.6684 62.0731 17.6747 62.0731H21.9072C21.9142 62.0731 21.9199 62.0763 21.923 62.0826C21.9262 62.0883 21.9255 62.0953 21.9218 62.1011L18.6394 66.6846C18.6349 66.6903 18.6349 66.6985 18.6394 66.7049L22.2313 71.9085C22.2351 71.9136 22.2351 71.9206 22.2319 71.9264C22.2287 71.9327 22.223 71.9359 22.2167 71.9359ZM28.2417 9.88243C28.4258 10.9878 28.6632 12.5071 28.9144 14.2891C32.1159 11.1614 35.0951 8.27783 36.899 6.30057C37.0408 6.15365 37.1977 6.0271 37.3648 5.92153C36.1186 4.4645 36.242 2.2697 37.6623 0.971028C39.1086 -0.350522 41.3454 -0.342283 42.6657 1.11352C49.7647 9.62547 57.9746 18.5063 65.4249 26.5636C66.8205 28.0728 69.439 30.3184 65.8155 29.3886C60.8197 27.4101 47.9121 15.9173 40.8112 9.23884C40.7447 9.32974 40.6719 9.41753 40.5909 9.50082C39.6618 10.3728 34.7831 14.7019 29.5379 19.1092C30.3652 26.1527 30.9899 34.7461 29.9499 39.2852C29.186 42.6184 28.6158 40.3549 28.1157 38.5328C26.7403 33.5181 25.6055 28.4188 24.4257 23.3195C19.7508 27.0749 15.7449 29.9757 15.1595 29.4262C16.4342 27.0769 19.7754 23.4238 23.5522 19.599C22.8686 16.7428 22.1477 13.8929 21.3401 11.0654C20.9407 9.36154 22.1623 7.715 24.0681 7.38872C25.9738 7.06185 27.8423 8.17865 28.2417 9.88243ZM56.1372 26.5077C58.9303 26.7786 61.1595 28.1733 61.107 29.7442C54.2529 43.1042 55.3745 47.9479 54.1637 47.6197C50.9407 46.7459 51.2616 26.0338 56.1372 26.5077ZM17.0646 46.2269C15.6531 46.8992 9.16234 47.2349 7.46103 51.0884C5.65776 51.4865 5.42168 48.1049 8.70408 46.4101C11.9536 44.7317 17.6868 45.9312 17.0646 46.2269ZM57.479 53.5852C54.4384 53.3455 51.3179 53.1782 48.133 53.0936C32.0519 52.6656 18.2868 54.1214 3.02666 58.6737C-0.0621189 60.1168 -1.74573 53.9872 2.76207 51.8477C2.66396 49.1105 3.84945 46.6441 6.35719 45.0364C14.9828 39.5078 50.9983 44.7947 57.479 53.5852ZM88.1911 56.638C88.7139 56.6889 89.1031 57.1213 89.0607 57.6047C89.0177 58.088 88.5594 58.4384 88.0367 58.3876C87.5138 58.3367 87.1239 57.9036 87.167 57.4209C87.2094 56.9375 87.6683 56.5871 88.1911 56.638ZM79.6546 52.2147C82.0421 52.8729 91.7172 54.7103 90.9576 57.8978C89.9449 62.1424 82.3617 58.4696 78.5027 55.5568C76.1342 60.2484 71.5486 58.9803 73.0708 54.1901C73.7721 51.9819 76.3355 48.7893 76.4235 46.9036C77.5697 45.5521 80.9104 46.6206 79.6546 52.2147ZM71.4701 56.5114C70.0169 53.2145 75.0962 48.2557 74.9519 46.4222C66.399 39.2483 60.3228 43.2925 59.2499 53.853C63.5318 54.6073 67.6238 55.5015 71.4701 56.5114ZM42.3036 41.5454C41.734 40.2347 40.6111 26.7309 47.433 33.3451C46.9634 36.7635 47.0064 40.6869 47.5279 43.365C47.4431 43.4133 42.7385 42.5459 42.3036 41.5454ZM65.3002 81.2314C65.3002 80.8345 65.1565 80.5293 64.8698 80.3169C64.5831 80.1038 64.1622 79.9976 63.6071 79.9976H62.8438C62.8368 79.9976 62.8305 80.0033 62.8305 80.011V82.4519C62.8305 82.4589 62.8368 82.4652 62.8438 82.4652H63.5926C64.035 82.4652 64.3831 82.408 64.6369 82.2948C65.0793 82.0963 65.3002 81.7421 65.3002 81.2314Z" fill="#E50E78"/>
</g>
<defs>
<clipPath id="clip0_23_3348">
<rect width="91" height="86" fill="white"/>
</clipPath>
</defs>
</svg>
