<svg width="24" height="24" viewBox="0 0 24 24" fill="none" xmlns="http://www.w3.org/2000/svg">
<path opacity="0.8" d="M12 15.0435C8.40392 15.0435 5.47827 12.1178 5.47827 8.52174C5.47827 4.92565 8.40392 2 12 2C15.5961 2 18.5217 4.92565 18.5217 8.52174C18.5217 12.1178 15.5961 15.0435 12 15.0435Z" fill="#A536FF"/>
<path opacity="0.8" d="M8.52174 21.9995C4.92565 21.9995 2 19.0739 2 15.4778C2 11.8817 4.92565 8.95605 8.52174 8.95605C12.1178 8.95605 15.0435 11.8817 15.0435 15.4778C15.0435 19.0739 12.1178 21.9995 8.52174 21.9995Z" fill="#FF4345"/>
<path opacity="0.8" d="M15.4783 21.9995C11.8822 21.9995 8.95651 19.0739 8.95651 15.4778C8.95651 11.8817 11.8822 8.95605 15.4783 8.95605C19.0743 8.95605 22 11.8817 22 15.4778C22 19.0739 19.0743 21.9995 15.4783 21.9995Z" fill="#FF9935"/>
</svg>
