<svg width="24" height="24" viewBox="0 0 24 24" fill="none" xmlns="http://www.w3.org/2000/svg">
<path d="M9.36716 19.7C9.39905 19.7284 9.43934 19.7456 9.48191 19.749C9.52448 19.7524 9.56699 19.7418 9.60299 19.7188C9.63898 19.6959 9.66649 19.6618 9.68132 19.6217C9.69615 19.5817 9.6975 19.5379 9.68516 19.497L7.16516 10.859C7.14231 10.7804 7.09595 10.7107 7.03231 10.6592C6.96867 10.6077 6.8908 10.5769 6.80916 10.571C6.40116 10.541 5.99416 10.508 5.58716 10.471L2.21716 10.164C2.18154 10.1605 2.14564 10.1668 2.11328 10.1821C2.08093 10.1974 2.05333 10.2212 2.03343 10.251C2.01353 10.2807 2.00206 10.3153 2.00025 10.3511C1.99844 10.3868 2.00636 10.4224 2.02316 10.454C3.84616 13.864 6.47116 17.114 9.36716 19.7ZM11.8392 21.526C11.8592 21.596 11.9192 21.648 11.9922 21.648C12.0274 21.647 12.0614 21.6345 12.089 21.6125C12.1166 21.5905 12.1363 21.5602 12.1452 21.526L15.2292 10.953C15.2383 10.9223 15.24 10.8899 15.234 10.8584C15.228 10.8269 15.2146 10.7973 15.1948 10.7721C15.175 10.747 15.1494 10.7269 15.1203 10.7136C15.0911 10.7004 15.0592 10.6943 15.0272 10.696C13.0048 10.7828 10.9796 10.7828 8.95716 10.696C8.92528 10.6944 8.89348 10.7004 8.86441 10.7136C8.83534 10.7268 8.80985 10.7468 8.79008 10.7719C8.77031 10.7969 8.75682 10.8263 8.75074 10.8577C8.74467 10.889 8.74618 10.9214 8.75516 10.952L11.8392 21.526ZM14.2992 19.497C14.2432 19.687 14.4692 19.832 14.6172 19.7C17.5132 17.113 20.1382 13.864 21.9612 10.454C21.9779 10.4225 21.9858 10.387 21.984 10.3514C21.9823 10.3157 21.9709 10.2812 21.9511 10.2515C21.9313 10.2218 21.9039 10.1979 21.8717 10.1825C21.8395 10.1671 21.8037 10.1607 21.7682 10.164L18.3982 10.471C17.9902 10.508 17.5832 10.541 17.1752 10.571C17.0935 10.5769 17.0157 10.6077 16.952 10.6592C16.8884 10.7107 16.842 10.7804 16.8192 10.859L14.2992 19.497ZM21.7932 8.656C21.828 8.65294 21.8615 8.64078 21.8902 8.62074C21.9189 8.60069 21.9418 8.57347 21.9567 8.54179C21.9716 8.5101 21.9779 8.47507 21.975 8.44018C21.9721 8.4053 21.9601 8.37179 21.9402 8.343L18.7022 3.648C18.5642 3.44805 18.3797 3.28461 18.1646 3.17174C17.9494 3.05886 17.7101 2.99993 17.4672 3H14.9772C14.9443 3 14.912 3.00809 14.883 3.02355C14.854 3.03901 14.8293 3.06136 14.811 3.08864C14.7927 3.11592 14.7815 3.14729 14.7782 3.17996C14.7749 3.21264 14.7797 3.24562 14.7922 3.276L17.0492 8.799C17.0812 8.87712 17.1372 8.9431 17.209 8.98746C17.2809 9.03183 17.365 9.05232 17.4492 9.046C17.7192 9.025 17.9912 9.002 18.2622 8.976L21.7932 8.656ZM13.1572 3.246C13.1267 3.17301 13.0753 3.11069 13.0095 3.0669C12.9436 3.02312 12.8662 2.99984 12.7872 3H11.1972C11.1181 2.99984 11.0407 3.02312 10.9749 3.0669C10.909 3.11069 10.8576 3.17301 10.8272 3.246L8.46916 8.904C8.45695 8.93361 8.45203 8.96571 8.45481 8.99762C8.4576 9.02952 8.468 9.0603 8.48515 9.08734C8.5023 9.11439 8.52569 9.13692 8.55337 9.15305C8.58104 9.16917 8.61218 9.17842 8.64416 9.18C10.8742 9.288 13.1102 9.288 15.3412 9.18C15.3731 9.17826 15.4041 9.16891 15.4316 9.15272C15.4592 9.13653 15.4824 9.11398 15.4995 9.08696C15.5165 9.05993 15.5268 9.02922 15.5296 8.99739C15.5323 8.96555 15.5274 8.93353 15.5152 8.904L13.1572 3.246ZM9.19216 3.276C9.20464 3.24562 9.20945 3.21264 9.20616 3.17996C9.20287 3.14729 9.19158 3.11592 9.1733 3.08864C9.15501 3.06136 9.13029 3.03901 9.10131 3.02355C9.07234 3.00809 9.04 3 9.00716 3H6.51716C6.27422 2.99993 6.0349 3.05886 5.81977 3.17174C5.60464 3.28461 5.42015 3.44805 5.28216 3.648L2.04416 8.343C2.02425 8.37179 2.01224 8.4053 2.00934 8.44018C2.00644 8.47507 2.01274 8.5101 2.02762 8.54179C2.0425 8.57347 2.06544 8.60069 2.09414 8.62074C2.12284 8.64078 2.15629 8.65294 2.19116 8.656L5.72216 8.976C5.99316 9.002 6.26416 9.025 6.53516 9.046C6.6194 9.05248 6.70352 9.03205 6.7754 8.98767C6.84729 8.94328 6.90323 8.87722 6.93516 8.799L9.19216 3.276Z" fill="#A536FF"/>
</svg>
