<svg width="24" height="24" viewBox="0 0 24 24" fill="none" xmlns="http://www.w3.org/2000/svg">
<path d="M11.7789 11.5342C12.9514 11.5342 13.9666 11.1137 14.7962 10.284C15.6257 9.45451 16.0462 8.43952 16.0462 7.26694C16.0462 6.09471 15.6257 5.07962 14.796 4.24979C13.9663 3.42038 12.9512 2.99988 11.7789 2.99988C10.6063 2.99988 9.59129 3.42038 8.76177 4.24993C7.93226 5.07948 7.51158 6.09461 7.51158 7.26694C7.51158 8.43952 7.93222 9.45465 8.76191 10.2842C9.5916 11.1136 10.6067 11.5342 11.7789 11.5342ZM19.2456 16.6234C19.2216 16.2782 19.1732 15.9016 19.102 15.5039C19.0301 15.1033 18.9375 14.7245 18.8267 14.3783C18.7122 14.0205 18.5565 13.6672 18.364 13.3286C18.1642 12.9772 17.9296 12.6711 17.6662 12.4193C17.3909 12.1559 17.0538 11.9441 16.6639 11.7896C16.2755 11.6359 15.8449 11.5581 15.3844 11.5581C15.2036 11.5581 15.0287 11.6322 14.6909 11.8522C14.4508 12.0085 14.2099 12.1638 13.9684 12.3179C13.7363 12.4658 13.4219 12.6044 13.0335 12.7298C12.6547 12.8524 12.27 12.9146 11.8903 12.9146C11.5106 12.9146 11.126 12.8524 10.7467 12.7298C10.3588 12.6045 10.0444 12.466 9.81258 12.3181C9.54371 12.1463 9.30045 11.9895 9.08943 11.852C8.75205 11.6321 8.57699 11.5579 8.39615 11.5579C7.93548 11.5579 7.50511 11.6359 7.11676 11.7897C6.72719 11.944 6.38994 12.1558 6.11433 12.4195C5.85117 12.6714 5.61638 12.9773 5.41686 13.3286C5.22453 13.6672 5.06882 14.0204 4.95417 14.3785C4.84344 14.7247 4.75088 15.1033 4.67897 15.5039C4.60772 15.901 4.55935 16.2778 4.5354 16.6238C4.51158 16.972 4.49978 17.321 4.5 17.67C4.5 18.5949 4.79399 19.3435 5.37374 19.8957C5.94633 20.4406 6.70394 20.717 7.62525 20.717H16.1561C17.0774 20.717 17.8348 20.4407 18.4075 19.8957C18.9874 19.344 19.2814 18.5951 19.2814 17.6699C19.2812 17.3129 19.2692 16.9608 19.2456 16.6234Z" fill="#E50E78"/>
</svg>
