<svg width="24" height="24" viewBox="0 0 24 24" fill="none" xmlns="http://www.w3.org/2000/svg">
<path d="M9.75603 1.23311C10.0868 0.919449 10.6 0.923745 10.9308 1.2374C12.1013 2.35024 13.1998 3.54901 14.2261 4.8466C14.6926 4.22788 15.2228 3.5533 15.7953 3.00333C16.1304 2.68538 16.6478 2.68538 16.9828 3.00763C18.4502 4.42553 19.6929 6.29887 20.5665 8.07769C21.4275 9.83073 22 11.6224 22 12.8857C22 18.3682 17.7674 23 12.5 23C7.17321 23 3 18.3639 3 12.8814C3 11.2314 3.75491 9.2163 4.92545 7.22265C6.10871 5.19893 7.77969 3.08926 9.75603 1.23311ZM12.5721 18.8752C13.6451 18.8752 14.5951 18.5744 15.49 17.9729C17.2754 16.7097 17.7547 14.1832 16.6817 12.1982C16.4908 11.8115 16.0031 11.7857 15.7275 12.1123L14.6587 13.3712C14.3788 13.6977 13.8741 13.6891 13.6112 13.3497C12.9114 12.4474 11.6603 10.8361 10.9478 9.92096C10.6806 9.57722 10.1717 9.57293 9.90022 9.91666C8.46674 11.7427 7.74576 12.8942 7.74576 14.1875C7.75 17.1308 9.89598 18.8752 12.5721 18.8752Z" fill="#FF4345"/>
</svg>
