<svg width="24" height="25" viewBox="0 0 24 25" fill="none" xmlns="http://www.w3.org/2000/svg">
<path d="M11.7789 12.0341C12.9514 12.0341 13.9666 11.6136 14.7962 10.7839C15.6257 9.95439 16.0462 8.93939 16.0462 7.76682C16.0462 6.59459 15.6257 5.5795 14.796 4.74967C13.9663 3.92026 12.9512 3.49976 11.7789 3.49976C10.6063 3.49976 9.59129 3.92026 8.76177 4.74981C7.93226 5.57936 7.51158 6.59449 7.51158 7.76682C7.51158 8.93939 7.93222 9.95452 8.76191 10.7841C9.5916 11.6135 10.6067 12.0341 11.7789 12.0341ZM19.2456 17.1233C19.2216 16.7781 19.1732 16.4014 19.102 16.0038C19.0301 15.6031 18.9375 15.2244 18.8267 14.8782C18.7122 14.5204 18.5565 14.1671 18.364 13.8285C18.1642 13.4771 17.9296 13.171 17.6662 12.9192C17.3909 12.6558 17.0538 12.444 16.6639 12.2894C16.2755 12.1358 15.8449 12.0579 15.3844 12.0579C15.2036 12.0579 15.0287 12.1321 14.6909 12.3521C14.4508 12.5084 14.2099 12.6637 13.9684 12.8178C13.7363 12.9657 13.4219 13.1043 13.0335 13.2297C12.6547 13.3523 12.27 13.4145 11.8903 13.4145C11.5106 13.4145 11.126 13.3523 10.7467 13.2297C10.3588 13.1044 10.0444 12.9659 9.81258 12.818C9.54371 12.6462 9.30045 12.4894 9.08943 12.3519C8.75205 12.132 8.57699 12.0578 8.39615 12.0578C7.93548 12.0578 7.50511 12.1358 7.11676 12.2896C6.72719 12.4438 6.38994 12.6556 6.11433 12.9194C5.85117 13.1713 5.61638 13.4772 5.41686 13.8285C5.22453 14.1671 5.06882 14.5203 4.95417 14.8784C4.84344 15.2245 4.75088 15.6031 4.67897 16.0038C4.60772 16.4009 4.55935 16.7776 4.5354 17.1237C4.51158 17.4719 4.49978 17.8208 4.5 18.1699C4.5 19.0947 4.79399 19.8434 5.37374 20.3956C5.94633 20.9405 6.70394 21.2169 7.62525 21.2169H16.1561C17.0774 21.2169 17.8348 20.9406 18.4075 20.3956C18.9874 19.8438 19.2814 19.095 19.2814 18.1697C19.2812 17.8128 19.2692 17.4607 19.2456 17.1233Z" fill="#3B3C40"/>
</svg>
