<svg width="102" height="97" viewBox="0 0 102 97" fill="none" xmlns="http://www.w3.org/2000/svg">
<g clip-path="url(#clip0_785_55651)">
<path d="M51.1004 0L30.168 34.4441H72.0311L51.1004 0Z" fill="#CC1334"/>
<path d="M61.4279 31.2008H65.6837L55.1576 13.8401C55.1314 13.7913 55.0926 13.7505 55.0453 13.7221C54.9981 13.6937 54.944 13.6787 54.889 13.6787C54.834 13.6787 54.7799 13.6937 54.7327 13.7221C54.6854 13.7505 54.6466 13.7913 54.6204 13.8401L51.8594 18.3814L54.0113 21.9103L54.6204 20.9011C54.6465 20.8536 54.6844 20.8138 54.7303 20.7855C54.7763 20.7572 54.8288 20.7415 54.8826 20.7399C54.9361 20.7406 54.9886 20.7549 55.0353 20.7813C55.0819 20.8078 55.1212 20.8457 55.1496 20.8915L61.4279 31.2008Z" fill="#FEFEFD"/>
<path d="M47.3791 20.7091C47.4188 20.7096 47.458 20.7179 47.4945 20.7337C47.531 20.7495 47.564 20.7723 47.5917 20.801L47.6445 20.8622L52.8868 29.5015C52.9172 29.5495 52.9322 29.6058 52.93 29.6627C52.9302 29.7032 52.9224 29.7433 52.9071 29.7808C52.8919 29.8182 52.8694 29.8522 52.841 29.8809C52.8126 29.9095 52.7788 29.9322 52.7417 29.9476C52.7046 29.963 52.6648 29.9708 52.6246 29.9706H49.6829C49.6426 29.971 49.6026 29.9634 49.5653 29.9481C49.528 29.9328 49.494 29.9101 49.4655 29.8815C49.4369 29.8528 49.4143 29.8187 49.3989 29.7811C49.3835 29.7436 49.3757 29.7033 49.3759 29.6627C49.3742 29.6056 49.3899 29.5494 49.4207 29.5015L50.4343 27.8491L48.2664 24.2847L44.3383 30.7331C44.317 30.7814 44.3025 30.8324 44.2951 30.8847C44.2979 30.9663 44.3313 31.0438 44.3886 31.1015C44.4459 31.1593 44.5227 31.193 44.6037 31.1958H57.6878C57.741 31.1955 57.7931 31.1813 57.8392 31.1546C57.8854 31.128 57.9239 31.0898 57.9511 31.0438C57.9782 30.9977 57.9932 30.9454 57.9944 30.8918C57.9956 30.8382 57.9831 30.7852 57.958 30.738L47.6285 13.8399C47.601 13.7919 47.5617 13.7518 47.5144 13.7236C47.4671 13.6953 47.4133 13.6799 47.3583 13.6787C47.3032 13.6783 47.2491 13.6932 47.2018 13.7216C47.1544 13.75 47.1157 13.7909 47.0897 13.8399L36.5156 31.199H40.8322L47.1153 20.859C47.1416 20.8121 47.18 20.7732 47.2265 20.7465C47.2729 20.7198 47.3257 20.7063 47.3791 20.7075" fill="#FEFEFD"/>
<path d="M0 41.3823C1.04238 41.1695 3.12555 40.9873 5.13038 40.9873C7.55407 40.9873 9.03611 41.2211 10.3103 41.9852C10.9482 42.3109 11.4822 42.8112 11.8512 43.4287C12.2202 44.0463 12.4092 44.7561 12.3967 45.477C12.3967 47.023 11.4854 48.4707 9.53332 49.2332V49.2832C11.535 49.8087 13.0234 51.3595 13.0234 53.6358C13.0319 54.3639 12.8705 55.0838 12.5522 55.7374C12.2339 56.391 11.7677 56.96 11.1912 57.3985C9.91223 58.4205 7.7811 58.9993 4.29103 58.9993C2.85637 59.0123 1.42255 58.9245 0 58.7365V41.3823ZM3.93451 48.1273H5.23589C7.34464 48.1273 8.43338 47.2616 8.43338 45.9493C8.43338 44.6081 7.41658 43.9036 5.62279 43.9036C4.73549 43.9036 4.24307 43.9536 3.92972 44.0326L3.93451 48.1273ZM3.93451 55.9782C4.44261 56.0521 4.95639 56.0786 5.46931 56.0572C7.2631 56.0572 8.85226 55.3479 8.85226 53.4778C8.85226 51.6933 7.2631 50.9839 5.28865 50.9839H3.93451V55.9782Z" fill="#18203A"/>
<path d="M18.3086 53.6445C18.438 55.326 20.0528 56.1143 21.9041 56.1143C23.0992 56.1325 24.2886 55.9455 25.4214 55.5613L25.9426 58.2648C24.6396 58.8178 23.0536 59.0805 21.3334 59.0805C17.0168 59.0805 14.5371 56.5592 14.5371 52.5161C14.5371 49.2564 16.5675 45.6582 20.9689 45.6582C25.0824 45.6582 26.646 48.8905 26.646 52.0695C26.6447 52.6058 26.6008 53.1411 26.5149 53.6703L18.3086 53.6445ZM22.9673 50.9185C22.9673 49.9706 22.5516 48.3198 20.7546 48.3198C19.0616 48.3198 18.3853 49.8706 18.2798 50.9185H22.9673Z" fill="#18203A"/>
<path d="M28.489 50.0714C28.489 48.4706 28.4379 47.1294 28.3867 45.9735H31.816L32.0015 47.7613H32.0766C32.601 46.9214 33.8736 45.6865 36.0095 45.6865C38.6139 45.6865 40.5676 47.4453 40.5676 51.2273V58.8171H36.6123V51.6997C36.6123 50.0456 36.0367 48.9156 34.6042 48.9156C33.5107 48.9156 32.8616 49.6781 32.5738 50.4116C32.4741 50.7342 32.4303 51.0718 32.4443 51.4095V58.8251H28.489V50.0714Z" fill="#18203A"/>
<path d="M40.1055 61.3127C41.1191 61.2304 41.952 60.9902 42.446 60.4679C43.0216 59.8682 43.2294 58.8429 43.2294 56.2942V45.9768H47.1879V57.2711C47.1879 60.052 46.59 61.7592 45.3909 62.8619C44.2174 63.9388 42.3709 64.4385 40.4956 64.4385L40.1055 61.3127ZM45.1575 44.2921C43.8289 44.2921 42.9688 43.3507 42.9688 42.169C42.9688 40.9599 43.8529 40.041 45.2071 40.041C46.5612 40.041 47.3894 40.9599 47.4181 42.169C47.4181 43.3507 46.5596 44.2921 45.1799 44.2921H45.1575Z" fill="#18203A"/>
<path d="M60.3623 55.717C60.3623 56.926 60.4119 58.1045 60.5734 58.817H57.0018L56.7683 57.5273H56.6916C55.8571 58.5526 54.5557 59.1024 53.0465 59.1024C50.4677 59.1024 48.9297 57.2114 48.9297 55.1624C48.9297 51.8302 51.9002 50.2536 56.4038 50.2536V50.0923C56.4038 49.4104 56.0377 48.4383 54.0872 48.4383C52.8552 48.4555 51.6467 48.7807 50.57 49.3846L49.841 46.8375C50.7267 46.3362 52.4741 45.6816 54.7971 45.6816C59.0418 45.6816 60.3687 48.203 60.3687 51.2224L60.3623 55.717ZM56.5333 52.7507C54.455 52.7507 52.8354 53.2472 52.8354 54.7723C52.8354 55.7976 53.5133 56.2941 54.4006 56.2941C54.8517 56.293 55.2913 56.1512 55.6594 55.8883C56.0275 55.6254 56.3059 55.2542 56.4566 54.8255C56.5094 54.601 56.5351 54.371 56.5333 54.1403V52.7507Z" fill="#18203A"/>
<path d="M62.4743 50.0718C62.4743 48.471 62.4167 47.1297 62.3672 45.9739H65.7246L65.8844 47.7359H65.9628C66.5111 46.8928 67.6574 45.6869 69.819 45.6869C71.4832 45.6869 72.7574 46.5526 73.3058 47.8939H73.3586C73.7985 47.2573 74.3654 46.7203 75.0229 46.3172C75.7626 45.8979 76.598 45.6806 77.4466 45.6869C79.8942 45.6869 81.7408 47.4183 81.7408 51.2535V58.8174H77.8894V51.8564C77.8894 49.9944 77.2915 48.9159 76.0109 48.9159C75.0772 48.9159 74.4505 49.5495 74.1659 50.3088C74.0819 50.6347 74.0384 50.9699 74.0364 51.3067V58.8174H70.1851V51.6226C70.1851 50.0186 69.6143 48.9159 68.3401 48.9159C67.3233 48.9159 66.7222 49.7059 66.4888 50.3346C66.3705 50.6628 66.3162 51.0109 66.3289 51.3599V58.8174H62.4743V50.0718Z" fill="#18203A"/>
<path d="M85.7769 44.2921C84.45 44.2921 83.5898 43.3507 83.5898 42.169C83.5898 40.9599 84.4724 40.041 85.8281 40.041C87.1838 40.041 88.0136 40.9599 88.0392 42.169C88.0392 43.3507 87.1806 44.2921 85.8009 44.2921H85.7769ZM83.8249 45.9735H87.7802V58.8171H83.8249V45.9735Z" fill="#18203A"/>
<path d="M89.9168 50.0714C89.9168 48.4706 89.864 47.1294 89.8145 45.9735H93.2518L93.4324 47.7613H93.5123C94.0335 46.9214 95.3077 45.6865 97.4437 45.6865C100.046 45.6865 102 47.4453 102 51.2273V58.8171H98.0416V51.6997C98.0416 50.0456 97.4708 48.9156 96.0352 48.9156C94.9448 48.9156 94.2941 49.6781 94.0048 50.4116C93.905 50.7342 93.8612 51.0718 93.8753 51.4095V58.8251H89.9168V50.0714Z" fill="#18203A"/>
<path d="M30.9365 73.5958C30.8566 71.4694 30.7766 68.9207 30.7766 66.3252H30.7271C30.1531 68.5822 29.4257 71.1019 28.7494 73.1767L26.6135 80.0797H23.5151L21.6398 73.2556C21.0675 71.1599 20.4935 68.6579 20.0522 66.3236H20.0011C19.9227 68.7095 19.8172 71.442 19.7117 73.6474L19.3744 80.3715H15.6973L16.8164 62.6738H22.0922L23.8141 68.6064C24.3848 70.6279 24.906 72.8349 25.2961 74.9081H25.4192C25.8877 72.8591 26.4856 70.5554 27.0867 68.5515L28.9365 62.6754H34.1436L35.0805 80.3731H31.2259L30.9365 73.5958Z" fill="#18203A"/>
<path d="M42.94 80.6594C39.2165 80.6594 36.3516 78.1913 36.3516 74.0498C36.3516 69.9083 39.0582 67.25 43.175 67.25C47.052 67.25 49.6611 69.9535 49.6611 73.8386C49.6611 78.5137 46.3517 80.6659 42.9672 80.6659L42.94 80.6594ZM43.0199 77.7963C44.5835 77.7963 45.546 76.2471 45.546 73.937C45.546 72.0476 44.8185 70.1034 43.0199 70.1034C41.1446 70.1034 40.4124 72.0476 40.4124 73.9725C40.4124 76.1504 41.3237 77.8044 42.9928 77.8044L43.0199 77.7963Z" fill="#18203A"/>
<path d="M57.9931 80.6594C54.2712 80.6594 51.4062 78.1913 51.4062 74.0498C51.4062 69.9083 54.1129 67.25 58.2265 67.25C62.1051 67.25 64.711 69.9535 64.711 73.8386C64.711 78.5137 61.4032 80.6659 58.0187 80.6659L57.9931 80.6594ZM58.0682 77.7963C59.6334 77.7963 60.5974 76.2471 60.5974 73.937C60.5974 72.0476 59.87 70.1034 58.0682 70.1034C56.1961 70.1034 55.4671 72.0476 55.4671 73.9725C55.4671 76.1504 56.3784 77.8044 58.0458 77.8044L58.0682 77.7963Z" fill="#18203A"/>
<path d="M66.1446 71.7578C66.1446 69.8668 66.119 68.6319 66.0391 67.5292H69.4284L69.5883 69.9216H69.6906C70.3429 68.029 71.8793 67.2439 73.1263 67.2439C73.4066 67.2383 73.6865 67.2648 73.9608 67.3229V71.0694C73.6 71.003 73.2341 70.968 72.8673 70.9646C71.4093 70.9646 70.418 71.7271 70.1606 72.9862C70.1053 73.2811 70.078 73.5807 70.0791 73.8809V80.3664H66.119L66.1446 71.7578Z" fill="#18203A"/>
<path d="M78.3824 75.1999C78.5119 76.8781 80.1282 77.6664 81.9748 77.6664C83.1698 77.6856 84.3592 77.4991 85.492 77.1151L86.0132 79.8202C84.7151 80.3731 83.1211 80.6359 81.404 80.6359C77.0874 80.6359 74.6094 78.1146 74.6094 74.0682C74.6094 70.8118 76.6398 67.2168 81.0411 67.2168C85.1547 67.2168 86.7167 70.441 86.7167 73.6217C86.7158 74.1584 86.6725 74.6943 86.5872 75.2241L78.3824 75.1999ZM83.0444 72.4593C83.0444 71.5163 82.6271 69.859 80.8317 69.859C79.1386 69.859 78.4592 71.4099 78.3552 72.4593H83.0444Z" fill="#18203A"/>
<path d="M30.7227 84.403C31.7415 84.22 32.775 84.1331 33.8098 84.1434C35.3974 84.1434 36.5613 84.5158 37.3015 85.188C37.9874 85.7845 38.411 86.6986 38.411 87.8125C38.411 88.9265 38.0785 89.8422 37.431 90.4951C36.5805 91.4059 35.1927 91.8734 33.626 91.8734C33.1909 91.8886 32.7556 91.8513 32.3294 91.7622V96.7952H30.7227V84.403ZM32.3294 90.4419C32.7663 90.537 33.2127 90.5798 33.6596 90.5692C35.6212 90.5692 36.7835 89.602 36.7835 87.906C36.7835 86.2101 35.6212 85.4282 33.845 85.4282C33.3367 85.4226 32.829 85.4674 32.3294 85.5621V90.4419Z" fill="#18203A"/>
<path d="M45.9478 94.6338C45.9389 95.3566 45.9822 96.0791 46.0773 96.7956H44.6193L44.469 95.6559H44.413C43.9334 96.3652 42.9534 97.0003 41.6824 97.0003C39.8694 97.0003 38.9453 95.7107 38.9453 94.4097C38.9453 92.2302 40.8638 91.0372 44.3203 91.0533V90.8712C44.3203 90.1248 44.1189 88.7641 42.2899 88.7754C41.4601 88.7665 40.6456 89 39.9445 89.4477L39.572 88.3466C40.471 87.8244 41.4923 87.5544 42.5297 87.5647C45.2843 87.5647 45.9478 89.4477 45.9478 91.2548V94.6338ZM44.3635 92.1882C42.5857 92.1512 40.5712 92.4704 40.5712 94.2195C40.5712 95.298 41.2715 95.7848 42.0852 95.7848C42.562 95.8002 43.0314 95.6634 43.4264 95.3939C43.8215 95.1244 44.122 94.7359 44.2851 94.284C44.3361 94.1141 44.362 93.9375 44.3619 93.76L44.3635 92.1882Z" fill="#18203A"/>
<path d="M48.591 86.1168C48.386 86.1114 48.1872 86.0453 48.0192 85.9266C47.8513 85.808 47.7217 85.6422 47.6467 85.4498C47.5716 85.2574 47.5544 85.047 47.5972 84.8448C47.64 84.6426 47.7409 84.4575 47.8873 84.3128C48.0337 84.168 48.2191 84.07 48.4204 84.0308C48.6217 83.9916 48.83 84.0131 49.0193 84.0925C49.2086 84.172 49.3705 84.3058 49.4848 84.4775C49.5992 84.6491 49.6608 84.8509 49.6622 85.0576C49.6666 85.1983 49.6424 85.3385 49.5909 85.4693C49.5394 85.6002 49.4617 85.719 49.3628 85.8183C49.2638 85.9177 49.1456 85.9954 49.0156 86.0467C48.8856 86.0981 48.7465 86.1219 48.607 86.1168H48.591ZM47.814 87.7756H49.4415V96.8034H47.814V87.7756Z" fill="#18203A"/>
<path d="M51.399 90.2158C51.399 89.2647 51.3798 88.5215 51.3223 87.7751H52.7611L52.8523 89.2469H52.889C53.1867 88.7249 53.6187 88.2936 54.1392 87.9985C54.6598 87.7034 55.2497 87.5555 55.8467 87.5704C57.0857 87.5704 59.0058 88.3184 59.0058 91.4055V96.7948H57.3831V91.5974C57.3831 90.1465 56.8507 88.9132 55.3143 88.9132C54.264 88.9132 53.4326 89.6774 53.1368 90.5914C53.0583 90.8382 53.021 91.0965 53.0265 91.3556V96.7948H51.399V90.2158Z" fill="#18203A"/>
<path d="M62.7988 85.6154V87.7756H65.1234V89.0249H62.7988V93.887C62.7988 95.0058 63.1089 95.6394 64.0154 95.6394C64.3336 95.6514 64.6518 95.6138 64.9587 95.5282L65.029 96.7759C64.5651 96.9306 64.0788 97.0063 63.5902 97C62.8292 97 62.2184 96.7356 61.8315 96.3084C61.3887 95.8038 61.2048 95.0058 61.2048 93.9451V89.0249H59.8203V87.7756H61.2048V86.1167L62.7988 85.6154Z" fill="#18203A"/>
<path d="M66.3619 95.1353C67.0184 95.5257 67.7616 95.7441 68.5234 95.7704C69.6873 95.7704 70.2404 95.1933 70.2404 94.4292C70.2404 93.665 69.78 93.2185 68.5969 92.7687C66.9726 92.1738 66.2148 91.2985 66.2148 90.2167C66.2148 88.7659 67.3963 87.5713 69.2972 87.5713C70.2037 87.5713 70.9998 87.8131 71.481 88.1307L71.091 89.3059C70.5373 88.9716 69.9056 88.7914 69.2604 88.7836C68.3011 88.7836 67.7831 89.3446 67.7831 90.0136C67.7831 90.7778 68.3027 91.1115 69.4666 91.5612C70.9998 92.1368 71.8104 92.9202 71.8104 94.2808C71.8104 95.8817 70.5762 97.0005 68.4866 97.0005C67.6096 97.0103 66.745 96.7915 65.9766 96.3653L66.3619 95.1353Z" fill="#18203A"/>
<path d="M88.665 67.8565C88.9407 67.8543 89.2109 67.9347 89.4411 68.0876C89.6714 68.2405 89.8514 68.4589 89.9583 68.7152C90.0652 68.9714 90.0942 69.254 90.0415 69.5269C89.9889 69.7997 89.857 70.0507 89.6626 70.2479C89.4682 70.445 89.2201 70.5794 88.9498 70.6341C88.6794 70.6888 88.3991 70.6612 88.1443 70.5549C87.8896 70.4486 87.6719 70.2684 87.519 70.0371C87.366 69.8057 87.2847 69.5338 87.2853 69.2558C87.2825 69.072 87.3163 68.8894 87.3845 68.7189C87.4528 68.5484 87.5542 68.3934 87.6827 68.263C87.8113 68.1326 87.9644 68.0294 88.1331 67.9596C88.3018 67.8898 88.4827 67.8548 88.665 67.8565ZM88.665 68.0741C88.364 68.09 88.0804 68.2217 87.8729 68.4422C87.6654 68.6627 87.5497 68.9551 87.5497 69.259C87.5497 69.563 87.6654 69.8554 87.8729 70.0759C88.0804 70.2963 88.364 70.4281 88.665 70.4439C88.9661 70.4281 89.2496 70.2963 89.4572 70.0759C89.6647 69.8554 89.7804 69.563 89.7804 69.259C89.7804 68.9551 89.6647 68.6627 89.4572 68.4422C89.2496 68.2217 88.9661 68.09 88.665 68.0741ZM88.4028 70.0715H88.1566V68.5094C88.3015 68.4857 88.4479 68.4733 88.5947 68.4723C88.7631 68.4591 88.9313 68.501 89.0743 68.5916C89.123 68.629 89.1615 68.6781 89.1863 68.7345C89.2112 68.7908 89.2216 68.8526 89.2166 68.914C89.2164 69.0022 89.1864 69.0877 89.1314 69.1563C89.0765 69.2249 88.9999 69.2725 88.9144 69.2913V69.3042C89.0519 69.3284 89.1431 69.4509 89.1718 69.6814C89.1867 69.8151 89.2206 69.946 89.2726 70.0699H89.012C88.956 69.9427 88.9215 69.8071 88.9096 69.6685C88.9072 69.6279 88.8964 69.5882 88.8779 69.552C88.8594 69.5158 88.8336 69.484 88.8021 69.4584C88.7706 69.4329 88.7342 69.4143 88.6952 69.4039C88.6562 69.3934 88.6154 69.3913 88.5755 69.3977H88.4012L88.4028 70.0715ZM88.4028 69.2058H88.5835C88.7849 69.2058 88.9576 69.1333 88.9576 68.9398C88.9576 68.8028 88.8569 68.6642 88.5835 68.6642C88.5229 68.6638 88.4624 68.6692 88.4028 68.6803V69.2058Z" fill="#18203A"/>
</g>
<defs>
<clipPath id="clip0_785_55651">
<rect width="102" height="97" fill="white"/>
</clipPath>
</defs>
</svg>
