<svg width="157" height="97" viewBox="0 0 157 97" fill="none" xmlns="http://www.w3.org/2000/svg">
<g clip-path="url(#clip0_2424_53874)">
<path d="M79.1004 0L58.168 34.4441H100.031L79.1004 0Z" fill="#CC1334"/>
<path d="M89.4279 31.2008H93.6837L83.1576 13.8401C83.1314 13.7913 83.0926 13.7505 83.0453 13.7221C82.9981 13.6937 82.944 13.6787 82.889 13.6787C82.834 13.6787 82.7799 13.6937 82.7327 13.7221C82.6854 13.7505 82.6466 13.7913 82.6204 13.8401L79.8594 18.3814L82.0113 21.9103L82.6204 20.9011C82.6465 20.8536 82.6844 20.8138 82.7303 20.7855C82.7763 20.7572 82.8288 20.7415 82.8826 20.7399C82.9361 20.7406 82.9886 20.7549 83.0353 20.7813C83.0819 20.8078 83.1212 20.8457 83.1496 20.8915L89.4279 31.2008Z" fill="#FEFEFD"/>
<path d="M75.3791 20.7091C75.4188 20.7096 75.458 20.7179 75.4945 20.7337C75.531 20.7495 75.564 20.7723 75.5917 20.801L75.6445 20.8622L80.8868 29.5015C80.9172 29.5495 80.9322 29.6058 80.93 29.6627C80.9302 29.7032 80.9224 29.7433 80.9071 29.7808C80.8919 29.8182 80.8694 29.8522 80.841 29.8809C80.8126 29.9095 80.7788 29.9322 80.7417 29.9476C80.7046 29.963 80.6648 29.9708 80.6246 29.9706H77.6829C77.6426 29.971 77.6026 29.9634 77.5653 29.9481C77.528 29.9328 77.494 29.9101 77.4655 29.8815C77.4369 29.8528 77.4143 29.8187 77.3989 29.7811C77.3835 29.7436 77.3757 29.7033 77.3759 29.6627C77.3742 29.6056 77.3899 29.5494 77.4207 29.5015L78.4343 27.8491L76.2664 24.2847L72.3383 30.7331C72.317 30.7814 72.3025 30.8324 72.2951 30.8847C72.2979 30.9663 72.3313 31.0438 72.3886 31.1015C72.4459 31.1593 72.5227 31.193 72.6037 31.1958H85.6878C85.741 31.1955 85.7931 31.1813 85.8392 31.1546C85.8854 31.128 85.9239 31.0898 85.9511 31.0438C85.9782 30.9977 85.9932 30.9454 85.9944 30.8918C85.9956 30.8382 85.9831 30.7852 85.958 30.738L75.6285 13.8399C75.601 13.7919 75.5617 13.7518 75.5144 13.7236C75.4671 13.6953 75.4133 13.6799 75.3583 13.6787C75.3032 13.6783 75.2491 13.6932 75.2018 13.7216C75.1544 13.75 75.1157 13.7909 75.0897 13.8399L64.5156 31.199H68.8322L75.1153 20.859C75.1416 20.8121 75.18 20.7732 75.2265 20.7465C75.2729 20.7198 75.3257 20.7063 75.3791 20.7075" fill="#FEFEFD"/>
<path d="M28 41.3823C29.0424 41.1695 31.1255 40.9873 33.1304 40.9873C35.5541 40.9873 37.0361 41.2211 38.3103 41.9852C38.9482 42.3109 39.4822 42.8112 39.8512 43.4287C40.2202 44.0463 40.4092 44.7561 40.3967 45.477C40.3967 47.023 39.4854 48.4707 37.5333 49.2332V49.2832C39.535 49.8087 41.0234 51.3595 41.0234 53.6358C41.0319 54.3639 40.8705 55.0838 40.5522 55.7374C40.2339 56.391 39.7677 56.96 39.1912 57.3985C37.9122 58.4205 35.7811 58.9993 32.291 58.9993C30.8564 59.0123 29.4226 58.9245 28 58.7365V41.3823ZM31.9345 48.1273H33.2359C35.3446 48.1273 36.4334 47.2616 36.4334 45.9493C36.4334 44.6081 35.4166 43.9036 33.6228 43.9036C32.7355 43.9036 32.2431 43.9536 31.9297 44.0326L31.9345 48.1273ZM31.9345 55.9782C32.4426 56.0521 32.9564 56.0786 33.4693 56.0572C35.2631 56.0572 36.8523 55.3479 36.8523 53.4778C36.8523 51.6933 35.2631 50.9839 33.2887 50.9839H31.9345V55.9782Z" fill="#18203A"/>
<path d="M46.3086 53.6445C46.438 55.326 48.0528 56.1143 49.9041 56.1143C51.0992 56.1325 52.2886 55.9455 53.4214 55.5613L53.9426 58.2648C52.6396 58.8178 51.0536 59.0805 49.3334 59.0805C45.0168 59.0805 42.5371 56.5592 42.5371 52.5161C42.5371 49.2564 44.5675 45.6582 48.9689 45.6582C53.0824 45.6582 54.646 48.8905 54.646 52.0695C54.6447 52.6058 54.6008 53.1411 54.5149 53.6703L46.3086 53.6445ZM50.9673 50.9185C50.9673 49.9706 50.5516 48.3198 48.7546 48.3198C47.0616 48.3198 46.3853 49.8706 46.2798 50.9185H50.9673Z" fill="#18203A"/>
<path d="M56.489 50.0714C56.489 48.4706 56.4379 47.1294 56.3867 45.9735H59.816L60.0015 47.7613H60.0766C60.601 46.9214 61.8736 45.6865 64.0095 45.6865C66.6139 45.6865 68.5676 47.4453 68.5676 51.2273V58.8171H64.6123V51.6997C64.6123 50.0456 64.0367 48.9156 62.6042 48.9156C61.5107 48.9156 60.8616 49.6781 60.5738 50.4116C60.4741 50.7342 60.4303 51.0718 60.4443 51.4095V58.8251H56.489V50.0714Z" fill="#18203A"/>
<path d="M68.1055 61.3127C69.1191 61.2304 69.952 60.9902 70.446 60.4679C71.0216 59.8682 71.2294 58.8429 71.2294 56.2942V45.9768H75.1879V57.2711C75.1879 60.052 74.59 61.7592 73.3909 62.8619C72.2174 63.9388 70.3709 64.4385 68.4956 64.4385L68.1055 61.3127ZM73.1575 44.2921C71.8289 44.2921 70.9688 43.3507 70.9688 42.169C70.9688 40.9599 71.8529 40.041 73.2071 40.041C74.5612 40.041 75.3894 40.9599 75.4181 42.169C75.4181 43.3507 74.5596 44.2921 73.1799 44.2921H73.1575Z" fill="#18203A"/>
<path d="M88.3623 55.717C88.3623 56.926 88.4119 58.1045 88.5734 58.817H85.0018L84.7683 57.5273H84.6916C83.8571 58.5526 82.5557 59.1024 81.0465 59.1024C78.4677 59.1024 76.9297 57.2114 76.9297 55.1624C76.9297 51.8302 79.9002 50.2536 84.4038 50.2536V50.0923C84.4038 49.4104 84.0377 48.4383 82.0872 48.4383C80.8552 48.4555 79.6467 48.7807 78.57 49.3846L77.841 46.8375C78.7267 46.3362 80.4741 45.6816 82.7971 45.6816C87.0418 45.6816 88.3687 48.203 88.3687 51.2224L88.3623 55.717ZM84.5333 52.7507C82.455 52.7507 80.8354 53.2472 80.8354 54.7723C80.8354 55.7976 81.5133 56.2941 82.4006 56.2941C82.8517 56.293 83.2913 56.1512 83.6594 55.8883C84.0275 55.6254 84.3059 55.2542 84.4566 54.8255C84.5094 54.601 84.5351 54.371 84.5333 54.1403V52.7507Z" fill="#18203A"/>
<path d="M90.4743 50.0718C90.4743 48.471 90.4167 47.1297 90.3672 45.9739H93.7246L93.8844 47.7359H93.9628C94.5111 46.8928 95.6574 45.6869 97.819 45.6869C99.4832 45.6869 100.757 46.5526 101.306 47.8939H101.359C101.799 47.2573 102.365 46.7203 103.023 46.3172C103.763 45.8979 104.598 45.6806 105.447 45.6869C107.894 45.6869 109.741 47.4183 109.741 51.2535V58.8174H105.889V51.8564C105.889 49.9944 105.291 48.9159 104.011 48.9159C103.077 48.9159 102.451 49.5495 102.166 50.3088C102.082 50.6347 102.038 50.9699 102.036 51.3067V58.8174H98.1851V51.6226C98.1851 50.0186 97.6143 48.9159 96.3401 48.9159C95.3233 48.9159 94.7222 49.7059 94.4888 50.3346C94.3705 50.6628 94.3162 51.0109 94.3289 51.3599V58.8174H90.4743V50.0718Z" fill="#18203A"/>
<path d="M113.777 44.2921C112.45 44.2921 111.59 43.3507 111.59 42.169C111.59 40.9599 112.472 40.041 113.828 40.041C115.184 40.041 116.014 40.9599 116.039 42.169C116.039 43.3507 115.181 44.2921 113.801 44.2921H113.777ZM111.825 45.9735H115.78V58.8171H111.825V45.9735Z" fill="#18203A"/>
<path d="M117.917 50.0714C117.917 48.4706 117.864 47.1294 117.814 45.9735H121.252L121.432 47.7613H121.512C122.034 46.9214 123.308 45.6865 125.444 45.6865C128.046 45.6865 130 47.4453 130 51.2273V58.8171H126.042V51.6997C126.042 50.0456 125.471 48.9156 124.035 48.9156C122.945 48.9156 122.294 49.6781 122.005 50.4116C121.905 50.7342 121.861 51.0718 121.875 51.4095V58.8251H117.917V50.0714Z" fill="#18203A"/>
<path d="M58.9365 73.5958C58.8566 71.4694 58.7766 68.9207 58.7766 66.3252H58.7271C58.1531 68.5822 57.4257 71.1019 56.7494 73.1767L54.6135 80.0797H51.5151L49.6398 73.2556C49.0675 71.1599 48.4935 68.6579 48.0522 66.3236H48.0011C47.9227 68.7095 47.8172 71.442 47.7117 73.6474L47.3744 80.3715H43.6973L44.8164 62.6738H50.0922L51.8141 68.6064C52.3848 70.6279 52.906 72.8349 53.2961 74.9081H53.4192C53.8877 72.8591 54.4856 70.5554 55.0867 68.5515L56.9365 62.6754H62.1436L63.0805 80.3731H59.2259L58.9365 73.5958Z" fill="#18203A"/>
<path d="M70.94 80.6594C67.2165 80.6594 64.3516 78.1913 64.3516 74.0498C64.3516 69.9083 67.0582 67.25 71.175 67.25C75.052 67.25 77.6611 69.9535 77.6611 73.8386C77.6611 78.5137 74.3517 80.6659 70.9672 80.6659L70.94 80.6594ZM71.0199 77.7963C72.5835 77.7963 73.546 76.2471 73.546 73.937C73.546 72.0476 72.8185 70.1034 71.0199 70.1034C69.1446 70.1034 68.4124 72.0476 68.4124 73.9725C68.4124 76.1504 69.3237 77.8044 70.9928 77.8044L71.0199 77.7963Z" fill="#18203A"/>
<path d="M85.9931 80.6594C82.2712 80.6594 79.4062 78.1913 79.4062 74.0498C79.4062 69.9083 82.1129 67.25 86.2265 67.25C90.1051 67.25 92.711 69.9535 92.711 73.8386C92.711 78.5137 89.4032 80.6659 86.0187 80.6659L85.9931 80.6594ZM86.0682 77.7963C87.6334 77.7963 88.5974 76.2471 88.5974 73.937C88.5974 72.0476 87.87 70.1034 86.0682 70.1034C84.1961 70.1034 83.4671 72.0476 83.4671 73.9725C83.4671 76.1504 84.3784 77.8044 86.0458 77.8044L86.0682 77.7963Z" fill="#18203A"/>
<path d="M94.1446 71.7578C94.1446 69.8668 94.119 68.6319 94.0391 67.5292H97.4284L97.5883 69.9216H97.6906C98.3429 68.029 99.8793 67.2439 101.126 67.2439C101.407 67.2383 101.687 67.2648 101.961 67.3229V71.0694C101.6 71.003 101.234 70.968 100.867 70.9646C99.4093 70.9646 98.418 71.7271 98.1606 72.9862C98.1053 73.2811 98.078 73.5807 98.0791 73.8809V80.3664H94.119L94.1446 71.7578Z" fill="#18203A"/>
<path d="M106.382 75.1999C106.512 76.8781 108.128 77.6664 109.975 77.6664C111.17 77.6856 112.359 77.4991 113.492 77.1151L114.013 79.8202C112.715 80.3731 111.121 80.6359 109.404 80.6359C105.087 80.6359 102.609 78.1146 102.609 74.0682C102.609 70.8118 104.64 67.2168 109.041 67.2168C113.155 67.2168 114.717 70.441 114.717 73.6217C114.716 74.1584 114.673 74.6943 114.587 75.2241L106.382 75.1999ZM111.044 72.4593C111.044 71.5163 110.627 69.859 108.832 69.859C107.139 69.859 106.459 71.4099 106.355 72.4593H111.044Z" fill="#18203A"/>
<path d="M58.7227 84.403C59.7415 84.22 60.775 84.1331 61.8098 84.1434C63.3974 84.1434 64.5613 84.5158 65.3015 85.188C65.9874 85.7845 66.411 86.6986 66.411 87.8125C66.411 88.9265 66.0785 89.8422 65.431 90.4951C64.5805 91.4059 63.1927 91.8734 61.626 91.8734C61.1909 91.8886 60.7556 91.8513 60.3294 91.7622V96.7952H58.7227V84.403ZM60.3294 90.4419C60.7663 90.537 61.2127 90.5798 61.6596 90.5692C63.6212 90.5692 64.7835 89.602 64.7835 87.906C64.7835 86.2101 63.6212 85.4282 61.845 85.4282C61.3367 85.4226 60.829 85.4674 60.3294 85.5621V90.4419Z" fill="#18203A"/>
<path d="M73.9478 94.6338C73.9389 95.3566 73.9822 96.0791 74.0773 96.7956H72.6193L72.469 95.6559H72.413C71.9334 96.3652 70.9534 97.0003 69.6824 97.0003C67.8694 97.0003 66.9453 95.7107 66.9453 94.4097C66.9453 92.2302 68.8638 91.0372 72.3203 91.0533V90.8712C72.3203 90.1248 72.1189 88.7641 70.2899 88.7754C69.4601 88.7665 68.6456 89 67.9445 89.4477L67.572 88.3466C68.471 87.8244 69.4923 87.5544 70.5297 87.5647C73.2843 87.5647 73.9478 89.4477 73.9478 91.2548V94.6338ZM72.3635 92.1882C70.5857 92.1512 68.5712 92.4704 68.5712 94.2195C68.5712 95.298 69.2715 95.7848 70.0852 95.7848C70.562 95.8002 71.0314 95.6634 71.4264 95.3939C71.8215 95.1244 72.122 94.7359 72.2851 94.284C72.3361 94.1141 72.362 93.9375 72.3619 93.76L72.3635 92.1882Z" fill="#18203A"/>
<path d="M76.591 86.1168C76.386 86.1114 76.1872 86.0453 76.0192 85.9266C75.8513 85.808 75.7217 85.6422 75.6467 85.4498C75.5716 85.2574 75.5544 85.047 75.5972 84.8448C75.64 84.6426 75.7409 84.4575 75.8873 84.3128C76.0337 84.168 76.2191 84.07 76.4204 84.0308C76.6217 83.9916 76.83 84.0131 77.0193 84.0925C77.2086 84.172 77.3705 84.3058 77.4848 84.4775C77.5992 84.6491 77.6608 84.8509 77.6622 85.0576C77.6666 85.1983 77.6424 85.3385 77.5909 85.4693C77.5394 85.6002 77.4617 85.719 77.3628 85.8183C77.2638 85.9177 77.1456 85.9954 77.0156 86.0467C76.8856 86.0981 76.7465 86.1219 76.607 86.1168H76.591ZM75.814 87.7756H77.4415V96.8034H75.814V87.7756Z" fill="#18203A"/>
<path d="M79.399 90.2158C79.399 89.2647 79.3798 88.5215 79.3223 87.7751H80.7611L80.8523 89.2469H80.889C81.1867 88.7249 81.6187 88.2936 82.1392 87.9985C82.6598 87.7034 83.2497 87.5555 83.8467 87.5704C85.0857 87.5704 87.0058 88.3184 87.0058 91.4055V96.7948H85.3831V91.5974C85.3831 90.1465 84.8507 88.9132 83.3143 88.9132C82.264 88.9132 81.4326 89.6774 81.1368 90.5914C81.0583 90.8382 81.021 91.0965 81.0265 91.3556V96.7948H79.399V90.2158Z" fill="#18203A"/>
<path d="M90.7988 85.6154V87.7756H93.1234V89.0249H90.7988V93.887C90.7988 95.0058 91.1089 95.6394 92.0154 95.6394C92.3336 95.6514 92.6518 95.6138 92.9587 95.5282L93.029 96.7759C92.5651 96.9306 92.0788 97.0063 91.5902 97C90.8292 97 90.2184 96.7356 89.8315 96.3084C89.3887 95.8038 89.2048 95.0058 89.2048 93.9451V89.0249H87.8203V87.7756H89.2048V86.1167L90.7988 85.6154Z" fill="#18203A"/>
<path d="M94.3619 95.1353C95.0184 95.5257 95.7616 95.7441 96.5234 95.7704C97.6873 95.7704 98.2404 95.1933 98.2404 94.4292C98.2404 93.665 97.78 93.2185 96.5969 92.7687C94.9726 92.1738 94.2148 91.2985 94.2148 90.2167C94.2148 88.7659 95.3963 87.5713 97.2972 87.5713C98.2037 87.5713 98.9998 87.8131 99.481 88.1307L99.091 89.3059C98.5373 88.9716 97.9056 88.7914 97.2604 88.7836C96.3011 88.7836 95.7831 89.3446 95.7831 90.0136C95.7831 90.7778 96.3027 91.1115 97.4666 91.5612C98.9998 92.1368 99.8104 92.9202 99.8104 94.2808C99.8104 95.8817 98.5762 97.0005 96.4866 97.0005C95.6096 97.0103 94.745 96.7915 93.9766 96.3653L94.3619 95.1353Z" fill="#18203A"/>
<path d="M116.665 67.8565C116.941 67.8543 117.211 67.9347 117.441 68.0876C117.671 68.2405 117.851 68.4589 117.958 68.7152C118.065 68.9714 118.094 69.254 118.042 69.5269C117.989 69.7997 117.857 70.0507 117.663 70.2479C117.468 70.445 117.22 70.5794 116.95 70.6341C116.679 70.6888 116.399 70.6612 116.144 70.5549C115.89 70.4486 115.672 70.2684 115.519 70.0371C115.366 69.8057 115.285 69.5338 115.285 69.2558C115.283 69.072 115.316 68.8894 115.385 68.7189C115.453 68.5484 115.554 68.3934 115.683 68.263C115.811 68.1326 115.964 68.0294 116.133 67.9596C116.302 67.8898 116.483 67.8548 116.665 67.8565ZM116.665 68.0741C116.364 68.09 116.08 68.2217 115.873 68.4422C115.665 68.6627 115.55 68.9551 115.55 69.259C115.55 69.563 115.665 69.8554 115.873 70.0759C116.08 70.2963 116.364 70.4281 116.665 70.4439C116.966 70.4281 117.25 70.2963 117.457 70.0759C117.665 69.8554 117.78 69.563 117.78 69.259C117.78 68.9551 117.665 68.6627 117.457 68.4422C117.25 68.2217 116.966 68.09 116.665 68.0741ZM116.403 70.0715H116.157V68.5094C116.301 68.4857 116.448 68.4733 116.595 68.4723C116.763 68.4591 116.931 68.501 117.074 68.5916C117.123 68.629 117.161 68.6781 117.186 68.7345C117.211 68.7908 117.222 68.8526 117.217 68.914C117.216 69.0022 117.186 69.0877 117.131 69.1563C117.076 69.2249 117 69.2725 116.914 69.2913V69.3042C117.052 69.3284 117.143 69.4509 117.172 69.6814C117.187 69.8151 117.221 69.946 117.273 70.0699H117.012C116.956 69.9427 116.921 69.8071 116.91 69.6685C116.907 69.6279 116.896 69.5882 116.878 69.552C116.859 69.5158 116.834 69.484 116.802 69.4584C116.771 69.4329 116.734 69.4143 116.695 69.4039C116.656 69.3934 116.615 69.3913 116.576 69.3977H116.401L116.403 70.0715ZM116.403 69.2058H116.584C116.785 69.2058 116.958 69.1333 116.958 68.9398C116.958 68.8028 116.857 68.6642 116.584 68.6642C116.523 68.6638 116.462 68.6692 116.403 68.6803V69.2058Z" fill="#18203A"/>
</g>
<defs>
<clipPath id="clip0_2424_53874">
<rect width="102" height="97" fill="white" transform="translate(28)"/>
</clipPath>
</defs>
</svg>
