<svg width="157" height="97" viewBox="0 0 157 97" fill="none" xmlns="http://www.w3.org/2000/svg">
<path fill-rule="evenodd" clip-rule="evenodd" d="M20 32H37.7631V36.5861H25.2995V42.1692H36.1929V46.7553H25.2995V57.423H20V32ZM39.3333 32H44.4365V57.423H39.3333V32ZM46.89 32H51.797V35.6888H46.89V32ZM58.6667 32H63.5736V35.6888H58.6667V32ZM73.8782 38.0517C74.3394 38.0816 74.9577 38.1713 75.2521 38.2411C75.5465 38.3208 76.0569 38.5103 76.3807 38.6698C76.7046 38.8293 77.2247 39.1982 77.5486 39.4973C77.8626 39.7864 78.2944 40.2949 78.8833 41.2221V38.4804H83.5939L83.5448 58.8686L83.3191 59.6662C83.2014 60.1048 82.9462 60.8027 82.7401 61.2115C82.4849 61.7598 82.1807 62.1686 81.6409 62.7169C81.0325 63.335 80.7283 63.5643 79.9628 63.9332C79.4525 64.1825 78.6575 64.4816 78.1963 64.5912C77.735 64.7109 76.9892 64.8505 76.5279 64.9103C76.0372 64.9801 74.9577 65 73.8782 64.9701C72.465 64.9402 71.886 64.8804 71.2775 64.7109C70.8457 64.6012 70.2078 64.3819 69.8545 64.2323C69.5012 64.0927 68.932 63.7837 68.5787 63.5544C68.2254 63.3251 67.7151 62.8964 67.4403 62.5973C67.1655 62.2982 66.822 61.8196 66.6846 61.5305C66.5374 61.2514 66.3509 60.7529 66.2724 60.4338C66.1939 60.1248 66.1252 59.7459 66.1252 59.3172H71.5228L71.5817 59.5864C71.6112 59.7459 71.7191 60.0151 71.8271 60.1846C71.935 60.384 72.2098 60.6133 72.5042 60.7628C72.779 60.9024 73.3188 61.0619 73.7113 61.1217C74.0941 61.1816 74.7712 61.2115 75.203 61.1816C75.6349 61.1517 76.2531 61.032 76.577 60.9024C76.9794 60.7529 77.313 60.5335 77.6173 60.2245C77.9019 59.9254 78.1374 59.5565 78.2846 59.1677C78.4024 58.8387 78.5496 58.2106 78.5986 57.7719C78.6477 57.3332 78.687 56.4559 78.687 54.6813L78.3926 55.1299C78.2355 55.3792 77.8724 55.8178 77.5878 56.1069C77.3032 56.3961 76.8027 56.755 76.4789 56.9145C76.155 57.074 75.6447 57.2634 75.3503 57.3332C75.0362 57.413 74.31 57.4628 73.5838 57.4529C72.6809 57.4429 72.1509 57.393 71.5719 57.2335C71.1401 57.1239 70.4139 56.8347 69.9526 56.6054C69.2951 56.2665 68.9418 56.0072 68.2843 55.3293C67.7445 54.781 67.3029 54.2227 67.0379 53.7341C66.8122 53.3254 66.4883 52.5776 66.3313 52.0891C66.1645 51.6006 65.9682 50.7631 65.8897 50.2447C65.7915 49.6864 65.7327 48.6595 65.7327 47.7523C65.7327 46.8051 65.7915 45.858 65.8799 45.3097C65.9682 44.8211 66.1154 44.1233 66.2234 43.7643C66.3215 43.4054 66.6061 42.7076 66.8514 42.219C67.0968 41.7205 67.4992 41.0625 67.7445 40.7435C67.9898 40.4344 68.4609 39.9459 68.8044 39.6668C69.1381 39.3776 69.6975 39.0088 70.0508 38.8293C70.4041 38.6498 70.934 38.4305 71.2284 38.3408C71.5228 38.2511 72.0528 38.1414 72.4061 38.0915C72.7594 38.0417 73.4169 38.0218 73.8782 38.0517ZM72.8968 42.877C72.6514 43.0266 72.3178 43.2958 72.1607 43.4752C71.9939 43.6647 71.7387 44.0136 71.6014 44.2628C71.4541 44.5121 71.2382 45.0505 71.1107 45.4592C70.9144 46.1272 70.8849 46.3964 70.8849 47.9517C70.8948 49.5867 70.9144 49.7462 71.1597 50.4441C71.3069 50.8529 71.5915 51.4311 71.7878 51.7302C71.9939 52.0193 72.3178 52.3782 72.5042 52.5178C72.6907 52.6574 73.044 52.8668 73.2893 52.9764C73.6328 53.1359 73.9272 53.1758 74.6633 53.1758C75.4091 53.1758 75.7134 53.126 76.1844 52.9366C76.5672 52.777 76.9499 52.5178 77.2738 52.1888C77.5486 51.9196 77.8822 51.4411 78.0196 51.142C78.1668 50.8429 78.3533 50.3045 78.4416 49.9456C78.5299 49.5867 78.6281 48.8489 78.6575 48.3006C78.687 47.6426 78.6575 47.0344 78.5594 46.506C78.4809 46.0674 78.3239 45.4592 78.2061 45.1601C78.0981 44.861 77.843 44.3625 77.6369 44.0634C77.4308 43.7643 77.0481 43.3556 76.7733 43.1462C76.5083 42.9369 76.0863 42.6976 75.841 42.6178C75.5956 42.5381 75.1343 42.4483 74.8105 42.4184C74.4768 42.3885 74.0254 42.4284 73.78 42.4982C73.5347 42.568 73.1421 42.7375 72.8968 42.877ZM93.8985 38.0517C94.3597 38.0816 94.978 38.1713 95.2724 38.2411C95.5668 38.3208 96.0772 38.5103 96.401 38.6698C96.7249 38.8293 97.245 39.1982 97.5689 39.4973C97.8829 39.7864 98.3049 40.2949 98.8545 41.2121L98.9036 38.4804H103.614V48.181C103.614 56.0571 103.585 58.0511 103.477 58.8187C103.398 59.3372 103.231 60.055 103.104 60.4139C102.976 60.7728 102.721 61.3211 102.535 61.6402C102.348 61.9692 101.907 62.5075 101.553 62.8366C101.2 63.1755 100.601 63.6142 100.228 63.8136C99.8457 64.013 99.2569 64.2722 98.9036 64.3918C98.5503 64.5015 97.9614 64.671 97.5787 64.7508C97.1371 64.8604 96.1851 64.9302 94.9289 64.9701C93.398 65.01 92.7699 64.99 92.0829 64.8604C91.5922 64.7807 90.9151 64.6112 90.5618 64.5015C90.2085 64.3819 89.6 64.1227 89.1976 63.9233C88.756 63.694 88.1966 63.2952 87.7746 62.8964C87.3526 62.4976 86.9503 62.0091 86.7638 61.6501C86.597 61.3311 86.3811 60.7927 86.3025 60.4637C86.2142 60.1347 86.1455 59.7459 86.1455 59.3172H91.4941L91.6217 59.716C91.6805 59.9353 91.8866 60.2643 92.0633 60.4438C92.2497 60.6332 92.6129 60.8426 92.9662 60.9622C93.4274 61.1217 93.82 61.1616 94.7817 61.1517C95.822 61.1517 96.0968 61.1118 96.5973 60.9224C96.98 60.7628 97.3431 60.5236 97.6376 60.2245C97.9124 59.9353 98.1577 59.5465 98.2951 59.1876C98.4129 58.8785 98.5503 58.2006 98.6091 57.6921C98.6582 57.1937 98.7073 56.3063 98.7073 54.6813L98.4521 55.0801C98.3049 55.2994 97.9909 55.6982 97.7357 55.9574C97.4904 56.2166 97.088 56.5656 96.8426 56.7251C96.5973 56.8746 96.0673 57.1139 95.665 57.2335C95.0467 57.423 94.7228 57.4628 93.6531 57.4529C92.6914 57.4429 92.181 57.393 91.5922 57.2335C91.1604 57.1239 90.4538 56.8547 90.022 56.6353C89.5019 56.3761 88.9915 56.0172 88.5107 55.5586C88.1181 55.1897 87.5783 54.5616 87.333 54.1828C87.0778 53.794 86.7245 53.116 86.5577 52.6574C86.3811 52.2088 86.1553 51.471 86.0376 51.0124C85.8805 50.3943 85.8217 49.7462 85.7824 48.3505C85.7431 47.1441 85.7726 46.197 85.8511 45.6088C85.9198 45.1202 86.0768 44.3426 86.2044 43.884C86.332 43.4353 86.597 42.7375 86.7932 42.3387C86.9895 41.9498 87.333 41.3517 87.5685 41.0227C87.7942 40.6937 88.2653 40.1653 88.6088 39.8462C88.9523 39.5272 89.5706 39.0985 89.9729 38.8891C90.3753 38.6698 90.9543 38.4305 91.2487 38.3408C91.5432 38.2511 92.0731 38.1414 92.4264 38.0915C92.7797 38.0417 93.4372 38.0218 93.8985 38.0517ZM93.0447 42.8073C92.7797 42.9369 92.3773 43.2659 92.132 43.5251C91.8964 43.7943 91.5824 44.2828 91.4352 44.6118C91.288 44.9408 91.1015 45.5589 91.0132 45.9776C90.9151 46.4462 90.8562 47.2538 90.8562 47.9716C90.8562 48.8888 90.9052 49.3973 91.0525 49.9955C91.1702 50.4341 91.3763 51.0124 91.5235 51.2816C91.6707 51.5508 91.9455 51.9495 92.132 52.1589C92.3184 52.3782 92.7404 52.6873 93.0643 52.8468C93.4667 53.0462 93.869 53.1559 94.3401 53.1958C94.821 53.2456 95.2135 53.2157 95.665 53.0961C96.0183 53.0063 96.5384 52.777 96.823 52.5876C97.0978 52.3982 97.4904 52.0293 97.667 51.7601C97.8535 51.5009 98.0988 51.0423 98.2166 50.7432C98.3344 50.4441 98.4914 49.816 98.5699 49.3474C98.6484 48.8789 98.7073 48.2109 98.7073 47.852C98.7073 47.493 98.6386 46.865 98.5699 46.4562C98.4914 46.0474 98.3442 45.4592 98.2264 45.1601C98.1184 44.861 97.8633 44.3625 97.6572 44.0634C97.4511 43.7643 97.0782 43.3656 96.823 43.1662C96.5777 42.9767 96.1557 42.7375 95.8907 42.6477C95.6355 42.548 95.1547 42.4483 94.8308 42.4184C94.5069 42.3985 94.0751 42.4184 93.8789 42.4683C93.6728 42.5281 93.2998 42.6776 93.0447 42.8073ZM134.822 37.9918C134.901 37.9918 135.215 38.0118 136.039 38.1115L136 43.1662H134.822C134.175 43.1662 133.409 43.216 133.134 43.2758C132.85 43.3356 132.379 43.5051 132.084 43.6547C131.8 43.7943 131.368 44.1233 131.132 44.3825C130.897 44.6517 130.622 45.0505 130.514 45.2798C130.416 45.519 130.279 45.9776 130.22 46.3066C130.151 46.7054 130.112 48.6894 130.112 57.423H125.107V38.4804H129.915V41.6208L130.367 40.8731C130.612 40.4643 130.985 39.926 131.181 39.6767C131.387 39.4275 131.79 39.0686 132.084 38.8692C132.379 38.6698 132.81 38.4305 133.056 38.3408C133.301 38.2411 133.762 38.1314 134.086 38.0915C134.41 38.0417 134.744 38.0018 134.822 37.9918ZM114.311 38.0018C114.498 37.9918 115.028 38.0218 115.489 38.0716C115.95 38.1214 116.627 38.2411 117.01 38.3308C117.393 38.4305 118.05 38.6698 118.482 38.8792C118.914 39.0785 119.542 39.4574 119.886 39.7166C120.219 39.9659 120.739 40.4743 121.034 40.8432C121.338 41.2221 121.78 41.9199 122.015 42.4184C122.251 42.9069 122.545 43.6547 122.653 44.0634C122.761 44.4722 122.918 45.2399 122.997 45.7583C123.075 46.2767 123.144 47.3036 123.144 49.3474H110.533L110.612 49.9755C110.651 50.3145 110.749 50.813 110.837 51.0921C110.926 51.3613 111.092 51.7701 111.22 51.9894C111.338 52.2088 111.642 52.5776 111.897 52.8069C112.142 53.0462 112.535 53.3154 112.771 53.4251C112.996 53.5248 113.448 53.6643 113.772 53.7242C114.095 53.784 114.557 53.8338 114.802 53.8338C115.047 53.8338 115.528 53.7541 115.882 53.6444C116.235 53.5347 116.726 53.2855 116.991 53.0961C117.295 52.8568 117.52 52.5776 117.893 51.7502L120.425 51.7402C122.761 51.7402 122.948 51.7501 122.948 51.9097C122.948 52.0094 122.8 52.448 122.624 52.8867C122.447 53.3254 122.133 53.9535 121.917 54.2825C121.711 54.6115 121.24 55.1698 120.887 55.5287C120.533 55.8876 119.945 56.3761 119.562 56.5955C119.179 56.8248 118.59 57.1239 118.237 57.2634C117.884 57.393 117.246 57.5825 116.814 57.6722C116.294 57.7918 115.587 57.8417 114.704 57.8417C113.938 57.8417 113.006 57.7819 112.496 57.6921C112.005 57.6024 111.279 57.413 110.876 57.2634C110.474 57.1239 109.895 56.8646 109.601 56.6952C109.306 56.5157 108.806 56.1668 108.502 55.9076C108.187 55.6384 107.726 55.1498 107.481 54.8009C107.226 54.4619 106.853 53.8239 106.647 53.3852C106.441 52.9465 106.156 52.1589 106.028 51.6405C105.891 51.1221 105.734 50.3145 105.675 49.8459C105.626 49.3773 105.577 48.4103 105.577 47.7024C105.577 46.9746 105.646 46.0175 105.724 45.5091C105.813 45.0106 106.019 44.203 106.176 43.7145C106.342 43.216 106.627 42.5281 106.823 42.1692C107.01 41.8103 107.402 41.232 107.677 40.8731C107.962 40.5142 108.472 40.0057 108.825 39.7366C109.169 39.4773 109.709 39.1284 110.023 38.9689C110.327 38.8094 110.965 38.5701 111.446 38.4305C111.917 38.2909 112.672 38.1314 113.134 38.0915C113.595 38.0417 114.125 38.0018 114.311 38.0018ZM112.309 42.7973C112.015 42.9967 111.681 43.3456 111.446 43.7145C111.24 44.0435 110.994 44.532 110.916 44.8112C110.837 45.0804 110.739 45.4792 110.7 45.6885L110.631 46.0574H118.041C118.041 45.7085 117.982 45.3795 117.903 45.1103C117.835 44.8311 117.658 44.3825 117.52 44.1133C117.383 43.8341 117.079 43.4254 116.843 43.1961C116.618 42.9668 116.156 42.6577 115.832 42.5082C115.43 42.3287 115.028 42.229 114.557 42.2091C114.125 42.1792 113.664 42.229 113.33 42.3287C113.036 42.4085 112.574 42.6178 112.309 42.7973ZM46.8802 38.4804H51.797L51.8264 44.8311C51.846 50.4541 51.8657 51.2517 52.0129 51.6903C52.1012 51.9595 52.3465 52.3882 52.5624 52.6375C52.7882 52.9066 53.1513 53.1858 53.4751 53.3353C53.9168 53.5347 54.1523 53.5746 54.8883 53.5746C55.5459 53.5746 55.909 53.5148 56.3113 53.3553C56.6058 53.2456 57.0866 52.9366 57.3811 52.6674C57.7147 52.3683 58.0091 51.9695 58.1858 51.5906C58.3428 51.2616 58.5096 50.6734 58.5685 50.2946C58.6176 49.9057 58.6667 47.164 58.6667 38.4804H63.5736V57.423H58.8629L58.8728 54.781L58.4409 55.3792C58.2054 55.7082 57.803 56.1668 57.5283 56.3961C57.2633 56.6353 56.802 56.9544 56.5076 57.1139C56.2132 57.2834 55.6146 57.5127 55.1827 57.6224C54.5841 57.7918 54.113 57.8417 53.1709 57.8417C52.2288 57.8417 51.7577 57.7918 51.1591 57.6224C50.7272 57.5127 50.109 57.2734 49.7949 57.094C49.4711 56.9145 48.9509 56.5057 48.6271 56.1767C48.2345 55.768 47.9205 55.3193 47.6653 54.781C47.4592 54.3423 47.2041 53.7142 47.1157 53.3852C46.9587 52.8468 46.9391 52.0592 46.9096 45.6287L46.8802 38.4804Z" fill="#172B60"/>
</svg>
