<svg width="157" height="97" viewBox="0 0 157 97" fill="none" xmlns="http://www.w3.org/2000/svg">
<g clip-path="url(#clip0_2424_54819)">
<path d="M95.0617 60.9795C94.4451 60.2862 94.1808 59.2462 94.1808 57.8595V48.6728H100.259V42.9529H94.1808V32.9862C92.4189 32.9862 86.3403 37.3195 86.3403 42.6062V58.8129C86.3403 61.8462 87.1331 64.0128 88.6308 65.4862C90.1284 66.9595 92.4189 67.7395 95.5022 67.7395C98.3212 67.7395 100.259 67.3928 100.876 67.1328V61.4128C100.347 61.5862 99.5546 62.0195 97.7046 62.0195C96.5593 62.0195 95.6784 61.6729 95.0617 60.9795ZM52.5117 38.7929V67.1328H60.3522V29.1729C58.326 29.1729 52.5117 33.8529 52.5117 38.7929ZM130.036 41.3929C128.362 41.3929 126.952 42.6929 126.952 44.3395C126.952 45.9862 128.274 47.3729 130.036 47.3729C131.709 47.3729 133.031 46.0729 133.031 44.3395C133.031 42.6929 131.709 41.3929 130.036 41.3929ZM130.036 46.7662C128.714 46.7662 127.745 45.7262 127.745 44.4262C127.745 43.1262 128.714 42.0862 130.036 42.0862C131.357 42.0862 132.326 43.1262 132.326 44.5128C132.238 45.7262 131.269 46.7662 130.036 46.7662Z" fill="white"/>
<path d="M130.652 44.4269C131.004 44.2536 131.269 43.9936 131.269 43.7336C131.269 43.4736 131.181 43.2136 131.004 43.0402C130.828 42.9536 130.564 42.7802 129.947 42.7802C129.419 42.7802 129.066 42.7802 128.802 42.8669V45.8136H129.507V44.6002H129.859C130.212 44.6002 130.388 44.7736 130.476 45.0336C130.564 45.3802 130.652 45.6402 130.74 45.7269H131.445C131.357 45.6402 131.357 45.4669 131.269 44.9469C131.093 44.7736 131.004 44.6002 130.652 44.4269ZM129.859 44.2536H129.507V43.3869H129.859C130.3 43.3869 130.476 43.5602 130.476 43.8202C130.564 44.0802 130.212 44.2536 129.859 44.2536ZM76.7378 51.7936C75.5926 51.5336 74.6235 51.2736 73.8307 51.0136C73.0378 50.7536 72.5092 50.5802 72.1568 50.4069C71.4521 50.0602 71.0997 49.6269 71.0997 49.0202C71.0997 48.3269 71.4521 47.7202 72.0688 47.3736C72.7735 47.0269 73.7426 46.8536 75.1521 46.8536C78.6759 46.8536 81.6711 48.0669 82.464 48.5002V42.7802C81.9354 42.6069 78.1473 41.3936 74.3592 41.3936C65.6378 41.3936 63.3473 46.0736 63.3473 49.3669C63.3473 51.6202 64.0521 53.3536 65.4616 54.3936C66.8711 55.4336 68.5449 56.2136 70.6592 56.6469C71.6283 56.8202 72.4211 57.0802 73.1259 57.3402C73.8307 57.6002 74.3592 57.7736 74.7116 58.0336C75.4164 58.4669 75.8568 59.0736 75.8568 59.7669C75.8568 60.6336 75.5045 61.3269 74.7997 61.6736C74.0068 62.0202 73.0378 62.1936 71.8926 62.1936C68.1926 62.1936 64.2283 60.4602 64.0521 60.3736V66.4402C64.4926 66.6136 66.9592 67.6536 72.333 67.6536C75.9449 67.6536 78.764 66.9602 80.7902 65.4869C82.9045 64.0136 83.8735 62.0202 83.8735 59.3336C83.8735 57.3402 83.3449 55.7802 82.1997 54.4802C80.9664 53.3536 79.2045 52.4869 76.7378 51.7936ZM113.826 41.3936C107.659 41.3936 104.84 42.6069 104.312 42.9536V48.6736C104.928 48.4136 107.043 46.8536 113.562 46.8536C115.588 46.8536 117.878 47.3736 117.878 50.1469V51.0136H113.914C108.628 51.1869 102.021 52.9202 102.021 59.8536C102.021 62.5402 103.783 67.6536 110.478 67.6536C113.65 67.6536 116.557 66.2669 117.79 64.2736V67.1336H125.19V49.9736C125.19 44.6869 120.874 41.3936 113.826 41.3936ZM117.79 56.3002C117.79 58.3802 116.557 62.1936 112.328 62.1936C110.214 62.1936 108.804 60.8069 108.804 59.1602C108.804 56.0402 112.857 55.9536 114.971 55.8669H115.852C116.204 55.8669 117.526 55.7802 117.702 55.6936V56.3002H117.79ZM37.0068 41.4802C28.7259 41.4802 23.9688 47.6336 23.9688 54.5669C23.9688 61.5869 28.7259 67.6536 37.0068 67.6536C43.9664 67.6536 50.0449 63.2336 50.0449 54.5669C50.0449 45.9002 44.0545 41.4802 37.0068 41.4802ZM42.5568 54.6536V54.7402C42.5568 59.1602 40.6187 62.0202 37.0068 62.0202C32.6902 62.0202 31.4568 58.2936 31.4568 54.7402V54.6536V54.5669C31.4568 51.0136 32.7783 47.2869 37.0068 47.2869C40.6187 47.2869 42.5568 50.2336 42.5568 54.5669V54.6536Z" fill="white"/>
<path d="M33.6594 40.0933C34.8758 40.0933 35.8618 39.1233 35.8618 37.9267C35.8618 36.7301 34.8758 35.76 33.6594 35.76C32.4431 35.76 31.457 36.7301 31.457 37.9267C31.457 39.1233 32.4431 40.0933 33.6594 40.0933Z" fill="white"/>
<path d="M40.2668 40.0933C41.4832 40.0933 42.4692 39.1233 42.4692 37.9267C42.4692 36.7301 41.4832 35.76 40.2668 35.76C39.0505 35.76 38.0645 36.7301 38.0645 37.9267C38.0645 39.1233 39.0505 40.0933 40.2668 40.0933Z" fill="white"/>
</g>
<defs>
<clipPath id="clip0_2424_54819">
<rect width="111" height="39" fill="white" transform="translate(23 29)"/>
</clipPath>
</defs>
</svg>
