<svg width="157" height="42" viewBox="0 0 157 42" fill="none" xmlns="http://www.w3.org/2000/svg">
<g clip-path="url(#clip0_785_55680)">
<path d="M21.3564 6.10352e-05L42.7118 20.9419L21.3564 41.8848L0 20.9419L21.3564 6.10352e-05Z" fill="#F03E32"/>
<mask id="mask0_785_55680" style="mask-type:luminance" maskUnits="userSpaceOnUse" x="0" y="0" width="157" height="42">
<path d="M0 42H156.999V0.000297546H0V42Z" fill="white"/>
</mask>
<g mask="url(#mask0_785_55680)">
<path fill-rule="evenodd" clip-rule="evenodd" d="M52.0944 27.34H55.8225V16.0931H60.0351V13.3871H47.9746V16.0931H52.0944V27.34ZM64.8034 13.3871H61.0752V27.34H64.8034V13.3871ZM70.3844 19.514L70.3467 13.3871H66.6185V27.34H70.3467V19.919L74.8203 27.34H79.4428L74.4287 19.533L79.0706 13.3871H74.653L70.3844 19.514ZM84.0704 19.514L84.0326 13.3871H80.3055V27.34H84.0326V19.919L88.5072 27.34H93.1297L88.1157 19.533L92.7575 13.3871H88.339L84.0704 19.514ZM102.996 13.3871V22.025C102.94 23.803 102.045 24.925 100.292 24.925C98.5405 24.925 97.6451 23.803 97.5901 22.025V13.3871H93.8619V22.219C93.8986 26.104 96.9007 27.631 100.292 27.631C103.685 27.631 106.686 26.104 106.724 22.219V13.3871H102.996ZM112.612 22.007H114.01C115.912 22.007 115.986 22.702 116.135 24.384C116.229 25.369 116.34 26.374 116.546 27.34H120.59C120.274 26.219 120.068 25.118 119.975 23.959C119.733 21.794 119.285 20.538 116.9 20.48C118.782 20.171 120.329 19.069 120.329 16.9821C120.329 14.0251 117.384 13.3871 115.11 13.3871H108.884V27.34H112.612V22.007ZM112.612 19.301V16.0931H114.066C115.259 16.0931 116.414 16.2671 116.414 17.6971C116.414 19.127 115.259 19.301 114.066 19.301H112.612ZM125.719 13.3871H121.989V27.34H125.719V13.3871ZM135.829 27.34V24.635H131.473V13.3871H127.745V27.34H135.829ZM141.481 21.91L143.307 16.1121L145.078 21.91H141.481ZM139.654 27.34L140.53 24.615H145.992L146.886 27.34H151.099L145.787 13.3871H141.238L135.925 27.34H139.654Z" fill="black"/>
<path d="M10.9727 10.9826C12.2779 10.9826 13.3487 12.0196 13.3487 13.2996C13.3487 13.6976 13.2467 14.0726 13.0662 14.3996C14.3245 14.4506 15.329 15.4676 15.329 16.7146C15.329 17.9935 14.2715 19.0315 12.9662 19.0315C12.5461 19.0315 12.1515 18.9235 11.8099 18.7355C11.8007 18.8575 11.7956 18.9805 11.7956 19.1045C11.7956 21.5315 13.8024 23.4985 16.2773 23.4985C18.7523 23.4985 20.7581 21.5315 20.7581 19.1045C20.7581 18.9395 20.754 18.7755 20.7367 18.6155C20.3532 18.8775 19.878 19.0315 19.3753 19.0315C18.07 19.0315 17.0116 17.9935 17.0116 16.7146C17.0116 15.4676 18.017 14.4506 19.2754 14.3996C19.0949 14.0726 18.9919 13.6976 18.9919 13.2996C18.9919 12.0196 20.0504 10.9826 21.3556 10.9826C22.6599 10.9826 23.7174 12.0196 23.7174 13.2996C23.7174 13.6976 23.6154 14.0726 23.4349 14.3996C24.6943 14.4506 25.6987 15.4676 25.6987 16.7146C25.6987 17.9935 24.6402 19.0315 23.335 19.0315C22.8312 19.0315 22.3642 18.8765 21.9797 18.6125C21.9614 18.7735 21.9522 18.9375 21.9522 19.1045C21.9522 21.5315 23.959 23.4985 26.4329 23.4985C28.9089 23.4985 30.9137 21.5315 30.9137 19.1045C30.9137 18.9845 30.9137 18.8645 30.9045 18.7465C30.567 18.9285 30.1723 19.0325 29.7593 19.0325C28.4541 19.0325 27.3966 17.9955 27.3966 16.7156C27.3966 15.4696 28.401 14.4516 29.6594 14.4006C29.4799 14.0736 29.3769 13.6986 29.3769 13.3016C29.3769 12.0216 30.4354 10.9836 31.7397 10.9836L31.7376 28.4855H10.9727V10.9826Z" fill="white"/>
<path d="M44.2616 35.6H42.0723V34.825H47.4014V35.6H45.2018V41.8839H44.2616V35.6Z" fill="#808080"/>
<path d="M49.282 34.825V37.7789H52.7644V34.825H53.7036V41.8839H52.7644V38.5749H49.282V41.8839H48.3418V34.825H49.282Z" fill="#808080"/>
<path d="M59.1432 38.5748H56.3552V41.1198H59.4746V41.8848H55.416V34.8248H59.3145V35.5898H56.3552V37.8208H59.1432V38.5748Z" fill="#808080"/>
<path d="M64.7259 38.3129C64.9288 38.3659 65.1858 38.3859 65.4947 38.3859C66.6165 38.3859 67.2997 37.8419 67.2997 36.8889C67.2997 35.9459 66.6165 35.4959 65.6018 35.4959C65.196 35.4959 64.886 35.5269 64.7259 35.5689V38.3129ZM63.7969 34.9089C64.2456 34.8359 64.8329 34.7729 65.5804 34.7729C66.4992 34.7729 67.1722 34.9829 67.5985 35.3599C67.9829 35.6949 68.2287 36.2079 68.2287 36.8359C68.2287 37.4749 68.037 37.9779 67.6739 38.3439C67.1722 38.8579 66.3809 39.1189 65.4733 39.1189C65.196 39.1189 64.939 39.1089 64.7259 39.0569V41.8849H63.7969V34.9089Z" fill="#808080"/>
<path d="M69.9039 38.3861C69.9039 39.9051 70.737 41.2561 72.2105 41.2561C73.6841 41.2561 74.5182 39.9261 74.5182 38.3231C74.5182 36.9092 73.7697 35.4432 72.2218 35.4432C70.6728 35.4432 69.9039 36.8462 69.9039 38.3861ZM75.5002 38.2811C75.5002 40.7011 73.9941 42.0001 72.1575 42.0001C70.2455 42.0001 68.9219 40.5441 68.9219 38.4071C68.9219 36.1662 70.3312 34.6992 72.2534 34.6992C74.2296 34.6992 75.5002 36.1762 75.5002 38.2811Z" fill="#808080"/>
<path d="M77.6564 41.8839L75.8301 34.825H76.8121L77.6666 38.3959C77.8808 39.2759 78.0725 40.1559 78.201 40.8369H78.2224C78.3397 40.1349 78.564 39.2969 78.8098 38.3859L79.7714 34.825H80.7432L81.6181 38.4069C81.8221 39.2449 82.0138 40.0829 82.1209 40.8259H82.1423C82.2912 40.0509 82.4941 39.2659 82.7184 38.3859L83.6698 34.825H84.6192L82.5797 41.8839H81.6079L80.7004 38.2079C80.476 37.3069 80.3261 36.6159 80.2303 35.904H80.2088C80.0916 36.6059 79.9203 37.2969 79.6541 38.2079L78.6282 41.8839H77.6564Z" fill="#808080"/>
<path d="M89.3443 38.5749H86.5564V41.1199H89.6747V41.8849H85.6172V34.8249H89.5157V35.5899H86.5564V37.8209H89.3443V38.5749Z" fill="#808080"/>
<path d="M91.802 38.1349H92.7524C93.7457 38.1349 94.3759 37.6009 94.3759 36.7939C94.3759 35.8829 93.7028 35.4849 92.7198 35.4849C92.2711 35.4849 91.9621 35.5169 91.802 35.5579V38.1349ZM90.873 34.9199C91.3421 34.8359 92.0264 34.7729 92.6566 34.7729C93.6498 34.7729 94.3014 34.9619 94.7389 35.3489C95.0917 35.6629 95.3048 36.1449 95.3048 36.6999C95.3048 37.6219 94.7073 38.2399 93.9598 38.4909V38.5219C94.5043 38.7109 94.8347 39.2139 95.0061 39.9469C95.2406 40.9319 95.4119 41.6119 95.5608 41.8849H94.6002C94.4829 41.6749 94.3228 41.0779 94.1301 40.1989C93.917 39.2239 93.5213 38.8579 92.678 38.8259H91.802V41.8849H90.873V34.9199Z" fill="#808080"/>
<path d="M100.185 38.3861C100.185 39.9051 101.018 41.2561 102.492 41.2561C103.966 41.2561 104.799 39.9261 104.799 38.3231C104.799 36.9092 104.052 35.4432 102.503 35.4432C100.954 35.4432 100.185 36.8462 100.185 38.3861ZM105.781 38.2811C105.781 40.7011 104.275 42.0001 102.439 42.0001C100.527 42.0001 99.2031 40.5441 99.2031 38.4071C99.2031 36.1662 100.612 34.6992 102.535 34.6992C104.511 34.6992 105.781 36.1762 105.781 38.2811Z" fill="#808080"/>
<path d="M107.117 34.825H110.994V35.589H108.057V37.9359H110.77V38.6899H108.057V41.8839H107.117V34.825Z" fill="#808080"/>
<path d="M119.932 41.6643C119.6 41.8323 118.906 41.9993 118.031 41.9993C116.002 41.9993 114.484 40.7423 114.484 38.4173C114.484 36.1973 116.012 34.7093 118.244 34.7093C119.13 34.7093 119.707 34.8983 119.953 35.0243L119.719 35.7673C119.376 35.6003 118.874 35.4743 118.277 35.4743C116.589 35.4743 115.467 36.5323 115.467 38.3863C115.467 40.1243 116.482 41.2243 118.223 41.2243C118.8 41.2243 119.376 41.1093 119.75 40.9313L119.932 41.6643Z" fill="#808080"/>
<path d="M121.389 38.3861C121.389 39.9051 122.222 41.2561 123.696 41.2561C125.17 41.2561 126.004 39.9261 126.004 38.3231C126.004 36.9092 125.256 35.4432 123.707 35.4432C122.158 35.4432 121.389 36.8462 121.389 38.3861ZM126.986 38.2811C126.986 40.7011 125.479 42.0001 123.643 42.0001C121.731 42.0001 120.406 40.5441 120.406 38.4071C120.406 36.1662 121.817 34.6992 123.739 34.6992C125.715 34.6992 126.986 36.1762 126.986 38.2811Z" fill="#808080"/>
<path d="M128.322 34.825H129.262V41.1199H132.338V41.8839H128.322V34.825Z" fill="#808080"/>
<path d="M133.532 38.3861C133.532 39.9051 134.365 41.2561 135.839 41.2561C137.313 41.2561 138.145 39.9261 138.145 38.3231C138.145 36.9092 137.399 35.4432 135.85 35.4432C134.301 35.4432 133.532 36.8462 133.532 38.3861ZM139.128 38.2811C139.128 40.7011 137.622 42.0001 135.785 42.0001C133.873 42.0001 132.549 40.5441 132.549 38.4071C132.549 36.1662 133.959 34.6992 135.881 34.6992C137.858 34.6992 139.128 36.1762 139.128 38.2811Z" fill="#808080"/>
<path d="M141.264 34.8252V39.0142C141.264 40.5852 141.98 41.2562 142.941 41.2562C143.998 41.2562 144.693 40.5652 144.693 39.0142V34.8252H145.632V38.9522C145.632 41.1202 144.468 41.9991 142.909 41.9991C141.436 41.9991 140.324 41.1822 140.324 38.9832V34.8252H141.264Z" fill="#808080"/>
<path d="M148.042 38.1349H148.993C149.986 38.1349 150.616 37.6009 150.616 36.7939C150.616 35.8829 149.943 35.4849 148.96 35.4849C148.512 35.4849 148.202 35.5169 148.042 35.5579V38.1349ZM147.113 34.9199C147.582 34.8359 148.266 34.7729 148.897 34.7729C149.89 34.7729 150.542 34.9619 150.979 35.3489C151.332 35.6629 151.545 36.1449 151.545 36.6999C151.545 37.6219 150.948 38.2399 150.199 38.4909V38.5219C150.745 38.7109 151.075 39.2139 151.246 39.9469C151.481 40.9319 151.652 41.6119 151.801 41.8849H150.84C150.723 41.6749 150.563 41.0779 150.37 40.1989C150.157 39.2239 149.762 38.8579 148.918 38.8259H148.042V41.8849H147.113V34.9199Z" fill="#808080"/>
<path d="M152.898 40.7741C153.314 41.0361 153.913 41.2351 154.553 41.2351C155.504 41.2351 156.059 40.7431 156.059 40.0311C156.059 39.3811 155.675 38.9941 154.703 38.6381C153.528 38.2191 152.801 37.6112 152.801 36.6272C152.801 35.5272 153.731 34.7102 155.13 34.7102C155.856 34.7102 156.401 34.8782 156.711 35.0562L156.455 35.7992C156.231 35.6632 155.749 35.4642 155.099 35.4642C154.116 35.4642 153.741 36.0402 153.741 36.5222C153.741 37.1822 154.18 37.5062 155.173 37.8832C156.391 38.3441 156.999 38.9201 156.999 39.9571C156.999 41.0471 156.188 42.0001 154.489 42.0001C153.795 42.0001 153.037 41.7901 152.652 41.5391L152.898 40.7741Z" fill="#808080"/>
</g>
</g>
<defs>
<clipPath id="clip0_785_55680">
<rect width="157" height="42" fill="white"/>
</clipPath>
</defs>
</svg>
