<svg width="111" height="39" viewBox="0 0 111 39" fill="none" xmlns="http://www.w3.org/2000/svg">
<g clip-path="url(#clip0_785_56592)">
<path d="M72.0617 31.9795C71.4451 31.2862 71.1808 30.2462 71.1808 28.8595V19.6728H77.2593V13.9529H71.1808V3.98618C69.4189 3.98618 63.3403 8.31952 63.3403 13.6062V29.8129C63.3403 32.8462 64.1331 35.0128 65.6308 36.4862C67.1284 37.9595 69.4189 38.7395 72.5022 38.7395C75.3212 38.7395 77.2593 38.3928 77.876 38.1328V32.4128C77.3474 32.5862 76.5546 33.0195 74.7046 33.0195C73.5593 33.0195 72.6784 32.6729 72.0617 31.9795ZM29.5117 9.79285V38.1328H37.3522V0.172852C35.326 0.172852 29.5117 4.85285 29.5117 9.79285ZM107.036 12.3929C105.362 12.3929 103.952 13.6929 103.952 15.3395C103.952 16.9862 105.274 18.3729 107.036 18.3729C108.709 18.3729 110.031 17.0729 110.031 15.3395C110.031 13.6929 108.709 12.3929 107.036 12.3929ZM107.036 17.7662C105.714 17.7662 104.745 16.7262 104.745 15.4262C104.745 14.1262 105.714 13.0862 107.036 13.0862C108.357 13.0862 109.326 14.1262 109.326 15.5128C109.238 16.7262 108.269 17.7662 107.036 17.7662Z" fill="white"/>
<path d="M107.652 15.4269C108.004 15.2536 108.269 14.9936 108.269 14.7336C108.269 14.4736 108.181 14.2136 108.004 14.0402C107.828 13.9536 107.564 13.7802 106.947 13.7802C106.419 13.7802 106.066 13.7802 105.802 13.8669V16.8136H106.507V15.6002H106.859C107.212 15.6002 107.388 15.7736 107.476 16.0336C107.564 16.3802 107.652 16.6402 107.74 16.7269H108.445C108.357 16.6402 108.357 16.4669 108.269 15.9469C108.093 15.7736 108.004 15.6002 107.652 15.4269ZM106.859 15.2536H106.507V14.3869H106.859C107.3 14.3869 107.476 14.5602 107.476 14.8202C107.564 15.0802 107.212 15.2536 106.859 15.2536ZM53.7378 22.7936C52.5926 22.5336 51.6235 22.2736 50.8307 22.0136C50.0378 21.7536 49.5092 21.5802 49.1568 21.4069C48.4521 21.0602 48.0997 20.6269 48.0997 20.0202C48.0997 19.3269 48.4521 18.7202 49.0688 18.3736C49.7735 18.0269 50.7426 17.8536 52.1521 17.8536C55.6759 17.8536 58.6711 19.0669 59.464 19.5002V13.7802C58.9354 13.6069 55.1473 12.3936 51.3592 12.3936C42.6378 12.3936 40.3473 17.0736 40.3473 20.3669C40.3473 22.6202 41.0521 24.3536 42.4616 25.3936C43.8711 26.4336 45.5449 27.2136 47.6592 27.6469C48.6283 27.8202 49.4211 28.0802 50.1259 28.3402C50.8307 28.6002 51.3592 28.7736 51.7116 29.0336C52.4164 29.4669 52.8568 30.0736 52.8568 30.7669C52.8568 31.6336 52.5045 32.3269 51.7997 32.6736C51.0068 33.0202 50.0378 33.1936 48.8926 33.1936C45.1926 33.1936 41.2283 31.4602 41.0521 31.3736V37.4402C41.4926 37.6136 43.9592 38.6536 49.333 38.6536C52.9449 38.6536 55.764 37.9602 57.7902 36.4869C59.9045 35.0136 60.8735 33.0202 60.8735 30.3336C60.8735 28.3402 60.3449 26.7802 59.1997 25.4802C57.9664 24.3536 56.2045 23.4869 53.7378 22.7936ZM90.8259 12.3936C84.6592 12.3936 81.8402 13.6069 81.3116 13.9536V19.6736C81.9283 19.4136 84.0426 17.8536 90.5616 17.8536C92.5878 17.8536 94.8783 18.3736 94.8783 21.1469V22.0136H90.914C85.6283 22.1869 79.0211 23.9202 79.0211 30.8536C79.0211 33.5402 80.783 38.6536 87.4783 38.6536C90.6497 38.6536 93.5568 37.2669 94.7902 35.2736V38.1336H102.19V20.9736C102.19 15.6869 97.8735 12.3936 90.8259 12.3936ZM94.7902 27.3002C94.7902 29.3802 93.5568 33.1936 89.3283 33.1936C87.214 33.1936 85.8045 31.8069 85.8045 30.1602C85.8045 27.0402 89.8568 26.9536 91.9711 26.8669H92.8521C93.2045 26.8669 94.5259 26.7802 94.7021 26.6936V27.3002H94.7902ZM14.0068 12.4802C5.72589 12.4802 0.96875 18.6336 0.96875 25.5669C0.96875 32.5869 5.72589 38.6536 14.0068 38.6536C20.9664 38.6536 27.0449 34.2336 27.0449 25.5669C27.0449 16.9002 21.0545 12.4802 14.0068 12.4802ZM19.5568 25.6536V25.7402C19.5568 30.1602 17.6187 33.0202 14.0068 33.0202C9.69018 33.0202 8.45685 29.2936 8.45685 25.7402V25.6536V25.5669C8.45685 22.0136 9.77827 18.2869 14.0068 18.2869C17.6187 18.2869 19.5568 21.2336 19.5568 25.5669V25.6536Z" fill="white"/>
<path d="M10.6594 11.0933C11.8758 11.0933 12.8618 10.1233 12.8618 8.92668C12.8618 7.73006 11.8758 6.76001 10.6594 6.76001C9.44307 6.76001 8.45703 7.73006 8.45703 8.92668C8.45703 10.1233 9.44307 11.0933 10.6594 11.0933Z" fill="white"/>
<path d="M17.2668 11.0933C18.4832 11.0933 19.4692 10.1233 19.4692 8.92668C19.4692 7.73006 18.4832 6.76001 17.2668 6.76001C16.0505 6.76001 15.0645 7.73006 15.0645 8.92668C15.0645 10.1233 16.0505 11.0933 17.2668 11.0933Z" fill="white"/>
</g>
<defs>
<clipPath id="clip0_785_56592">
<rect width="111" height="39" fill="white"/>
</clipPath>
</defs>
</svg>
