<svg width="157" height="97" viewBox="0 0 157 97" fill="none" xmlns="http://www.w3.org/2000/svg">
<g clip-path="url(#clip0_2424_53905)">
<path d="M21.3564 28.0001L42.7118 48.9419L21.3564 69.8848L0 48.9419L21.3564 28.0001Z" fill="#F03E32"/>
<mask id="mask0_2424_53905" style="mask-type:luminance" maskUnits="userSpaceOnUse" x="0" y="28" width="157" height="42">
<path d="M0 70H156.999V28.0003H0V70Z" fill="white"/>
</mask>
<g mask="url(#mask0_2424_53905)">
<path fill-rule="evenodd" clip-rule="evenodd" d="M52.0944 55.34H55.8225V44.0931H60.0351V41.3871H47.9746V44.0931H52.0944V55.34ZM64.8034 41.3871H61.0752V55.34H64.8034V41.3871ZM70.3844 47.514L70.3467 41.3871H66.6185V55.34H70.3467V47.919L74.8203 55.34H79.4428L74.4287 47.533L79.0706 41.3871H74.653L70.3844 47.514ZM84.0704 47.514L84.0326 41.3871H80.3055V55.34H84.0326V47.919L88.5072 55.34H93.1297L88.1157 47.533L92.7575 41.3871H88.339L84.0704 47.514ZM102.996 41.3871V50.025C102.94 51.803 102.045 52.925 100.292 52.925C98.5405 52.925 97.6451 51.803 97.5901 50.025V41.3871H93.8619V50.219C93.8986 54.104 96.9007 55.631 100.292 55.631C103.685 55.631 106.686 54.104 106.724 50.219V41.3871H102.996ZM112.612 50.007H114.01C115.912 50.007 115.986 50.702 116.135 52.384C116.229 53.369 116.34 54.374 116.546 55.34H120.59C120.274 54.219 120.068 53.118 119.975 51.959C119.733 49.794 119.285 48.538 116.9 48.48C118.782 48.171 120.329 47.069 120.329 44.9821C120.329 42.0251 117.384 41.3871 115.11 41.3871H108.884V55.34H112.612V50.007ZM112.612 47.301V44.0931H114.066C115.259 44.0931 116.414 44.2671 116.414 45.6971C116.414 47.127 115.259 47.301 114.066 47.301H112.612ZM125.719 41.3871H121.989V55.34H125.719V41.3871ZM135.829 55.34V52.635H131.473V41.3871H127.745V55.34H135.829ZM141.481 49.91L143.307 44.1121L145.078 49.91H141.481ZM139.654 55.34L140.53 52.615H145.992L146.886 55.34H151.099L145.787 41.3871H141.238L135.925 55.34H139.654Z" fill="black"/>
<path d="M10.9727 38.9826C12.2779 38.9826 13.3487 40.0196 13.3487 41.2996C13.3487 41.6976 13.2467 42.0726 13.0662 42.3996C14.3245 42.4506 15.329 43.4676 15.329 44.7146C15.329 45.9935 14.2715 47.0315 12.9662 47.0315C12.5461 47.0315 12.1515 46.9235 11.8099 46.7355C11.8007 46.8575 11.7956 46.9805 11.7956 47.1045C11.7956 49.5315 13.8024 51.4985 16.2773 51.4985C18.7523 51.4985 20.7581 49.5315 20.7581 47.1045C20.7581 46.9395 20.754 46.7755 20.7367 46.6155C20.3532 46.8775 19.878 47.0315 19.3753 47.0315C18.07 47.0315 17.0116 45.9935 17.0116 44.7146C17.0116 43.4676 18.017 42.4506 19.2754 42.3996C19.0949 42.0726 18.9919 41.6976 18.9919 41.2996C18.9919 40.0196 20.0504 38.9826 21.3556 38.9826C22.6599 38.9826 23.7174 40.0196 23.7174 41.2996C23.7174 41.6976 23.6154 42.0726 23.4349 42.3996C24.6943 42.4506 25.6987 43.4676 25.6987 44.7146C25.6987 45.9935 24.6402 47.0315 23.335 47.0315C22.8312 47.0315 22.3642 46.8765 21.9797 46.6125C21.9614 46.7735 21.9522 46.9375 21.9522 47.1045C21.9522 49.5315 23.959 51.4985 26.4329 51.4985C28.9089 51.4985 30.9137 49.5315 30.9137 47.1045C30.9137 46.9845 30.9137 46.8645 30.9045 46.7465C30.567 46.9285 30.1723 47.0325 29.7593 47.0325C28.4541 47.0325 27.3966 45.9955 27.3966 44.7156C27.3966 43.4696 28.401 42.4516 29.6594 42.4006C29.4799 42.0736 29.3769 41.6986 29.3769 41.3016C29.3769 40.0216 30.4354 38.9836 31.7397 38.9836L31.7376 56.4855H10.9727V38.9826Z" fill="white"/>
<path d="M44.2616 63.6H42.0723V62.825H47.4014V63.6H45.2018V69.8839H44.2616V63.6Z" fill="#808080"/>
<path d="M49.282 62.825V65.7789H52.7644V62.825H53.7036V69.8839H52.7644V66.5749H49.282V69.8839H48.3418V62.825H49.282Z" fill="#808080"/>
<path d="M59.1432 66.5748H56.3552V69.1198H59.4746V69.8848H55.416V62.8248H59.3145V63.5898H56.3552V65.8208H59.1432V66.5748Z" fill="#808080"/>
<path d="M64.7259 66.3129C64.9288 66.3659 65.1858 66.3859 65.4947 66.3859C66.6165 66.3859 67.2997 65.8419 67.2997 64.8889C67.2997 63.9459 66.6165 63.4959 65.6018 63.4959C65.196 63.4959 64.886 63.5269 64.7259 63.5689V66.3129ZM63.7969 62.9089C64.2456 62.8359 64.8329 62.7729 65.5804 62.7729C66.4992 62.7729 67.1722 62.9829 67.5985 63.3599C67.9829 63.6949 68.2287 64.2079 68.2287 64.8359C68.2287 65.4749 68.037 65.9779 67.6739 66.3439C67.1722 66.8579 66.3809 67.1189 65.4733 67.1189C65.196 67.1189 64.939 67.1089 64.7259 67.0569V69.8849H63.7969V62.9089Z" fill="#808080"/>
<path d="M69.9039 66.3861C69.9039 67.9051 70.737 69.2561 72.2105 69.2561C73.6841 69.2561 74.5182 67.9261 74.5182 66.3231C74.5182 64.9092 73.7697 63.4432 72.2218 63.4432C70.6728 63.4432 69.9039 64.8462 69.9039 66.3861ZM75.5002 66.2811C75.5002 68.7011 73.9941 70.0001 72.1575 70.0001C70.2455 70.0001 68.9219 68.5441 68.9219 66.4071C68.9219 64.1662 70.3312 62.6992 72.2534 62.6992C74.2296 62.6992 75.5002 64.1762 75.5002 66.2811Z" fill="#808080"/>
<path d="M77.6564 69.8839L75.8301 62.825H76.8121L77.6666 66.3959C77.8808 67.2759 78.0725 68.1559 78.201 68.8369H78.2224C78.3397 68.1349 78.564 67.2969 78.8098 66.3859L79.7714 62.825H80.7432L81.6181 66.4069C81.8221 67.2449 82.0138 68.0829 82.1209 68.8259H82.1423C82.2912 68.0509 82.4941 67.2659 82.7184 66.3859L83.6698 62.825H84.6192L82.5797 69.8839H81.6079L80.7004 66.2079C80.476 65.3069 80.3261 64.6159 80.2303 63.904H80.2088C80.0916 64.6059 79.9203 65.2969 79.6541 66.2079L78.6282 69.8839H77.6564Z" fill="#808080"/>
<path d="M89.3443 66.5749H86.5564V69.1199H89.6747V69.8849H85.6172V62.8249H89.5157V63.5899H86.5564V65.8209H89.3443V66.5749Z" fill="#808080"/>
<path d="M91.802 66.1349H92.7524C93.7457 66.1349 94.3759 65.6009 94.3759 64.7939C94.3759 63.8829 93.7028 63.4849 92.7198 63.4849C92.2711 63.4849 91.9621 63.5169 91.802 63.5579V66.1349ZM90.873 62.9199C91.3421 62.8359 92.0264 62.7729 92.6566 62.7729C93.6498 62.7729 94.3014 62.9619 94.7389 63.3489C95.0917 63.6629 95.3048 64.1449 95.3048 64.6999C95.3048 65.6219 94.7073 66.2399 93.9598 66.4909V66.5219C94.5043 66.7109 94.8347 67.2139 95.0061 67.9469C95.2406 68.9319 95.4119 69.6119 95.5608 69.8849H94.6002C94.4829 69.6749 94.3228 69.0779 94.1301 68.1989C93.917 67.2239 93.5213 66.8579 92.678 66.8259H91.802V69.8849H90.873V62.9199Z" fill="#808080"/>
<path d="M100.185 66.3861C100.185 67.9051 101.018 69.2561 102.492 69.2561C103.966 69.2561 104.799 67.9261 104.799 66.3231C104.799 64.9092 104.052 63.4432 102.503 63.4432C100.954 63.4432 100.185 64.8462 100.185 66.3861ZM105.781 66.2811C105.781 68.7011 104.275 70.0001 102.439 70.0001C100.527 70.0001 99.2031 68.5441 99.2031 66.4071C99.2031 64.1662 100.612 62.6992 102.535 62.6992C104.511 62.6992 105.781 64.1762 105.781 66.2811Z" fill="#808080"/>
<path d="M107.117 62.825H110.994V63.589H108.057V65.9359H110.77V66.6899H108.057V69.8839H107.117V62.825Z" fill="#808080"/>
<path d="M119.932 69.6643C119.6 69.8323 118.906 69.9993 118.031 69.9993C116.002 69.9993 114.484 68.7423 114.484 66.4173C114.484 64.1973 116.012 62.7093 118.244 62.7093C119.13 62.7093 119.707 62.8983 119.953 63.0243L119.719 63.7673C119.376 63.6003 118.874 63.4743 118.277 63.4743C116.589 63.4743 115.467 64.5323 115.467 66.3863C115.467 68.1243 116.482 69.2243 118.223 69.2243C118.8 69.2243 119.376 69.1093 119.75 68.9313L119.932 69.6643Z" fill="#808080"/>
<path d="M121.389 66.3861C121.389 67.9051 122.222 69.2561 123.696 69.2561C125.17 69.2561 126.004 67.9261 126.004 66.3231C126.004 64.9092 125.256 63.4432 123.707 63.4432C122.158 63.4432 121.389 64.8462 121.389 66.3861ZM126.986 66.2811C126.986 68.7011 125.479 70.0001 123.643 70.0001C121.731 70.0001 120.406 68.5441 120.406 66.4071C120.406 64.1662 121.817 62.6992 123.739 62.6992C125.715 62.6992 126.986 64.1762 126.986 66.2811Z" fill="#808080"/>
<path d="M128.322 62.825H129.262V69.1199H132.338V69.8839H128.322V62.825Z" fill="#808080"/>
<path d="M133.532 66.3861C133.532 67.9051 134.365 69.2561 135.839 69.2561C137.313 69.2561 138.145 67.9261 138.145 66.3231C138.145 64.9092 137.399 63.4432 135.85 63.4432C134.301 63.4432 133.532 64.8462 133.532 66.3861ZM139.128 66.2811C139.128 68.7011 137.622 70.0001 135.785 70.0001C133.873 70.0001 132.549 68.5441 132.549 66.4071C132.549 64.1662 133.959 62.6992 135.881 62.6992C137.858 62.6992 139.128 64.1762 139.128 66.2811Z" fill="#808080"/>
<path d="M141.264 62.8252V67.0142C141.264 68.5852 141.98 69.2562 142.941 69.2562C143.998 69.2562 144.693 68.5652 144.693 67.0142V62.8252H145.632V66.9522C145.632 69.1202 144.468 69.9991 142.909 69.9991C141.436 69.9991 140.324 69.1822 140.324 66.9832V62.8252H141.264Z" fill="#808080"/>
<path d="M148.042 66.1349H148.993C149.986 66.1349 150.616 65.6009 150.616 64.7939C150.616 63.8829 149.943 63.4849 148.96 63.4849C148.512 63.4849 148.202 63.5169 148.042 63.5579V66.1349ZM147.113 62.9199C147.582 62.8359 148.266 62.7729 148.897 62.7729C149.89 62.7729 150.542 62.9619 150.979 63.3489C151.332 63.6629 151.545 64.1449 151.545 64.6999C151.545 65.6219 150.948 66.2399 150.199 66.4909V66.5219C150.745 66.7109 151.075 67.2139 151.246 67.9469C151.481 68.9319 151.652 69.6119 151.801 69.8849H150.84C150.723 69.6749 150.563 69.0779 150.37 68.1989C150.157 67.2239 149.762 66.8579 148.918 66.8259H148.042V69.8849H147.113V62.9199Z" fill="#808080"/>
<path d="M152.898 68.7741C153.314 69.0361 153.913 69.2351 154.553 69.2351C155.504 69.2351 156.059 68.7431 156.059 68.0311C156.059 67.3811 155.675 66.9941 154.703 66.6381C153.528 66.2191 152.801 65.6112 152.801 64.6272C152.801 63.5272 153.731 62.7102 155.13 62.7102C155.856 62.7102 156.401 62.8782 156.711 63.0562L156.455 63.7992C156.231 63.6632 155.749 63.4642 155.099 63.4642C154.116 63.4642 153.741 64.0402 153.741 64.5222C153.741 65.1822 154.18 65.5062 155.173 65.8832C156.391 66.3441 156.999 66.9201 156.999 67.9571C156.999 69.0471 156.188 70.0001 154.489 70.0001C153.795 70.0001 153.037 69.7901 152.652 69.5391L152.898 68.7741Z" fill="#808080"/>
</g>
</g>
<defs>
<clipPath id="clip0_2424_53905">
<rect width="157" height="42" fill="white" transform="translate(0 28)"/>
</clipPath>
</defs>
</svg>
