<svg width="88" height="65" viewBox="0 0 88 65" fill="none" xmlns="http://www.w3.org/2000/svg">
<g id="Tikkurila_Logo 2" clip-path="url(#clip0_2326_49926)">
<g id="layer1">
<g id="g148">
<path id="path150" d="M11.6909 21.8668L23.7152 33.9666L11.6909 46.0669L-0.333984 33.9666L11.6909 21.8668Z" fill="#F03E32"/>
</g>
<g id="g152">
<g id="Clip path group">
<mask id="mask0_2326_49926" style="mask-type:luminance" maskUnits="userSpaceOnUse" x="-1" y="21" width="90" height="26">
<g id="clipPath156">
<path id="path158" d="M-0.333984 46.1333H88.0656V21.8668H-0.333984V46.1333Z" fill="white"/>
</g>
</mask>
<g mask="url(#mask0_2326_49926)">
<g id="g154">
<g id="g160">
<path id="path162" fill-rule="evenodd" clip-rule="evenodd" d="M28.9974 37.6629H31.0966V31.1647H33.4685V29.6012H26.6777V31.1647H28.9974V37.6629ZM36.1533 29.6012H34.0541V37.6629H36.1533V29.6012ZM39.2957 33.1413L39.2745 29.6012H37.1753V37.6629H39.2745V33.3753L41.7934 37.6629H44.3961L41.5729 33.1522L44.1865 29.6012H41.6992L39.2957 33.1413ZM47.0017 33.1413L46.9805 29.6012H44.8819V37.6629H46.9805V33.3753L49.4999 37.6629H52.1027L49.2794 33.1522L51.8931 29.6012H49.4052L47.0017 33.1413ZM57.6578 29.6012V34.5921C57.6262 35.6193 57.1226 36.2676 56.1356 36.2676C55.1492 36.2676 54.6451 35.6193 54.6141 34.5921V29.6012H52.5149V34.7041C52.5356 36.9488 54.2259 37.8311 56.1356 37.8311C58.0459 37.8311 59.7357 36.9488 59.7569 34.7041V29.6012H57.6578ZM63.0722 34.5817H63.8594C64.9302 34.5817 64.9721 34.9832 65.056 35.955C65.1088 36.5241 65.1714 37.1048 65.2874 37.6629H67.5645C67.3865 37.0152 67.2706 36.3791 67.2183 35.7095C67.0817 34.4586 66.8296 33.7329 65.4866 33.6994C66.5465 33.5209 67.4175 32.8842 67.4175 31.6783C67.4175 29.9699 65.7593 29.6012 64.4789 29.6012H60.973V37.6629H63.0722V34.5817ZM63.0722 33.0182V31.1647H63.891C64.5628 31.1647 65.2133 31.2652 65.2133 32.0915C65.2133 32.9177 64.5628 33.0182 63.891 33.0182H63.0722ZM70.452 29.6012H68.3523V37.6629H70.452V29.6012ZM76.145 37.6629V36.1H73.6921V29.6012H71.5929V37.6629H76.145ZM79.327 34.5256L80.3554 31.1757L81.3527 34.5256H79.327ZM78.2987 37.6629L78.7919 36.0885H81.8672L82.3707 37.6629H84.7426L81.7518 29.6012H79.1904L76.1989 37.6629H78.2987Z" fill="black"/>
</g>
<g id="g164">
<path id="path166" d="M5.84375 28.2119C6.57869 28.2119 7.18157 28.8111 7.18157 29.5506C7.18157 29.7806 7.12415 29.9973 7.02253 30.1862C7.73105 30.2157 8.29661 30.8032 8.29661 31.5237C8.29661 32.2627 7.7012 32.8624 6.96626 32.8624C6.7297 32.8624 6.50749 32.8 6.31515 32.6914C6.30998 32.7619 6.30711 32.833 6.30711 32.9046C6.30711 34.3069 7.43708 35.4433 8.83059 35.4433C10.2241 35.4433 11.3535 34.3069 11.3535 32.9046C11.3535 32.8093 11.3512 32.7145 11.3414 32.6221C11.1256 32.7735 10.858 32.8624 10.5749 32.8624C9.83999 32.8624 9.244 32.2627 9.244 31.5237C9.244 30.8032 9.81013 30.2157 10.5187 30.1862C10.417 29.9973 10.359 29.7806 10.359 29.5506C10.359 28.8111 10.955 28.2119 11.69 28.2119C12.4243 28.2119 13.0198 28.8111 13.0198 29.5506C13.0198 29.7806 12.9623 29.9973 12.8607 30.1862C13.5698 30.2157 14.1354 30.8032 14.1354 31.5237C14.1354 32.2627 13.5394 32.8624 12.8044 32.8624C12.5208 32.8624 12.2578 32.7729 12.0414 32.6203C12.031 32.7134 12.0259 32.8081 12.0259 32.9046C12.0259 34.3069 13.1558 35.4433 14.5488 35.4433C15.9429 35.4433 17.0717 34.3069 17.0717 32.9046C17.0717 32.8353 17.0717 32.7659 17.0665 32.6978C16.8765 32.8029 16.6543 32.863 16.4217 32.863C15.6868 32.863 15.0914 32.2639 15.0914 31.5243C15.0914 30.8044 15.6569 30.2162 16.3655 30.1868C16.2644 29.9978 16.2064 29.7812 16.2064 29.5518C16.2064 28.8122 16.8024 28.2125 17.5368 28.2125L17.5356 38.3247H5.84375V28.2119Z" fill="white"/>
</g>
<g id="g168">
<path id="path170" d="M24.5863 42.4352H23.3535V41.9874H26.3541V42.4352H25.1157V46.0659H24.5863V42.4352Z" fill="#B2B2B2"/>
</g>
<g id="g172">
<path id="path174" d="M27.4142 41.9874V43.6942H29.375V41.9874H29.9038V46.0659H29.375V44.1541H27.4142V46.0659H26.8848V41.9874H27.4142Z" fill="#B2B2B2"/>
</g>
<g id="g176">
<path id="path178" d="M32.9677 44.154H31.398V45.6244H33.1543V46.0664H30.8691V41.9873H33.0642V42.4293H31.398V43.7183H32.9677V44.154Z" fill="#B2B2B2"/>
</g>
<g id="g180">
<path id="path182" d="M36.111 44.0026C36.2252 44.0332 36.3699 44.0448 36.5439 44.0448C37.1755 44.0448 37.5602 43.7305 37.5602 43.1798C37.5602 42.635 37.1755 42.375 36.6042 42.375C36.3757 42.375 36.2011 42.3929 36.111 42.4172V44.0026ZM35.5879 42.0359C35.8405 41.9937 36.1712 41.9573 36.5921 41.9573C37.1094 41.9573 37.4884 42.0786 37.7284 42.2964C37.9449 42.49 38.0832 42.7864 38.0832 43.1492C38.0832 43.5184 37.9753 43.809 37.7709 44.0205C37.4884 44.3175 37.0428 44.4683 36.5318 44.4683C36.3757 44.4683 36.231 44.4625 36.111 44.4325V46.0664H35.5879V42.0359Z" fill="#B2B2B2"/>
</g>
<g id="g184">
<path id="path186" d="M39.0256 44.0452C39.0256 44.9229 39.4947 45.7034 40.3244 45.7034C41.154 45.7034 41.6237 44.935 41.6237 44.0088C41.6237 43.1919 41.2023 42.3448 40.3307 42.3448C39.4585 42.3448 39.0256 43.1555 39.0256 44.0452ZM42.1766 43.9846C42.1766 45.3828 41.3286 46.1333 40.2945 46.1333C39.2179 46.1333 38.4727 45.2921 38.4727 44.0574C38.4727 42.7626 39.2662 41.915 40.3485 41.915C41.4612 41.915 42.1766 42.7683 42.1766 43.9846Z" fill="#B2B2B2"/>
</g>
<g id="g188">
<path id="path190" d="M43.3897 46.0659L42.3613 41.9874H42.9143L43.3954 44.0506C43.516 44.5591 43.6239 45.0675 43.6963 45.461H43.7083C43.7744 45.0554 43.9007 44.5712 44.0391 44.0449L44.5805 41.9874H45.1277L45.6203 44.057C45.7352 44.5412 45.8431 45.0253 45.9034 45.4546H45.9155C45.9993 45.0069 46.1135 44.5533 46.2399 44.0449L46.7756 41.9874H47.3101L46.1618 46.0659H45.6146L45.1036 43.942C44.9773 43.4214 44.8929 43.0222 44.8389 42.6108H44.8268C44.7608 43.0164 44.6643 43.4157 44.5145 43.942L43.9369 46.0659H43.3897Z" fill="#B2B2B2"/>
</g>
<g id="g192">
<path id="path194" d="M49.9716 44.154H48.4019V45.6244H50.1577V46.0664H47.873V41.9873H50.0681V42.4293H48.4019V43.7183H49.9716V44.154Z" fill="#B2B2B2"/>
</g>
<g id="g196">
<path id="path198" d="M51.3551 43.9002H51.8902C52.4495 43.9002 52.8043 43.5917 52.8043 43.1254C52.8043 42.5991 52.4254 42.3691 51.8719 42.3691C51.6192 42.3691 51.4452 42.3876 51.3551 42.4113V43.9002ZM50.832 42.0427C51.0962 41.9942 51.4814 41.9578 51.8363 41.9578C52.3955 41.9578 52.7624 42.067 53.0087 42.2906C53.2074 42.472 53.3274 42.7505 53.3274 43.0711C53.3274 43.6038 52.9909 43.9609 52.5701 44.1059V44.1238C52.8767 44.233 53.0627 44.5237 53.1592 44.9472C53.2912 45.5163 53.3877 45.9092 53.4715 46.0669H52.9306C52.8646 45.9456 52.7745 45.6006 52.6659 45.0928C52.5459 44.5294 52.3232 44.318 51.8483 44.2995H51.3551V46.0669H50.832V42.0427Z" fill="#B2B2B2"/>
</g>
<g id="g200">
<path id="path202" d="M56.0744 44.0452C56.0744 44.9229 56.5435 45.7034 57.3732 45.7034C58.2034 45.7034 58.6725 44.935 58.6725 44.0088C58.6725 43.1919 58.2517 42.3448 57.3795 42.3448C56.5073 42.3448 56.0744 43.1555 56.0744 44.0452ZM59.2255 43.9846C59.2255 45.3828 58.3774 46.1333 57.3433 46.1333C56.2668 46.1333 55.5215 45.2921 55.5215 44.0574C55.5215 42.7626 56.315 41.915 57.3973 41.915C58.5101 41.915 59.2255 42.7683 59.2255 43.9846Z" fill="#B2B2B2"/>
</g>
<g id="g204">
<path id="path206" d="M59.9785 41.9874H62.1615V42.4288H60.5079V43.7849H62.0352V44.2205H60.5079V46.0659H59.9785V41.9874Z" fill="#B2B2B2"/>
</g>
<g id="g208">
<path id="path210" d="M67.1942 45.9393C67.0076 46.0363 66.6166 46.1328 66.1239 46.1328C64.9813 46.1328 64.127 45.4066 64.127 44.0632C64.127 42.7806 64.9871 41.9208 66.2439 41.9208C66.7429 41.9208 67.0679 42.03 67.2062 42.1028L67.0742 42.5321C66.8813 42.4356 66.5988 42.3628 66.2623 42.3628C65.312 42.3628 64.6805 42.9741 64.6805 44.0453C64.6805 45.0495 65.2518 45.685 66.2319 45.685C66.5568 45.685 66.8813 45.6186 67.092 45.5158L67.1942 45.9393Z" fill="#B2B2B2"/>
</g>
<g id="g212">
<path id="path214" d="M68.0144 44.0452C68.0144 44.9229 68.4835 45.7034 69.3132 45.7034C70.1435 45.7034 70.6126 44.935 70.6126 44.0088C70.6126 43.1919 70.1917 42.3448 69.3195 42.3448C68.4474 42.3448 68.0144 43.1555 68.0144 44.0452ZM71.1655 43.9846C71.1655 45.3828 70.3174 46.1333 69.2834 46.1333C68.2068 46.1333 67.4609 45.2921 67.4609 44.0574C67.4609 42.7626 68.255 41.915 69.3373 41.915C70.4501 41.915 71.1655 42.7683 71.1655 43.9846Z" fill="#B2B2B2"/>
</g>
<g id="g216">
<path id="path218" d="M71.918 41.9874H72.4474V45.6245H74.1791V46.0659H71.918V41.9874Z" fill="#B2B2B2"/>
</g>
<g id="g220">
<path id="path222" d="M74.8523 44.0452C74.8523 44.9229 75.3214 45.7034 76.1511 45.7034C76.9814 45.7034 77.4499 44.935 77.4499 44.0088C77.4499 43.1919 77.0296 42.3448 76.1574 42.3448C75.2853 42.3448 74.8523 43.1555 74.8523 44.0452ZM78.0034 43.9846C78.0034 45.3828 77.1553 46.1333 76.1213 46.1333C75.0447 46.1333 74.2988 45.2921 74.2988 44.0574C74.2988 42.7626 75.0929 41.915 76.1752 41.915C77.288 41.915 78.0034 42.7683 78.0034 43.9846Z" fill="#B2B2B2"/>
</g>
<g id="g224">
<path id="path226" d="M79.2052 41.9879V44.4082C79.2052 45.3158 79.6082 45.7035 80.1491 45.7035C80.7445 45.7035 81.1355 45.3043 81.1355 44.4082V41.9879H81.6643V44.3723C81.6643 45.6249 81.0092 46.1328 80.1313 46.1328C79.3016 46.1328 78.6758 45.6608 78.6758 44.3902V41.9879H79.2052Z" fill="#B2B2B2"/>
</g>
<g id="g228">
<path id="path230" d="M83.0211 43.8998H83.5562C84.1155 43.8998 84.4703 43.5912 84.4703 43.125C84.4703 42.5986 84.0914 42.3687 83.5379 42.3687C83.2858 42.3687 83.1113 42.3871 83.0211 42.4108V43.8998ZM82.498 42.0422C82.7622 41.9937 83.1469 41.9573 83.5023 41.9573C84.0615 41.9573 84.4284 42.0665 84.6747 42.2901C84.8734 42.4715 84.9934 42.75 84.9934 43.0707C84.9934 43.6034 84.6569 43.9604 84.2355 44.1054V44.1234C84.5427 44.2326 84.7287 44.5232 84.8252 44.9467C84.9572 45.5158 85.0537 45.9087 85.1375 46.0664H84.5966C84.5306 45.9451 84.4405 45.6001 84.332 45.0923C84.212 44.529 83.9892 44.3175 83.5143 44.299H83.0211V46.0664H82.498V42.0422Z" fill="#B2B2B2"/>
</g>
<g id="g232">
<path id="path234" d="M85.7556 45.425C85.9898 45.5763 86.3269 45.6913 86.6874 45.6913C87.2226 45.6913 87.5355 45.407 87.5355 44.9957C87.5355 44.6201 87.319 44.3965 86.7718 44.1908C86.1104 43.9487 85.701 43.5975 85.701 43.0289C85.701 42.3934 86.2247 41.9213 87.0124 41.9213C87.4212 41.9213 87.7278 42.0184 87.9024 42.1212L87.7583 42.5505C87.632 42.4719 87.3609 42.357 86.9946 42.357C86.4411 42.357 86.2304 42.6898 86.2304 42.9683C86.2304 43.3496 86.4773 43.5368 87.0365 43.7546C87.7221 44.021 88.0649 44.3538 88.0649 44.9529C88.0649 45.5827 87.6078 46.1333 86.6513 46.1333C86.2608 46.1333 85.8337 46.012 85.6172 45.8669L85.7556 45.425Z" fill="#B2B2B2"/>
</g>
</g>
</g>
</g>
</g>
</g>
</g>
<defs>
<clipPath id="clip0_2326_49926">
<rect width="88" height="65" fill="white"/>
</clipPath>
</defs>
</svg>
