<svg width="88" height="65" viewBox="0 0 88 65" fill="none" xmlns="http://www.w3.org/2000/svg">
<g id="Frame 48097799">
<g id="Group 48097315">
<g id="Group 48097314">
<path id="Vector" d="M5.83203 30.7411C5.83203 31.3056 6.33381 31.8074 6.89832 31.8074C7.46282 31.8074 7.9646 31.3056 7.9646 30.7411C7.9646 30.1766 7.46282 29.6748 6.89832 29.6748C6.27109 29.6748 5.83203 30.1139 5.83203 30.7411Z" fill="#034EA0"/>
<path id="Vector_2" d="M4.76578 34.0035C5.33028 34.0035 6.89835 34.0035 7.3374 34.8189C7.52557 35.0698 8.02735 35.697 7.27468 37.2024C6.52201 38.7077 6.52201 40.2131 6.71018 40.8403C7.21196 42.5965 8.52913 43.9764 10.2226 44.4782H10.2854H10.3481C12.2298 43.9764 13.4215 42.2829 13.7978 40.7148C13.8606 40.2758 14.1742 39.0213 13.2961 37.1397C12.6061 35.6343 12.9824 35.1325 13.2333 34.7562C13.6724 33.8781 14.9268 33.9408 16.1813 33.9408C16.4949 33.9408 17.4985 33.9408 17.4985 33.9408V28.6094H15.9304V32.3727C15.6795 32.3727 15.4286 32.3727 15.2405 32.3727C14.6132 32.3727 14.0487 32.3727 13.4842 32.5609C12.4807 32.9372 11.7907 33.7526 11.4771 34.9444C11.1635 36.0734 11.5398 37.0142 11.9162 37.8923C12.1043 38.3941 12.2925 38.8959 12.4179 39.3977C12.5434 40.8403 11.6653 42.2829 10.3481 42.9101H10.2854C10.2854 42.9101 10.2854 42.9101 10.2226 42.9101C9.03092 42.3456 7.96463 41.0285 8.09008 39.3977C8.1528 39.0841 8.27824 38.645 8.52913 38.1432C8.90547 37.2651 9.34453 36.1361 9.09364 34.9444C8.7173 33.6272 7.96463 32.8118 6.7729 32.4982C6.02023 32.31 4.70305 32.3727 4.70305 32.3727V28.6094H3.07227V33.9408C3.13499 34.0035 4.32672 34.0035 4.76578 34.0035Z" fill="#034EA0"/>
<path id="Vector_3" d="M2.57163 34.0033V28.6719H0L2.13257 31.3689L0 34.0033H2.57163Z" fill="#034EA0"/>
<g id="Group">
<path id="Vector_4" d="M17.561 24.7203C17.561 22.5878 18.5645 22.0233 19.819 21.5215H9.65792C8.27802 21.5215 7.08629 22.525 6.8354 23.9049V21.5215H3.13477V28.1701H17.561V24.7203Z" fill="#00A94E"/>
</g>
</g>
<g id="Group_2">
<path id="Vector_5" d="M25.2757 40.3378H28.2237V31.3057H31.4852V28.6714H21.8887V31.3057H25.2757V40.3378Z" fill="#231F20"/>
<path id="Vector_6" d="M41.144 37.7034H35.4362V35.5082H40.4541V33.1874H35.4362V31.1176H41.0186V28.6714H32.4883V40.3378H41.144V37.7034Z" fill="#231F20"/>
<path id="Vector_7" d="M53.9397 40.3378L49.4237 34.5046L53.9397 28.6714H50.1764L46.1621 34.5046L50.2391 40.3378H53.9397Z" fill="#231F20"/>
<path id="Vector_8" d="M45.8492 36.7626V33.1874V28.6714H42.6504V40.3378H45.8492V36.7626Z" fill="#231F20"/>
<path id="Vector_9" d="M57.7038 33.4383H57.7665L62.0317 40.3378H65.1678V28.6714H62.2826V35.5709H62.2199L57.9547 28.6714H54.7559V40.3378H57.7038V33.4383Z" fill="#231F20"/>
<path id="Vector_10" d="M72.1921 40.5886C75.83 40.5886 77.8999 37.8915 77.8999 34.5045C77.8999 31.1175 75.83 28.4204 72.1921 28.4204C68.5542 28.4204 66.4844 31.1175 66.4844 34.5045C66.4844 37.8915 68.5542 40.5886 72.1921 40.5886ZM72.1921 31.0548C74.1365 31.0548 74.8892 32.811 74.8892 34.5045C74.8892 36.2607 74.1365 37.9542 72.1921 37.9542C70.2477 37.9542 69.4951 36.198 69.4951 34.5045C69.4951 32.811 70.2477 31.0548 72.1921 31.0548Z" fill="#231F20"/>
<path id="Vector_11" d="M84.6735 37.1396C84.6735 38.0804 83.6699 38.2686 82.6037 38.2686C81.2238 38.2686 80.032 37.955 79.1539 37.5159L78.8403 40.0876C79.9693 40.4012 81.4119 40.5894 82.5409 40.5894C85.3007 40.5894 87.9978 39.774 87.9978 36.7006C87.9978 32.4354 82.1019 33.7526 82.1019 31.8709C82.1019 30.8673 83.4818 30.8046 84.3599 30.8046C85.3007 30.8046 86.2416 30.9928 87.1197 31.3691L87.3079 28.9229C86.4925 28.6721 85.3007 28.4839 84.109 28.4839C81.6001 28.4839 78.7148 29.2366 78.7148 32.0591C78.7776 36.3242 84.6735 34.9443 84.6735 37.1396Z" fill="#231F20"/>
</g>
</g>
</g>
</svg>
