<svg width="88" height="65" viewBox="0 0 88 65" fill="none" xmlns="http://www.w3.org/2000/svg">
<g id="Frame 48097799">
<path id="Path 1" fill-rule="evenodd" clip-rule="evenodd" d="M2.5 21H15.3586V24.3365H6.33627V28.3984H14.2219V31.7349H6.33627V39.4959H2.5V21ZM16.4953 21H20.1894V39.4959H16.4953V21ZM21.9655 21H25.5176V23.6837H21.9655V21ZM30.4905 21H34.0426V23.6837H30.4905V21ZM41.502 25.4027C41.8359 25.4245 42.2835 25.4898 42.4966 25.5406C42.7097 25.5986 43.0792 25.7364 43.3136 25.8524C43.548 25.9685 43.9246 26.2369 44.159 26.4545C44.3863 26.6648 44.6989 27.0347 45.1252 27.7093V25.7146H48.5352L48.4997 40.5476L48.3363 41.1279C48.251 41.447 48.0663 41.9547 47.9171 42.2521C47.7324 42.6511 47.5122 42.9484 47.1214 43.3474C46.681 43.7971 46.4608 43.9639 45.9066 44.2323C45.5372 44.4136 44.9618 44.6312 44.6279 44.711C44.294 44.798 43.7541 44.8996 43.4202 44.9431C43.065 44.9939 42.2835 45.0084 41.502 44.9866C40.479 44.9649 40.0599 44.9213 39.6194 44.798C39.3068 44.7182 38.8451 44.5587 38.5893 44.4499C38.3336 44.3483 37.9215 44.1235 37.6658 43.9566C37.41 43.7898 37.0406 43.4779 36.8417 43.2603C36.6428 43.0427 36.3941 42.6946 36.2947 42.4842C36.1881 42.2811 36.0531 41.9185 35.9963 41.6864C35.9394 41.4615 35.8897 41.1859 35.8897 40.874H39.797L39.8396 41.0698C39.861 41.1859 39.9391 41.3817 40.0173 41.505C40.0954 41.6501 40.2943 41.8169 40.5074 41.9257C40.7064 42.0273 41.0971 42.1433 41.3813 42.1868C41.6583 42.2304 42.1485 42.2521 42.4611 42.2304C42.7737 42.2086 43.2212 42.1216 43.4557 42.0273C43.747 41.9185 43.9885 41.7589 44.2087 41.5341C44.4147 41.3165 44.5853 41.0481 44.6918 40.7652C44.7771 40.5258 44.8836 40.0689 44.9191 39.7497C44.9547 39.4306 44.9831 38.7923 44.9831 37.5012L44.77 37.8276C44.6563 38.009 44.3934 38.3281 44.1874 38.5384C43.9814 38.7488 43.6191 39.0099 43.3846 39.126C43.1502 39.242 42.7808 39.3798 42.5677 39.4306C42.3403 39.4886 41.8146 39.5249 41.2889 39.5176C40.6353 39.5104 40.2517 39.4741 39.8325 39.3581C39.52 39.2783 38.9942 39.0679 38.6604 38.9011C38.1844 38.6545 37.9286 38.4659 37.4526 37.9727C37.0619 37.5738 36.7422 37.1676 36.5504 36.8122C36.387 36.5148 36.1526 35.9708 36.0389 35.6154C35.9181 35.26 35.7761 34.6507 35.7192 34.2735C35.6482 33.8673 35.6055 33.1202 35.6055 32.4602C35.6055 31.7711 35.6482 31.0821 35.7121 30.6831C35.7761 30.3277 35.8826 29.82 35.9608 29.5589C36.0318 29.2978 36.2378 28.79 36.4154 28.4346C36.593 28.072 36.8843 27.5932 37.0619 27.3611C37.2395 27.1363 37.5805 26.7809 37.8292 26.5778C38.0707 26.3674 38.4756 26.0991 38.7314 25.9685C38.9871 25.8379 39.3708 25.6784 39.5839 25.6131C39.797 25.5478 40.1806 25.468 40.4364 25.4318C40.6922 25.3955 41.1681 25.381 41.502 25.4027ZM40.7916 28.9133C40.614 29.0221 40.3725 29.218 40.2588 29.3485C40.138 29.4863 39.9533 29.7402 39.8539 29.9215C39.7473 30.1029 39.591 30.4946 39.4986 30.7919C39.3566 31.2779 39.3353 31.4737 39.3353 32.6053C39.3424 33.7948 39.3566 33.9108 39.5342 34.4186C39.6407 34.716 39.8468 35.1367 39.9888 35.3543C40.138 35.5646 40.3725 35.8257 40.5074 35.9273C40.6424 36.0288 40.8982 36.1811 41.0758 36.2609C41.3244 36.377 41.5376 36.406 42.0704 36.406C42.6103 36.406 42.8305 36.3697 43.1715 36.2319C43.4486 36.1158 43.7256 35.9273 43.9601 35.6879C44.159 35.4921 44.4005 35.1439 44.5 34.9263C44.6066 34.7087 44.7415 34.317 44.8055 34.0559C44.8694 33.7948 44.9405 33.2581 44.9618 32.8591C44.9831 32.3804 44.9618 31.938 44.8907 31.5535C44.8339 31.2344 44.7202 30.7919 44.635 30.5743C44.5568 30.3567 44.3721 29.9941 44.2229 29.7765C44.0737 29.5589 43.7967 29.2615 43.5978 29.1092C43.406 28.9569 43.1005 28.7828 42.9229 28.7247C42.7453 28.6667 42.4114 28.6014 42.1769 28.5797C41.9354 28.5579 41.6086 28.5869 41.431 28.6377C41.2534 28.6885 40.9692 28.8118 40.7916 28.9133ZM55.9946 25.4027C56.3285 25.4245 56.7761 25.4898 56.9892 25.5406C57.2023 25.5986 57.5717 25.7364 57.8062 25.8524C58.0406 25.9685 58.4171 26.2369 58.6516 26.4545C58.8789 26.6648 59.1844 27.0347 59.5822 27.702L59.6177 25.7146H63.0277V32.7721C63.0277 38.5022 63.0064 39.9528 62.9283 40.5113C62.8714 40.8885 62.7507 41.4107 62.6583 41.6719C62.566 41.933 62.3813 42.3319 62.2463 42.564C62.1113 42.8034 61.7916 43.1951 61.5359 43.4344C61.2801 43.681 60.8468 44.0002 60.5768 44.1452C60.2997 44.2903 59.8735 44.4789 59.6177 44.5659C59.362 44.6457 58.9357 44.769 58.6587 44.827C58.339 44.9068 57.6499 44.9576 56.7405 44.9866C55.6323 45.0156 55.1776 45.0011 54.6803 44.9068C54.3251 44.8488 53.8349 44.7255 53.5792 44.6457C53.3234 44.5587 52.8829 44.3701 52.5917 44.225C52.272 44.0582 51.8671 43.7681 51.5616 43.4779C51.2561 43.1878 50.9648 42.8324 50.8298 42.5713C50.7091 42.3392 50.5528 41.9475 50.4959 41.7081C50.432 41.4688 50.3823 41.1859 50.3823 40.874H54.2541L54.3464 41.1641C54.389 41.3237 54.5382 41.5631 54.6661 41.6936C54.8011 41.8314 55.0639 41.9838 55.3197 42.0708C55.6536 42.1868 55.9378 42.2159 56.634 42.2086C57.387 42.2086 57.5859 42.1796 57.9482 42.0418C58.2253 41.9257 58.4882 41.7516 58.7013 41.5341C58.9002 41.3237 59.0778 41.0408 59.1773 40.7797C59.2625 40.5549 59.362 40.0616 59.4046 39.6917C59.4401 39.3291 59.4756 38.6835 59.4756 37.5012L59.2909 37.7914C59.1844 37.9509 58.957 38.2411 58.7723 38.4296C58.5947 38.6182 58.3035 38.8721 58.1258 38.9881C57.9482 39.0969 57.5646 39.271 57.2733 39.3581C56.8258 39.4959 56.5913 39.5249 55.817 39.5176C55.1208 39.5104 54.7514 39.4741 54.3251 39.3581C54.0125 39.2783 53.501 39.0824 53.1884 38.9229C52.8119 38.7343 52.4425 38.4732 52.0944 38.1395C51.8102 37.8711 51.4195 37.4142 51.2419 37.1386C51.0572 36.8557 50.8014 36.3625 50.6807 36.0288C50.5528 35.7024 50.3894 35.1657 50.3041 34.832C50.1905 34.3823 50.1478 33.9108 50.1194 32.8954C50.091 32.0177 50.1123 31.3287 50.1691 30.9007C50.2189 30.5453 50.3325 29.9796 50.4249 29.6459C50.5173 29.3195 50.7091 28.8118 50.8512 28.5217C50.9932 28.2388 51.2419 27.8036 51.4124 27.5642C51.5758 27.3249 51.9168 26.9404 52.1654 26.7083C52.4141 26.4762 52.8616 26.1643 53.1529 26.012C53.4442 25.8524 53.8633 25.6784 54.0765 25.6131C54.2896 25.5478 54.6732 25.468 54.929 25.4318C55.1847 25.3955 55.6607 25.381 55.9946 25.4027ZM55.3765 28.8626C55.1847 28.9569 54.8934 29.1962 54.7158 29.3848C54.5453 29.5806 54.318 29.936 54.2114 30.1754C54.1049 30.4148 53.9699 30.8645 53.906 31.1691C53.8349 31.51 53.7923 32.0975 53.7923 32.6198C53.7923 33.2871 53.8278 33.657 53.9344 34.0922C54.0196 34.4113 54.1688 34.832 54.2754 35.0279C54.3819 35.2237 54.5809 35.5138 54.7158 35.6661C54.8508 35.8257 55.1563 36.0506 55.3907 36.1666C55.682 36.3117 55.9733 36.3915 56.3143 36.4205C56.6624 36.4568 56.9465 36.435 57.2733 36.348C57.5291 36.2827 57.9056 36.1158 58.1116 35.978C58.3106 35.8402 58.5947 35.5719 58.7226 35.376C58.8576 35.1874 59.0352 34.8538 59.1204 34.6362C59.2057 34.4186 59.3193 33.9616 59.3762 33.6207C59.433 33.2798 59.4756 32.7938 59.4756 32.5327C59.4756 32.2716 59.4259 31.8146 59.3762 31.5173C59.3193 31.2199 59.2128 30.7919 59.1275 30.5743C59.0494 30.3567 58.8647 29.9941 58.7155 29.7765C58.5663 29.5589 58.2963 29.2687 58.1116 29.1237C57.934 28.9859 57.6286 28.8118 57.4367 28.7465C57.252 28.674 56.9039 28.6014 56.6695 28.5797C56.435 28.5652 56.1225 28.5797 55.9804 28.6159C55.8312 28.6595 55.5612 28.7683 55.3765 28.8626ZM85.6191 25.3592C85.6759 25.3592 85.9033 25.3737 86.5 25.4463L86.4716 29.1237H85.6191C85.1502 29.1237 84.5961 29.1599 84.3972 29.2035C84.1911 29.247 83.8501 29.3703 83.637 29.4791C83.431 29.5806 83.1184 29.82 82.9479 30.0086C82.7774 30.2044 82.5785 30.4946 82.5003 30.6614C82.4293 30.8355 82.3298 31.1691 82.2872 31.4085C82.2375 31.6986 82.2091 33.142 82.2091 39.4959H78.5859V25.7146H82.067V27.9994L82.3938 27.4554C82.5714 27.158 82.8413 26.7664 82.9834 26.585C83.1326 26.4037 83.4239 26.1426 83.637 25.9975C83.8501 25.8524 84.1627 25.6784 84.3403 25.6131C84.5179 25.5406 84.8518 25.4608 85.0863 25.4318C85.3207 25.3955 85.5622 25.3665 85.6191 25.3592ZM70.7713 25.3665C70.9063 25.3592 71.2899 25.381 71.6238 25.4173C71.9577 25.4535 72.4479 25.5406 72.725 25.6058C73.002 25.6784 73.478 25.8524 73.7906 26.0048C74.1032 26.1498 74.5578 26.4255 74.8065 26.614C75.048 26.7954 75.4246 27.1653 75.6377 27.4337C75.8579 27.7093 76.1776 28.217 76.3481 28.5797C76.5186 28.9351 76.7317 29.4791 76.8099 29.7765C76.888 30.0739 77.0017 30.6324 77.0585 31.0095C77.1154 31.3867 77.1651 32.1338 77.1651 33.6207H68.0362L68.093 34.0777C68.1214 34.3243 68.1925 34.6869 68.2564 34.89C68.3204 35.0859 68.4411 35.3833 68.5335 35.5428C68.6187 35.7024 68.839 35.9708 69.0237 36.1376C69.2013 36.3117 69.4855 36.5075 69.656 36.5873C69.8194 36.6598 70.1461 36.7614 70.3806 36.8049C70.615 36.8484 70.9489 36.8847 71.1265 36.8847C71.3041 36.8847 71.6522 36.8267 71.908 36.7469C72.1637 36.6671 72.5189 36.4858 72.7108 36.348C72.931 36.1739 73.0944 35.9708 73.3643 35.3688L75.1972 35.3615C76.888 35.3615 77.023 35.3688 77.023 35.4848C77.023 35.5573 76.9164 35.8765 76.7886 36.1956C76.6607 36.5148 76.4334 36.9717 76.2771 37.2111C76.1279 37.4505 75.7869 37.8566 75.5311 38.1178C75.2754 38.3789 74.8491 38.7343 74.5721 38.8939C74.295 39.0607 73.8687 39.2783 73.613 39.3798C73.3572 39.4741 72.8955 39.6119 72.5829 39.6772C72.2064 39.7642 71.6949 39.8005 71.0555 39.8005C70.5014 39.8005 69.8265 39.757 69.457 39.6917C69.1018 39.6264 68.5761 39.4886 68.2848 39.3798C67.9936 39.2783 67.5744 39.0897 67.3613 38.9664C67.1482 38.8358 66.7859 38.582 66.5656 38.3934C66.3383 38.1975 66.0044 37.8421 65.8268 37.5883C65.6421 37.3417 65.3721 36.8774 65.2229 36.5583C65.0737 36.2392 64.8677 35.6661 64.7754 35.289C64.6759 34.9118 64.5622 34.3243 64.5196 33.9834C64.4841 33.6425 64.4486 32.9389 64.4486 32.4239C64.4486 31.8944 64.4983 31.1981 64.5551 30.8282C64.6191 30.4655 64.7683 29.878 64.8819 29.5226C65.0027 29.1599 65.2087 28.6595 65.3508 28.3984C65.4858 28.1372 65.77 27.7165 65.9689 27.4554C66.1749 27.1943 66.5443 26.8244 66.8001 26.6285C67.0487 26.44 67.4394 26.1861 67.6668 26.07C67.887 25.954 68.3488 25.7799 68.6969 25.6784C69.0379 25.5768 69.5849 25.4608 69.9188 25.4318C70.2527 25.3955 70.6363 25.3665 70.7713 25.3665ZM69.3221 28.8553C69.1089 29.0004 68.8674 29.2542 68.6969 29.5226C68.5477 29.762 68.3701 30.1174 68.3133 30.3205C68.2564 30.5163 68.1854 30.8064 68.157 30.9588L68.1072 31.2271H73.4709C73.4709 30.9733 73.4283 30.7339 73.3714 30.5381C73.3217 30.335 73.1938 30.0086 73.0944 29.8127C72.9949 29.6096 72.7747 29.3123 72.6042 29.1454C72.4408 28.9786 72.1069 28.7538 71.8725 28.645C71.5812 28.5144 71.2899 28.4419 70.9489 28.4274C70.6363 28.4056 70.3024 28.4419 70.0609 28.5144C69.8478 28.5724 69.5139 28.7247 69.3221 28.8553ZM21.9584 25.7146H25.5176L25.5389 30.335C25.5531 34.4258 25.5673 35.0061 25.6739 35.3252C25.7378 35.5211 25.9154 35.833 26.0717 36.0143C26.2351 36.2101 26.498 36.4132 26.7324 36.522C27.0521 36.6671 27.2226 36.6961 27.7554 36.6961C28.2314 36.6961 28.4942 36.6526 28.7855 36.5365C28.9986 36.4568 29.3468 36.2319 29.5599 36.0361C29.8014 35.8185 30.0145 35.5283 30.1424 35.2527C30.2561 35.0133 30.3769 34.5854 30.4195 34.3098C30.455 34.0269 30.4905 32.0322 30.4905 25.7146H34.0426V39.4959H30.6326L30.6397 37.5738L30.3271 38.009C30.1566 38.2483 29.8654 38.582 29.6664 38.7488C29.4746 38.9229 29.1407 39.155 28.9276 39.271C28.7145 39.3943 28.2811 39.5612 27.9685 39.6409C27.5352 39.7642 27.1942 39.8005 26.5122 39.8005C25.8302 39.8005 25.4892 39.7642 25.0558 39.6409C24.7432 39.5612 24.2957 39.3871 24.0683 39.2565C23.8339 39.126 23.4574 38.8286 23.2229 38.5892C22.9388 38.2918 22.7114 37.9654 22.5267 37.5738C22.3775 37.2546 22.1928 36.7977 22.1289 36.5583C22.0152 36.1666 22.001 35.5936 21.9797 30.9152L21.9584 25.7146Z" fill="#172B60"/>
</g>
</svg>
