<svg width="88" height="65" viewBox="0 0 88 65" fill="none" xmlns="http://www.w3.org/2000/svg">
<g id="header-logo-blue 2">
<path id="Vector" d="M55.4362 41.9596C54.9918 41.4618 54.8013 40.7151 54.8013 39.7196V33.124H59.1822V29.0174H54.8013V21.8618C53.5314 21.8618 49.1505 24.9729 49.1505 28.7685V40.404C49.1505 42.5818 49.7219 44.1374 50.8013 45.1951C51.8806 46.2529 53.5314 46.8129 55.7537 46.8129C57.7854 46.8129 59.1822 46.564 59.6267 46.3774V42.2707C59.2457 42.3951 58.6743 42.7062 57.341 42.7062C56.5156 42.7062 55.8806 42.4574 55.4362 41.9596ZM24.7695 26.0307V46.3774H30.4203V19.124C28.96 19.124 24.7695 22.484 24.7695 26.0307ZM80.6425 27.8974C79.4362 27.8974 78.4203 28.8307 78.4203 30.0129C78.4203 31.1951 79.3727 32.1907 80.6425 32.1907C81.8489 32.1907 82.8013 31.2574 82.8013 30.0129C82.8013 28.8307 81.8489 27.8974 80.6425 27.8974ZM80.6425 31.7551C79.6902 31.7551 78.9918 31.0085 78.9918 30.0751C78.9918 29.1418 79.6902 28.3951 80.6425 28.3951C81.5949 28.3951 82.2933 29.1418 82.2933 30.1374C82.2298 31.0085 81.5314 31.7551 80.6425 31.7551Z" fill="#303D5A"/>
<path id="Vector_2" d="M81.0862 30.0757C81.3401 29.9513 81.5306 29.7646 81.5306 29.5779C81.5306 29.3913 81.4671 29.2046 81.3401 29.0802C81.2131 29.0179 81.0227 28.8935 80.5782 28.8935C80.1973 28.8935 79.9433 28.8935 79.7528 28.9557V31.0713H80.2608V30.2002H80.5147C80.7687 30.2002 80.8957 30.3246 80.9592 30.5113C81.0227 30.7602 81.0862 30.9468 81.1496 31.0091H81.6576C81.5941 30.9468 81.5941 30.8224 81.5306 30.4491C81.4036 30.3246 81.3401 30.2002 81.0862 30.0757ZM80.5147 29.9513H80.2608V29.3291H80.5147C80.8322 29.3291 80.9592 29.4535 80.9592 29.6402C81.0227 29.8268 80.7687 29.9513 80.5147 29.9513ZM42.229 35.3646C41.4036 35.1779 40.7052 34.9913 40.1338 34.8046C39.5623 34.6179 39.1814 34.4935 38.9274 34.3691C38.4195 34.1202 38.1655 33.8091 38.1655 33.3735C38.1655 32.8757 38.4195 32.4402 38.8639 32.1913C39.3719 31.9424 40.0703 31.8179 41.0862 31.8179C43.6258 31.8179 45.7846 32.6891 46.356 33.0002V28.8935C45.975 28.7691 43.2449 27.8979 40.5147 27.8979C34.229 27.8979 32.5782 31.2579 32.5782 33.6224C32.5782 35.2402 33.0862 36.4846 34.102 37.2313C35.1179 37.9779 36.3242 38.5379 37.8481 38.8491C38.5465 38.9735 39.1179 39.1602 39.6258 39.3468C40.1338 39.5335 40.5147 39.6579 40.7687 39.8446C41.2766 40.1557 41.5941 40.5913 41.5941 41.0891C41.5941 41.7113 41.3401 42.2091 40.8322 42.4579C40.2608 42.7068 39.5623 42.8313 38.7369 42.8313C36.0703 42.8313 33.2131 41.5868 33.0862 41.5246V45.8802C33.4036 46.0046 35.1814 46.7513 39.0544 46.7513C41.6576 46.7513 43.6893 46.2535 45.1496 45.1957C46.6735 44.1379 47.3719 42.7068 47.3719 40.7779C47.3719 39.3468 46.9909 38.2268 46.1655 37.2935C45.2766 36.4846 44.0068 35.8624 42.229 35.3646ZM68.9592 27.8979C64.5147 27.8979 62.483 28.7691 62.102 29.0179V33.1246C62.5465 32.9379 64.0703 31.8179 68.7687 31.8179C70.229 31.8179 71.8798 32.1913 71.8798 34.1824V34.8046H69.0227C65.2131 34.9291 60.4512 36.1735 60.4512 41.1513C60.4512 43.0802 61.7211 46.7513 66.5465 46.7513C68.8322 46.7513 70.9274 45.7557 71.8163 44.3246V46.3779H77.1496V34.0579C77.1496 30.2624 74.0385 27.8979 68.9592 27.8979ZM71.8163 38.6002C71.8163 40.0935 70.9274 42.8313 67.8798 42.8313C66.356 42.8313 65.3401 41.8357 65.3401 40.6535C65.3401 38.4135 68.2608 38.3513 69.7846 38.2891H70.4195C70.6735 38.2891 71.6258 38.2268 71.7528 38.1646V38.6002H71.8163ZM13.5941 27.9602C7.62584 27.9602 4.19727 32.3779 4.19727 37.3557C4.19727 42.3957 7.62584 46.7513 13.5941 46.7513C18.61 46.7513 22.9909 43.5779 22.9909 37.3557C22.9909 31.1335 18.6735 27.9602 13.5941 27.9602ZM17.5941 37.4179V37.4802C17.5941 40.6535 16.1973 42.7068 13.5941 42.7068C10.483 42.7068 9.59409 40.0313 9.59409 37.4802V37.4179V37.3557C9.59409 34.8046 10.5465 32.1291 13.5941 32.1291C16.1973 32.1291 17.5941 34.2446 17.5941 37.3557V37.4179Z" fill="#303D5A"/>
<path id="Vector_3" d="M11.183 26.9646C12.0596 26.9646 12.7703 26.2682 12.7703 25.4091C12.7703 24.55 12.0596 23.8535 11.183 23.8535C10.3064 23.8535 9.5957 24.55 9.5957 25.4091C9.5957 26.2682 10.3064 26.9646 11.183 26.9646Z" fill="#303D5A"/>
<path id="Vector_4" d="M15.9447 26.9646C16.8214 26.9646 17.532 26.2682 17.532 25.4091C17.532 24.55 16.8214 23.8535 15.9447 23.8535C15.0681 23.8535 14.3574 24.55 14.3574 25.4091C14.3574 26.2682 15.0681 26.9646 15.9447 26.9646Z" fill="#303D5A"/>
</g>
</svg>
