<svg width="88" height="65" viewBox="0 0 88 65" fill="none" xmlns="http://www.w3.org/2000/svg">
<g id="Frame 48097799">
<g id="Group 48097252">
<path id="Vector" d="M43.7589 4L31.5684 24.1663H55.9485L43.7589 4Z" fill="#CC1334"/>
<path id="Vector_2" d="M49.7736 22.2676H52.2522L46.122 12.1033C46.1067 12.0747 46.0841 12.0508 46.0566 12.0342C46.0291 12.0176 45.9976 12.0088 45.9656 12.0088C45.9335 12.0088 45.902 12.0176 45.8745 12.0342C45.847 12.0508 45.8244 12.0747 45.8091 12.1033L44.2012 14.7621L45.4544 16.8282L45.8091 16.2374C45.8243 16.2095 45.8464 16.1862 45.8732 16.1697C45.8999 16.1531 45.9305 16.1439 45.9618 16.143C45.993 16.1434 46.0236 16.1517 46.0507 16.1672C46.0779 16.1827 46.1008 16.2049 46.1173 16.2317L49.7736 22.2676Z" fill="#FEFEFD"/>
<path id="Vector_3" d="M41.5942 16.1249C41.6173 16.1252 41.6402 16.1301 41.6614 16.1393C41.6827 16.1486 41.7019 16.1619 41.7181 16.1787L41.7488 16.2146L44.8018 21.2727C44.8195 21.3008 44.8282 21.3337 44.8269 21.3671C44.827 21.3908 44.8225 21.4143 44.8136 21.4362C44.8047 21.4581 44.7916 21.478 44.7751 21.4948C44.7586 21.5116 44.7389 21.5248 44.7173 21.5339C44.6956 21.5429 44.6725 21.5475 44.6491 21.5473H42.9359C42.9124 21.5476 42.8892 21.5431 42.8674 21.5341C42.8457 21.5252 42.8259 21.5119 42.8093 21.4951C42.7926 21.4784 42.7795 21.4584 42.7705 21.4364C42.7616 21.4144 42.757 21.3908 42.7571 21.3671C42.7561 21.3336 42.7652 21.3007 42.7832 21.2727L43.3735 20.3052L42.111 18.2184L39.8233 21.9938C39.8109 22.022 39.8025 22.0519 39.7982 22.0825C39.7998 22.1303 39.8193 22.1757 39.8526 22.2095C39.886 22.2433 39.9307 22.263 39.9779 22.2647H47.5978C47.6287 22.2645 47.6591 22.2562 47.686 22.2406C47.7128 22.225 47.7353 22.2026 47.7511 22.1757C47.7669 22.1487 47.7756 22.118 47.7763 22.0867C47.777 22.0553 47.7697 22.0243 47.7551 21.9966L41.7395 12.1032C41.7235 12.0751 41.7006 12.0516 41.673 12.0351C41.6454 12.0185 41.6141 12.0095 41.5821 12.0088C41.55 12.0086 41.5185 12.0173 41.4909 12.0339C41.4634 12.0505 41.4408 12.0745 41.4257 12.1032L35.2676 22.2665H37.7815L41.4406 16.2127C41.4559 16.1852 41.4783 16.1625 41.5053 16.1468C41.5324 16.1312 41.5631 16.1233 41.5942 16.124" fill="#FEFEFD"/>
<path id="Vector_4" d="M14 28.2283C14.6071 28.1037 15.8202 27.9971 16.9878 27.9971C18.3993 27.9971 19.2624 28.1339 20.0045 28.5813C20.376 28.772 20.687 29.0649 20.9019 29.4265C21.1168 29.788 21.2269 30.2036 21.2195 30.6257C21.2195 31.5308 20.6888 32.3784 19.552 32.8249V32.8541C20.7177 33.1618 21.5845 34.0698 21.5845 35.4025C21.5895 35.8288 21.4955 36.2503 21.3101 36.6329C21.1248 37.0156 20.8533 37.3488 20.5175 37.6055C19.7727 38.2039 18.5315 38.5427 16.499 38.5427C15.6635 38.5503 14.8285 38.4989 14 38.3889V28.2283ZM16.2914 32.1774H17.0493C18.2774 32.1774 18.9114 31.6705 18.9114 30.9022C18.9114 30.117 18.3193 29.7045 17.2746 29.7045C16.7578 29.7045 16.4711 29.7338 16.2886 29.78L16.2914 32.1774ZM16.2914 36.7739C16.5873 36.8172 16.8865 36.8327 17.1852 36.8202C18.2299 36.8202 19.1554 36.4049 19.1554 35.31C19.1554 34.2652 18.2299 33.8499 17.08 33.8499H16.2914V36.7739Z" fill="#18203A"/>
<path id="Vector_5" d="M24.6632 35.4082C24.7386 36.3927 25.679 36.8542 26.7572 36.8542C27.4531 36.8649 28.1458 36.7554 28.8055 36.5305L29.1091 38.1133C28.3503 38.4371 27.4266 38.5909 26.4248 38.5909C23.9109 38.5909 22.4668 37.1147 22.4668 34.7476C22.4668 32.8391 23.6493 30.7324 26.2125 30.7324C28.6082 30.7324 29.5188 32.6248 29.5188 34.4861C29.518 34.8001 29.4924 35.1135 29.4424 35.4234L24.6632 35.4082ZM27.3764 33.8122C27.3764 33.2572 27.1343 32.2907 26.0877 32.2907C25.1017 32.2907 24.7079 33.1987 24.6464 33.8122H27.3764Z" fill="#18203A"/>
<path id="Vector_6" d="M30.5908 33.3153C30.5908 32.3781 30.561 31.5928 30.5312 30.9161H32.5284L32.6364 31.9628H32.6802C32.9856 31.471 33.7267 30.748 34.9706 30.748C36.4873 30.748 37.6251 31.7778 37.6251 33.9921V38.4357H35.3216V34.2686C35.3216 33.3002 34.9864 32.6386 34.1522 32.6386C33.5153 32.6386 33.1373 33.085 32.9697 33.5145C32.9116 33.7034 32.8861 33.901 32.8943 34.0987V38.4404H30.5908V33.3153Z" fill="#18203A"/>
<path id="Vector_7" d="M37.3574 39.8965C37.9477 39.8483 38.4328 39.7077 38.7205 39.4019C39.0557 39.0508 39.1767 38.4505 39.1767 36.9583V30.9176H41.4821V37.5302C41.4821 39.1584 41.1339 40.1579 40.4356 40.8035C39.7521 41.434 38.6768 41.7266 37.5846 41.7266L37.3574 39.8965ZM40.2996 29.9313C39.5259 29.9313 39.025 29.3801 39.025 28.6883C39.025 27.9804 39.5399 27.4424 40.3285 27.4424C41.1171 27.4424 41.5994 27.9804 41.6162 28.6883C41.6162 29.3801 41.1162 29.9313 40.3126 29.9313H40.2996Z" fill="#18203A"/>
<path id="Vector_8" d="M49.1523 36.6206C49.1523 37.3285 49.1811 38.0184 49.2752 38.4356H47.1951L47.0592 37.6805H47.0145C46.5285 38.2808 45.7706 38.6027 44.8917 38.6027C43.3898 38.6027 42.4941 37.4955 42.4941 36.2959C42.4941 34.345 44.2241 33.4219 46.8469 33.4219V33.3275C46.8469 32.9282 46.6337 32.3591 45.4978 32.3591C44.7803 32.3692 44.0765 32.5595 43.4494 32.9131L43.0249 31.4219C43.5407 31.1283 44.5583 30.7451 45.9112 30.7451C48.3832 30.7451 49.156 32.2213 49.156 33.9891L49.1523 36.6206ZM46.9223 34.8839C45.7119 34.8839 44.7688 35.1746 44.7688 36.0675C44.7688 36.6678 45.1635 36.9585 45.6803 36.9585C45.943 36.9578 46.199 36.8748 46.4134 36.7209C46.6277 36.567 46.7899 36.3496 46.8776 36.0986C46.9084 35.9672 46.9234 35.8325 46.9223 35.6975V34.8839Z" fill="#18203A"/>
<path id="Vector_9" d="M50.3827 33.3154C50.3827 32.3782 50.3492 31.5929 50.3203 30.9161H52.2756L52.3687 31.9478H52.4143C52.7337 31.4541 53.4012 30.7481 54.6601 30.7481C55.6293 30.7481 56.3714 31.255 56.6907 32.0403H56.7214C56.9777 31.6676 57.3078 31.3532 57.6907 31.1172C58.1215 30.8717 58.608 30.7445 59.1022 30.7481C60.5277 30.7481 61.6031 31.7618 61.6031 34.0072V38.4358H59.3601V34.3602C59.3601 33.2701 59.0119 32.6387 58.2661 32.6387C57.7224 32.6387 57.3574 33.0096 57.1916 33.4541C57.1427 33.645 57.1174 33.8412 57.1162 34.0384V38.4358H54.8733V34.2234C54.8733 33.2842 54.5409 32.6387 53.7988 32.6387C53.2066 32.6387 52.8566 33.1011 52.7206 33.4692C52.6517 33.6614 52.6201 33.8652 52.6275 34.0695V38.4358H50.3827V33.3154Z" fill="#18203A"/>
<path id="Vector_10" d="M63.9554 29.9313C63.1826 29.9313 62.6816 29.3801 62.6816 28.6883C62.6816 27.9804 63.1956 27.4424 63.9851 27.4424C64.7747 27.4424 65.2579 27.9804 65.2728 28.6883C65.2728 29.3801 64.7728 29.9313 63.9693 29.9313H63.9554ZM62.8185 30.9157H65.122V38.4354H62.8185V30.9157Z" fill="#18203A"/>
<path id="Vector_11" d="M66.3662 33.3153C66.3662 32.3781 66.3355 31.5928 66.3066 30.9161H68.3084L68.4137 31.9628H68.4602C68.7637 31.471 69.5058 30.748 70.7497 30.748C72.2655 30.748 73.4033 31.7778 73.4033 33.9921V38.4357H71.0979V34.2686C71.0979 33.3002 70.7656 32.6386 69.9294 32.6386C69.2945 32.6386 68.9155 33.085 68.747 33.5145C68.6889 33.7034 68.6634 33.901 68.6716 34.0987V38.4404H66.3662V33.3153Z" fill="#18203A"/>
<path id="Vector_12" d="M32.0176 47.0889C31.971 45.844 31.9245 44.3518 31.9245 42.8322H31.8956C31.5613 44.1535 31.1377 45.6288 30.7439 46.8435L29.4999 50.8851H27.6955L26.6034 46.8898C26.2701 45.6628 25.9358 44.1979 25.6788 42.8312H25.649C25.6034 44.2281 25.542 45.8279 25.4805 47.1191L25.284 51.0559H23.1426L23.7943 40.6943H26.8669L27.8696 44.1677C28.202 45.3513 28.5056 46.6434 28.7327 47.8572H28.8044C29.0772 46.6576 29.4255 45.3088 29.7755 44.1356L30.8528 40.6953H33.8853L34.4309 51.0569H32.1861L32.0176 47.0889Z" fill="#18203A"/>
<path id="Vector_13" d="M39.0088 51.225C36.8404 51.225 35.1719 49.7799 35.1719 47.3552C35.1719 44.9304 36.7482 43.374 39.1457 43.374C41.4036 43.374 42.9231 44.9569 42.9231 47.2315C42.9231 49.9687 40.9957 51.2287 39.0247 51.2287L39.0088 51.225ZM39.0554 49.5487C39.966 49.5487 40.5265 48.6416 40.5265 47.2891C40.5265 46.1829 40.1028 45.0446 39.0554 45.0446C37.9632 45.0446 37.5368 46.1829 37.5368 47.3099C37.5368 48.585 38.0675 49.5534 39.0396 49.5534L39.0554 49.5487Z" fill="#18203A"/>
<path id="Vector_14" d="M47.7735 51.225C45.606 51.225 43.9375 49.7799 43.9375 47.3552C43.9375 44.9304 45.5138 43.374 47.9095 43.374C50.1682 43.374 51.6859 44.9569 51.6859 47.2315C51.6859 49.9687 49.7595 51.2287 47.7884 51.2287L47.7735 51.225ZM47.8173 49.5487C48.7288 49.5487 49.2902 48.6416 49.2902 47.2891C49.2902 46.1829 48.8666 45.0446 47.8173 45.0446C46.727 45.0446 46.3024 46.1829 46.3024 47.3099C46.3024 48.585 46.8331 49.5534 47.8042 49.5534L47.8173 49.5487Z" fill="#18203A"/>
<path id="Vector_15" d="M52.5224 46.0123C52.5224 44.9052 52.5075 44.1822 52.4609 43.5366H54.4348L54.5279 44.9373H54.5875C54.9674 43.8292 55.8622 43.3696 56.5884 43.3696C56.7516 43.3663 56.9146 43.3818 57.0744 43.4158V45.6093C56.8642 45.5705 56.6512 45.5499 56.4376 45.548C55.5884 45.548 55.0112 45.9944 54.8612 46.7316C54.829 46.9042 54.8131 47.0796 54.8138 47.2554V51.0525H52.5075L52.5224 46.0123Z" fill="#18203A"/>
<path id="Vector_16" d="M59.6485 48.0289C59.7239 49.0115 60.6652 49.473 61.7406 49.473C62.4366 49.4842 63.1293 49.3751 63.789 49.1502L64.0925 50.734C63.3365 51.0577 62.4082 51.2116 61.4082 51.2116C58.8943 51.2116 57.4512 49.7354 57.4512 47.3663C57.4512 45.4598 58.6336 43.355 61.1969 43.355C63.5925 43.355 64.5022 45.2427 64.5022 47.1049C64.5017 47.4192 64.4765 47.7329 64.4268 48.0431L59.6485 48.0289ZM62.3635 46.4244C62.3635 45.8722 62.1205 44.902 61.0749 44.902C60.0889 44.902 59.6932 45.8099 59.6327 46.4244H62.3635Z" fill="#18203A"/>
<path id="Vector_17" d="M31.8926 53.4166C32.4859 53.3095 33.0878 53.2586 33.6905 53.2646C34.615 53.2646 35.2929 53.4827 35.7239 53.8763C36.1234 54.2255 36.3701 54.7606 36.3701 55.4128C36.3701 56.065 36.1764 56.6011 35.7994 56.9834C35.304 57.5167 34.4959 57.7904 33.5834 57.7904C33.33 57.7993 33.0765 57.7774 32.8283 57.7253V60.672H31.8926V53.4166ZM32.8283 56.9523C33.0827 57.008 33.3427 57.033 33.603 57.0268C34.7454 57.0268 35.4223 56.4605 35.4223 55.4676C35.4223 54.4747 34.7454 54.0169 33.711 54.0169C33.4149 54.0136 33.1193 54.0398 32.8283 54.0952V56.9523Z" fill="#18203A"/>
<path id="Vector_18" d="M40.7597 59.4055C40.7545 59.8287 40.7797 60.2518 40.8352 60.6713H39.986L39.8985 60.0039H39.8659C39.5866 60.4192 39.0158 60.7911 38.2756 60.7911C37.2198 60.7911 36.6816 60.036 36.6816 59.2744C36.6816 57.9983 37.7989 57.2998 39.8119 57.3093V57.2026C39.8119 56.7656 39.6946 55.969 38.6294 55.9756C38.1462 55.9704 37.6718 56.1071 37.2636 56.3692L37.0466 55.7245C37.5702 55.4188 38.1649 55.2607 38.7691 55.2668C40.3733 55.2668 40.7597 56.3692 40.7597 57.4272V59.4055ZM39.837 57.9737C38.8017 57.952 37.6285 58.1389 37.6285 59.163C37.6285 59.7944 38.0364 60.0795 38.5103 60.0795C38.7879 60.0885 39.0613 60.0084 39.2913 59.8506C39.5214 59.6928 39.6964 59.4653 39.7914 59.2007C39.8211 59.1013 39.8362 58.9979 39.8361 58.894L39.837 57.9737Z" fill="#18203A"/>
<path id="Vector_19" d="M42.2992 54.419C42.1798 54.4158 42.064 54.3771 41.9662 54.3077C41.8684 54.2382 41.7929 54.1411 41.7492 54.0285C41.7055 53.9158 41.6955 53.7926 41.7204 53.6742C41.7453 53.5559 41.8041 53.4475 41.8893 53.3628C41.9746 53.278 42.0826 53.2206 42.1998 53.1977C42.3171 53.1748 42.4384 53.1873 42.5486 53.2338C42.6589 53.2803 42.7532 53.3587 42.8197 53.4592C42.8863 53.5597 42.9222 53.6778 42.923 53.7989C42.9256 53.8813 42.9115 53.9633 42.8815 54.0399C42.8515 54.1166 42.8063 54.1861 42.7486 54.2443C42.691 54.3024 42.6222 54.3479 42.5465 54.378C42.4708 54.408 42.3898 54.422 42.3085 54.419H42.2992ZM41.8467 55.3902H42.7945V60.6758H41.8467V55.3902Z" fill="#18203A"/>
<path id="Vector_20" d="M43.9334 56.8195C43.9334 56.2626 43.9222 55.8275 43.8887 55.3905H44.7266L44.7797 56.2522H44.8011C44.9745 55.9466 45.226 55.6941 45.5292 55.5213C45.8324 55.3485 46.1759 55.2619 46.5236 55.2706C47.2452 55.2706 48.3634 55.7086 48.3634 57.516V60.6713H47.4184V57.6284C47.4184 56.7789 47.1083 56.0568 46.2136 56.0568C45.6018 56.0568 45.1177 56.5042 44.9454 57.0394C44.8997 57.1839 44.878 57.3351 44.8812 57.4868V60.6713H43.9334V56.8195Z" fill="#18203A"/>
<path id="Vector_21" d="M50.5725 54.1255V55.3902H51.9263V56.1217H50.5725V58.9684C50.5725 59.6234 50.7531 59.9943 51.281 59.9943C51.4664 60.0013 51.6516 59.9794 51.8304 59.9292L51.8713 60.6598C51.6011 60.7503 51.3179 60.7947 51.0334 60.791C50.5902 60.791 50.2345 60.6362 50.0092 60.386C49.7513 60.0906 49.6442 59.6234 49.6442 59.0024V56.1217H48.8379V55.3902H49.6442V54.419L50.5725 54.1255Z" fill="#18203A"/>
<path id="Vector_22" d="M52.6482 59.7C53.0306 59.9286 53.4634 60.0565 53.907 60.0719C54.5848 60.0719 54.907 59.734 54.907 59.2866C54.907 58.8392 54.6389 58.5778 53.9499 58.3145C53.0039 57.9662 52.5626 57.4537 52.5626 56.8203C52.5626 55.9709 53.2506 55.2715 54.3577 55.2715C54.8856 55.2715 55.3493 55.4131 55.6295 55.599L55.4023 56.2871C55.0799 56.0913 54.712 55.9858 54.3363 55.9813C53.7776 55.9813 53.4759 56.3097 53.4759 56.7014C53.4759 57.1488 53.7785 57.3442 54.4564 57.6075C55.3493 57.9445 55.8213 58.4032 55.8213 59.1998C55.8213 60.137 55.1025 60.7921 53.8856 60.7921C53.3749 60.7978 52.8714 60.6697 52.4238 60.4202L52.6482 59.7Z" fill="#18203A"/>
<path id="Vector_23" d="M65.6356 43.7281C65.7962 43.7268 65.9535 43.7738 66.0876 43.8634C66.2217 43.9529 66.3266 44.0808 66.3888 44.2308C66.4511 44.3808 66.4679 44.5462 66.4373 44.706C66.4066 44.8658 66.3298 45.0127 66.2166 45.1281C66.1034 45.2436 65.9589 45.3223 65.8015 45.3543C65.644 45.3863 65.4808 45.3702 65.3324 45.3079C65.184 45.2457 65.0573 45.1402 64.9682 45.0047C64.8791 44.8693 64.8318 44.7101 64.8321 44.5473C64.8305 44.4397 64.8502 44.3328 64.8899 44.233C64.9296 44.1331 64.9887 44.0424 65.0636 43.966C65.1384 43.8897 65.2276 43.8293 65.3259 43.7884C65.4241 43.7476 65.5294 43.727 65.6356 43.7281ZM65.6356 43.8555C65.4603 43.8648 65.2952 43.9419 65.1743 44.071C65.0535 44.2001 64.9861 44.3712 64.9861 44.5492C64.9861 44.7272 65.0535 44.8984 65.1743 45.0275C65.2952 45.1565 65.4603 45.2337 65.6356 45.2429C65.811 45.2337 65.9761 45.1565 66.097 45.0275C66.2178 44.8984 66.2852 44.7272 66.2852 44.5492C66.2852 44.3712 66.2178 44.2001 66.097 44.071C65.9761 43.9419 65.811 43.8648 65.6356 43.8555ZM65.4829 45.0249H65.3396V44.1103C65.4239 44.0965 65.5092 44.0892 65.5947 44.0886C65.6928 44.0809 65.7907 44.1054 65.874 44.1585C65.9023 44.1803 65.9248 44.2091 65.9392 44.2421C65.9537 44.2751 65.9598 44.3112 65.9569 44.3472C65.9568 44.3989 65.9392 44.4489 65.9072 44.4891C65.8752 44.5292 65.8307 44.5571 65.7809 44.5681V44.5756C65.861 44.5898 65.914 44.6615 65.9308 44.7965C65.9394 44.8748 65.9592 44.9514 65.9895 45.024H65.8377C65.8051 44.9495 65.785 44.8701 65.7781 44.7889C65.7767 44.7652 65.7704 44.7419 65.7596 44.7207C65.7488 44.6996 65.7338 44.6809 65.7155 44.666C65.6971 44.651 65.6759 44.6401 65.6532 44.634C65.6305 44.6279 65.6067 44.6267 65.5835 44.6304H65.482L65.4829 45.0249ZM65.4829 44.5181H65.5882C65.7055 44.5181 65.806 44.4756 65.806 44.3623C65.806 44.2821 65.7474 44.2009 65.5882 44.2009C65.5529 44.2007 65.5176 44.2039 65.4829 44.2104V44.5181Z" fill="#18203A"/>
</g>
</g>
</svg>
