<svg width="157" height="42" viewBox="0 0 157 42" fill="none" xmlns="http://www.w3.org/2000/svg">
<g clip-path="url(#clip0_3_86220)">
<path d="M21.3564 6.10352e-05L42.7118 20.9419L21.3564 41.8848L0 20.9419L21.3564 6.10352e-05Z" fill="#F03E32"/>
<mask id="mask0_3_86220" style="mask-type:luminance" maskUnits="userSpaceOnUse" x="0" y="0" width="157" height="42">
<path d="M0 42H156.999V0.000297546H0V42Z" fill="white"/>
</mask>
<g mask="url(#mask0_3_86220)">
<path fill-rule="evenodd" clip-rule="evenodd" d="M52.0945 27.3399H55.8227V16.0929H60.0352V13.387H47.9747V16.0929H52.0945V27.3399ZM64.8035 13.387H61.0753V27.3399H64.8035V13.387ZM70.3845 19.5139L70.3468 13.387H66.6186V27.3399H70.3468V19.9189L74.8204 27.3399H79.4429L74.4288 19.5329L79.0707 13.387H74.6532L70.3845 19.5139ZM84.0705 19.5139L84.0327 13.387H80.3056V27.3399H84.0327V19.9189L88.5074 27.3399H93.1298L88.1158 19.5329L92.7576 13.387H88.3391L84.0705 19.5139ZM102.996 13.387V22.0249C102.94 23.8029 102.045 24.9249 100.292 24.9249C98.5406 24.9249 97.6453 23.8029 97.5902 22.0249V13.387H93.862V22.2189C93.8987 26.1039 96.9008 27.6309 100.292 27.6309C103.685 27.6309 106.686 26.1039 106.724 22.2189V13.387H102.996ZM112.612 22.0069H114.01C115.912 22.0069 115.986 22.7019 116.135 24.3839C116.229 25.3689 116.34 26.3739 116.546 27.3399H120.59C120.274 26.2189 120.068 25.1179 119.976 23.9589C119.733 21.7939 119.285 20.5379 116.9 20.4799C118.782 20.1709 120.329 19.0689 120.329 16.9819C120.329 14.025 117.384 13.387 115.11 13.387H108.884V27.3399H112.612V22.0069ZM112.612 19.3009V16.0929H114.066C115.259 16.0929 116.415 16.2669 116.415 17.6969C116.415 19.1269 115.259 19.3009 114.066 19.3009H112.612ZM125.719 13.387H121.99V27.3399H125.719V13.387ZM135.829 27.3399V24.6349H131.473V13.387H127.745V27.3399H135.829ZM141.481 21.9099L143.307 16.1119L145.078 21.9099H141.481ZM139.654 27.3399L140.53 24.6149H145.992L146.886 27.3399H151.099L145.787 13.387H141.238L135.925 27.3399H139.654Z" fill="black"/>
<path d="M10.9728 10.9825C12.278 10.9825 13.3488 12.0195 13.3488 13.2995C13.3488 13.6975 13.2468 14.0725 13.0663 14.3995C14.3247 14.4505 15.3291 15.4674 15.3291 16.7144C15.3291 17.9934 14.2716 19.0314 12.9664 19.0314C12.5462 19.0314 12.1516 18.9234 11.81 18.7354C11.8008 18.8574 11.7957 18.9804 11.7957 19.1044C11.7957 21.5314 13.8026 23.4984 16.2775 23.4984C18.7524 23.4984 20.7582 21.5314 20.7582 19.1044C20.7582 18.9394 20.7541 18.7754 20.7368 18.6154C20.3534 18.8774 19.8782 19.0314 19.3754 19.0314C18.0702 19.0314 17.0117 17.9934 17.0117 16.7144C17.0117 15.4674 18.0171 14.4505 19.2755 14.3995C19.095 14.0725 18.992 13.6975 18.992 13.2995C18.992 12.0195 20.0505 10.9825 21.3558 10.9825C22.66 10.9825 23.7175 12.0195 23.7175 13.2995C23.7175 13.6975 23.6155 14.0725 23.435 14.3995C24.6944 14.4505 25.6988 15.4674 25.6988 16.7144C25.6988 17.9934 24.6404 19.0314 23.3351 19.0314C22.8313 19.0314 22.3643 18.8764 21.9799 18.6124C21.9615 18.7734 21.9523 18.9374 21.9523 19.1044C21.9523 21.5314 23.9592 23.4984 26.4331 23.4984C28.909 23.4984 30.9138 21.5314 30.9138 19.1044C30.9138 18.9844 30.9138 18.8644 30.9046 18.7464C30.5671 18.9284 30.1724 19.0324 29.7595 19.0324C28.4542 19.0324 27.3967 17.9954 27.3967 16.7154C27.3967 15.4694 28.4012 14.4515 29.6595 14.4005C29.48 14.0735 29.377 13.6985 29.377 13.3015C29.377 12.0215 30.4355 10.9835 31.7398 10.9835L31.7377 28.4854H10.9728V10.9825Z" fill="white"/>
<path d="M44.2618 35.5998H42.0724V34.8248H47.4015V35.5998H45.202V41.8838H44.2618V35.5998Z" fill="#808080"/>
<path d="M49.2821 34.8248V37.7788H52.7645V34.8248H53.7037V41.8838H52.7645V38.5748H49.2821V41.8838H48.3419V34.8248H49.2821Z" fill="#808080"/>
<path d="M59.1432 38.5748H56.3552V41.1198H59.4746V41.8848H55.416V34.8248H59.3145V35.5898H56.3552V37.8208H59.1432V38.5748Z" fill="#808080"/>
<path d="M64.726 38.3128C64.9289 38.3658 65.1859 38.3858 65.4949 38.3858C66.6166 38.3858 67.2998 37.8418 67.2998 36.8888C67.2998 35.9458 66.6166 35.4958 65.6019 35.4958C65.1961 35.4958 64.8861 35.5268 64.726 35.5688V38.3128ZM63.797 34.9088C64.2457 34.8358 64.8331 34.7728 65.5805 34.7728C66.4993 34.7728 67.1723 34.9828 67.5986 35.3598C67.983 35.6948 68.2288 36.2078 68.2288 36.8358C68.2288 37.4748 68.0371 37.9778 67.674 38.3438C67.1723 38.8578 66.381 39.1188 65.4734 39.1188C65.1961 39.1188 64.9391 39.1088 64.726 39.0568V41.8848H63.797V34.9088Z" fill="#808080"/>
<path d="M69.904 38.386C69.904 39.905 70.7371 41.256 72.2107 41.256C73.6842 41.256 74.5183 39.926 74.5183 38.323C74.5183 36.909 73.7698 35.443 72.2219 35.443C70.6729 35.443 69.904 36.846 69.904 38.386ZM75.5003 38.281C75.5003 40.701 73.9942 42 72.1576 42C70.2456 42 68.922 40.544 68.922 38.407C68.922 36.166 70.3313 34.6991 72.2535 34.6991C74.2297 34.6991 75.5003 36.176 75.5003 38.281Z" fill="#808080"/>
<path d="M77.6566 41.8838L75.8302 34.8248H76.8122L77.6668 38.3958C77.8809 39.2758 78.0726 40.1558 78.2011 40.8368H78.2225C78.3398 40.1348 78.5641 39.2968 78.8099 38.3858L79.7715 34.8248H80.7433L81.6182 38.4068C81.8222 39.2448 82.0139 40.0828 82.121 40.8258H82.1424C82.2913 40.0508 82.4942 39.2658 82.7185 38.3858L83.67 34.8248H84.6193L82.5799 41.8838H81.608L80.7005 38.2078C80.4761 37.3068 80.3262 36.6158 80.2304 35.9038H80.209C80.0917 36.6058 79.9204 37.2968 79.6542 38.2078L78.6284 41.8838H77.6566Z" fill="#808080"/>
<path d="M89.3445 38.5748H86.5565V41.1198H89.6749V41.8848H85.6173V34.8248H89.5158V35.5898H86.5565V37.8208H89.3445V38.5748Z" fill="#808080"/>
<path d="M91.8022 38.1348H92.7525C93.7458 38.1348 94.376 37.6008 94.376 36.7938C94.376 35.8828 93.7029 35.4848 92.7199 35.4848C92.2712 35.4848 91.9623 35.5168 91.8022 35.5578V38.1348ZM90.8732 34.9198C91.3422 34.8358 92.0265 34.7728 92.6567 34.7728C93.6499 34.7728 94.3015 34.9618 94.739 35.3488C95.0918 35.6628 95.305 36.1448 95.305 36.6998C95.305 37.6218 94.7074 38.2398 93.9599 38.4908V38.5218C94.5045 38.7108 94.8349 39.2138 95.0062 39.9468C95.2407 40.9318 95.412 41.6118 95.5609 41.8848H94.6003C94.483 41.6748 94.3229 41.0778 94.1302 40.1988C93.9171 39.2238 93.5214 38.8578 92.6781 38.8258H91.8022V41.8848H90.8732V34.9198Z" fill="#808080"/>
<path d="M100.185 38.386C100.185 39.905 101.018 41.256 102.492 41.256C103.966 41.256 104.8 39.926 104.8 38.323C104.8 36.909 104.052 35.443 102.503 35.443C100.954 35.443 100.185 36.846 100.185 38.386ZM105.782 38.281C105.782 40.701 104.275 42 102.439 42C100.527 42 99.2032 40.544 99.2032 38.407C99.2032 36.166 100.613 34.6991 102.535 34.6991C104.511 34.6991 105.782 36.176 105.782 38.281Z" fill="#808080"/>
<path d="M107.117 34.8248H110.994V35.5888H108.058V37.9358H110.77V38.6898H108.058V41.8838H107.117V34.8248Z" fill="#808080"/>
<path d="M119.932 41.6643C119.6 41.8323 118.906 41.9993 118.031 41.9993C116.002 41.9993 114.484 40.7423 114.484 38.4173C114.484 36.1973 116.012 34.7093 118.244 34.7093C119.13 34.7093 119.707 34.8983 119.953 35.0243L119.719 35.7673C119.376 35.6003 118.874 35.4743 118.277 35.4743C116.589 35.4743 115.467 36.5323 115.467 38.3863C115.467 40.1243 116.482 41.2243 118.223 41.2243C118.8 41.2243 119.376 41.1093 119.75 40.9313L119.932 41.6643Z" fill="#808080"/>
<path d="M121.389 38.386C121.389 39.905 122.223 41.256 123.696 41.256C125.171 41.256 126.004 39.926 126.004 38.323C126.004 36.909 125.256 35.443 123.707 35.443C122.158 35.443 121.389 36.846 121.389 38.386ZM126.986 38.281C126.986 40.701 125.48 42 123.643 42C121.731 42 120.406 40.544 120.406 38.407C120.406 36.166 121.817 34.6991 123.739 34.6991C125.715 34.6991 126.986 36.176 126.986 38.281Z" fill="#808080"/>
<path d="M128.322 34.8248H129.263V41.1198H132.338V41.8838H128.322V34.8248Z" fill="#808080"/>
<path d="M133.532 38.386C133.532 39.905 134.365 41.256 135.839 41.256C137.313 41.256 138.145 39.926 138.145 38.323C138.145 36.909 137.399 35.443 135.85 35.443C134.301 35.443 133.532 36.846 133.532 38.386ZM139.128 38.281C139.128 40.701 137.622 42 135.786 42C133.874 42 132.549 40.544 132.549 38.407C132.549 36.166 133.959 34.6991 135.881 34.6991C137.858 34.6991 139.128 36.176 139.128 38.281Z" fill="#808080"/>
<path d="M141.265 34.8251V39.014C141.265 40.585 141.98 41.256 142.941 41.256C143.998 41.256 144.693 40.565 144.693 39.014V34.8251H145.632V38.952C145.632 41.12 144.469 41.999 142.909 41.999C141.436 41.999 140.324 41.182 140.324 38.983V34.8251H141.265Z" fill="#808080"/>
<path d="M148.042 38.1348H148.993C149.986 38.1348 150.616 37.6008 150.616 36.7938C150.616 35.8828 149.943 35.4848 148.96 35.4848C148.512 35.4848 148.202 35.5168 148.042 35.5578V38.1348ZM147.113 34.9198C147.582 34.8358 148.266 34.7728 148.897 34.7728C149.89 34.7728 150.542 34.9618 150.979 35.3488C151.332 35.6628 151.545 36.1448 151.545 36.6998C151.545 37.6218 150.948 38.2398 150.199 38.4908V38.5218C150.745 38.7108 151.075 39.2138 151.246 39.9468C151.481 40.9318 151.652 41.6118 151.801 41.8848H150.841C150.723 41.6748 150.563 41.0778 150.37 40.1988C150.157 39.2238 149.762 38.8578 148.918 38.8258H148.042V41.8848H147.113V34.9198Z" fill="#808080"/>
<path d="M152.898 40.774C153.314 41.036 153.913 41.235 154.553 41.235C155.504 41.235 156.059 40.743 156.059 40.031C156.059 39.381 155.675 38.994 154.703 38.638C153.528 38.219 152.801 37.611 152.801 36.627C152.801 35.527 153.731 34.7101 155.13 34.7101C155.856 34.7101 156.401 34.8781 156.711 35.056L156.455 35.799C156.231 35.663 155.749 35.464 155.099 35.464C154.116 35.464 153.742 36.04 153.742 36.522C153.742 37.182 154.18 37.506 155.173 37.883C156.391 38.344 157 38.92 157 39.957C157 41.047 156.188 42 154.489 42C153.796 42 153.037 41.79 152.652 41.539L152.898 40.774Z" fill="#808080"/>
</g>
</g>
<defs>
<clipPath id="clip0_3_86220">
<rect width="157" height="42" fill="white"/>
</clipPath>
</defs>
</svg>
