<svg width="117" height="33" viewBox="0 0 117 33" fill="none" xmlns="http://www.w3.org/2000/svg">
<path fill-rule="evenodd" clip-rule="evenodd" d="M0 0H17.7631V4.5861H5.29949V10.1692H16.1929V14.7553H5.29949V25.423H0V0ZM19.3333 0H24.4365V25.423H19.3333V0ZM26.89 0H31.797V3.68882H26.89V0ZM38.6667 0H43.5736V3.68882H38.6667V0ZM53.8782 6.05166C54.3394 6.08157 54.9577 6.1713 55.2521 6.24109C55.5465 6.32085 56.0569 6.51027 56.3807 6.66979C56.7046 6.82931 57.2247 7.19819 57.5486 7.49728C57.8626 7.7864 58.2944 8.29486 58.8833 9.22205V6.48036H63.5939L63.5448 26.8686L63.3191 27.6662C63.2014 28.1048 62.9462 28.8027 62.7401 29.2115C62.4849 29.7598 62.1807 30.1686 61.6409 30.7169C61.0325 31.335 60.7283 31.5644 59.9628 31.9332C59.4525 32.1825 58.6575 32.4816 58.1963 32.5912C57.735 32.7109 56.9892 32.8505 56.5279 32.9103C56.0372 32.9801 54.9577 33 53.8782 32.9701C52.465 32.9402 51.886 32.8804 51.2775 32.7109C50.8457 32.6012 50.2078 32.3819 49.8545 32.2323C49.5012 32.0928 48.932 31.7837 48.5787 31.5544C48.2254 31.3251 47.7151 30.8964 47.4403 30.5973C47.1655 30.2982 46.822 29.8196 46.6846 29.5305C46.5374 29.2514 46.3509 28.7529 46.2724 28.4338C46.1939 28.1248 46.1252 27.7459 46.1252 27.3172H51.5228L51.5817 27.5864C51.6112 27.7459 51.7191 28.0151 51.8271 28.1846C51.935 28.384 52.2098 28.6133 52.5042 28.7628C52.779 28.9024 53.3188 29.0619 53.7113 29.1218C54.0941 29.1816 54.7712 29.2115 55.203 29.1816C55.6349 29.1517 56.2531 29.032 56.577 28.9024C56.9794 28.7529 57.313 28.5335 57.6173 28.2245C57.9019 27.9254 58.1374 27.5565 58.2846 27.1677C58.4024 26.8387 58.5496 26.2106 58.5986 25.7719C58.6477 25.3332 58.687 24.4559 58.687 22.6813L58.3926 23.1299C58.2355 23.3792 57.8724 23.8178 57.5878 24.1069C57.3032 24.3961 56.8027 24.755 56.4789 24.9145C56.155 25.074 55.6447 25.2634 55.3503 25.3332C55.0362 25.413 54.31 25.4628 53.5838 25.4529C52.6809 25.4429 52.1509 25.3931 51.5719 25.2335C51.1401 25.1239 50.4139 24.8347 49.9526 24.6054C49.2951 24.2665 48.9418 24.0073 48.2843 23.3293C47.7445 22.781 47.3029 22.2227 47.0379 21.7341C46.8122 21.3254 46.4883 20.5776 46.3313 20.0891C46.1645 19.6006 45.9682 18.7631 45.8897 18.2447C45.7915 17.6864 45.7327 16.6595 45.7327 15.7523C45.7327 14.8051 45.7915 13.858 45.8799 13.3097C45.9682 12.8211 46.1154 12.1233 46.2234 11.7644C46.3215 11.4054 46.6061 10.7076 46.8514 10.219C47.0968 9.72054 47.4992 9.06254 47.7445 8.7435C47.9898 8.43444 48.4609 7.94592 48.8044 7.66677C49.1381 7.37764 49.6975 7.00876 50.0508 6.82931C50.4041 6.64985 50.934 6.43051 51.2284 6.34079C51.5228 6.25106 52.0528 6.14139 52.4061 6.09154C52.7594 6.04169 53.4169 6.02175 53.8782 6.05166ZM52.8968 10.877C52.6514 11.0266 52.3178 11.2958 52.1607 11.4752C51.9939 11.6647 51.7387 12.0136 51.6014 12.2628C51.4541 12.5121 51.2382 13.0505 51.1107 13.4592C50.9144 14.1272 50.8849 14.3964 50.8849 15.9517C50.8948 17.5867 50.9144 17.7462 51.1597 18.4441C51.3069 18.8529 51.5915 19.4311 51.7878 19.7302C51.9939 20.0193 52.3178 20.3782 52.5042 20.5178C52.6907 20.6574 53.044 20.8668 53.2893 20.9764C53.6328 21.136 53.9272 21.1758 54.6633 21.1758C55.4091 21.1758 55.7134 21.126 56.1844 20.9366C56.5672 20.777 56.9499 20.5178 57.2738 20.1888C57.5486 19.9196 57.8822 19.4411 58.0196 19.142C58.1668 18.8429 58.3533 18.3045 58.4416 17.9456C58.5299 17.5867 58.6281 16.8489 58.6575 16.3006C58.687 15.6426 58.6575 15.0344 58.5594 14.506C58.4809 14.0674 58.3239 13.4592 58.2061 13.1601C58.0981 12.861 57.843 12.3625 57.6369 12.0634C57.4308 11.7644 57.0481 11.3556 56.7733 11.1462C56.5083 10.9369 56.0863 10.6976 55.841 10.6178C55.5956 10.5381 55.1343 10.4483 54.8105 10.4184C54.4768 10.3885 54.0254 10.4284 53.78 10.4982C53.5347 10.568 53.1421 10.7375 52.8968 10.877ZM73.8985 6.05166C74.3597 6.08157 74.978 6.1713 75.2724 6.24109C75.5668 6.32085 76.0772 6.51027 76.401 6.66979C76.7249 6.82931 77.245 7.19819 77.5689 7.49728C77.8829 7.7864 78.3049 8.29486 78.8545 9.21208L78.9036 6.48036H83.6142V16.181C83.6142 24.0571 83.5848 26.0511 83.4768 26.8187C83.3983 27.3372 83.2315 28.055 83.1039 28.4139C82.9763 28.7728 82.7212 29.3211 82.5347 29.6402C82.3482 29.9692 81.9066 30.5076 81.5533 30.8366C81.2 31.1755 80.6014 31.6142 80.2284 31.8136C79.8457 32.013 79.2569 32.2722 78.9036 32.3918C78.5503 32.5015 77.9614 32.671 77.5787 32.7508C77.1371 32.8604 76.1851 32.9302 74.9289 32.9701C73.398 33.01 72.7699 32.99 72.0829 32.8604C71.5922 32.7807 70.9151 32.6112 70.5618 32.5015C70.2085 32.3819 69.6 32.1227 69.1976 31.9233C68.756 31.694 68.1966 31.2952 67.7746 30.8964C67.3526 30.4976 66.9503 30.0091 66.7638 29.6502C66.597 29.3311 66.3811 28.7927 66.3025 28.4637C66.2142 28.1347 66.1455 27.7459 66.1455 27.3172H71.4941L71.6217 27.716C71.6805 27.9353 71.8866 28.2644 72.0633 28.4438C72.2497 28.6332 72.6129 28.8426 72.9662 28.9622C73.4274 29.1218 73.82 29.1616 74.7817 29.1517C75.822 29.1517 76.0968 29.1118 76.5973 28.9224C76.98 28.7628 77.3431 28.5236 77.6376 28.2245C77.9124 27.9353 78.1577 27.5465 78.2951 27.1876C78.4129 26.8786 78.5503 26.2006 78.6091 25.6921C78.6582 25.1937 78.7073 24.3063 78.7073 22.6813L78.4521 23.0801C78.3049 23.2994 77.9909 23.6982 77.7357 23.9574C77.4904 24.2166 77.088 24.5656 76.8426 24.7251C76.5973 24.8746 76.0673 25.1139 75.665 25.2335C75.0467 25.423 74.7228 25.4628 73.6531 25.4529C72.6914 25.4429 72.1811 25.3931 71.5922 25.2335C71.1604 25.1239 70.4538 24.8547 70.022 24.6353C69.5019 24.3761 68.9915 24.0172 68.5107 23.5586C68.1181 23.1897 67.5783 22.5616 67.333 22.1828C67.0778 21.794 66.7245 21.116 66.5577 20.6574C66.3811 20.2088 66.1553 19.471 66.0376 19.0124C65.8805 18.3943 65.8217 17.7462 65.7824 16.3505C65.7431 15.1441 65.7726 14.197 65.8511 13.6088C65.9198 13.1202 66.0768 12.3426 66.2044 11.884C66.332 11.4353 66.597 10.7375 66.7932 10.3387C66.9895 9.94985 67.333 9.35166 67.5685 9.02266C67.7943 8.69366 68.2653 8.16526 68.6088 7.84622C68.9523 7.52719 69.5706 7.09849 69.9729 6.88912C70.3753 6.66979 70.9543 6.43051 71.2487 6.34079C71.5432 6.25106 72.0731 6.14139 72.4264 6.09154C72.7797 6.04169 73.4372 6.02175 73.8985 6.05166ZM73.0447 10.8073C72.7797 10.9369 72.3773 11.2659 72.132 11.5251C71.8964 11.7943 71.5824 12.2828 71.4352 12.6118C71.288 12.9408 71.1015 13.5589 71.0132 13.9776C70.9151 14.4462 70.8562 15.2538 70.8562 15.9716C70.8562 16.8888 70.9052 17.3973 71.0525 17.9955C71.1702 18.4341 71.3763 19.0124 71.5235 19.2816C71.6707 19.5508 71.9455 19.9495 72.132 20.1589C72.3184 20.3782 72.7404 20.6873 73.0643 20.8468C73.4667 21.0462 73.869 21.1559 74.3401 21.1958C74.821 21.2456 75.2135 21.2157 75.665 21.0961C76.0183 21.0063 76.5384 20.777 76.823 20.5876C77.0978 20.3982 77.4904 20.0293 77.667 19.7601C77.8535 19.5009 78.0988 19.0423 78.2166 18.7432C78.3344 18.4441 78.4914 17.816 78.5699 17.3474C78.6484 16.8789 78.7073 16.2109 78.7073 15.852C78.7073 15.4931 78.6386 14.865 78.5699 14.4562C78.4914 14.0474 78.3442 13.4592 78.2264 13.1601C78.1184 12.861 77.8633 12.3625 77.6572 12.0634C77.4511 11.7644 77.0782 11.3656 76.823 11.1662C76.5777 10.9767 76.1557 10.7375 75.8907 10.6477C75.6355 10.548 75.1547 10.4483 74.8308 10.4184C74.5069 10.3985 74.0751 10.4184 73.8789 10.4683C73.6728 10.5281 73.2998 10.6776 73.0447 10.8073ZM114.822 5.99184C114.901 5.99184 115.215 6.01178 116.039 6.11148L116 11.1662H114.822C114.175 11.1662 113.409 11.216 113.134 11.2758C112.85 11.3356 112.379 11.5051 112.084 11.6547C111.8 11.7943 111.368 12.1233 111.132 12.3825C110.897 12.6517 110.622 13.0505 110.514 13.2798C110.416 13.519 110.279 13.9776 110.22 14.3066C110.151 14.7054 110.112 16.6894 110.112 25.423H105.107V6.48036H109.915V9.62085L110.367 8.87311C110.612 8.46435 110.985 7.92598 111.181 7.67674C111.387 7.42749 111.79 7.06858 112.084 6.86918C112.379 6.66979 112.81 6.43051 113.056 6.34079C113.301 6.24109 113.762 6.13142 114.086 6.09154C114.41 6.04169 114.744 6.00181 114.822 5.99184ZM94.3113 6.00181C94.4978 5.99184 95.0277 6.02175 95.489 6.0716C95.9503 6.12145 96.6274 6.24109 97.0102 6.33082C97.3929 6.43051 98.0504 6.66979 98.4822 6.87915C98.914 7.07855 99.5421 7.4574 99.8856 7.71662C100.219 7.96586 100.739 8.47432 101.034 8.8432C101.338 9.22205 101.78 9.91994 102.015 10.4184C102.251 10.9069 102.545 11.6547 102.653 12.0634C102.761 12.4722 102.918 13.2399 102.997 13.7583C103.075 14.2767 103.144 15.3036 103.144 17.3474H90.533L90.6115 17.9755C90.6508 18.3145 90.7489 18.813 90.8372 19.0921C90.9256 19.3613 91.0924 19.7701 91.22 19.9894C91.3377 20.2088 91.642 20.5776 91.8971 20.8069C92.1425 21.0462 92.535 21.3154 92.7706 21.4251C92.9963 21.5248 93.4477 21.6644 93.7716 21.7242C94.0954 21.784 94.5567 21.8338 94.802 21.8338C95.0474 21.8338 95.5283 21.7541 95.8816 21.6444C96.2349 21.5347 96.7255 21.2855 96.9905 21.0961C97.2948 20.8568 97.5205 20.5776 97.8934 19.7502L100.425 19.7402C102.761 19.7402 102.948 19.7502 102.948 19.9097C102.948 20.0094 102.8 20.448 102.624 20.8867C102.447 21.3254 102.133 21.9535 101.917 22.2825C101.711 22.6115 101.24 23.1698 100.887 23.5287C100.533 23.8876 99.9445 24.3761 99.5618 24.5955C99.179 24.8248 98.5902 25.1239 98.2369 25.2634C97.8836 25.3931 97.2457 25.5825 96.8139 25.6722C96.2937 25.7918 95.5871 25.8417 94.7039 25.8417C93.9384 25.8417 93.0061 25.7819 92.4958 25.6921C92.0051 25.6024 91.2789 25.413 90.8765 25.2634C90.4741 25.1239 89.8951 24.8647 89.6007 24.6952C89.3063 24.5157 88.8058 24.1668 88.5015 23.9076C88.1875 23.6384 87.7262 23.1498 87.4809 22.8009C87.2257 22.4619 86.8528 21.8239 86.6467 21.3852C86.4406 20.9465 86.156 20.1589 86.0284 19.6405C85.891 19.1221 85.734 18.3145 85.6751 17.8459C85.6261 17.3773 85.577 16.4103 85.577 15.7024C85.577 14.9746 85.6457 14.0175 85.7242 13.5091C85.8125 13.0106 86.0186 12.203 86.1756 11.7145C86.3425 11.216 86.6271 10.5281 86.8234 10.1692C87.0098 9.81027 87.4024 9.23202 87.6772 8.87311C87.9618 8.5142 88.4721 8.00574 88.8254 7.73656C89.1689 7.47734 89.7086 7.1284 90.0227 6.96888C90.3269 6.80937 90.9648 6.57009 91.4457 6.43051C91.9167 6.29094 92.6724 6.13142 93.1337 6.09154C93.5949 6.04169 94.1249 6.00181 94.3113 6.00181ZM92.3093 10.7973C92.0149 10.9967 91.6812 11.3456 91.4457 11.7145C91.2396 12.0435 90.9942 12.532 90.9157 12.8112C90.8372 13.0804 90.7391 13.4792 90.6998 13.6885L90.6311 14.0574H98.0406C98.0406 13.7085 97.9817 13.3795 97.9032 13.1103C97.8345 12.8311 97.6579 12.3825 97.5205 12.1133C97.3831 11.8341 97.0788 11.4254 96.8433 11.1961C96.6176 10.9668 96.1563 10.6577 95.8325 10.5082C95.4301 10.3287 95.0277 10.229 94.5567 10.2091C94.1249 10.1792 93.6636 10.229 93.3299 10.3287C93.0355 10.4085 92.5743 10.6178 92.3093 10.7973ZM26.8802 6.48036H31.797L31.8264 12.8311C31.846 18.4541 31.8657 19.2517 32.0129 19.6903C32.1012 19.9595 32.3465 20.3882 32.5624 20.6375C32.7882 20.9066 33.1513 21.1858 33.4751 21.3353C33.9168 21.5347 34.1523 21.5746 34.8883 21.5746C35.5459 21.5746 35.909 21.5148 36.3113 21.3553C36.6058 21.2456 37.0866 20.9366 37.3811 20.6674C37.7147 20.3683 38.0091 19.9695 38.1858 19.5906C38.3428 19.2616 38.5096 18.6734 38.5685 18.2946C38.6176 17.9057 38.6667 15.164 38.6667 6.48036H43.5736V25.423H38.8629L38.8728 22.781L38.4409 23.3792C38.2054 23.7082 37.803 24.1668 37.5283 24.3961C37.2633 24.6353 36.802 24.9544 36.5076 25.1139C36.2132 25.2834 35.6146 25.5127 35.1827 25.6224C34.5841 25.7918 34.113 25.8417 33.1709 25.8417C32.2288 25.8417 31.7577 25.7918 31.1591 25.6224C30.7272 25.5127 30.109 25.2734 29.7949 25.094C29.4711 24.9145 28.9509 24.5057 28.6271 24.1767C28.2345 23.768 27.9205 23.3193 27.6653 22.781C27.4592 22.3423 27.2041 21.7142 27.1157 21.3852C26.9587 20.8468 26.9391 20.0592 26.9096 13.6287L26.8802 6.48036Z" fill="#172B60"/>
</svg>
