<svg width="24" height="25" viewBox="0 0 24 25" fill="none" xmlns="http://www.w3.org/2000/svg">
<path d="M7.39423 6.89554C7.09755 6.59862 6.6162 6.59862 6.31952 6.89554C5.21797 7.99709 4.67656 9.53161 4.8339 11.1059C4.87316 11.4981 5.20355 11.7904 5.58939 11.7904C5.61474 11.7904 5.6403 11.7891 5.66565 11.7866C6.08343 11.7448 6.38819 11.3721 6.3464 10.9546C6.23442 9.83585 6.61648 8.748 7.39423 7.97021C7.69115 7.67357 7.69115 7.19219 7.39423 6.89554Z" fill="white"/>
<path d="M10.4041 2.21387C5.61257 2.21387 1.71436 6.11208 1.71436 10.9036C1.71436 15.6952 5.61257 19.5934 10.4041 19.5934C15.1957 19.5934 19.0939 15.6952 19.0939 10.9036C19.0939 6.11208 15.1956 2.21387 10.4041 2.21387ZM10.4041 18.0733C6.45066 18.0733 3.23445 14.8571 3.23445 10.9036C3.23445 6.95017 6.45066 3.73396 10.4041 3.73396C14.3573 3.73396 17.5738 6.95017 17.5738 10.9036C17.5738 14.8571 14.3576 18.0733 10.4041 18.0733Z" fill="white"/>
<path d="M22.0633 21.4881L16.5403 15.9651C16.2434 15.6682 15.7625 15.6682 15.4656 15.9651C15.1687 16.2618 15.1687 16.7431 15.4656 17.0398L20.9886 22.5628C21.0591 22.6335 21.1428 22.6895 21.235 22.7277C21.3272 22.766 21.4261 22.7856 21.5259 22.7854C21.7205 22.7854 21.9148 22.7112 22.0633 22.5628C22.3602 22.2661 22.3602 21.7847 22.0633 21.4881Z" fill="white"/>
</svg>
