<svg width="94" height="33" viewBox="0 0 94 33" fill="none" xmlns="http://www.w3.org/2000/svg">
<g clip-path="url(#clip0_3_89699)">
<path d="M61.0254 27.0598C60.5032 26.4732 60.2794 25.5931 60.2794 24.4198V16.6465H65.427V11.8065H60.2794V3.37315C58.7873 3.37315 53.6397 7.03982 53.6397 11.5132V25.2265C53.6397 27.7931 54.3111 29.6265 55.5794 30.8731C56.8476 32.1198 58.7873 32.7798 61.3984 32.7798C63.7857 32.7798 65.427 32.4865 65.9492 32.2665V27.4265C65.5016 27.5732 64.8302 27.9398 63.2635 27.9398C62.2937 27.9398 61.5476 27.6465 61.0254 27.0598ZM24.9921 8.28648V32.2665H31.6317V0.146484C29.9159 0.146484 24.9921 4.10648 24.9921 8.28648ZM90.6429 10.4865C89.2254 10.4865 88.0317 11.5865 88.0317 12.9798C88.0317 14.3731 89.1508 15.5465 90.6429 15.5465C92.0603 15.5465 93.1794 14.4465 93.1794 12.9798C93.1794 11.5865 92.0603 10.4865 90.6429 10.4865ZM90.6429 15.0331C89.5238 15.0331 88.7032 14.1531 88.7032 13.0531C88.7032 11.9531 89.5238 11.0732 90.6429 11.0732C91.7619 11.0732 92.5825 11.9531 92.5825 13.1265C92.5079 14.1531 91.6873 15.0331 90.6429 15.0331Z" fill="#303D5A"/>
<path d="M91.1649 13.0535C91.4633 12.9068 91.6871 12.6868 91.6871 12.4668C91.6871 12.2468 91.6125 12.0268 91.4633 11.8802C91.3141 11.8068 91.0903 11.6601 90.5681 11.6601C90.1204 11.6601 89.822 11.6601 89.5982 11.7335V14.2268H90.195V13.2001H90.4934C90.7919 13.2001 90.9411 13.3468 91.0157 13.5668C91.0903 13.8601 91.1649 14.0801 91.2395 14.1535H91.8363C91.7617 14.0801 91.7617 13.9335 91.6871 13.4935C91.5379 13.3468 91.4633 13.2001 91.1649 13.0535ZM90.4934 12.9068H90.195V12.1735H90.4934C90.8665 12.1735 91.0157 12.3201 91.0157 12.5401C91.0903 12.7601 90.7919 12.9068 90.4934 12.9068ZM45.5077 19.2868C44.5379 19.0668 43.7173 18.8468 43.0458 18.6268C42.3744 18.4068 41.9268 18.2602 41.6284 18.1135C41.0315 17.8202 40.7331 17.4535 40.7331 16.9401C40.7331 16.3535 41.0315 15.8402 41.5538 15.5468C42.1506 15.2535 42.9712 15.1068 44.1649 15.1068C47.149 15.1068 49.6855 16.1335 50.3569 16.5001V11.6601C49.9093 11.5135 46.7014 10.4868 43.4935 10.4868C36.1077 10.4868 34.1681 14.4468 34.1681 17.2335C34.1681 19.1402 34.7649 20.6068 35.9585 21.4868C37.1522 22.3668 38.5696 23.0268 40.3601 23.3935C41.1807 23.5401 41.8522 23.7602 42.449 23.9802C43.0458 24.2002 43.4935 24.3468 43.7919 24.5668C44.3887 24.9335 44.7617 25.4468 44.7617 26.0335C44.7617 26.7668 44.4633 27.3535 43.8665 27.6468C43.195 27.9402 42.3744 28.0868 41.4046 28.0868C38.2712 28.0868 34.9141 26.6202 34.7649 26.5468V31.6802C35.1379 31.8268 37.2268 32.7068 41.7776 32.7068C44.8363 32.7068 47.2236 32.1201 48.9395 30.8735C50.73 29.6268 51.5506 27.9402 51.5506 25.6668C51.5506 23.9802 51.103 22.6601 50.1331 21.5601C49.0887 20.6068 47.5966 19.8735 45.5077 19.2868ZM76.9157 10.4868C71.6934 10.4868 69.3061 11.5135 68.8585 11.8068V16.6468C69.3808 16.4268 71.1712 15.1068 76.6919 15.1068C78.4077 15.1068 80.3474 15.5468 80.3474 17.8935V18.6268H76.9903C72.5141 18.7735 66.9188 20.2401 66.9188 26.1068C66.9188 28.3801 68.4109 32.7068 74.0807 32.7068C76.7665 32.7068 79.2284 31.5335 80.2728 29.8468V32.2668H86.5395V17.7468C86.5395 13.2735 82.8839 10.4868 76.9157 10.4868ZM80.2728 23.1002C80.2728 24.8602 79.2284 28.0868 75.6474 28.0868C73.8569 28.0868 72.6633 26.9135 72.6633 25.5202C72.6633 22.8801 76.095 22.8068 77.8855 22.7335H78.6315C78.93 22.7335 80.049 22.6601 80.1982 22.5868V23.1002H80.2728ZM11.8617 10.5601C4.84901 10.5601 0.820435 15.7668 0.820435 21.6335C0.820435 27.5735 4.84901 32.7068 11.8617 32.7068C17.7554 32.7068 22.903 28.9668 22.903 21.6335C22.903 14.3001 17.83 10.5601 11.8617 10.5601ZM16.5617 21.7068V21.7802C16.5617 25.5202 14.9204 27.9401 11.8617 27.9401C8.20615 27.9401 7.1617 24.7868 7.1617 21.7802V21.7068V21.6335C7.1617 18.6268 8.28075 15.4735 11.8617 15.4735C14.9204 15.4735 16.5617 17.9668 16.5617 21.6335V21.7068Z" fill="#303D5A"/>
<path d="M9.02694 9.38688C10.057 9.38688 10.892 8.56607 10.892 7.55355C10.892 6.54103 10.057 5.72021 9.02694 5.72021C7.99689 5.72021 7.16187 6.54103 7.16187 7.55355C7.16187 8.56607 7.99689 9.38688 9.02694 9.38688Z" fill="#303D5A"/>
<path d="M14.6229 9.38688C15.6529 9.38688 16.488 8.56607 16.488 7.55355C16.488 6.54103 15.6529 5.72021 14.6229 5.72021C13.5928 5.72021 12.7578 6.54103 12.7578 7.55355C12.7578 8.56607 13.5928 9.38688 14.6229 9.38688Z" fill="#303D5A"/>
</g>
<defs>
<clipPath id="clip0_3_89699">
<rect width="94" height="33" fill="white"/>
</clipPath>
</defs>
</svg>
