<svg width="148" height="40" viewBox="0 0 148 40" fill="none" xmlns="http://www.w3.org/2000/svg">
<g clip-path="url(#clip0_3_89721)">
<path d="M20.1322 -5.72205e-05L40.2634 19.9446L20.1322 39.8901L0 19.9446L20.1322 -5.72205e-05Z" fill="#F03E32"/>
<mask id="mask0_3_89721" style="mask-type:luminance" maskUnits="userSpaceOnUse" x="0" y="0" width="148" height="40">
<path d="M0 40H147.999V0.000282288H0V40Z" fill="white"/>
</mask>
<g mask="url(#mask0_3_89721)">
<path fill-rule="evenodd" clip-rule="evenodd" d="M49.1082 26.0378H52.6226V15.3264H56.5937V12.7493H45.2246V15.3264H49.1082V26.0378ZM61.0887 12.7493H57.5742V26.0378H61.0887V12.7493ZM66.3498 18.5845L66.3142 12.7493H62.7998V26.0378H66.3142V18.9702L70.5314 26.0378H74.8889L70.1622 18.6026L74.538 12.7493H70.3737L66.3498 18.5845ZM79.2512 18.5845L79.2156 12.7493H75.7021V26.0378H79.2156V18.9702L83.4337 26.0378H87.7912L83.0646 18.6026L87.4403 12.7493H83.2751L79.2512 18.5845ZM97.0916 12.7493V20.9759C97.0388 22.6693 96.1957 23.7378 94.5433 23.7378C92.8918 23.7378 92.0478 22.6693 91.9959 20.9759V12.7493H88.4814V21.1607C88.516 24.8607 91.346 26.3149 94.5433 26.3149C97.7415 26.3149 100.571 24.8607 100.606 21.1607V12.7493H97.0916ZM106.157 20.9588H107.474C109.267 20.9588 109.337 21.6207 109.478 23.2226C109.566 24.1607 109.671 25.1178 109.865 26.0378H113.678C113.38 24.9702 113.185 23.9216 113.098 22.8178C112.869 20.7559 112.447 19.5598 110.199 19.5045C111.973 19.2102 113.432 18.1607 113.432 16.1731C113.432 13.3569 110.655 12.7493 108.512 12.7493H102.642V26.0378H106.157V20.9588ZM106.157 18.3817V15.3264H107.527C108.652 15.3264 109.741 15.4922 109.741 16.8541C109.741 18.216 108.652 18.3817 107.527 18.3817H106.157ZM118.512 12.7493H114.996V26.0378H118.512V12.7493ZM128.043 26.0378V23.4616H123.936V12.7493H120.422V26.0378H128.043ZM133.37 20.8664L135.092 15.3445L136.762 20.8664H133.37ZM131.649 26.0378L132.475 23.4426H137.623L138.466 26.0378H142.437L137.43 12.7493H133.142L128.133 26.0378H131.649Z" fill="black"/>
<path d="M10.3438 10.4595C11.5742 10.4595 12.5836 11.4471 12.5836 12.6662C12.5836 13.0452 12.4874 13.4023 12.3173 13.7138C13.5035 13.7623 14.4504 14.7309 14.4504 15.9185C14.4504 17.1366 13.4535 18.1252 12.2231 18.1252C11.827 18.1252 11.455 18.0223 11.133 17.8433C11.1243 17.9594 11.1195 18.0766 11.1195 18.1947C11.1195 20.5061 13.0113 22.3794 15.3444 22.3794C17.6774 22.3794 19.5683 20.5061 19.5683 18.1947C19.5683 18.0375 19.5644 17.8814 19.5481 17.729C19.1866 17.9785 18.7387 18.1252 18.2648 18.1252C17.0343 18.1252 16.0365 17.1366 16.0365 15.9185C16.0365 14.7309 16.9843 13.7623 18.1706 13.7138C18.0004 13.4023 17.9033 13.0452 17.9033 12.6662C17.9033 11.4471 18.9011 10.4595 20.1316 10.4595C21.3611 10.4595 22.3579 11.4471 22.3579 12.6662C22.3579 13.0452 22.2618 13.4023 22.0916 13.7138C23.2788 13.7623 24.2257 14.7309 24.2257 15.9185C24.2257 17.1366 23.2279 18.1252 21.9974 18.1252C21.5226 18.1252 21.0823 17.9775 20.7199 17.7261C20.7026 17.8794 20.6939 18.0356 20.6939 18.1947C20.6939 20.5061 22.5857 22.3794 24.9178 22.3794C27.2518 22.3794 29.1417 20.5061 29.1417 18.1947C29.1417 18.0804 29.1417 17.9661 29.133 17.8537C28.8148 18.0271 28.4428 18.1261 28.0535 18.1261C26.8231 18.1261 25.8262 17.1385 25.8262 15.9195C25.8262 14.7328 26.7731 13.7633 27.9593 13.7147C27.7901 13.4033 27.693 13.0461 27.693 12.6681C27.693 11.449 28.6908 10.4605 29.9203 10.4605L29.9184 27.1289H10.3438V10.4595Z" fill="white"/>
<path d="M41.7241 33.9044H39.6602V33.1664H44.6839V33.9044H42.6104V39.8892H41.7241V33.9044Z" fill="white"/>
<path d="M46.4566 33.1664V35.9797H49.7394V33.1664H50.6248V39.8892H49.7394V36.7378H46.4566V39.8892H45.5703V33.1664H46.4566Z" fill="white"/>
<path d="M55.7538 36.7378H53.1256V39.1616H56.0662V39.8901H52.2403V33.1664H55.9153V33.8949H53.1256V36.0197H55.7538V36.7378Z" fill="white"/>
<path d="M61.0164 36.4883C61.2077 36.5387 61.4499 36.5578 61.7412 36.5578C62.7986 36.5578 63.4427 36.0397 63.4427 35.1321C63.4427 34.234 62.7986 33.8054 61.8421 33.8054C61.4595 33.8054 61.1673 33.8349 61.0164 33.8749V36.4883ZM60.1407 33.2464C60.5636 33.1769 61.1173 33.1169 61.8219 33.1169C62.6881 33.1169 63.3225 33.3168 63.7243 33.6759C64.0867 33.9949 64.3184 34.4835 64.3184 35.0816C64.3184 35.6902 64.1377 36.1692 63.7955 36.5178C63.3225 37.0073 62.5765 37.2559 61.721 37.2559C61.4595 37.2559 61.2173 37.2463 61.0164 37.1968V39.8901H60.1407V33.2464Z" fill="white"/>
<path d="M65.8964 36.5581C65.8964 38.0048 66.6818 39.2914 68.0709 39.2914C69.4599 39.2914 70.2463 38.0248 70.2463 36.4981C70.2463 35.1515 69.5407 33.7553 68.0814 33.7553C66.6213 33.7553 65.8964 35.0915 65.8964 36.5581ZM71.172 36.4581C71.172 38.7629 69.7522 40 68.0209 40C66.2185 40 64.9707 38.6133 64.9707 36.5781C64.9707 34.4438 66.2992 33.0467 68.1112 33.0467C69.9742 33.0467 71.172 34.4534 71.172 36.4581Z" fill="white"/>
<path d="M73.2041 39.8892L71.4825 33.1664H72.4082L73.2137 36.5673C73.4156 37.4054 73.5963 38.2435 73.7174 38.892H73.7376C73.8482 38.2235 74.0597 37.4254 74.2913 36.5578L75.1978 33.1664H76.1139L76.9387 36.5778C77.131 37.3758 77.3117 38.1739 77.4126 38.8815H77.4328C77.5731 38.1435 77.7644 37.3958 77.9759 36.5578L78.8728 33.1664H79.7678L77.8452 39.8892H76.9291L76.0735 36.3882C75.8621 35.5301 75.7208 34.8721 75.6304 34.194H75.6102C75.4997 34.8625 75.3382 35.5206 75.0873 36.3882L74.1202 39.8892H73.2041Z" fill="white"/>
<path d="M84.2225 36.7378H81.5944V39.1616H84.534V39.8901H80.709V33.1664H84.384V33.8949H81.5944V36.0197H84.2225V36.7378Z" fill="white"/>
<path d="M86.5396 36.3187H87.4355C88.3718 36.3187 88.9659 35.8102 88.9659 35.0416C88.9659 34.174 88.3315 33.7949 87.4048 33.7949C86.9818 33.7949 86.6905 33.8254 86.5396 33.8645V36.3187ZM85.6639 33.2569C86.1061 33.1769 86.7511 33.1169 87.3452 33.1169C88.2815 33.1169 88.8957 33.2968 89.3081 33.6654C89.6407 33.9645 89.8416 34.4235 89.8416 34.9521C89.8416 35.8302 89.2783 36.4187 88.5737 36.6578V36.6873C89.087 36.8673 89.3985 37.3463 89.56 38.0444C89.7811 38.9825 89.9426 39.6301 90.0829 39.8901H89.1774C89.0668 39.6901 88.9159 39.1216 88.7342 38.2844C88.5333 37.3559 88.1603 37.0073 87.3654 36.9768H86.5396V39.8901H85.6639V33.2569Z" fill="white"/>
<path d="M94.4414 36.5581C94.4414 38.0048 95.2267 39.2914 96.6158 39.2914C98.0058 39.2914 98.7912 38.0248 98.7912 36.4981C98.7912 35.1515 98.0866 33.7553 96.6264 33.7553C95.1662 33.7553 94.4414 35.0915 94.4414 36.5581ZM99.7169 36.4581C99.7169 38.7629 98.2971 40 96.5658 40C94.7634 40 93.5157 38.6133 93.5157 36.5781C93.5157 34.4438 94.8441 33.0467 96.6562 33.0467C98.5191 33.0467 99.7169 34.4534 99.7169 36.4581Z" fill="white"/>
<path d="M100.977 33.1664H104.631V33.894H101.863V36.1292H104.42V36.8473H101.863V39.8892H100.977V33.1664Z" fill="white"/>
<path d="M113.057 39.68C112.745 39.84 112.09 39.999 111.265 39.999C109.352 39.999 107.922 38.8019 107.922 36.5876C107.922 34.4733 109.362 33.0562 111.466 33.0562C112.302 33.0562 112.846 33.2362 113.077 33.3562L112.856 34.0638C112.533 33.9048 112.06 33.7848 111.497 33.7848C109.906 33.7848 108.849 34.7924 108.849 36.5581C108.849 38.2133 109.805 39.2609 111.446 39.2609C111.99 39.2609 112.533 39.1514 112.886 38.9819L113.057 39.68Z" fill="white"/>
<path d="M114.431 36.5581C114.431 38.0048 115.216 39.2914 116.605 39.2914C117.995 39.2914 118.781 38.0248 118.781 36.4981C118.781 35.1515 118.076 33.7553 116.616 33.7553C115.156 33.7553 114.431 35.0915 114.431 36.5581ZM119.706 36.4581C119.706 38.7629 118.286 40 116.555 40C114.753 40 113.504 38.6133 113.504 36.5781C113.504 34.4438 114.834 33.0467 116.646 33.0467C118.509 33.0467 119.706 34.4534 119.706 36.4581Z" fill="white"/>
<path d="M120.967 33.1664H121.853V39.1615H124.752V39.8892H120.967V33.1664Z" fill="white"/>
<path d="M125.878 36.5581C125.878 38.0048 126.663 39.2914 128.052 39.2914C129.442 39.2914 130.227 38.0248 130.227 36.4981C130.227 35.1515 129.523 33.7553 128.063 33.7553C126.603 33.7553 125.878 35.0915 125.878 36.5581ZM131.153 36.4581C131.153 38.7629 129.734 40 128.002 40C126.2 40 124.951 38.6133 124.951 36.5781C124.951 34.4438 126.281 33.0467 128.093 33.0467C129.956 33.0467 131.153 34.4534 131.153 36.4581Z" fill="white"/>
<path d="M133.166 33.1667V37.1562C133.166 38.6524 133.84 39.2914 134.746 39.2914C135.743 39.2914 136.397 38.6333 136.397 37.1562V33.1667H137.283V37.0971C137.283 39.1619 136.186 39.999 134.716 39.999C133.327 39.999 132.279 39.2209 132.279 37.1267V33.1667H133.166Z" fill="white"/>
<path d="M139.555 36.3187H140.451C141.388 36.3187 141.982 35.8102 141.982 35.0416C141.982 34.174 141.347 33.7949 140.421 33.7949C139.999 33.7949 139.706 33.8254 139.555 33.8645V36.3187ZM138.68 33.2569C139.122 33.1769 139.766 33.1169 140.361 33.1169C141.297 33.1169 141.912 33.2968 142.324 33.6654C142.657 33.9645 142.857 34.4235 142.857 34.9521C142.857 35.8302 142.294 36.4187 141.589 36.6578V36.6873C142.103 36.8673 142.414 37.3463 142.576 38.0444C142.797 38.9825 142.958 39.6301 143.099 39.8901H142.193C142.083 39.6901 141.932 39.1216 141.75 38.2844C141.549 37.3559 141.176 37.0073 140.381 36.9768H139.555V39.8901H138.68V33.2569Z" fill="white"/>
<path d="M144.134 38.8324C144.526 39.0819 145.091 39.2714 145.694 39.2714C146.59 39.2714 147.114 38.8029 147.114 38.1248C147.114 37.5057 146.752 37.1372 145.836 36.7981C144.728 36.3991 144.043 35.82 144.043 34.8829C144.043 33.8353 144.919 33.0572 146.238 33.0572C146.923 33.0572 147.436 33.2172 147.728 33.3867L147.487 34.0943C147.276 33.9648 146.822 33.7753 146.208 33.7753C145.282 33.7753 144.929 34.3239 144.929 34.7829C144.929 35.4115 145.342 35.72 146.279 36.0791C147.426 36.5181 148 37.0667 148 38.0543C148 39.0924 147.235 40 145.634 40C144.98 40 144.265 39.8 143.902 39.561L144.134 38.8324Z" fill="white"/>
</g>
</g>
<defs>
<clipPath id="clip0_3_89721">
<rect width="148" height="40" fill="white"/>
</clipPath>
</defs>
</svg>
