<svg width="130" height="34" viewBox="0 0 130 34" fill="none" xmlns="http://www.w3.org/2000/svg">
<path d="M8.61713 13.6211C8.61713 14.455 9.3584 15.1963 10.1923 15.1963C11.0263 15.1963 11.7675 14.455 11.7675 13.6211C11.7675 12.7872 11.0263 12.0459 10.1923 12.0459C9.26574 12.0459 8.61713 12.6945 8.61713 13.6211Z" fill="#034EA0"/>
<path d="M7.04086 18.4394C7.87479 18.4394 10.1913 18.4394 10.8399 19.644C11.1179 20.0146 11.8591 20.9412 10.7472 23.165C9.63532 25.3888 9.63532 27.6127 9.9133 28.5393C10.6546 31.1337 12.6004 33.1722 15.1022 33.9135H15.1949H15.2875C18.0673 33.1722 19.8278 30.6704 20.3838 28.3539C20.4764 27.7053 20.9397 25.8521 19.6425 23.0724C18.6233 20.8485 19.1792 20.1073 19.5499 19.5513C20.1985 18.2541 22.0517 18.3467 23.9048 18.3467C24.3681 18.3467 25.8507 18.3467 25.8507 18.3467V10.4707H23.5342V16.0303C23.1636 16.0303 22.7929 16.0303 22.515 16.0303C21.5884 16.0303 20.7544 16.0303 19.9205 16.3082C18.4379 16.8642 17.4187 18.0688 16.9554 19.8293C16.4921 21.4972 17.0481 22.887 17.604 24.1843C17.882 24.9255 18.16 25.6668 18.3453 26.4081C18.5306 28.5393 17.2334 30.6704 15.2875 31.597H15.1949C15.1949 31.597 15.1949 31.597 15.1022 31.597C13.3417 30.7631 11.7665 28.8172 11.9518 26.4081C12.0445 25.9448 12.2298 25.2962 12.6004 24.5549C13.1564 23.2577 13.805 21.5898 13.4343 19.8293C12.8784 17.8834 11.7665 16.6789 10.006 16.2156C8.89405 15.9376 6.9482 16.0303 6.9482 16.0303V10.4707H4.53906V18.3467C4.63172 18.4394 6.39225 18.4394 7.04086 18.4394Z" fill="#034EA0"/>
<path d="M3.79903 18.439V10.563H0L3.15041 14.5473L0 18.439H3.79903Z" fill="#034EA0"/>
<path d="M25.9446 4.72562C25.9446 1.57521 27.4271 0.741274 29.2803 0H14.2695C12.231 0 10.4705 1.48255 10.0998 3.52105V0H4.63293V9.82188H25.9446V4.72562Z" fill="#00A94E"/>
<path d="M37.3415 27.7976H41.6965V14.4547H46.5148V10.563H32.3379V14.4547H37.3415V27.7976Z" fill="#231F20"/>
<path d="M60.785 23.9059H52.353V20.6628H59.7658V17.2345H52.353V14.1767H60.5997V10.563H47.998V27.7976H60.785V23.9059Z" fill="#231F20"/>
<path d="M79.687 27.7976L73.0155 19.1803L79.687 10.563H74.1274L68.1972 19.1803L74.2201 27.7976H79.687Z" fill="#231F20"/>
<path d="M67.7334 22.516V17.2345V10.563H63.0078V27.7976H67.7334V22.516Z" fill="#231F20"/>
<path d="M85.2476 17.6051H85.3402L91.6411 27.7976H96.274V10.563H92.0117V20.7555H91.919L85.6182 10.563H80.8926V27.7976H85.2476V17.6051Z" fill="#231F20"/>
<path d="M106.651 28.1683C112.025 28.1683 115.083 24.1839 115.083 19.1803C115.083 14.1767 112.025 10.1924 106.651 10.1924C101.277 10.1924 98.2188 14.1767 98.2188 19.1803C98.2188 24.1839 101.277 28.1683 106.651 28.1683ZM106.651 14.0841C109.523 14.0841 110.635 16.6785 110.635 19.1803C110.635 21.7748 109.523 24.2766 106.651 24.2766C103.778 24.2766 102.666 21.6821 102.666 19.1803C102.666 16.6785 103.778 14.0841 106.651 14.0841Z" fill="#231F20"/>
<path d="M125.09 23.0721C125.09 24.462 123.607 24.74 122.032 24.74C119.993 24.74 118.233 24.2767 116.936 23.6281L116.472 27.4271C118.14 27.8904 120.271 28.1684 121.939 28.1684C126.016 28.1684 130.001 26.9638 130.001 22.4235C130.001 16.1227 121.291 18.0685 121.291 15.2888C121.291 13.8062 123.329 13.7135 124.626 13.7135C126.016 13.7135 127.406 13.9915 128.703 14.5475L128.981 10.9338C127.777 10.5631 126.016 10.2852 124.256 10.2852C120.549 10.2852 116.287 11.3971 116.287 15.5667C116.38 21.8676 125.09 19.8291 125.09 23.0721Z" fill="#231F20"/>
</svg>
