<svg width="98" height="28" viewBox="0 0 98 28" fill="none" xmlns="http://www.w3.org/2000/svg">
<path fill-rule="evenodd" clip-rule="evenodd" d="M0 0H15.0017V3.8926H4.47564V8.63141H13.6756V12.524H4.47564V21.5785H0V0ZM16.3278 0H20.6377V21.5785H16.3278V0ZM22.7097 0H26.8539V3.131H22.7097V0ZM32.6556 0H36.7997V3.131H32.6556V0ZM45.5024 5.13654C45.8919 5.16192 46.4141 5.23808 46.6627 5.29732C46.9114 5.36501 47.3424 5.52579 47.6159 5.66119C47.8894 5.79658 48.3287 6.10968 48.6022 6.36355C48.8674 6.60895 49.2321 7.04052 49.7294 7.8275V5.50041H53.7077L53.6663 22.8055L53.4756 23.4825C53.3762 23.8548 53.1607 24.4472 52.9866 24.7941C52.7711 25.2596 52.5142 25.6065 52.0584 26.0719C51.5445 26.5966 51.2875 26.7912 50.6411 27.1043C50.2101 27.3159 49.5387 27.5697 49.1492 27.6628C48.7596 27.7644 48.1297 27.8828 47.7402 27.9336C47.3258 27.9928 46.4141 28.0098 45.5024 27.9844C44.3089 27.959 43.8199 27.9082 43.306 27.7644C42.9413 27.6713 42.4026 27.4851 42.1042 27.3582C41.8058 27.2397 41.3251 26.9774 41.0267 26.7828C40.7283 26.5881 40.2974 26.2243 40.0653 25.9704C39.8332 25.7165 39.5431 25.3103 39.4271 25.0649C39.3028 24.828 39.1453 24.4049 39.079 24.1341C39.0127 23.8718 38.9547 23.5502 38.9547 23.1863H43.5132L43.5629 23.4148C43.5878 23.5502 43.679 23.7787 43.7701 23.9225C43.8613 24.0918 44.0934 24.2864 44.342 24.4134C44.5741 24.5318 45.0299 24.6672 45.3615 24.718C45.6847 24.7688 46.2566 24.7941 46.6213 24.7688C46.986 24.7434 47.5081 24.6418 47.7816 24.5318C48.1214 24.4049 48.4032 24.2187 48.6602 23.9564C48.9005 23.7025 49.0995 23.3894 49.2238 23.0594C49.3232 22.7802 49.4476 22.247 49.489 21.8747C49.5304 21.5024 49.5636 20.7577 49.5636 19.2514L49.3149 19.6322C49.1823 19.8438 48.8757 20.2161 48.6353 20.4615C48.395 20.7069 47.9723 21.0116 47.6987 21.147C47.4252 21.2823 46.9942 21.4431 46.7456 21.5024C46.4804 21.5701 45.8671 21.6124 45.2537 21.6039C44.4912 21.5954 44.0436 21.5531 43.5546 21.4177C43.19 21.3247 42.5766 21.0793 42.1871 20.8846C41.6318 20.5969 41.3334 20.3769 40.7781 19.8015C40.3222 19.3361 39.9493 18.8622 39.7255 18.4475C39.5348 18.1006 39.2613 17.4659 39.1287 17.0513C38.9878 16.6366 38.8221 15.9258 38.7557 15.4858C38.6729 15.0119 38.6231 14.1403 38.6231 13.3702C38.6231 12.5663 38.6729 11.7624 38.7475 11.297C38.8221 10.8823 38.9464 10.29 39.0375 9.98536C39.1204 9.68072 39.3608 9.08837 39.568 8.67372C39.7752 8.25061 40.115 7.69211 40.3222 7.42132C40.5294 7.15899 40.9273 6.74435 41.2174 6.50741C41.4992 6.262 41.9716 5.9489 42.27 5.79658C42.5683 5.64427 43.0159 5.4581 43.2645 5.38194C43.5132 5.30578 43.9608 5.21269 44.2591 5.17038C44.5575 5.12807 45.1128 5.11115 45.5024 5.13654ZM44.6735 9.23222C44.4663 9.35916 44.1845 9.58764 44.0519 9.73995C43.911 9.90073 43.6955 10.1969 43.5795 10.4085C43.4552 10.62 43.2728 11.077 43.1651 11.4239C42.9993 11.9909 42.9745 12.2194 42.9745 13.5395C42.9827 14.9273 42.9993 15.0627 43.2065 15.655C43.3308 16.002 43.5712 16.4928 43.737 16.7466C43.911 16.992 44.1845 17.2967 44.342 17.4151C44.4995 17.5336 44.7979 17.7113 45.0051 17.8044C45.2952 17.9398 45.5438 17.9736 46.1654 17.9736C46.7953 17.9736 47.0523 17.9313 47.4501 17.7705C47.7733 17.6352 48.0966 17.4151 48.3701 17.1359C48.6022 16.9074 48.884 16.5012 49 16.2474C49.1243 15.9935 49.2818 15.5365 49.3564 15.2319C49.431 14.9273 49.5139 14.3011 49.5387 13.8356C49.5636 13.2771 49.5387 12.7609 49.4559 12.3125C49.3895 11.9401 49.2569 11.4239 49.1575 11.1701C49.0663 10.9162 48.8508 10.4931 48.6768 10.2392C48.5027 9.98536 48.1795 9.63841 47.9474 9.4607C47.7236 9.283 47.3672 9.0799 47.16 9.01221C46.9528 8.94451 46.5633 8.86835 46.2897 8.84296C46.0079 8.81758 45.6267 8.85143 45.4195 8.91066C45.2123 8.9699 44.8807 9.11375 44.6735 9.23222ZM62.4104 5.13654C62.7999 5.16192 63.3221 5.23808 63.5707 5.29732C63.8193 5.36501 64.2503 5.52579 64.5238 5.66119C64.7974 5.79658 65.2366 6.10968 65.5101 6.36355C65.7754 6.60895 66.1318 7.04052 66.5959 7.81904L66.6373 5.50041H70.6157V13.7341C70.6157 20.4192 70.5908 22.1116 70.4997 22.7632C70.4333 23.2033 70.2924 23.8125 70.1847 24.1172C70.077 24.4218 69.8615 24.8872 69.704 25.158C69.5465 25.4373 69.1735 25.8942 68.8752 26.1735C68.5768 26.4612 68.0712 26.8335 67.7563 27.0028C67.433 27.172 66.9357 27.392 66.6373 27.4936C66.339 27.5867 65.8417 27.7305 65.5184 27.7982C65.1455 27.8913 64.3415 27.9505 63.2806 27.9844C61.9876 28.0182 61.4572 28.0013 60.877 27.8913C60.4626 27.8236 59.8907 27.6797 59.5924 27.5867C59.294 27.4851 58.7801 27.2651 58.4403 27.0959C58.0673 26.9012 57.5949 26.5627 57.2385 26.2243C56.8821 25.8858 56.5423 25.4711 56.3848 25.1665C56.2439 24.8957 56.0616 24.4387 55.9953 24.1595C55.9207 23.8802 55.8627 23.5502 55.8627 23.1863H60.3797L60.4875 23.5248C60.5372 23.711 60.7113 23.9902 60.8605 24.1426C61.0179 24.3033 61.3246 24.481 61.623 24.5826C62.0125 24.718 62.344 24.7518 63.1563 24.7434C64.0348 24.7434 64.2669 24.7095 64.6896 24.5487C65.0129 24.4134 65.3195 24.2103 65.5682 23.9564C65.8002 23.711 66.0074 23.381 66.1235 23.0763C66.2229 22.814 66.339 22.2386 66.3887 21.807C66.4301 21.3839 66.4716 20.6308 66.4716 19.2514L66.2561 19.5899C66.1318 19.7761 65.8665 20.1146 65.651 20.3346C65.4438 20.5546 65.104 20.8508 64.8968 20.9862C64.6896 21.1131 64.2421 21.3162 63.9022 21.4177C63.3801 21.5785 63.1066 21.6124 62.2031 21.6039C61.3909 21.5954 60.9599 21.5531 60.4626 21.4177C60.0979 21.3247 59.5012 21.0962 59.1365 20.91C58.6972 20.69 58.2662 20.3854 57.8601 19.9961C57.5286 19.683 57.0727 19.1499 56.8655 18.8283C56.65 18.4983 56.3517 17.9229 56.2108 17.5336C56.0616 17.1528 55.8709 16.5266 55.7715 16.1374C55.6389 15.6127 55.5891 15.0627 55.556 13.878C55.5228 12.854 55.5477 12.0501 55.614 11.5509C55.672 11.1362 55.8046 10.4762 55.9124 10.0869C56.0201 9.70611 56.2439 9.11375 56.4097 8.77527C56.5754 8.44524 56.8655 7.93751 57.0644 7.65826C57.2551 7.37901 57.6529 6.93051 57.943 6.65973C58.2331 6.38894 58.7552 6.02506 59.0951 5.84736C59.4349 5.66119 59.9239 5.4581 60.1725 5.38194C60.4212 5.30578 60.8687 5.21269 61.1671 5.17038C61.4655 5.12807 62.0208 5.11115 62.4104 5.13654ZM61.6893 9.17299C61.4655 9.283 61.1257 9.56225 60.9185 9.78226C60.7196 10.0107 60.4543 10.4254 60.33 10.7046C60.2057 10.9839 60.0482 11.5085 59.9736 11.864C59.8907 12.2617 59.841 12.9471 59.841 13.5564C59.841 14.3349 59.8824 14.7665 60.0068 15.2742C60.1062 15.6465 60.2803 16.1374 60.4046 16.3658C60.5289 16.5943 60.761 16.9328 60.9185 17.1105C61.0759 17.2967 61.4323 17.559 61.7058 17.6944C62.0457 17.8636 62.3855 17.9567 62.7833 17.9906C63.1894 18.0329 63.521 18.0075 63.9022 17.9059C64.2006 17.8298 64.6399 17.6352 64.8802 17.4744C65.1123 17.3136 65.4438 17.0005 65.593 16.772C65.7505 16.552 65.9577 16.1627 66.0572 15.9089C66.1566 15.655 66.2892 15.1219 66.3555 14.7242C66.4219 14.3264 66.4716 13.7595 66.4716 13.4548C66.4716 13.1502 66.4136 12.6171 66.3555 12.2701C66.2892 11.9232 66.1649 11.4239 66.0655 11.1701C65.9743 10.9162 65.7588 10.4931 65.5847 10.2392C65.4107 9.98536 65.0957 9.64687 64.8802 9.47763C64.673 9.31685 64.3166 9.11375 64.0929 9.03759C63.8774 8.95297 63.4712 8.86835 63.1977 8.84296C62.9242 8.82604 62.5595 8.84296 62.3938 8.88527C62.2197 8.93605 61.9048 9.06298 61.6893 9.17299ZM96.9723 5.08576C97.0386 5.08576 97.3038 5.10269 98 5.18731L97.9668 9.47763H96.9723C96.4252 9.47763 95.7788 9.51994 95.5467 9.57071C95.3063 9.62148 94.9085 9.76534 94.6598 9.89227C94.4195 10.0107 94.0548 10.29 93.8559 10.51C93.657 10.7385 93.4249 11.077 93.3337 11.2716C93.2508 11.4747 93.1348 11.864 93.0851 12.1432C93.0271 12.4817 92.9939 14.1657 92.9939 21.5785H88.7669V5.50041H92.8281V8.16599L93.2094 7.53133C93.4166 7.18438 93.7316 6.72742 93.8973 6.51587C94.0714 6.30431 94.4112 5.99968 94.6598 5.83043C94.9085 5.66119 95.2732 5.4581 95.4804 5.38194C95.6876 5.29732 96.0771 5.20423 96.3506 5.17038C96.6242 5.12807 96.906 5.09422 96.9723 5.08576ZM79.6499 5.09422C79.8073 5.08576 80.2549 5.11115 80.6444 5.15346C81.034 5.19577 81.6059 5.29732 81.9291 5.37348C82.2524 5.4581 82.8077 5.66119 83.1724 5.83889C83.537 6.00814 84.0675 6.3297 84.3576 6.54972C84.6394 6.76127 85.0787 7.19284 85.3273 7.50594C85.5842 7.8275 85.9572 8.41986 86.1561 8.84296C86.355 9.25761 86.6037 9.89227 86.6949 10.2392C86.786 10.5862 86.9186 11.2378 86.9849 11.6778C87.0512 12.1178 87.1093 12.9894 87.1093 14.7242H76.4589L76.5252 15.2573C76.5583 15.545 76.6412 15.9681 76.7158 16.205C76.7904 16.4335 76.9313 16.7805 77.0391 16.9666C77.1385 17.1528 77.3955 17.4659 77.611 17.6605C77.8182 17.8636 78.1497 18.0921 78.3486 18.1852C78.5392 18.2698 78.9205 18.3883 79.194 18.4391C79.4675 18.4898 79.8571 18.5321 80.0643 18.5321C80.2715 18.5321 80.6776 18.4644 80.976 18.3714C81.2744 18.2783 81.6888 18.0667 81.9125 17.9059C82.1695 17.7029 82.3601 17.4659 82.6751 16.7636L84.8134 16.7551C86.786 16.7551 86.9435 16.7636 86.9435 16.8989C86.9435 16.9836 86.8192 17.3559 86.67 17.7282C86.5208 18.1006 86.2556 18.6337 86.0732 18.9129C85.8992 19.1922 85.5014 19.6661 85.203 19.9707C84.9046 20.2754 84.4073 20.69 84.0841 20.8762C83.7608 21.0708 83.2635 21.3247 82.9651 21.4431C82.6668 21.5531 82.128 21.7139 81.7634 21.7901C81.3241 21.8916 80.7273 21.9339 79.9814 21.9339C79.3349 21.9339 78.5475 21.8832 78.1165 21.807C77.7021 21.7308 77.0888 21.5701 76.749 21.4431C76.4092 21.3247 75.9202 21.1046 75.6715 20.9608C75.4229 20.8085 75.0002 20.5123 74.7432 20.2923C74.478 20.0638 74.0885 19.6492 73.8813 19.353C73.6658 19.0653 73.3508 18.5237 73.1768 18.1513C73.0027 17.779 72.7623 17.1105 72.6546 16.6705C72.5386 16.2304 72.406 15.545 72.3562 15.1473C72.3148 14.7496 72.2733 13.9287 72.2733 13.3279C72.2733 12.7102 72.3314 11.8978 72.3977 11.4662C72.4723 11.0431 72.6463 10.3577 72.7789 9.94305C72.9198 9.51994 73.1602 8.93605 73.3259 8.63141C73.4834 8.32677 73.8149 7.83597 74.047 7.53133C74.2874 7.22669 74.7184 6.79512 75.0167 6.56664C75.3068 6.34662 75.7627 6.05045 76.0279 5.91505C76.2848 5.77966 76.8236 5.57657 77.2297 5.4581C77.6275 5.33963 78.2657 5.20423 78.6553 5.17038C79.0448 5.12807 79.4924 5.09422 79.6499 5.09422ZM77.9591 9.16453C77.7104 9.33377 77.4286 9.62995 77.2297 9.94305C77.0556 10.2223 76.8484 10.6369 76.7821 10.8739C76.7158 11.1024 76.6329 11.4408 76.5998 11.6186L76.5418 11.9317H82.7994C82.7994 11.6355 82.7497 11.3562 82.6833 11.1277C82.6253 10.8908 82.4762 10.51 82.3601 10.2815C82.2441 10.0446 81.9871 9.69764 81.7882 9.50301C81.5976 9.30838 81.208 9.04606 80.9345 8.91912C80.5947 8.7668 80.2549 8.68218 79.8571 8.66526C79.4924 8.63987 79.1028 8.68218 78.821 8.7668C78.5724 8.8345 78.1828 9.01221 77.9591 9.16453ZM22.7015 5.50041H26.8539L26.8787 10.8908C26.8953 15.6635 26.9119 16.3404 27.0362 16.7128C27.1108 16.9413 27.318 17.3051 27.5003 17.5167C27.691 17.7452 27.9976 17.9821 28.2711 18.109C28.6441 18.2783 28.843 18.3121 29.4646 18.3121C30.02 18.3121 30.3266 18.2614 30.6664 18.126C30.9151 18.0329 31.3212 17.7705 31.5699 17.5421C31.8517 17.2882 32.1003 16.9497 32.2495 16.6282C32.3821 16.3489 32.523 15.8496 32.5727 15.5281C32.6142 15.1981 32.6556 12.871 32.6556 5.50041H36.7997V21.5785H32.8214L32.8297 19.3361L32.465 19.8438C32.2661 20.123 31.9263 20.5123 31.6942 20.7069C31.4704 20.91 31.0809 21.1808 30.8322 21.3162C30.5836 21.4601 30.078 21.6547 29.7133 21.7478C29.2077 21.8916 28.8099 21.9339 28.0142 21.9339C27.2185 21.9339 26.8207 21.8916 26.3151 21.7478C25.9504 21.6547 25.4283 21.4516 25.1631 21.2993C24.8895 21.147 24.4503 20.8 24.1768 20.5208C23.8452 20.1738 23.58 19.793 23.3645 19.3361C23.1905 18.9637 22.975 18.4306 22.9004 18.1513C22.7678 17.6944 22.7512 17.0259 22.7263 11.5678L22.7015 5.50041Z" fill="#172B60"/>
</svg>
