<svg width="73" height="70" viewBox="0 0 73 70" fill="none" xmlns="http://www.w3.org/2000/svg">
<path d="M36.5709 0L21.5898 24.7825H51.5508L36.5709 0Z" fill="#CC1334"/>
<path d="M43.963 22.4489H47.0089L39.4755 9.95794C39.4567 9.92282 39.429 9.89348 39.3951 9.87304C39.3613 9.85259 39.3226 9.8418 39.2833 9.8418C39.2439 9.8418 39.2052 9.85259 39.1714 9.87304C39.1375 9.89348 39.1098 9.92282 39.091 9.95794L37.115 13.2254L38.6551 15.7644L39.091 15.0383C39.1097 15.0041 39.1368 14.9755 39.1697 14.9551C39.2026 14.9348 39.2402 14.9235 39.2787 14.9223C39.317 14.9228 39.3546 14.9331 39.3879 14.9521C39.4213 14.9712 39.4495 14.9984 39.4698 15.0313L43.963 22.4489Z" fill="#FEFEFD"/>
<path d="M33.9096 14.9001C33.938 14.9005 33.9661 14.9065 33.9922 14.9178C34.0183 14.9292 34.042 14.9456 34.0618 14.9662L34.0996 15.0103L37.8514 21.2262C37.8731 21.2608 37.8839 21.3013 37.8823 21.3422C37.8824 21.3714 37.8769 21.4002 37.866 21.4272C37.855 21.4541 37.8389 21.4786 37.8186 21.4992C37.7983 21.5198 37.7741 21.5361 37.7476 21.5472C37.721 21.5583 37.6925 21.5639 37.6637 21.5638H35.5584C35.5296 21.5641 35.501 21.5586 35.4743 21.5476C35.4475 21.5365 35.4232 21.5203 35.4028 21.4996C35.3824 21.479 35.3662 21.4545 35.3552 21.4275C35.3442 21.4004 35.3386 21.3715 35.3387 21.3422C35.3375 21.3012 35.3487 21.2607 35.3708 21.2262L36.0962 20.0373L34.5447 17.4728L31.7333 22.1124C31.7181 22.1471 31.7077 22.1838 31.7025 22.2214C31.7044 22.2802 31.7284 22.3359 31.7693 22.3775C31.8103 22.419 31.8653 22.4433 31.9233 22.4453H41.2874C41.3255 22.4451 41.3628 22.4349 41.3958 22.4157C41.4288 22.3965 41.4564 22.3691 41.4758 22.3359C41.4953 22.3028 41.506 22.2651 41.5068 22.2266C41.5077 22.188 41.4987 22.1499 41.4808 22.1159L34.0881 9.95779C34.0684 9.92323 34.0403 9.8944 34.0064 9.87408C33.9726 9.85377 33.9341 9.84265 33.8947 9.8418C33.8553 9.84153 33.8166 9.8522 33.7827 9.87264C33.7488 9.89309 33.7211 9.92253 33.7025 9.95779L26.1348 22.4476H29.2241L33.7208 15.008C33.7396 14.9742 33.7671 14.9463 33.8004 14.9271C33.8336 14.9079 33.8714 14.8982 33.9096 14.899" fill="#FEFEFD"/>
<path d="M0 29.7744C0.74602 29.6213 2.23691 29.4902 3.67174 29.4902C5.40635 29.4902 6.46703 29.6584 7.37896 30.2082C7.83548 30.4426 8.21767 30.8025 8.48175 31.2468C8.74583 31.6912 8.88113 32.2019 8.87214 32.7206C8.87214 33.8329 8.21995 34.8745 6.82288 35.4231V35.4591C8.25542 35.8372 9.32067 36.953 9.32067 38.5908C9.32674 39.1147 9.21123 39.6326 8.98345 40.1029C8.75568 40.5732 8.42202 40.9826 8.00941 41.298C7.09405 42.0334 5.56883 42.4498 3.07104 42.4498C2.04427 42.4592 1.0181 42.396 0 42.2608V29.7744ZM2.81588 34.6274H3.74726C5.25646 34.6274 6.03566 34.0046 6.03566 33.0604C6.03566 32.0954 5.30795 31.5885 4.02416 31.5885C3.38913 31.5885 3.03671 31.6245 2.81245 31.6813L2.81588 34.6274ZM2.81588 40.2762C3.17952 40.3293 3.54723 40.3484 3.91432 40.333C5.19811 40.333 6.33544 39.8226 6.33544 38.4772C6.33544 37.1931 5.19811 36.6828 3.78502 36.6828H2.81588V40.2762Z" fill="#18203A"/>
<path d="M13.1035 38.5972C13.1961 39.807 14.3518 40.3742 15.6768 40.3742C16.5321 40.3873 17.3833 40.2528 18.194 39.9764L18.567 41.9215C17.6345 42.3194 16.4995 42.5084 15.2683 42.5084C12.179 42.5084 10.4043 40.6943 10.4043 37.7853C10.4043 35.44 11.8574 32.8511 15.0074 32.8511C17.9515 32.8511 19.0705 35.1767 19.0705 37.464C19.0695 37.8499 19.0381 38.235 18.9767 38.6158L13.1035 38.5972ZM16.4377 36.6358C16.4377 35.9538 16.1402 34.7661 14.8541 34.7661C13.6424 34.7661 13.1584 35.8819 13.0829 36.6358H16.4377Z" fill="#18203A"/>
<path d="M20.3896 36.0265C20.3896 34.8747 20.353 33.9097 20.3164 33.078H22.7707L22.9034 34.3644H22.9572C23.3325 33.7601 24.2433 32.8716 25.772 32.8716C27.6359 32.8716 29.0341 34.137 29.0341 36.8582V42.319H26.2033V37.198C26.2033 36.008 25.7914 35.1949 24.7662 35.1949C23.9836 35.1949 23.519 35.7435 23.3131 36.2713C23.2417 36.5034 23.2103 36.7463 23.2204 36.9892V42.3248H20.3896V36.0265Z" fill="#18203A"/>
<path d="M28.7029 44.1145C29.4283 44.0553 30.0244 43.8825 30.378 43.5067C30.7899 43.0752 30.9387 42.3375 30.9387 40.5037V33.0803H33.7717V41.2066C33.7717 43.2074 33.3438 44.4358 32.4856 45.2291C31.6458 46.004 30.3242 46.3635 28.9821 46.3635L28.7029 44.1145ZM32.3186 31.8682C31.3677 31.8682 30.7521 31.1908 30.7521 30.3406C30.7521 29.4707 31.3849 28.8096 32.354 28.8096C33.3232 28.8096 33.9159 29.4707 33.9365 30.3406C33.9365 31.1908 33.322 31.8682 32.3346 31.8682H32.3186Z" fill="#18203A"/>
<path d="M43.1998 40.0881C43.1998 40.958 43.2352 41.8059 43.3508 42.3186H40.7947L40.6276 41.3906H40.5727C39.9754 42.1283 39.044 42.5239 37.9639 42.5239C36.1183 42.5239 35.0176 41.1633 35.0176 39.6891C35.0176 37.2915 37.1435 36.1572 40.3667 36.1572V36.0412C40.3667 35.5505 40.1047 34.8511 38.7088 34.8511C37.8271 34.8635 36.9621 35.0974 36.1915 35.532L35.6698 33.6993C36.3037 33.3386 37.5543 32.8677 39.2168 32.8677C42.2547 32.8677 43.2043 34.6818 43.2043 36.8543L43.1998 40.0881ZM40.4594 37.9538C38.9719 37.9538 37.8129 38.3111 37.8129 39.4084C37.8129 40.1461 38.298 40.5033 38.933 40.5033C39.2559 40.5025 39.5705 40.4005 39.8339 40.2113C40.0974 40.0222 40.2966 39.7551 40.4045 39.4466C40.4423 39.2852 40.4607 39.1196 40.4594 38.9537V37.9538Z" fill="#18203A"/>
<path d="M44.7115 36.0266C44.7115 34.8748 44.6703 33.9098 44.6348 33.0781H47.0377L47.1521 34.3459H47.2081C47.6006 33.7393 48.421 32.8717 49.968 32.8717C51.1591 32.8717 52.071 33.4945 52.4635 34.4596H52.5012C52.8161 34.0016 53.2218 33.6152 53.6923 33.3252C54.2217 33.0235 54.8196 32.8672 55.4269 32.8717C57.1787 32.8717 58.5003 34.1174 58.5003 36.8768V42.3191H55.7439V37.3106C55.7439 35.9709 55.316 35.195 54.3994 35.195C53.7312 35.195 53.2827 35.6508 53.079 36.1971C53.0189 36.4316 52.9878 36.6728 52.9864 36.9151V42.3191H50.23V37.1424C50.23 35.9883 49.8215 35.195 48.9096 35.195C48.1819 35.195 47.7516 35.7633 47.5846 36.2157C47.4999 36.4518 47.4611 36.7023 47.4702 36.9534V42.3191H44.7115V36.0266Z" fill="#18203A"/>
<path d="M61.3894 31.8682C60.4397 31.8682 59.8241 31.1908 59.8241 30.3406C59.8241 29.4707 60.4557 28.8096 61.426 28.8096C62.3963 28.8096 62.9901 29.4707 63.0084 30.3406C63.0084 31.1908 62.394 31.8682 61.4065 31.8682H61.3894ZM59.9923 33.078H62.8231V42.3189H59.9923V33.078Z" fill="#18203A"/>
<path d="M64.3525 36.0265C64.3525 34.8747 64.3148 33.9097 64.2793 33.078H66.7393L66.8686 34.3644H66.9258C67.2988 33.7601 68.2108 32.8716 69.7394 32.8716C71.6022 32.8716 73.0004 34.137 73.0004 36.8582V42.319H70.1674V37.198C70.1674 36.008 69.7589 35.1949 68.7314 35.1949C67.951 35.1949 67.4853 35.7435 67.2782 36.2713C67.2069 36.5034 67.1755 36.7463 67.1856 36.9892V42.3248H64.3525V36.0265Z" fill="#18203A"/>
<path d="M22.1409 52.9521C22.0837 51.4222 22.0265 49.5884 22.0265 47.7209H21.991C21.5802 49.3448 21.0596 51.1577 20.5756 52.6505L19.047 57.6172H16.8295L15.4874 52.7073C15.0777 51.1995 14.667 49.3993 14.3512 47.7198H14.3146C14.2585 49.4364 14.183 51.4025 14.1075 52.9892L13.866 57.8272H11.2344L12.0353 45.0938H15.8112L17.0435 49.3622C17.452 50.8167 17.825 52.4046 18.1042 53.8962H18.1923C18.5275 52.422 18.9554 50.7645 19.3857 49.3228L20.7095 45.0949H24.4362L25.1067 57.8283H22.348L22.1409 52.9521Z" fill="#18203A"/>
<path d="M30.7328 58.0343C28.068 58.0343 26.0176 56.2585 26.0176 53.2787C26.0176 50.2989 27.9547 48.3862 30.901 48.3862C33.6757 48.3862 35.5431 50.3314 35.5431 53.1267C35.5431 56.4905 33.1746 58.0389 30.7523 58.0389L30.7328 58.0343ZM30.79 55.9743C31.9091 55.9743 32.5979 54.8596 32.5979 53.1975C32.5979 51.8381 32.0773 50.4393 30.79 50.4393C29.4479 50.4393 28.9239 51.8381 28.9239 53.223C28.9239 54.79 29.576 55.9801 30.7706 55.9801L30.79 55.9743Z" fill="#18203A"/>
<path d="M41.5051 58.0343C38.8414 58.0343 36.791 56.2585 36.791 53.2787C36.791 50.2989 38.7282 48.3862 41.6722 48.3862C44.448 48.3862 46.3131 50.3314 46.3131 53.1267C46.3131 56.4905 43.9457 58.0389 41.5234 58.0389L41.5051 58.0343ZM41.5589 55.9743C42.6791 55.9743 43.369 54.8596 43.369 53.1975C43.369 51.8381 42.8484 50.4393 41.5589 50.4393C40.219 50.4393 39.6973 51.8381 39.6973 53.223C39.6973 54.79 40.3495 55.9801 41.5429 55.9801L41.5589 55.9743Z" fill="#18203A"/>
<path d="M47.3392 51.6296C47.3392 50.269 47.3209 49.3805 47.2637 48.5872H49.6894L49.8038 50.3085H49.877C50.3439 48.9467 51.4434 48.3819 52.3359 48.3819C52.5365 48.3778 52.7369 48.3969 52.9332 48.4387V51.1343C52.6749 51.0866 52.4131 51.0613 52.1506 51.0589C51.107 51.0589 50.3976 51.6076 50.2134 52.5134C50.1738 52.7257 50.1543 52.9412 50.1551 53.1572V57.8235H47.3209L47.3392 51.6296Z" fill="#18203A"/>
<path d="M56.0968 54.1061C56.1895 55.3136 57.3463 55.8808 58.6678 55.8808C59.523 55.8946 60.3743 55.7604 61.1851 55.4841L61.5581 57.4304C60.629 57.8283 59.4882 58.0173 58.2593 58.0173C55.17 58.0173 53.3965 56.2032 53.3965 53.2919C53.3965 50.9489 54.8496 48.3623 57.9996 48.3623C60.9436 48.3623 62.0615 50.6821 62.0615 52.9706C62.0609 53.3568 62.0299 53.7423 61.9688 54.1235L56.0968 54.1061ZM59.4333 52.1343C59.4333 51.4558 59.1347 50.2634 57.8497 50.2634C56.638 50.2634 56.1517 51.3792 56.0773 52.1343H59.4333Z" fill="#18203A"/>
<path d="M21.9884 60.7279C22.7176 60.5962 23.4573 60.5337 24.1979 60.5411C25.334 60.5411 26.167 60.8091 26.6968 61.2927C27.1877 61.7219 27.4909 62.3796 27.4909 63.1811C27.4909 63.9825 27.2529 64.6414 26.7895 65.1111C26.1808 65.7665 25.1876 66.1028 24.0663 66.1028C23.7549 66.1138 23.4434 66.0869 23.1383 66.0228V69.644H21.9884V60.7279ZM23.1383 65.0729C23.451 65.1413 23.7705 65.1721 24.0903 65.1645C25.4942 65.1645 26.3261 64.4685 26.3261 63.2483C26.3261 62.0281 25.4942 61.4656 24.223 61.4656C23.8592 61.4615 23.4959 61.4937 23.1383 61.5618V65.0729Z" fill="#18203A"/>
<path d="M32.8849 68.0888C32.8785 68.6089 32.9094 69.1287 32.9775 69.6442H31.934L31.8265 68.8242H31.7864C31.4432 69.3346 30.7418 69.7915 29.8321 69.7915C28.5346 69.7915 27.8733 68.8636 27.8733 67.9276C27.8733 66.3594 29.2463 65.5011 31.7201 65.5127V65.3816C31.7201 64.8446 31.5759 63.8656 30.2669 63.8737C29.6731 63.8673 29.0901 64.0353 28.5884 64.3574L28.3218 63.5652C28.9652 63.1894 29.6961 62.9952 30.4386 63.0026C32.41 63.0026 32.8849 64.3574 32.8849 65.6577V68.0888ZM31.751 66.3292C30.4786 66.3026 29.0369 66.5322 29.0369 67.7907C29.0369 68.5667 29.5381 68.917 30.1205 68.917C30.4617 68.9281 30.7976 68.8296 31.0803 68.6357C31.3631 68.4418 31.5781 68.1623 31.6949 67.8371C31.7314 67.7149 31.7499 67.5879 31.7498 67.4601L31.751 66.3292Z" fill="#18203A"/>
<path d="M34.7765 61.9609C34.6298 61.957 34.4875 61.9094 34.3673 61.8241C34.2471 61.7387 34.1544 61.6194 34.1007 61.481C34.047 61.3425 34.0347 61.1911 34.0653 61.0457C34.0959 60.9002 34.1681 60.7671 34.2729 60.6629C34.3776 60.5588 34.5103 60.4882 34.6544 60.46C34.7985 60.4318 34.9476 60.4473 35.0831 60.5044C35.2185 60.5616 35.3344 60.6579 35.4162 60.7814C35.4981 60.9049 35.5422 61.0501 35.5431 61.1988C35.5463 61.3001 35.529 61.4009 35.4921 61.495C35.4553 61.5892 35.3997 61.6747 35.3289 61.7461C35.258 61.8176 35.1735 61.8735 35.0804 61.9105C34.9874 61.9474 34.8878 61.9646 34.788 61.9609H34.7765ZM34.2204 63.1544H35.3852V69.6499H34.2204V63.1544Z" fill="#18203A"/>
<path d="M36.7853 64.91C36.7853 64.2257 36.7715 63.6909 36.7303 63.1539H37.7601L37.8253 64.2129H37.8517C38.0647 63.8373 38.3738 63.527 38.7464 63.3146C39.119 63.1023 39.5412 62.9959 39.9684 63.0066C40.8552 63.0066 42.2294 63.5448 42.2294 65.766V69.6436H41.068V65.904C41.068 64.8601 40.687 63.9728 39.5874 63.9728C38.8357 63.9728 38.2407 64.5226 38.029 65.1802C37.9728 65.3578 37.9461 65.5436 37.9501 65.73V69.6436H36.7853V64.91Z" fill="#18203A"/>
<path d="M44.9443 61.6001V63.1544H46.6079V64.0533H44.9443V67.5516C44.9443 68.3565 45.1662 68.8124 45.815 68.8124C46.0428 68.821 46.2704 68.794 46.4901 68.7323L46.5404 69.6301C46.2084 69.7414 45.8604 69.7959 45.5107 69.7913C44.966 69.7913 44.5289 69.6011 44.252 69.2937C43.9351 68.9307 43.8035 68.3565 43.8035 67.5933V64.0533H42.8126V63.1544H43.8035V61.9608L44.9443 61.6001Z" fill="#18203A"/>
<path d="M47.4945 68.4496C47.9644 68.7305 48.4962 68.8876 49.0415 68.9066C49.8744 68.9066 50.2703 68.4913 50.2703 67.9416C50.2703 67.3918 49.9408 67.0705 49.0941 66.7468C47.9316 66.3188 47.3892 65.689 47.3892 64.9107C47.3892 63.8668 48.2348 63.0073 49.5953 63.0073C50.244 63.0073 50.8138 63.1813 51.1582 63.4098L50.8791 64.2554C50.4828 64.0149 50.0307 63.8852 49.5689 63.8796C48.8824 63.8796 48.5117 64.2832 48.5117 64.7646C48.5117 65.3144 48.8836 65.5545 49.7165 65.8781C50.8138 66.2922 51.3939 66.8559 51.3939 67.8348C51.3939 68.9866 50.5106 69.7916 49.0151 69.7916C48.3875 69.7987 47.7687 69.6413 47.2188 69.3346L47.4945 68.4496Z" fill="#18203A"/>
<path d="M63.4564 48.8223C63.6537 48.8207 63.8471 48.8786 64.0119 48.9886C64.1767 49.0986 64.3055 49.2557 64.382 49.4401C64.4585 49.6245 64.4793 49.8278 64.4416 50.0241C64.4039 50.2205 64.3095 50.401 64.1704 50.5429C64.0312 50.6847 63.8537 50.7815 63.6602 50.8208C63.4667 50.8601 63.2661 50.8403 63.0838 50.7638C62.9015 50.6873 62.7457 50.5576 62.6362 50.3912C62.5267 50.2248 62.4685 50.0291 62.469 49.8291C62.467 49.6968 62.4911 49.5655 62.54 49.4428C62.5888 49.3201 62.6614 49.2086 62.7534 49.1148C62.8454 49.0209 62.955 48.9467 63.0758 48.8965C63.1965 48.8463 63.3259 48.8211 63.4564 48.8223ZM63.4564 48.9789C63.241 48.9903 63.0381 49.0851 62.8895 49.2437C62.741 49.4023 62.6582 49.6127 62.6582 49.8314C62.6582 50.0501 62.741 50.2605 62.8895 50.4191C63.0381 50.5778 63.241 50.6726 63.4564 50.684C63.6719 50.6726 63.8748 50.5778 64.0233 50.4191C64.1719 50.2605 64.2547 50.0501 64.2547 49.8314C64.2547 49.6127 64.1719 49.4023 64.0233 49.2437C63.8748 49.0851 63.6719 48.9903 63.4564 48.9789ZM63.2688 50.416H63.0926V49.2921C63.1963 49.275 63.3011 49.2661 63.4061 49.2654C63.5266 49.2559 63.647 49.286 63.7493 49.3512C63.7842 49.3781 63.8117 49.4135 63.8295 49.454C63.8473 49.4946 63.8548 49.539 63.8512 49.5832C63.851 49.6467 63.8295 49.7082 63.7902 49.7575C63.7509 49.8069 63.6961 49.8411 63.6349 49.8546V49.8639C63.7333 49.8813 63.7986 49.9695 63.8191 50.1353C63.8297 50.2315 63.854 50.3257 63.8912 50.4149H63.7047C63.6647 50.3234 63.64 50.2258 63.6315 50.126C63.6298 50.0968 63.622 50.0682 63.6088 50.0422C63.5955 50.0162 63.577 49.9933 63.5545 49.9749C63.532 49.9565 63.5059 49.9432 63.478 49.9356C63.4501 49.9281 63.4209 49.9266 63.3924 49.9312H63.2676L63.2688 50.416ZM63.2688 49.7931H63.3981C63.5423 49.7931 63.6658 49.7409 63.6658 49.6018C63.6658 49.5032 63.5937 49.4034 63.3981 49.4034C63.3547 49.4031 63.3114 49.407 63.2688 49.415V49.7931Z" fill="#18203A"/>
</svg>
