<svg width="80" height="80" viewBox="0 0 80 80" fill="none" xmlns="http://www.w3.org/2000/svg">
<path d="M36.0778 19.2469C36.9482 14.9755 43.0518 14.9755 43.9222 19.2469C44.5188 22.1745 47.9964 23.4402 50.3353 21.581C53.7477 18.8685 58.4232 22.7918 56.3444 26.6233C54.9196 29.2495 56.77 32.4545 59.7567 32.5336C64.1144 32.6491 65.1743 38.66 61.1189 40.2589C58.3394 41.3548 57.6967 44.9993 59.9338 46.9798C63.1978 49.8693 60.146 55.1552 56.0116 53.7733C53.1779 52.8262 50.343 55.2049 50.7837 58.1601C51.4266 62.4716 45.6912 64.5591 43.4123 60.843C41.8504 58.296 38.1496 58.296 36.5877 60.843C34.3088 64.5591 28.5734 62.4716 29.2163 58.1601C29.657 55.205 26.8221 52.8262 23.9884 53.7733C19.854 55.1552 16.8022 49.8693 20.0662 46.9798C22.3033 44.9993 21.6606 41.3548 18.8811 40.2589C14.8257 38.66 15.8856 32.6491 20.2432 32.5336C23.23 32.4545 25.0804 29.2495 23.6556 26.6233C21.5768 22.7918 26.2523 18.8685 29.6647 21.581C32.0036 23.4402 35.4812 22.1745 36.0778 19.2469Z" fill="#E50E78"/>
<path d="M40.1406 44.2727V43.5057C40.1406 42.9233 40.2637 42.3883 40.5099 41.9006C40.7609 41.4081 41.1231 41.0152 41.5966 40.7216C42.0748 40.4233 42.6572 40.2741 43.3438 40.2741C44.0398 40.2741 44.6245 40.4209 45.098 40.7145C45.5762 41.008 45.9361 41.401 46.1776 41.8935C46.4238 42.3812 46.5469 42.9186 46.5469 43.5057V44.2727C46.5469 44.8551 46.4238 45.3925 46.1776 45.8849C45.9313 46.3726 45.5691 46.7633 45.0909 47.0568C44.6127 47.3551 44.0303 47.5043 43.3438 47.5043C42.6477 47.5043 42.063 47.3551 41.5895 47.0568C41.116 46.7633 40.7562 46.3726 40.5099 45.8849C40.2637 45.3925 40.1406 44.8551 40.1406 44.2727ZM42.2074 43.5057V44.2727C42.2074 44.6089 42.2879 44.9261 42.4489 45.2244C42.6146 45.5227 42.9129 45.6719 43.3438 45.6719C43.7746 45.6719 44.0682 45.5251 44.2244 45.2315C44.3854 44.938 44.4659 44.6184 44.4659 44.2727V43.5057C44.4659 43.16 44.3902 42.8381 44.2386 42.5398C44.0871 42.2415 43.7888 42.0923 43.3438 42.0923C42.9176 42.0923 42.6217 42.2415 42.456 42.5398C42.2902 42.8381 42.2074 43.16 42.2074 43.5057ZM32.6761 35.9489V35.1818C32.6761 34.5947 32.8016 34.0573 33.0526 33.5696C33.3035 33.0772 33.6657 32.6842 34.1392 32.3906C34.6174 32.0971 35.1951 31.9503 35.8722 31.9503C36.5729 31.9503 37.16 32.0971 37.6335 32.3906C38.107 32.6842 38.4669 33.0772 38.7131 33.5696C38.9593 34.0573 39.0824 34.5947 39.0824 35.1818V35.9489C39.0824 36.536 38.9569 37.0734 38.706 37.5611C38.4598 38.0488 38.0975 38.4394 37.6193 38.733C37.1458 39.0218 36.5634 39.1662 35.8722 39.1662C35.1809 39.1662 34.5961 39.0194 34.1179 38.7259C33.6444 38.4276 33.2846 38.0369 33.0384 37.554C32.7969 37.0663 32.6761 36.5312 32.6761 35.9489ZM34.7571 35.1818V35.9489C34.7571 36.2945 34.8376 36.6141 34.9986 36.9077C35.1643 37.2012 35.4555 37.348 35.8722 37.348C36.3078 37.348 36.6037 37.2012 36.7599 36.9077C36.9209 36.6141 37.0014 36.2945 37.0014 35.9489V35.1818C37.0014 34.8362 36.9257 34.5142 36.7741 34.2159C36.6226 33.9176 36.322 33.7685 35.8722 33.7685C35.4508 33.7685 35.1596 33.92 34.9986 34.223C34.8376 34.526 34.7571 34.8456 34.7571 35.1818ZM33.6136 47L43.6136 32.4545H45.4744L35.4744 47H33.6136Z" fill="white"/>
</svg>
