<svg width="25" height="24" viewBox="0 0 25 24" fill="none" xmlns="http://www.w3.org/2000/svg">
<path d="M7.05929 5.27039L7.19478 5.55625H7.51111H21.0773C21.6173 5.55625 22.0099 6.06965 21.8689 6.58877L21.8686 6.58987L20.5155 11.6163C20.2936 12.4358 19.5499 13.0062 18.7041 13.0062H9.18131H8.57768L8.69005 13.5993L8.86829 14.5401L8.86877 14.5425C8.98684 15.149 9.51822 15.5906 10.1385 15.5906H19.6547C19.8176 15.5906 19.9469 15.72 19.9469 15.8828C19.9469 16.0457 19.8176 16.175 19.6547 16.175H10.1385C9.23623 16.175 8.46275 15.5335 8.29621 14.6513L8.29606 14.6505L6.59341 5.70834C6.59329 5.70773 6.59318 5.70711 6.59306 5.70649C6.52449 5.3392 6.20446 5.08437 5.84092 5.08437H4.33906C4.1762 5.08437 4.04688 4.95505 4.04688 4.79219C4.04688 4.62933 4.1762 4.5 4.33906 4.5H5.84092C6.37032 4.5 6.84011 4.80795 7.05929 5.27039ZM8.27188 19.3156C8.27188 19.1732 8.29992 19.0322 8.35442 18.9007C8.40891 18.7691 8.48879 18.6495 8.58948 18.5489C8.69018 18.4482 8.80972 18.3683 8.94128 18.3138C9.07284 18.2593 9.21385 18.2312 9.35625 18.2312C9.49865 18.2312 9.63966 18.2593 9.77122 18.3138L9.96257 17.8519L9.77122 18.3138C9.90279 18.3683 10.0223 18.4482 10.123 18.5489C10.2237 18.6495 10.3036 18.7691 10.3581 18.9007C10.4126 19.0322 10.4406 19.1732 10.4406 19.3156C10.4406 19.458 10.4126 19.599 10.3581 19.7306C10.3036 19.8622 10.2237 19.9817 10.123 20.0824C10.0223 20.1831 9.90279 20.263 9.77122 20.3175C9.63966 20.372 9.49865 20.4 9.35625 20.4C9.21385 20.4 9.07284 20.372 8.94128 20.3175C8.80971 20.263 8.69017 20.1831 8.58948 20.0824C8.48879 19.9817 8.40891 19.8622 8.35442 19.7306C8.29992 19.599 8.27188 19.458 8.27188 19.3156ZM18.8625 18.2312C19.1501 18.2312 19.4259 18.3455 19.6293 18.5489C19.8326 18.7522 19.9469 19.028 19.9469 19.3156C19.9469 19.6032 19.8326 19.879 19.6293 20.0824C19.4259 20.2858 19.1501 20.4 18.8625 20.4C18.5749 20.4 18.2991 20.2858 18.0957 20.0824C17.8924 19.879 17.7781 19.6032 17.7781 19.3156C17.7781 19.028 17.8924 18.7522 18.0957 18.5489C18.2991 18.3455 18.5749 18.2312 18.8625 18.2312Z" fill="url(#paint0_linear_2522_38639)" stroke="url(#paint1_linear_2522_38639)"/>
<defs>
<linearGradient id="paint0_linear_2522_38639" x1="3.54688" y1="4" x2="24.355" y2="6.38863" gradientUnits="userSpaceOnUse">
<stop stop-color="#DD3197"/>
<stop offset="1" stop-color="#822FAF"/>
</linearGradient>
<linearGradient id="paint1_linear_2522_38639" x1="3.54688" y1="4" x2="24.355" y2="6.38863" gradientUnits="userSpaceOnUse">
<stop stop-color="#DD3197"/>
<stop offset="1" stop-color="#822FAF"/>
</linearGradient>
</defs>
</svg>
