<svg width="12" height="9" viewBox="0 0 12 9" fill="none" xmlns="http://www.w3.org/2000/svg">
<path id="Vector" d="M3.96635 6.58125L10.3226 0.225C10.4726 0.0750001 10.6508 0 10.8573 0C11.0638 0 11.2418 0.0750001 11.3913 0.225C11.5413 0.375 11.6163 0.55325 11.6163 0.75975C11.6163 0.96625 11.5413 1.14425 11.3913 1.29375L4.49135 8.19375C4.34135 8.34375 4.16635 8.41875 3.96635 8.41875C3.76635 8.41875 3.59135 8.34375 3.44135 8.19375L0.216346 4.96875C0.0663462 4.81875 -0.00565385 4.6405 0.000346154 4.434C0.00634615 4.2275 0.084596 4.0495 0.235096 3.9C0.385096 3.75 0.563346 3.675 0.769846 3.675C0.976346 3.675 1.15435 3.75 1.30385 3.9L3.96635 6.58125Z" fill="white"/>
</svg>
