<svg width="20" height="21" viewBox="0 0 20 21" fill="none" xmlns="http://www.w3.org/2000/svg">
<path d="M12.8915 3.59251L11.5915 6.70917C11.0926 6.5006 10.5573 6.3932 10.0165 6.3932C9.47579 6.3932 8.94044 6.5006 8.44154 6.70917L7.1582 3.55917C8.06836 3.18444 9.04395 2.9944 10.0282 3.00013C11.0125 3.00585 11.9858 3.20721 12.8915 3.59251Z" fill="#F43434"/>
<path d="M16.9096 13.3935L13.793 12.0935C14.0015 11.5946 14.1089 11.0592 14.1089 10.5185C14.1089 9.97775 14.0015 9.44239 13.793 8.94349L16.9263 7.66016C17.3037 8.56921 17.4965 9.54423 17.4937 10.5285C17.4908 11.5128 17.2923 12.4866 16.9096 13.3935Z" fill="#DAE234"/>
<path d="M16.9335 7.65898L13.8085 8.94232C13.606 8.44041 13.3057 7.98377 12.9252 7.59893C12.5446 7.2141 12.0914 6.90876 11.5918 6.70065L12.9001 3.58398C13.809 3.96197 14.6336 4.51689 15.326 5.21647C16.0184 5.91604 16.5648 6.74631 16.9335 7.65898Z" fill="#E08B36"/>
<path d="M12.8419 17.4335L11.5586 14.3085C12.0605 14.106 12.5171 13.8057 12.902 13.4252C13.2868 13.0446 13.5922 12.5914 13.8003 12.0918L16.9253 13.4001C16.5463 14.3097 15.9901 15.1348 15.2891 15.8273C14.588 16.5198 13.7561 17.0658 12.8419 17.4335Z" fill="#52EF7A"/>
<path d="M7.10938 17.4096L8.40938 14.293C8.90827 14.5015 9.44363 14.6089 9.98437 14.6089C10.5251 14.6089 11.0605 14.5015 11.5594 14.293L12.8427 17.4263C11.9337 17.8037 10.9586 17.9965 9.97437 17.9937C8.9901 17.9908 8.01622 17.7923 7.10938 17.4096Z" fill="#54DBED"/>
<path d="M3.06641 13.3419L6.19141 12.0586C6.39389 12.5605 6.69414 13.0171 7.07468 13.402C7.45522 13.7868 7.90847 14.0922 8.40807 14.3003L7.09974 17.4169C6.1909 17.0389 5.3663 16.484 4.67387 15.7844C3.98145 15.0849 3.43503 14.2546 3.06641 13.3419Z" fill="#5286EF"/>
<path d="M3.09251 7.60938L6.20917 8.90938C6.0006 9.40827 5.8932 9.94363 5.8932 10.4844C5.8932 11.0251 6.0006 11.5605 6.20917 12.0594L3.05917 13.3427C2.68444 12.4325 2.4944 11.457 2.50013 10.4727C2.50585 9.48843 2.70721 8.51512 3.09251 7.60938Z" fill="#5058F2"/>
<path d="M7.15898 3.56641L8.44232 6.69141C7.94041 6.89389 7.48377 7.19414 7.09893 7.57468C6.7141 7.95522 6.40876 8.40847 6.20065 8.90807L3.08398 7.59974C3.46197 6.6909 4.01689 5.8663 4.71647 5.17387C5.41604 4.48145 6.24631 3.93503 7.15898 3.56641Z" fill="#EA5653"/>
</svg>
