<svg width="24" height="24" viewBox="0 0 24 24" fill="none" xmlns="http://www.w3.org/2000/svg">
<g clip-path="url(#clip0_2522_45546)">
<path d="M11.1982 2.74887L11.3362 2.82187L19.1302 7.32187C19.5659 7.57354 19.8909 7.98024 20.0401 8.46085C20.1893 8.94146 20.1518 9.46066 19.9352 9.91487L19.8622 10.0539L13.8622 20.4459C13.6105 20.8817 13.2038 21.2066 12.7232 21.3558C12.2426 21.505 11.7234 21.4675 11.2692 21.2509L11.1302 21.1779L3.33615 16.6779C2.90011 16.4262 2.57502 16.0193 2.4258 15.5385C2.27658 15.0576 2.3142 14.5382 2.53115 14.0839L2.60415 13.9459L7.10415 6.15187L5.37215 5.15187C5.14955 5.02513 4.98407 4.8178 4.90984 4.57264C4.83561 4.32747 4.85829 4.06317 4.97321 3.83424C5.08812 3.60531 5.28651 3.4292 5.52745 3.34224C5.76839 3.25528 6.03352 3.2641 6.26815 3.36687L6.37215 3.41987L8.10415 4.41987L8.60415 3.55387C8.84169 3.14182 9.21829 2.82791 9.66638 2.66847C10.1145 2.50902 10.6047 2.51449 11.0492 2.68387L11.1982 2.74887ZM20.3042 11.2289L20.5012 10.9999L20.5772 11.0869L20.7752 11.3219L20.9522 11.5419L21.1492 11.7999L21.3532 12.0839C21.6912 12.5729 22.0012 13.1239 22.0012 13.4999C22.0012 13.8977 21.8431 14.2792 21.5618 14.5605C21.2805 14.8418 20.899 14.9999 20.5012 14.9999C20.1033 14.9999 19.7218 14.8418 19.4405 14.5605C19.1592 14.2792 19.0012 13.8977 19.0012 13.4999C19.0012 13.0479 19.4472 12.3449 19.8532 11.7999L20.0502 11.5419L20.3042 11.2289ZM10.3362 4.55387L9.83615 5.41987L10.7022 5.91987C10.93 6.05342 11.0957 6.27166 11.1632 6.52696C11.2307 6.78225 11.1945 7.05388 11.0624 7.28257C10.9304 7.51126 10.7133 7.67843 10.4584 7.74762C10.2036 7.81681 9.93171 7.78239 9.70215 7.65187L8.83615 7.15187L7.19215 9.99987H17.5842L18.1302 9.05387L10.3362 4.55387Z" fill="#3B3C40"/>
</g>
<defs>
<clipPath id="clip0_2522_45546">
<rect width="24" height="24" fill="white"/>
</clipPath>
</defs>
</svg>
