<svg width="24" height="24" viewBox="0 0 24 24" fill="none" xmlns="http://www.w3.org/2000/svg">
<g clip-path="url(#clip0_1572_78667)">
<path fill-rule="evenodd" clip-rule="evenodd" d="M9.40483 2.89683C10.1002 2.30426 10.9775 1.96762 11.8908 1.94287C12.8041 1.91813 13.6984 2.20678 14.4248 2.76083L14.5948 2.89683L14.9708 3.21683C15.2445 3.45046 15.5762 3.60592 15.9308 3.66683L16.1088 3.68883L16.6018 3.72883C17.5151 3.80169 18.3757 4.18586 19.0397 4.81711C19.7037 5.44835 20.1309 6.28841 20.2498 7.19683L20.2708 7.39682L20.3108 7.89082C20.3391 8.24914 20.4635 8.59321 20.6708 8.88682L20.7808 9.02882L21.1028 9.40482C21.6954 10.1002 22.032 10.9775 22.0568 11.8908C22.0815 12.8041 21.7929 13.6984 21.2388 14.4248L21.1028 14.5948L20.7818 14.9708C20.5482 15.2445 20.3927 15.5762 20.3318 15.9308L20.3098 16.1088L20.2708 16.6018C20.198 17.5151 19.8138 18.3757 19.1825 19.0397C18.5513 19.7037 17.7112 20.1309 16.8028 20.2498L16.6018 20.2708L16.1088 20.3108C15.7505 20.3391 15.4064 20.4635 15.1128 20.6708L14.9708 20.7818L14.5938 21.1018C13.8985 21.6945 13.0213 22.0314 12.108 22.0563C11.1947 22.0812 10.3004 21.7927 9.57383 21.2388L9.40483 21.1028L9.02883 20.7818C8.75514 20.5482 8.42348 20.3927 8.06883 20.3318L7.89083 20.3108L7.39783 20.2708C6.48455 20.198 5.62398 19.8138 4.95997 19.1825C4.29596 18.5513 3.86877 17.7112 3.74983 16.8028L3.72883 16.6028L3.68883 16.1088C3.6605 15.7505 3.53614 15.4064 3.32883 15.1128L3.21783 14.9708L2.89683 14.5938C2.30426 13.8984 1.96762 13.0211 1.94287 12.1078C1.91813 11.1945 2.20678 10.3003 2.76083 9.57382L2.89683 9.40482L3.21683 9.02882C3.45046 8.75514 3.60592 8.42348 3.66683 8.06882L3.68883 7.89082L3.72883 7.39782C3.80169 6.48455 4.18586 5.62398 4.81711 4.95997C5.44835 4.29596 6.28841 3.86877 7.19683 3.74983L7.39683 3.72883L7.89083 3.68883C8.24914 3.6605 8.59321 3.53614 8.88683 3.32883L9.02883 3.21783L9.40483 2.89683ZM14.4998 12.9998C14.102 12.9998 13.7205 13.1579 13.4392 13.4392C13.1579 13.7205 12.9998 14.102 12.9998 14.4998C12.9998 14.8976 13.1579 15.2792 13.4392 15.5605C13.7205 15.8418 14.102 15.9998 14.4998 15.9998C14.8976 15.9998 15.2792 15.8418 15.5605 15.5605C15.8418 15.2792 15.9998 14.8976 15.9998 14.4998C15.9998 14.102 15.8418 13.7205 15.5605 13.4392C15.2792 13.1579 14.8976 12.9998 14.4998 12.9998ZM14.2928 8.29282L8.29283 14.2928C8.19732 14.3851 8.12113 14.4954 8.06872 14.6174C8.01631 14.7394 7.98873 14.8706 7.98758 15.0034C7.98642 15.1362 8.01172 15.2679 8.062 15.3908C8.11229 15.5137 8.18654 15.6253 8.28043 15.7192C8.37432 15.8131 8.48598 15.8874 8.60887 15.9376C8.73177 15.9879 8.86345 16.0132 8.99623 16.0121C9.12901 16.0109 9.26023 15.9833 9.38223 15.9309C9.50423 15.8785 9.61458 15.8023 9.70683 15.7068L15.7068 9.70682C15.889 9.51822 15.9898 9.26562 15.9875 9.00342C15.9852 8.74123 15.8801 8.49041 15.6946 8.30501C15.5092 8.1196 15.2584 8.01443 14.9962 8.01215C14.734 8.00987 14.4814 8.11067 14.2928 8.29282ZM9.49983 7.99982C9.102 7.99982 8.72047 8.15786 8.43917 8.43916C8.15786 8.72047 7.99983 9.102 7.99983 9.49982C7.99983 9.89765 8.15786 10.2792 8.43917 10.5605C8.72047 10.8418 9.102 10.9998 9.49983 10.9998C9.89765 10.9998 10.2792 10.8418 10.5605 10.5605C10.8418 10.2792 10.9998 9.89765 10.9998 9.49982C10.9998 9.102 10.8418 8.72047 10.5605 8.43916C10.2792 8.15786 9.89765 7.99982 9.49983 7.99982Z" fill="#9293B0"/>
</g>
<defs>
<clipPath id="clip0_1572_78667">
<rect width="24" height="24" fill="white"/>
</clipPath>
</defs>
</svg>
