<svg width="994" height="417" viewBox="0 0 994 417" fill="none" xmlns="http://www.w3.org/2000/svg">
<path d="M2.58129 367.348C4.48699 367.634 6.43079 367.195 8.02795 366.117C9.62512 365.04 10.7593 363.402 11.2059 361.529C12.0655 359.446 13.172 357.474 14.5019 355.654C15.8752 353.843 13.9525 353.458 13.2384 352.58C11.4805 350.439 8.73383 350.933 6.26183 350.549C5.54769 350.549 4.99838 349.615 4.39411 349.121C4.74144 348.798 5.12916 348.521 5.54767 348.298C8.29434 347.255 11.041 346.376 13.7877 345.278C18.3472 343.357 18.9515 338.8 21.6432 335.616C22.7968 334.243 21.0939 332.322 19.7755 330.839C19.5099 330.625 19.3027 330.347 19.1731 330.031C19.0435 329.715 18.9956 329.371 19.0339 329.032C19.0723 328.693 19.1955 328.369 19.3924 328.09C19.5892 327.811 19.8532 327.586 20.16 327.436C22.5738 326.299 24.5162 324.358 25.6533 321.946C28.4911 317.917 32.7503 315.112 37.5739 314.095C47.1873 311.899 55.9766 307.177 66.3591 307.287C68.2459 306.945 70.0885 306.392 71.8524 305.64C76.4693 303.938 81.2897 302.849 86.1901 302.401C91.6834 302.401 95.7485 299.107 100.857 299.491C105.966 299.875 109.976 295.703 115.305 296.197C116.239 296.197 117.227 293.727 116.788 292.903C116.349 292.08 115.415 291.586 114.426 292.464C112.393 294.276 110.635 291.805 109.427 292.08C107.12 292.574 105.252 294.166 102.45 294.111C95.309 294.111 88.1127 294.111 80.9164 294.111C79.9524 294.049 79.0055 293.826 78.1148 293.452C77.7303 293.452 77.2359 292.793 77.2359 292.464C77.2359 292.135 77.2359 290.268 77.7303 289.994C80.6427 288.23 83.8399 286.985 87.1788 286.315C90.5523 285.408 93.842 284.214 97.012 282.747C99.2093 282.198 98.7698 279.837 98.4402 278.08C98.325 277.372 97.9653 276.726 97.4235 276.254C96.8817 275.783 96.1919 275.516 95.4738 275.5C90.8594 275.5 86.245 275.225 81.6306 275.5C77.0162 275.774 72.4017 278.684 67.0182 278.464C65.0956 278.464 63.0082 280.935 60.9756 282.253C60.6059 282.468 60.1933 282.599 59.7671 282.637C59.2364 281.937 58.8618 281.132 58.6684 280.276C58.6684 278.025 58.6684 275.555 62.1842 275.445C66.7986 275.445 70.2044 271.767 75.2583 272.316C80.3121 272.865 83.3885 269.241 88.3325 269.68C91.7383 269.955 93.1117 267.814 91.6285 265.398C90.4987 263.453 89.6306 261.367 89.0466 259.194C88.4451 257.369 87.2153 255.815 85.5759 254.81C83.9365 253.805 81.9936 253.413 80.0924 253.704C80.2667 254.544 80.2219 255.414 79.9621 256.232C79.7023 257.049 79.2364 257.786 78.6092 258.371C78.0593 257.711 77.6147 256.97 77.2909 256.175C77.1525 255.376 77.1525 254.559 77.2909 253.759H76.9612C76.9823 253.669 76.9823 253.575 76.9612 253.485C75.793 253.247 74.5841 253.304 73.4431 253.649C72.3021 253.994 71.2648 254.616 70.4242 255.461C69.3255 256.889 68.6113 258.536 67.6225 260.018C67.351 260.414 67.0002 260.748 66.5922 261.001C66.1842 261.254 65.7281 261.419 65.2528 261.486C64.7775 261.553 64.2933 261.521 63.8313 261.391C63.3692 261.261 62.9392 261.037 62.5686 260.732C61.2246 259.472 59.9761 258.114 58.8332 256.669C56.3612 253.43 54.2188 252.606 48.9452 253.704C45.8689 254.308 46.2534 256.724 46.1435 258.755C44.7709 258.603 43.4744 258.047 42.4182 257.157C41.3621 256.268 40.5938 255.085 40.2108 253.759C39.9192 252.659 39.9231 251.5 40.2221 250.402C40.521 249.303 41.1045 248.302 41.9137 247.501C43.4518 245.744 44.4955 243.658 45.9238 242.011C46.5146 241.372 47.3126 240.964 48.1761 240.858C52.0214 243.877 55.0977 240.473 57.4599 239.32C61.0649 236.779 65.105 234.918 69.3804 233.83C71.5778 233.556 70.6988 230.866 71.0834 229.219C74.8935 226.612 78.8969 224.3 83.0588 222.301C83.9603 222.123 84.7715 221.636 85.3529 220.925C85.9344 220.214 86.2497 219.322 86.245 218.403L80.2572 215.933C80.2572 216.317 80.2573 216.756 79.8727 216.866C74.3622 218.566 68.9674 220.619 63.7223 223.015C62.8434 223.564 61.4151 221.862 61.7996 220.435C62.1807 217.714 63.2072 215.123 64.7934 212.879C66.3797 210.635 68.4798 208.802 70.9186 207.533C82.6579 202.426 95.0115 198.864 107.669 196.937C112.646 196.675 117.582 195.884 122.391 194.577C127.377 193.553 132.493 193.312 137.553 193.863C138.538 193.961 139.531 193.77 140.409 193.314C143.87 190.569 148.54 192.436 152 190.953C155.044 189.206 158.565 188.475 162.053 188.867C166.173 189.91 169.085 186.177 173.04 187.659C174.688 188.208 177.49 186.671 179.577 185.738C181.664 184.804 181.17 182.663 181.39 180.961C181.61 179.26 183.148 177.942 185.455 177.942L206.934 177.613C209.432 177.847 211.953 177.585 214.35 176.844C217.614 175.493 221.165 174.984 224.677 175.362C234.401 175.362 244.179 174.593 253.847 175.362C263.515 176.13 273.623 171.848 283.841 172.562C284.335 172.562 284.939 171.574 285.489 171.024C285.104 171.024 284.665 170.311 284.28 170.256C281.698 170.256 279.171 170.256 276.644 170.256C256.209 170.256 235.719 170.256 215.284 170.256C208.307 170.256 201.111 168.938 194.299 172.232C192.871 172.946 189.795 170.64 187.432 170.585C185.07 170.53 182.214 172.781 178.863 172.672C167.107 172.672 155.351 172.672 143.541 172.672C142.376 172.753 141.216 172.462 140.228 171.84C139.24 171.218 138.476 170.298 138.047 169.213C136.784 167.236 133.268 166.413 130.741 165.095C127.61 168.609 124.259 163.229 121.457 165.095C116.898 168.225 111.734 167.017 106.735 167.346C102.225 166.793 97.6481 167.476 93.4962 169.323C91.6164 170.011 89.5531 170.011 87.6733 169.323C84.7875 168.704 82.07 167.468 79.7079 165.699C79.0409 164.819 78.2037 164.082 77.2459 163.531C76.2882 162.981 75.2294 162.629 74.1327 162.496C73.036 162.363 71.9237 162.451 70.8619 162.756C69.8001 163.061 68.8106 163.577 67.9521 164.272C67.0314 164.516 66.0712 164.574 65.1277 164.442C64.1843 164.31 63.2768 163.991 62.4588 163.503C60.3628 162.279 57.9638 161.67 55.5372 161.746C55.4712 161.1 55.1735 160.499 54.6989 160.055C54.2243 159.611 53.605 159.354 52.9553 159.331C44.5505 159.715 35.9259 157.903 27.7957 161.527C25.8181 162.405 24.2251 160.319 22.9617 159.001C21.6982 157.684 21.863 158.397 21.6432 158.507L22.1376 158.013C24.2678 155.548 26.7261 153.387 29.4438 151.59C31.2016 150.492 33.0144 152.358 34.9371 152.907C39.2522 154.089 43.806 154.089 48.1211 152.907C48.7254 152.907 49.0001 151.755 49.3846 151.041H53.8342C57.7345 151.041 58.3938 150.272 58.6684 147.417C58.9431 144.563 58.2838 143.574 54.9329 142.971C53.9441 142.971 52.8454 142.971 51.9115 142.971C50.9777 142.971 49.1649 142.037 49.6593 140.28C49.7913 139.588 50.1703 138.967 50.726 138.533C51.2818 138.098 51.9763 137.881 52.6806 137.92C56.1905 138.168 59.7174 137.835 63.118 136.931C67.2979 135.185 71.8568 134.542 76.3569 135.065C81.8503 135.449 85.5309 131.606 90.9144 132.32C95.4129 133.16 100.039 133.029 104.483 131.935C109.181 130.505 113.998 129.494 118.875 128.916C119.37 128.916 119.645 127.763 119.974 127.049H91.189C88.2382 127.109 85.3128 127.609 82.5095 128.532C76.2253 130.416 69.5541 130.606 63.1729 129.081C60.9207 128.587 58.998 126.885 56.2513 127.104C47.7916 127.653 39.0571 125.677 30.927 129.575C28.9189 130.021 26.8375 130.021 24.8294 129.575C23.9417 129.275 23.0933 128.869 22.3024 128.367C22.9675 127.806 23.6849 127.309 24.4448 126.885C31.8678 124.197 39.5707 122.356 47.407 121.395C50.9228 120.846 54.5484 121.395 58.1191 121.065C59.5439 120.821 60.9067 120.299 62.1292 119.528C62.9274 119.032 63.5291 118.276 63.8321 117.387C63.8321 117.112 62.6785 116.179 61.9644 116.069C59.4374 115.795 56.9105 115.795 54.3835 115.63C53.9181 115.462 53.5155 115.156 53.23 114.752C53.23 114.752 53.5596 114.148 53.8342 113.983C56.4161 112.501 59.6023 113.379 62.349 111.622C67.4474 108.408 73.5138 107.087 79.4882 107.889C88.8269 109.097 97.1768 105.034 106.131 104.705C106.57 104.705 106.955 104.156 107.34 103.882C107.724 103.607 106.845 103.168 106.461 103.003C105.566 102.651 104.619 102.447 103.659 102.399C92.6722 103.113 81.3009 100.203 70.6988 104.925H55.5372C55.3643 104.09 54.8848 103.351 54.1932 102.853C53.5016 102.355 52.6483 102.134 51.8017 102.234C50.0439 102.234 48.286 102.234 46.3084 102.234C46.3598 101.645 46.6208 101.094 47.0442 100.681C47.4675 100.268 48.0251 100.021 48.6156 99.9835C51.8567 99.709 55.1526 99.7091 58.4486 99.5993C59.3825 98.117 61.1953 95.9759 60.7558 95.4818C58.5585 93.176 58.8881 90.5406 58.174 87.9603C57.6954 87.4673 57.1092 87.0918 56.4611 86.8632C55.813 86.6346 55.1207 86.5591 54.4385 86.6427C51.8388 88.1439 48.8697 88.8858 45.8689 88.7839C37.574 88.0153 30.2678 91.7486 22.3024 92.5721C21.0939 92.5721 20.1051 94.6034 18.6219 92.5721C17.9627 91.6937 19.4459 89.7171 21.4784 88.674C24.9887 86.7486 28.9587 85.8184 32.9595 85.9839C37.0015 86.1312 41.0483 85.8922 45.0449 85.2702C45.7348 85.0843 46.3743 84.7461 46.9162 84.2805C47.4581 83.815 47.8886 83.234 48.1761 82.5802C48.1761 81.8116 47.3521 80.2742 46.3633 79.5605C44.4406 78.2978 42.1883 77.4744 40.2657 76.2117C39.8811 76.2117 40.2656 74.0156 40.6502 73.8509C43.4708 73.1809 46.2423 72.3188 48.9452 71.2706C55.1104 67.9915 62.092 66.5617 69.0508 67.1531C71.0834 67.1531 73.1708 67.1531 75.2034 67.1531C77.9143 67.4069 80.648 67.0723 83.2175 66.1721C85.7869 65.2719 88.1313 63.8274 90.0903 61.9376C94.7341 58.3566 100.091 55.8108 105.801 54.4711C109.152 53.1535 113.712 53.977 114.975 49.3105C115.305 48.1576 118.326 52.2751 119.535 49.585C123.71 40.0324 133.872 38.001 143.046 35.1462C146.287 34.158 149.638 33.609 152.934 32.511C156.963 31.8266 161.066 31.6974 165.129 32.1268C168.151 32.1268 170.952 28.7778 174.248 31.5777L179.742 27.1857C181.994 29.1621 183.917 28.5033 186.169 27.1857C188.421 25.8681 190.509 24.6603 191.662 25.1544C195.343 27.1857 198.035 24.2211 201.221 24.3858C209.646 24.1344 217.944 22.2708 225.666 18.8958C226.985 18.4566 227.204 17.6879 226.545 17.1389C225.886 16.5899 225.721 16.3154 225.337 16.3154C219.223 15.8362 213.077 15.9649 206.989 16.6998C201.495 17.8527 196.332 18.731 191.113 20.1584C184.027 22.1349 176.226 22.5192 170.128 26.9661C168.657 27.3901 167.095 27.3901 165.624 26.9661C164.855 26.9661 164.196 26.0328 163.536 25.5386C167.078 20.9559 171.952 17.5807 177.49 15.8762C182.983 14.7233 188.476 14.0645 193.53 12.8018C198.919 11.4311 204.45 10.6941 210.01 10.6058C212.513 10.8499 215.038 10.5693 217.426 9.78228C220.694 8.44173 224.234 7.89608 227.754 8.19021C235.225 8.19021 242.86 8.95881 249.727 5.60989C251.732 5.13774 253.82 5.13774 255.825 5.60989C256.484 5.60989 257.033 6.54317 257.637 7.03727C257.253 7.03727 256.813 7.86082 256.484 7.86082C252.089 7.14712 249.013 10.0568 245.497 11.045C244.948 11.045 244.618 12.0881 244.234 12.6371C245.102 13.0117 246.003 13.3058 246.925 13.5155C248.427 13.8478 249.983 13.8478 251.485 13.5155C258.088 11.0335 265.176 10.1127 272.195 10.8254C275.161 10.8254 277.029 10.1666 277.194 7.20196C277.194 6.04906 278.457 5.77461 279.336 6.48832C280.283 7.24303 281.383 7.78153 282.56 8.06606C283.736 8.35059 284.961 8.37418 286.148 8.13526C286.148 6.81765 286.148 5.33538 286.642 4.40208C287.137 3.46877 289.059 3.13935 290.433 2.91974C291.97 2.83681 293.51 2.83681 295.047 2.91974C307.297 2.91974 319.547 2.48054 331.798 2.91974C335.313 2.91974 338.664 -0.209557 341.521 1.82175C344.377 3.85307 347.838 -0.264457 351.024 1.82175C354.315 3.14627 357.911 3.52652 361.407 2.91974C368.054 2.91974 374.701 2.91973 381.348 3.24913C383.313 3.07119 385.292 3.37264 387.116 4.12756C389.258 5.55497 390.357 4.51184 392.17 3.85304C393.982 3.19424 395.246 6.10396 397.223 4.29225C399.201 2.48054 401.289 6.43336 403.761 4.29225C406.233 2.15114 409.639 3.41386 412.605 3.19426C415.571 2.97466 417.714 3.19426 420.241 3.19426H440.126C442.653 3.19426 445.62 3.79816 447.598 2.75505C452.816 -0.429168 458.584 0.888436 464.078 0.778636C469.571 0.668835 476.218 1.16291 482.315 1.43741C484.732 4.51183 489.072 -0.648753 491.38 3.02957C494.898 3.43989 498.445 3.55007 501.982 3.35896C505.937 2.91975 508.464 5.66481 512.034 5.88441C517.617 5.42534 523.234 6.1551 528.514 8.02552C533.074 10.2215 539.501 7.47649 544.28 11.2646C550.378 11.2646 556.421 11.2646 562.463 10.7705C562.903 10.7705 563.287 9.67246 563.727 8.90386H566.693C566.787 8.45071 566.98 8.02395 567.258 7.65424C567.536 7.28454 567.893 6.98113 568.303 6.76585C568.713 6.55057 569.165 6.42875 569.628 6.40924C570.09 6.38972 570.552 6.47302 570.978 6.65301C571.953 7.22029 573.047 7.55063 574.173 7.61738C575.299 7.68414 576.425 7.4854 577.46 7.03727C579.712 6.15886 581.965 3.41387 585.206 5.00598C588.447 6.59809 590.699 3.63344 593.226 3.24913C599.543 2.42563 605.421 -0.978191 611.904 3.24913C613.222 4.12754 615.859 3.24912 617.891 3.57852C622.506 3.57852 627.12 3.57859 631.68 3.90799C632.354 3.88427 633.014 4.1044 633.539 4.52798C634.063 4.95157 634.418 5.55016 634.536 6.2138C635.982 6.29615 637.43 6.29615 638.876 6.2138C643.79 6.28909 648.663 7.1224 653.323 8.68429C656.568 9.46069 659.617 10.9 662.278 12.9116C663.695 13.9263 665.395 14.472 667.139 14.472C668.883 14.472 670.583 13.9263 672.001 12.9116C675.297 10.8254 677.824 12.4175 677.494 15.8214C677.412 17.156 677.412 18.4944 677.494 19.8291C677.564 20.5279 677.899 21.1734 678.43 21.633C678.961 22.0925 679.649 22.3311 680.351 22.2995C682.878 22.2995 685.405 22.2995 687.932 22.2995C693.426 21.969 698.938 22.0976 704.412 22.6839C709.59 24.0181 714.589 25.9721 719.299 28.5033C721.584 29.3817 723.935 30.0793 726.33 30.5896C732.409 32.2564 738.358 34.3665 744.128 36.9031C747.348 38.0877 750.75 38.7008 754.181 38.7148C754.301 39.3577 754.629 39.9433 755.116 40.3801C755.603 40.817 756.221 41.0808 756.873 41.1304C758.301 41.4049 759.894 41.1304 761.378 41.5147C761.817 41.5147 762.147 42.0637 762.531 42.3382C762.037 42.8872 761.597 43.6558 760.883 43.8754C760.169 44.095 758.851 43.8754 757.862 43.8754C756.939 44.0852 756.038 44.3792 755.17 44.7538C755.555 45.3028 755.774 46.1263 756.324 46.3459C760.793 48.4917 765.703 49.5633 770.661 49.4752C771.046 49.4752 771.485 49.9693 771.87 50.2438C771.321 50.7928 770.936 51.6164 770.277 51.7811C765.498 52.8242 758.796 48.9262 756.379 56.1182C756.379 56.6123 754.676 56.8868 753.687 56.9966C752.169 57.1067 750.645 57.1067 749.127 56.9966C741.162 56.5025 732.647 58.6985 725.176 55.2947C724.572 55.2947 722.869 56.6123 721.716 57.4358C720.562 58.2593 720.562 59.1377 721.716 59.3024C726.19 59.3161 730.642 59.9253 734.955 61.1141C739.311 62.2597 743.799 62.8318 748.303 62.816C749.787 63.1454 750.775 63.8042 750.885 65.1767C738.415 64.7924 725.891 66.7689 713.476 63.0905C706.169 60.8945 698.643 64.2434 691.502 65.6709C688.92 66.165 690.898 67.5923 691.502 68.4707C692.106 69.3491 693.864 70.2824 694.578 71.4353C695.897 73.5764 693.699 73.247 692.436 73.4117C691.172 73.5764 690.678 73.4117 689.799 73.4117C690.184 74.1254 690.513 75.1685 690.953 75.2234C694.437 75.9506 698.005 76.1908 701.555 75.9372C705.181 75.3333 707.653 79.1214 711.168 77.3097C713.146 76.2666 713.86 77.0352 713.86 78.6273C713.827 79.0562 713.69 79.4705 713.46 79.8341C713.23 80.1978 712.915 80.4998 712.542 80.7136C710.674 81.2077 708.641 81.3174 706.664 81.7017C706.207 81.8587 705.819 82.1691 705.565 82.5802C705.565 82.5802 705.95 83.3487 706.224 83.3487C708.696 83.733 711.168 83.8978 713.64 84.2821C714.554 84.422 715.431 84.7389 716.222 85.2153C715.893 86.6427 714.519 86.7525 713.091 86.7525C706.938 86.7525 700.786 86.7526 694.688 87.0271C694.249 87.0271 693.864 87.5211 693.48 87.7956C694.029 88.3446 694.523 89.278 695.073 89.278C701.115 89.278 706.059 92.7367 712.706 92.2975C722.869 91.5289 733.197 92.2975 743.414 92.2975C744.788 92.2975 747.369 93.066 747.369 93.4503C747.369 98.007 752.204 97.458 754.84 98.9403C757.477 100.423 761.762 99.7639 765.223 100.038C767.805 100.038 770.387 100.038 772.914 100.038C775.441 100.038 777.034 100.038 779.066 100.038C779.78 100.038 780.384 100.862 781.044 101.356L779.176 103.442C778.192 104.229 777.048 104.793 775.825 105.096C774.602 105.399 773.328 105.435 772.089 105.199C747.534 105.199 722.979 105.199 698.369 105.199C689.49 105.585 680.758 107.594 672.605 111.128C672.206 111.378 671.853 111.693 671.561 112.062C671.922 112.385 672.308 112.678 672.715 112.94C673.157 113.119 673.618 113.248 674.088 113.324C675.571 113.324 677.109 113.324 678.538 113.764C678.985 113.967 679.394 114.245 679.746 114.587C679.472 114.916 679.197 115.41 678.867 115.465C676.393 115.832 673.897 116.034 671.396 116.069C667.606 116.069 668.65 119.363 666.892 120.626C666.507 120.626 665.299 120.132 664.42 119.857C663.541 119.583 662.223 118.705 661.783 118.979C656.753 121.292 651.197 122.221 645.688 121.669C645.193 121.669 644.754 122.657 644.259 123.151C644.644 123.426 645.083 123.92 645.468 123.92C649.01 123.493 652.599 123.697 656.07 124.524C660.655 126.624 665.729 127.421 670.737 126.83C677.742 126.908 684.692 128.075 691.337 130.289C693.74 130.861 696.106 131.575 698.424 132.43C702.039 134.115 705.964 135.039 709.952 135.143C713.94 135.247 717.907 134.529 721.606 133.034C723.038 132.554 724.547 132.349 726.055 132.43C731.16 132.128 736.277 132.128 741.382 132.43C746.875 132.924 751.05 129.959 756.049 129.849C763.19 129.849 770.387 129.849 777.528 129.849C778.779 130.043 779.987 130.452 781.099 131.057C780.262 131.521 779.351 131.837 778.407 131.99C772.254 131.99 766.102 131.99 759.949 132.375C759.18 132.375 758.466 133.253 757.697 133.692C758.081 134.022 758.411 134.461 758.851 134.571C762.96 136.35 767.346 137.408 771.815 137.7C775.787 137.679 779.736 138.291 783.516 139.512C788.722 141.187 794.104 142.256 799.556 142.696C809.279 142.696 818.179 147.088 828.012 145.935C832.562 148.095 837.606 149.005 842.624 148.57C844.665 148.69 846.604 149.503 848.118 150.876C849.601 151.919 851.139 152.852 852.677 153.841C853.171 157.19 857.511 156.311 859.324 158.397C861.137 160.484 861.247 160.703 859.983 162.735C858.72 164.766 859.379 167.072 862.345 167.346C865.312 167.621 867.399 167.676 869.871 168.115C870.366 168.115 870.64 169.213 871.025 169.927C865.529 170.464 859.986 170.261 854.545 169.323C848.935 167.863 843.429 166.029 838.065 163.833C833.748 161.529 828.993 160.163 824.112 159.825C816.805 159.825 810.543 156.805 803.457 156.311C796.273 155.573 789.249 153.721 782.637 150.821C777.418 151.755 772.529 147.582 767.036 150.327C765.067 150.933 762.962 150.933 760.993 150.327C758.301 149.778 755.829 147.911 753.028 149.888C749.622 146.978 746.655 148.57 743.469 150.327C742.514 150.549 741.509 150.391 740.668 149.888C735.174 146.759 728.802 148.57 722.869 148.515C721.276 148.515 721.276 149.284 722.32 150.327C723.364 151.37 724.242 152.578 721.99 153.127C719.738 153.676 715.783 152.358 714.849 155.927C713.653 156.159 712.421 156.132 711.237 155.848C710.052 155.564 708.942 155.029 707.982 154.28C707.158 153.566 706.169 153.841 705.895 155.048C705.759 155.468 705.733 155.916 705.82 156.348C705.906 156.781 706.102 157.184 706.389 157.519C707.488 158.288 709.246 158.397 710.344 159.221C716.772 164.162 716.772 164.272 719.299 164.217L739.294 163.942C741.931 163.942 742.755 162.405 742.59 160.429C742.425 158.452 743.305 156.092 746.655 156.092H762.037C762.421 156.092 763.19 156.805 763.135 156.915C763.081 157.025 762.366 158.452 761.927 158.452L748.084 158.947C747.534 158.947 746.93 159.88 746.545 160.484C746.161 161.088 746.985 161.252 747.315 161.582C748.546 163.137 750.343 164.144 752.314 164.382C752.863 164.382 753.467 165.26 754.016 165.754C753.632 166.029 753.192 166.523 752.753 166.523C750.214 166.769 747.657 166.769 745.117 166.523C740.778 166.083 738.141 169.981 733.636 169.487C729.569 168.966 725.453 168.966 721.386 169.487C718.537 170.163 715.773 171.158 713.146 172.452C712.816 172.452 712.322 173.166 712.377 173.275C712.638 173.691 713.053 173.987 713.531 174.099C720.013 174.648 725.726 177.887 732.647 177.283C739.569 176.679 746.985 177.283 754.126 177.283C756.708 177.283 759.894 176.515 761.707 177.558C767.86 181.071 774.616 179.369 781.044 180.028C783.076 180.028 785.823 179.589 786.977 180.577C791.536 184.31 797.963 181.51 802.797 184.585C806.753 187 812.576 184.585 817.465 187C822.354 189.416 828.451 187.714 833.945 188.318C835.407 188.49 836.824 188.937 838.12 189.636C840.976 191.283 844.107 190.404 847.074 190.789C850.04 191.173 851.853 194.083 855.424 193.643C861.379 193.308 867.296 194.782 872.398 197.871C876.542 200.408 881.068 202.262 885.802 203.361C891.043 204.743 896.363 205.807 901.733 206.545C906.635 207.198 911.495 208.133 916.29 209.345C920.358 209.839 924.472 209.839 928.54 209.345C933.594 208.576 937 212.474 941.669 212.035C947.987 211.486 953.315 214.67 959.303 215.549C959.852 215.549 960.292 216.866 960.566 217.635C960.841 218.404 959.523 220.215 957.765 219.941C956.007 219.666 953.645 218.239 952.271 218.843C949.909 219.996 948.811 218.843 947.108 218.129C946.468 217.729 945.717 217.545 944.966 217.605C944.214 217.664 943.501 217.963 942.933 218.458C941.449 219.886 939.472 220.929 937.439 219.666C934.336 217.922 930.752 217.228 927.222 217.69C926.343 217.69 924.695 218.403 924.695 218.678C924.695 220.16 926.508 220.16 927.826 220.435C928.252 220.592 928.618 220.88 928.87 221.258C928.43 221.862 927.881 222.796 927.277 222.85C924.75 222.85 922.168 222.85 919.641 223.125C919.256 223.125 918.487 223.784 918.542 223.948C918.597 224.113 919.531 225.65 919.751 225.595C924.365 224.223 927.057 228.56 931.232 228.395C937.494 228.395 943.757 227.956 945.844 235.093C945.844 235.917 948.371 236.246 949.635 236.905C954.798 239.595 959.962 242.395 965.016 245.085C967.323 246.403 965.016 247.501 964.247 248.05C962.596 248.996 960.868 249.804 959.083 250.465C957.984 250.959 958.094 251.563 959.083 252.497C959.925 253.401 960.946 254.122 962.08 254.614C963.215 255.105 964.439 255.356 965.675 255.351C970.839 255.351 970.784 255.351 973.091 259.14C973.923 260.286 974.881 261.336 975.948 262.269C976.552 262.928 977.321 263.587 977.925 264.3C978.022 264.604 978.022 264.93 977.925 265.233C977.046 265.563 975.838 266.222 975.179 265.892C973.925 265.334 972.568 265.045 971.196 265.045C969.824 265.045 968.467 265.334 967.213 265.892C959.797 268.198 968.147 270.394 966.884 272.919C965.62 275.445 965.95 276.378 962.434 277.092C961.94 277.092 961.39 277.092 960.896 277.092L958.149 278.025C958.699 278.519 959.193 279.398 959.797 279.508C962.285 279.543 964.738 280.104 966.994 281.155C968.767 282.074 970.736 282.554 972.734 282.554C974.732 282.554 976.701 282.074 978.475 281.155C979.738 280.605 981.386 279.508 981.661 281.429C982.1 284.998 986.33 286.15 987.429 289.06C987.77 289.878 987.946 290.755 987.946 291.64C987.946 292.526 987.77 293.403 987.429 294.221C986.385 296.197 984.243 295.539 982.265 294.66C980.534 293.851 978.675 293.35 976.772 293.178C973.256 293.178 973.201 290.762 972.212 288.786C971.938 288.237 970.839 287.962 970.015 287.578C968.861 283.954 965.51 285.052 962.764 285.272C961.281 285.272 961.281 286.096 961.94 287.029C962.767 288.042 963.316 289.253 963.533 290.543C963.533 292.08 962.104 292.574 960.676 293.123C959.248 293.672 956.831 293.562 959.358 295.374C961.045 296.288 962.788 297.095 964.576 297.789C966.279 298.668 967.543 301.687 966.609 302.291C965.403 302.992 964.083 303.476 962.709 303.719C957.71 304.707 957.215 304.871 957.215 308.495C957.05 309.807 957.05 311.135 957.215 312.448C957.215 313.216 958.479 314.534 958.863 314.479C965.565 313.271 966.554 318.981 969.85 321.561C969.987 321.754 970.169 321.911 970.379 322.019C970.589 322.128 970.822 322.184 971.059 322.184C971.295 322.184 971.528 322.128 971.739 322.019C971.949 321.911 972.13 321.754 972.267 321.561C974.41 318.926 975.838 324.032 978.255 321.891C980.672 319.75 982.045 323.044 983.748 323.812C985.451 324.581 986.275 325.075 987.484 325.679C988.033 327.765 990.23 327.875 991.823 328.753C993.417 329.632 993.197 331.004 993.362 332.212C993.526 333.42 991.988 333.694 991.219 333.694C986.688 334.399 982.064 334.231 977.596 333.2C972.275 331.5 966.696 330.757 961.116 331.004C958.098 331.231 955.076 330.623 952.381 329.247C952.381 329.247 951.338 329.247 951.283 329.632C951.228 330.016 950.514 331.443 950.898 332.102C951.567 333.37 952.527 334.461 953.7 335.286C956.227 337.043 955.677 338.471 954.084 340.776C952.491 343.082 954.084 344.18 956.611 344.729C957.524 345.057 958.392 345.5 959.193 346.047C958.459 346.612 957.618 347.023 956.721 347.255C953.7 347.584 950.843 347.255 950.294 351.262C950.294 353.019 946.888 354.446 945.24 356.148C943.592 357.85 942.164 356.807 940.186 356.148C935.501 354.699 930.706 353.634 925.848 352.964C923.926 352.69 918.487 351.372 921.948 356.533C921.948 356.533 920.959 357.905 920.3 357.96C918.268 357.96 916.235 357.96 914.148 357.96C913.269 357.96 911.675 358.564 911.675 358.948C911.675 360.54 913.269 360.376 914.532 360.815C915.796 361.254 916.125 362.901 914.532 363.121C912.939 363.34 910.082 364.164 909.643 365.756C908.215 370.917 902.776 371.685 898.656 374.046C897.448 374.815 896.075 375.309 894.811 376.022C893.548 376.736 893.438 377.999 896.459 379.975C899.48 381.951 896.459 381.677 895.415 382.171C894.372 382.665 891.845 382.171 893.657 384.532C894.646 385.685 895.086 386.673 893.657 387.881C892.372 389.087 890.764 389.895 889.029 390.207C887.293 390.519 885.505 390.321 883.879 389.638C882.066 388.924 880.638 387.496 879.54 390.461C878.699 392.118 877.452 393.535 875.914 394.579C870.421 398.861 870.421 398.806 874.156 403.088C874.815 403.802 875.529 404.406 876.134 405.12C876.372 405.519 876.502 405.974 876.511 406.439C876.521 406.905 876.409 407.364 876.188 407.774C875.967 408.183 875.643 408.528 875.248 408.775C874.853 409.022 874.401 409.162 873.936 409.182C870.97 409.182 867.454 410.28 865.092 408.414C861.796 405.833 859.049 410.555 856.962 408.853C852.402 405.01 845.975 407.7 841.141 404.735C838.559 403.198 834.219 404.131 830.704 403.692C827.188 403.253 824.661 400.618 820.706 401.057C816.75 401.496 813.345 400.453 809.994 401.057C806.643 401.661 802.852 398.257 799.007 400.014C797.963 400.508 797.414 400.343 796.865 399.19C796.315 398.037 795.711 396.226 794.667 395.896C792.36 395.237 789.613 395.896 787.471 394.249C785.329 392.602 781.538 393.426 778.627 392.767C775.715 392.108 774.122 390.955 771.705 390.406C769.801 390.064 767.838 390.456 766.212 391.504C764.531 392.618 762.576 393.249 760.56 393.326C758.545 393.404 756.547 392.926 754.785 391.943C751.215 389.583 746.545 391.449 743.469 388.43C741.876 386.783 739.679 387.771 737.976 388.979C736.273 390.187 735.888 389.967 735.724 388.979C734.57 382.171 728.692 381.952 722.979 382.226C719.079 382.226 716.497 379.81 712.926 379.646C709.356 379.481 704.741 379.646 700.676 379.646C698.808 379.646 697.929 376.571 695.567 378.108C694.136 379.14 692.416 379.696 690.651 379.696C688.886 379.696 687.166 379.14 685.734 378.108C684.955 377.485 683.986 377.145 682.987 377.145C681.989 377.145 681.02 377.485 680.241 378.108C678.089 379.479 675.493 379.97 672.99 379.481C671.073 379.482 669.187 379.011 667.496 378.108C665.079 376.516 663.431 380.634 660.959 378.108C658.487 375.583 657.773 379.426 655.905 379.371C655.356 379.371 654.642 379.371 654.367 379.371C650.741 376.132 645.248 378.108 641.622 376.187C636.862 374.443 631.799 373.678 626.736 373.936C626.257 373.818 625.82 373.571 625.472 373.222C621.462 370.203 616.683 371.685 612.233 371.521C607.674 374.76 601.796 374.211 596.577 375.583C579.658 380.195 569.11 383.269 557.08 382.226C554.004 381.952 550.927 382.226 547.851 382.226C545.409 382.538 543 383.07 540.655 383.818C532.305 385.081 524.175 388.595 515.55 387.661C511.453 387.387 507.342 387.387 503.245 387.661C498.719 387.365 494.182 388.058 489.951 389.693C485.991 390.603 481.909 390.863 477.866 390.461C476.394 390.588 474.969 391.038 473.691 391.779C469.901 393.92 465.506 392.108 461.77 393.261C458.035 394.414 453.64 396.665 449.465 398.202C447.933 398.397 446.383 398.397 444.851 398.202C442.826 398.005 440.783 398.154 438.808 398.641C434.963 400.508 431.832 402.594 429.744 396.884C429.085 395.073 425.844 395.512 424.251 396.006C421.073 397.453 417.634 398.237 414.143 398.312C408.653 398.048 403.263 399.85 399.036 403.363C396.07 405.504 393.543 407.645 389.972 404.57C383.817 406.513 377.321 407.13 370.91 406.382C367.416 406.086 363.926 406.997 361.022 408.962C356.628 407.919 353.002 412.531 350.036 411.268C347.069 410.006 344.268 411.708 342.4 410.61C338.884 408.523 337.291 412.311 334.27 411.817C331.248 411.323 327.073 411.817 323.283 411.817C320.31 411.868 317.405 412.721 314.878 414.288C311.527 415.88 307.682 411.762 305.43 413.19C303.177 414.617 299.936 410.609 297.684 413.574C297.245 414.123 294.443 412.806 292.905 413.025C290.955 413.385 289.09 414.111 287.411 415.166C284.665 417.033 283.182 416.978 282.687 413.629C282.471 413.215 282.159 412.86 281.776 412.592C281.394 412.325 280.953 412.153 280.49 412.092C275.436 412.092 269.888 410.5 265.493 412.86C262.362 414.562 258.681 410.555 256.539 414.343H245.552H233.247H176.336C173.294 414.506 170.243 414.248 167.272 413.574C163.481 412.531 160.021 410.5 156.285 409.237C152.55 407.974 149.034 412.421 144.694 411.543C143.672 411.433 142.64 411.433 141.618 411.543C130.302 411.543 119.04 411.543 107.779 411.543C106.795 411.423 105.833 411.164 104.922 410.774C105.682 409.669 106.566 408.656 107.559 407.755C110.635 405.449 115.964 407.755 118.546 403.912C118.546 403.637 120.578 403.912 121.347 404.296C129.038 408.359 137.333 405.723 145.353 405.888C147.551 405.888 149.858 404.076 152.055 403.088C153.319 402.539 153.264 401.661 152.055 401.331C148.155 400.563 144.804 396.5 140.684 398.696C135.983 400.589 130.9 401.341 125.852 400.892C121.305 400.569 116.735 400.902 112.283 401.88C107.939 403.191 103.417 403.82 98.8797 403.747C96.2978 403.747 93.7709 403.747 91.2439 404.131C89.7058 404.131 90.1452 404.955 90.365 405.943C91.0242 408.908 89.7607 410.006 87.4535 408.633C84.9378 407.014 81.9838 406.209 78.9938 406.327C74.3794 406.327 69.7649 406.327 65.1505 406.327C63.6124 406.327 62.0743 406.327 60.5361 406.327C60.0967 406.327 59.7121 405.778 59.3276 405.559C59.8371 405.039 60.3882 404.561 60.9756 404.131C61.3601 404.131 62.0193 404.131 62.5137 404.131C63.942 403.802 65.3153 403.363 66.7436 402.978C65.59 401.661 64.766 399.904 63.2828 399.08C60.7261 397.582 57.9434 396.506 55.0428 395.896C51.0876 395.237 52.9004 389.583 47.8465 390.022C46.5281 390.022 46.3633 388.924 47.5718 388.375C48.0107 388.162 48.4711 387.996 48.9452 387.881C52.4609 387.332 52.2412 384.971 52.1862 382.72C52.1313 380.469 50.2636 379.755 48.0662 379.81C44.5487 380.12 41.0247 379.293 38.0134 377.45C36.1477 376.788 34.111 376.788 32.2453 377.45C29.8217 377.906 27.5314 378.901 25.5435 380.359C22.2474 383.324 20.0501 378.712 17.4133 379.81C14.7765 380.908 13.0736 383.159 10.6565 381.403C8.915 379.986 7.64965 378.07 7.03089 375.913C6.57862 374.566 5.79214 373.356 4.74499 372.396C3.69784 371.436 2.42424 370.757 1.04316 370.422C-0.0555062 370.422 0.823423 367.183 2.58129 367.348ZM84.0477 95.4818C84.6975 94.9446 85.443 94.5348 86.245 94.274C85.5206 94.5587 84.8514 94.9674 84.2674 95.4818H84.0477ZM108.273 118.43C113.767 118.156 119.864 119.802 125.028 116.289C125.481 116.442 125.907 116.664 126.292 116.948C125.897 116.666 125.473 116.427 125.028 116.234C120.084 119.803 114.151 118.156 108.493 118.43H108.273ZM805.105 199.902C804.775 199.902 804.5 200.396 804.171 200.671C804.61 200.231 805.05 199.902 805.379 199.902H805.105ZM799.611 199.902C799.611 199.902 800.051 200.451 799.996 200.616C799.941 200.781 799.721 200.177 799.611 199.902C799.501 199.628 798.897 199.902 798.677 199.902C798.458 199.902 799.501 200.231 799.831 200.231L799.611 199.902Z" fill="url(#paint0_linear_1635_114615)"/>
<defs>
<linearGradient id="paint0_linear_1635_114615" x1="496.966" y1="0.599609" x2="496.966" y2="416.4" gradientUnits="userSpaceOnUse">
<stop stop-color="white" stop-opacity="0.8"/>
<stop offset="1" stop-color="white" stop-opacity="0.3"/>
</linearGradient>
</defs>
</svg>
