<svg width="28" height="28" viewBox="0 0 28 28" fill="none" xmlns="http://www.w3.org/2000/svg">
<path d="M19.4688 3.0625C17.2714 3.0625 15.3212 3.92984 14 5.42062C12.6788 3.92984 10.7286 3.0625 8.53125 3.0625C6.61743 3.06482 4.78266 3.8261 3.42938 5.17938C2.0761 6.53266 1.31482 8.36743 1.3125 10.2812C1.3125 18.1934 12.8855 24.5153 13.3777 24.7811C13.5689 24.8841 13.7828 24.938 14 24.938C14.2172 24.938 14.4311 24.8841 14.6223 24.7811C15.1145 24.5153 26.6875 18.1934 26.6875 10.2812C26.6852 8.36743 25.9239 6.53266 24.5706 5.17938C23.2173 3.8261 21.3826 3.06482 19.4688 3.0625ZM18.8683 18.6331C17.345 19.9258 15.7166 21.0892 14 22.1112C12.2834 21.0892 10.655 19.9258 9.13172 18.6331C6.76156 16.5998 3.9375 13.4991 3.9375 10.2812C3.9375 9.06291 4.42148 7.89447 5.28298 7.03298C6.14447 6.17148 7.31291 5.6875 8.53125 5.6875C10.4781 5.6875 12.1078 6.71562 12.7848 8.37156C12.8834 8.61296 13.0516 8.81954 13.268 8.96495C13.4844 9.11037 13.7393 9.18803 14 9.18803C14.2607 9.18803 14.5156 9.11037 14.732 8.96495C14.9484 8.81954 15.1166 8.61296 15.2152 8.37156C15.8922 6.71562 17.5219 5.6875 19.4688 5.6875C20.6871 5.6875 21.8555 6.17148 22.717 7.03298C23.5785 7.89447 24.0625 9.06291 24.0625 10.2812C24.0625 13.4991 21.2384 16.5998 18.8683 18.6331Z" fill="#3B3C40"/>
</svg>
