<svg width="24" height="24" viewBox="0 0 24 24" fill="none" xmlns="http://www.w3.org/2000/svg">
<path d="M12.0017 1.92773C14.2181 1.92773 16.3438 2.80822 17.9111 4.37549C19.4783 5.94275 20.3588 8.06843 20.3588 10.2849C20.3588 13.8163 17.8774 17.6649 12.9788 21.8717C12.7064 22.1057 12.3592 22.2342 12.0001 22.2339C11.641 22.2336 11.2939 22.1045 11.022 21.87L10.698 21.5889C6.01625 17.4917 3.64453 13.7375 3.64453 10.2849C3.64453 8.06843 4.52501 5.94275 6.09228 4.37549C7.65955 2.80822 9.78522 1.92773 12.0017 1.92773ZM12.0017 7.07059C11.1492 7.07059 10.3316 7.40924 9.72883 8.01203C9.12604 8.61483 8.78739 9.4324 8.78739 10.2849C8.78739 11.1374 9.12604 11.9549 9.72883 12.5577C10.3316 13.1605 11.1492 13.4992 12.0017 13.4992C12.8542 13.4992 13.6717 13.1605 14.2745 12.5577C14.8773 11.9549 15.216 11.1374 15.216 10.2849C15.216 9.4324 14.8773 8.61483 14.2745 8.01203C13.6717 7.40924 12.8542 7.07059 12.0017 7.07059Z" fill="#9293B0"/>
</svg>
