<svg width="28" height="28" viewBox="0 0 28 28" fill="none" xmlns="http://www.w3.org/2000/svg">
<g id="measure_ddpnx1fd9p9l" clip-path="url(#clip0_1248_57228)">
<g id="Group">
<g id="Group_2">
<path id="Vector" d="M6.2469 23.3131L4.02227 18.5696C3.75151 17.9976 2.81105 17.9976 2.54023 18.5696L0.315602 23.3131C0.106531 23.7537 0 24.2271 0 24.7182C0 26.5278 1.47159 27.9994 3.28125 27.9994C5.09091 27.9994 6.5625 26.5278 6.5625 24.7182C6.5625 24.2271 6.45597 23.7537 6.2469 23.3131Z" fill="url(#paint0_linear_1248_57228)"/>
</g>
</g>
<g id="Group_3">
<g id="Group_4">
<path id="Vector_2" d="M24.9932 6.52043L19.1925 0.719783C18.2328 -0.239928 16.6723 -0.239928 15.7126 0.719783L13.9727 2.45972L4.11124 12.3203L1.79129 14.6411C1.55657 14.8758 1.48608 15.2283 1.61344 15.5351C1.69225 15.725 1.84669 15.8502 2.02387 15.9361L22.1923 9.5201L15.7126 3.03968L16.8726 1.8797C17.193 1.55929 17.7121 1.55929 18.0325 1.87976L23.8332 7.68041C24.1536 8.00082 24.6727 8.00088 24.9932 7.68041C25.3136 7.35999 25.3136 6.84085 24.9932 6.52043Z" fill="url(#paint1_linear_1248_57228)"/>
</g>
</g>
<g id="Group_5">
<g id="Group_6">
<path id="Vector_3" d="M27.2783 14.5529L23.4972 10.8262L6.77539 16.1458L16.2031 25.5734C16.6678 26.038 17.2862 26.2944 17.9431 26.2944C18.6007 26.2944 19.2192 26.038 19.683 25.5734L27.2783 18.0336C27.743 17.569 27.9993 16.9505 27.9993 16.2928C27.9993 15.6359 27.743 15.0175 27.2783 14.5529ZM19.5837 21.0089L18.4238 22.1689C18.2635 22.3291 18.0536 22.4093 17.8438 22.4093C17.634 22.4093 17.424 22.3291 17.2639 22.1689L12.6232 17.5282C12.4692 17.3743 12.3827 17.1652 12.3827 16.9482C12.3827 16.7303 12.4692 16.522 12.6231 16.3682L13.7839 15.2082C14.1043 14.8878 14.6234 14.8878 14.9438 15.2082C15.2643 15.5286 15.2643 16.0486 14.9438 16.3682L14.3631 16.9482L15.5238 18.1089L17.2638 16.3682C17.5842 16.0478 18.1034 16.0478 18.4238 16.3682C18.7442 16.6886 18.7442 17.2078 18.4238 17.5282L16.6837 19.2688L17.8438 20.4289L18.4238 19.849C18.7442 19.5285 19.2633 19.5285 19.5837 19.849C19.9042 20.1694 19.9042 20.6885 19.5837 21.0089Z" fill="url(#paint2_linear_1248_57228)"/>
</g>
</g>
</g>
<defs>
<linearGradient id="paint0_linear_1248_57228" x1="2.54581" y1="21.1225" x2="6.40596" y2="24.823" gradientUnits="userSpaceOnUse">
<stop stop-color="#7D68FB"/>
<stop offset="1" stop-color="#AFA2FB"/>
</linearGradient>
<linearGradient id="paint1_linear_1248_57228" x1="10.7381" y1="4.81997" x2="15.5284" y2="15.0722" gradientUnits="userSpaceOnUse">
<stop stop-color="#7D68FB"/>
<stop offset="1" stop-color="#AFA2FB"/>
</linearGradient>
<linearGradient id="paint2_linear_1248_57228" x1="15.0089" y1="15.5046" x2="19.8934" y2="25.1566" gradientUnits="userSpaceOnUse">
<stop stop-color="#7D68FB"/>
<stop offset="1" stop-color="#AFA2FB"/>
</linearGradient>
<clipPath id="clip0_1248_57228">
<rect width="28" height="28" fill="white"/>
</clipPath>
</defs>
</svg>
