<svg width="19" height="21" viewBox="0 0 19 21" fill="none" xmlns="http://www.w3.org/2000/svg">
<g id="Group">
<path id="Vector" d="M7.354 10.4943H11.5563V13.6461H7.354V10.4943ZM10.5058 8.39324C10.5058 7.81308 10.0354 7.34271 9.45506 7.34271C8.87494 7.34271 8.40453 7.81291 8.40453 8.39324V9.44377H10.5056V8.39324H10.5058Z" fill="#3B3C40"/>
<path id="Vector_2" d="M18.3849 3.14029C15.3291 3.14029 11.3084 2.10928 9.8753 0.198657C9.68462 -0.033491 9.34194 -0.0669596 9.10995 0.123557C9.08255 0.146141 9.05737 0.171303 9.03477 0.198698C7.60165 2.10895 3.58086 3.14029 0.525204 3.14029C0.235224 3.14029 0 3.37543 0 3.66558V10.4942C0 16.2703 5.01591 19.7523 9.31101 20.9795C9.40506 21.0069 9.50502 21.0069 9.59923 20.9795C13.8943 19.7523 18.9102 16.2703 18.9102 10.4942V3.66558C18.9102 3.37543 18.675 3.14025 18.3849 3.14025V3.14029ZM12.6068 14.1712C12.6068 14.4613 12.3716 14.6965 12.0816 14.6965H6.82859C6.53861 14.6965 6.30343 14.4613 6.30343 14.1712V9.96904C6.30343 9.67886 6.53861 9.44368 6.82859 9.44368H7.35396V8.39315C7.35396 7.23269 8.29457 6.29204 9.45502 6.29204C10.6155 6.29204 11.5562 7.23269 11.5562 8.39315V9.44368H12.0815C12.3716 9.44368 12.6066 9.67886 12.6066 9.96904V14.1712L12.6068 14.1712Z" fill="#3B3C40"/>
</g>
</svg>
