<svg width="28" height="28" viewBox="0 0 28 28" fill="none" xmlns="http://www.w3.org/2000/svg">
<g id="price_k9qz56bx50e5" clip-path="url(#clip0_1248_57218)">
<path id="Vector" d="M26.8861 1.08663C26.5857 0.786226 26.0988 0.786226 25.7984 1.08663L18.0416 8.84339C17.7413 9.14364 17.7413 9.6307 18.0416 9.93111C18.342 10.2314 18.8291 10.2314 19.1293 9.93111L26.8861 2.17435C27.1865 1.87394 27.1865 1.38688 26.8861 1.08663Z" fill="url(#paint0_linear_1248_57218)"/>
<path id="Vector_2" d="M25.7208 13.4914L24.5626 6.71246L21.7839 9.49143C21.785 10.3404 21.4627 11.1897 20.8164 11.836C19.5261 13.1261 17.427 13.1261 16.1366 11.836C14.8465 10.546 14.8465 8.44681 16.1366 7.15642C16.7832 6.50994 17.633 6.18727 18.4823 6.18887L21.2611 3.41022L14.4814 2.25201C13.7359 2.12464 12.9716 2.36769 12.4368 2.90265L2.14575 13.1936C0.433187 14.9063 0.433187 17.693 2.14575 19.4057L8.5671 25.8269C10.2798 27.5396 13.0665 27.5396 14.7792 25.8269L25.0701 15.5358C25.6048 15.0013 25.8481 14.2367 25.7208 13.4914Z" fill="url(#paint1_linear_1248_57218)"/>
</g>
<defs>
<linearGradient id="paint0_linear_1248_57218" x1="21.4222" y1="3.67265" x2="24.8353" y2="8.58798" gradientUnits="userSpaceOnUse">
<stop stop-color="#7D68FB"/>
<stop offset="1" stop-color="#AFA2FB"/>
</linearGradient>
<linearGradient id="paint1_linear_1248_57218" x1="10.518" y1="9.7477" x2="19.6585" y2="22.9113" gradientUnits="userSpaceOnUse">
<stop stop-color="#7D68FB"/>
<stop offset="1" stop-color="#AFA2FB"/>
</linearGradient>
<clipPath id="clip0_1248_57218">
<rect width="28" height="28" fill="white"/>
</clipPath>
</defs>
</svg>
