<svg width="24" height="24" viewBox="0 0 24 24" fill="none" xmlns="http://www.w3.org/2000/svg">
<path d="M3 4.79219C3 4.35318 3.35318 4 3.79219 4H5.29404C6.02022 4 6.66387 4.4225 6.96424 5.05625H20.5305C21.3986 5.05625 22.0323 5.88145 21.8046 6.71984L20.4512 11.7469C20.1707 12.7834 19.2299 13.5062 18.1572 13.5062H8.63443L8.81268 14.447C8.88529 14.82 9.21207 15.0906 9.59166 15.0906H19.1078C19.5468 15.0906 19.9 15.4438 19.9 15.8828C19.9 16.3218 19.5468 16.675 19.1078 16.675H9.59166C8.44959 16.675 7.46926 15.863 7.25801 14.744L5.55481 5.79893C5.5317 5.6735 5.42277 5.58437 5.29404 5.58437H3.79219C3.35318 5.58437 3 5.23119 3 4.79219ZM7.225 19.3156C7.225 19.1076 7.26598 18.9015 7.3456 18.7093C7.42523 18.5171 7.54193 18.3424 7.68905 18.1953C7.83618 18.0482 8.01084 17.9315 8.20306 17.8519C8.39529 17.7722 8.60131 17.7312 8.80938 17.7312C9.01744 17.7312 9.22346 17.7722 9.41569 17.8519C9.60792 17.9315 9.78258 18.0482 9.9297 18.1953C10.0768 18.3424 10.1935 18.5171 10.2731 18.7093C10.3528 18.9015 10.3938 19.1076 10.3938 19.3156C10.3938 19.5237 10.3528 19.7297 10.2731 19.9219C10.1935 20.1142 10.0768 20.2888 9.9297 20.4359C9.78258 20.5831 9.60792 20.6998 9.41569 20.7794C9.22346 20.859 9.01744 20.9 8.80938 20.9C8.60131 20.9 8.39529 20.859 8.20306 20.7794C8.01084 20.6998 7.83618 20.5831 7.68905 20.4359C7.54193 20.2888 7.42523 20.1142 7.3456 19.9219C7.26598 19.7297 7.225 19.5237 7.225 19.3156ZM18.3156 17.7312C18.7358 17.7312 19.1388 17.8982 19.436 18.1953C19.7331 18.4924 19.9 18.8954 19.9 19.3156C19.9 19.7358 19.7331 20.1388 19.436 20.4359C19.1388 20.7331 18.7358 20.9 18.3156 20.9C17.8954 20.9 17.4924 20.7331 17.1953 20.4359C16.8982 20.1388 16.7313 19.7358 16.7313 19.3156C16.7313 18.8954 16.8982 18.4924 17.1953 18.1953C17.4924 17.8982 17.8954 17.7312 18.3156 17.7312Z" fill="white"/>
</svg>
