<svg width="28" height="28" viewBox="0 0 28 28" fill="none" xmlns="http://www.w3.org/2000/svg">
<g id="sparkle_7yhk5x0ezgoa 1">
<path id="Vector" d="M22 14.5027C22 14.3126 21.8877 14.1421 21.7091 14.0641L14.8096 10.8623L11.4567 4.27356C11.2889 3.91092 10.7091 3.9067 10.5382 4.27359C10.5382 4.27356 7.18535 10.8623 7.18535 10.8623L0.285781 14.0641C0.112286 14.1421 0 14.3126 0 14.5027C0 14.6879 0.112286 14.8584 0.285781 14.9413L7.18535 18.1431L10.5382 24.7318C10.7097 25.0874 11.2884 25.0913 11.4567 24.7318C11.4567 24.7318 14.8096 18.1431 14.8096 18.1431L21.7091 14.9413C21.8877 14.8584 22 14.6879 22 14.5027Z" fill="url(#paint0_linear_1248_57256)"/>
<path id="Vector_2" d="M16.2758 5.44602L19.1515 6.84377L20.5493 9.71945C20.6294 9.8898 20.8048 10 21.0002 10C21.1905 10 21.3659 9.8898 21.451 9.71945L22.8438 6.84377L25.7194 5.44602C25.8898 5.36585 26 5.19051 26 5.00014C26 4.80475 25.8898 4.62941 25.7194 4.54924L22.8438 3.15149L21.451 0.275813C21.2848 -0.0908557 20.7089 -0.093025 20.5493 0.275833C20.5493 0.275813 19.1515 3.15149 19.1515 3.15149L16.2758 4.54924C15.911 4.70633 15.9051 5.28716 16.2758 5.44602Z" fill="url(#paint1_linear_1248_57256)"/>
<path id="Vector_3" d="M25.7242 22.554L22.8485 21.1562L21.4558 18.2806C21.3706 18.1102 21.1953 18 21.0049 18C20.8095 18 20.6341 18.1102 20.554 18.2806L19.1562 21.1562L16.2806 22.554C16.1102 22.6341 16 22.8095 16 22.9999C16 23.1953 16.1102 23.3706 16.2806 23.4508L19.1562 24.8485L20.554 27.7242C20.7137 28.091 21.2896 28.0928 21.4558 27.7242C21.4558 27.7242 22.8485 24.8485 22.8485 24.8485L25.7242 23.4508C26.089 23.2937 26.0949 22.7128 25.7242 22.554Z" fill="url(#paint2_linear_1248_57256)"/>
</g>
<defs>
<linearGradient id="paint0_linear_1248_57256" x1="8.53453" y1="10.3516" x2="16.1142" y2="21.7872" gradientUnits="userSpaceOnUse">
<stop stop-color="#7D68FB"/>
<stop offset="1" stop-color="#AFA2FB"/>
</linearGradient>
<linearGradient id="paint1_linear_1248_57256" x1="19.8793" y1="3.02457" x2="23.5513" y2="8.31272" gradientUnits="userSpaceOnUse">
<stop stop-color="#7D68FB"/>
<stop offset="1" stop-color="#AFA2FB"/>
</linearGradient>
<linearGradient id="paint2_linear_1248_57256" x1="19.8793" y1="21.0246" x2="23.5513" y2="26.3127" gradientUnits="userSpaceOnUse">
<stop stop-color="#7D68FB"/>
<stop offset="1" stop-color="#AFA2FB"/>
</linearGradient>
</defs>
</svg>
