<svg width="24" height="24" viewBox="0 0 24 24" fill="none" xmlns="http://www.w3.org/2000/svg">
<g id="icons">
<path id="Vector" d="M21.7388 17.1636C21.5716 18.4339 20.9477 19.6 19.9837 20.4439C19.0196 21.2879 17.7813 21.7521 16.5 21.7498C9.05626 21.7498 3.00001 15.6936 3.00001 8.24981C2.99771 6.96852 3.4619 5.73021 4.30588 4.76615C5.14986 3.80209 6.31592 3.17822 7.58626 3.01106C7.9075 2.97184 8.2328 3.03756 8.51362 3.19841C8.79444 3.35926 9.0157 3.60662 9.14438 3.90356L11.1244 8.32387V8.33512C11.2229 8.56242 11.2636 8.81059 11.2428 9.05744C11.222 9.3043 11.1404 9.54217 11.0053 9.74981C10.9884 9.77512 10.9706 9.79856 10.9519 9.822L9.00001 12.1357C9.7022 13.5626 11.1947 15.042 12.6403 15.7461L14.9222 13.8045C14.9446 13.7857 14.9681 13.7681 14.9925 13.752C15.2 13.6136 15.4387 13.5292 15.687 13.5062C15.9353 13.4833 16.1854 13.5227 16.4147 13.6207L16.4269 13.6264L20.8434 15.6054C21.1409 15.7337 21.3889 15.9547 21.5503 16.2356C21.7116 16.5164 21.7778 16.842 21.7388 17.1636Z" fill="#3B3C40"/>
</g>
</svg>
