<svg width="41" height="41" viewBox="0 0 41 41" fill="none" xmlns="http://www.w3.org/2000/svg">
<path d="M32.9359 10.6095C30.7359 10.3863 28.536 10.219 26.3224 10.0935V10.0795L26.0217 8.2664C25.8168 6.98328 25.5162 5.05859 22.3187 5.05859H18.7387C15.5549 5.05859 15.2543 6.8996 15.0357 8.25246L14.7487 10.0377C13.478 10.1214 12.2072 10.205 10.9364 10.3306L8.1489 10.6095C7.575 10.6653 7.16507 11.1813 7.21973 11.7532C7.27439 12.325 7.7663 12.7434 8.3402 12.6876L11.1277 12.4087C18.2878 11.6834 25.5025 11.9624 32.7446 12.7016C32.7855 12.7016 32.8129 12.7016 32.8539 12.7016C33.3731 12.7016 33.824 12.2971 33.8787 11.7532C33.9197 11.1813 33.5098 10.6653 32.9359 10.6095Z" fill="#9293B0"/>
<path d="M30.4212 14.667C30.0932 14.3183 29.6423 14.123 29.1777 14.123H11.9061C11.4415 14.123 10.9769 14.3183 10.6627 14.667C10.3484 15.0157 10.1707 15.4899 10.1981 15.978L11.0452 30.2876C11.1956 32.4076 11.3869 35.0575 16.1557 35.0575H24.9281C29.697 35.0575 29.8883 32.4215 30.0386 30.2876L30.8857 15.9919C30.9131 15.4899 30.7354 15.0157 30.4212 14.667ZM22.8102 28.07H18.26C17.6997 28.07 17.2352 27.5958 17.2352 27.024C17.2352 26.4522 17.6997 25.978 18.26 25.978H22.8102C23.3704 25.978 23.835 26.4522 23.835 27.024C23.835 27.5958 23.3704 28.07 22.8102 28.07ZM23.958 22.4912H17.1258C16.5656 22.4912 16.101 22.017 16.101 21.4452C16.101 20.8734 16.5656 20.3992 17.1258 20.3992H23.958C24.5182 20.3992 24.9828 20.8734 24.9828 21.4452C24.9828 22.017 24.5182 22.4912 23.958 22.4912Z" fill="#9293B0"/>
</svg>
