<svg width="24" height="24" viewBox="0 0 24 24" fill="none" xmlns="http://www.w3.org/2000/svg">
<path d="M7.3957 6.39652C7.09901 6.0996 6.61767 6.0996 6.32099 6.39652C5.21944 7.49807 4.67803 9.03259 4.83537 10.6069C4.87462 10.9991 5.20501 11.2914 5.59085 11.2914C5.61621 11.2914 5.64176 11.2901 5.66711 11.2876C6.08489 11.2458 6.38965 10.8731 6.34787 10.4556C6.23589 9.33682 6.61795 8.24897 7.3957 7.47119C7.69262 7.17455 7.69262 6.69316 7.3957 6.39652Z" fill="#3B3C40"/>
<path d="M10.4046 1.71484C5.61305 1.71484 1.71484 5.61305 1.71484 10.4046C1.71484 15.1962 5.61305 19.0944 10.4046 19.0944C15.1962 19.0944 19.0944 15.1962 19.0944 10.4046C19.0944 5.61305 15.1961 1.71484 10.4046 1.71484ZM10.4046 17.5743C6.45115 17.5743 3.23494 14.3581 3.23494 10.4046C3.23494 6.45115 6.45115 3.23494 10.4046 3.23494C14.3578 3.23494 17.5743 6.45115 17.5743 10.4046C17.5743 14.3581 14.3581 17.5743 10.4046 17.5743Z" fill="#3B3C40"/>
<path d="M22.0626 20.9898L16.5396 15.4668C16.2427 15.1699 15.7618 15.1699 15.4649 15.4668C15.168 15.7635 15.168 16.2449 15.4649 16.5415L20.9878 22.0645C21.0583 22.1352 21.1421 22.1912 21.2343 22.2295C21.3265 22.2677 21.4254 22.2873 21.5252 22.2871C21.7198 22.2871 21.9141 22.2129 22.0626 22.0645C22.3594 21.7678 22.3594 21.2864 22.0626 20.9898Z" fill="#3B3C40"/>
</svg>
